M48
;GenerationSoftware,Autodesk,EAGLE,9.6.0*%
;CreationDate,2024-11-12T11:29:28Z*%
FMAT,2
ICI,OFF
METRIC,TZ,000.000
T7C0.350
T6C0.914
T5C1.000
T4C1.016
T3C2.900
T2C3.200
T1C3.302
%
G90
M71
T1
X88639Y11565
X63595Y81526
X88639Y81526
X63595Y11565
T2
X60578Y27051
X10795Y67691
X60578Y67691
X10795Y27051
T3
X85007Y21388
X82007Y26188
X78907Y21388
T4
X16241Y14700
X28941Y78200
X31481Y75660
X31481Y78200
X34021Y75660
X34021Y78200
X36561Y75660
X36561Y78200
X80232Y82796
X77489Y82796
X74745Y82796
X72002Y82796
X81603Y80256
X78860Y80256
X76117Y80256
X73374Y80256
X70631Y80256
X72002Y10295
X74745Y10295
X77489Y10295
X80232Y10295
X70631Y12835
X73374Y12835
X76117Y12835
X39101Y75660
X78860Y12835
X81603Y12835
X54341Y78200
X54341Y75660
X51801Y78200
X51801Y75660
X49261Y78200
X49261Y75660
X46721Y78200
X46721Y75660
X44181Y78200
X44181Y75660
X41641Y78200
X41641Y75660
X8621Y14700
X8621Y17240
X11161Y14700
X11161Y17240
X13701Y14700
X13701Y17240
X39101Y78200
X16241Y17240
X18781Y14700
X18781Y17240
X21321Y14700
X21321Y17240
X23861Y14700
X23861Y17240
X26401Y14700
X26401Y17240
X28941Y14700
X28941Y17240
X31481Y14700
X31481Y17240
X34021Y14700
X34021Y17240
X36561Y14700
X36561Y17240
X39101Y14700
X39101Y17240
X41641Y14700
X41641Y17240
X44181Y14700
X44181Y17240
X46721Y14700
X46721Y17240
X49261Y14700
X49261Y17240
X51801Y14700
X51801Y17240
X54341Y14700
X54341Y17240
X8621Y75660
X8621Y78200
X11161Y75660
X11161Y78200
X13701Y75660
X13701Y78200
X16241Y75660
X16241Y78200
X18781Y75660
X18781Y78200
X21321Y75660
X21321Y78200
X23861Y75660
X23861Y78200
X26401Y75660
X26401Y78200
X28941Y75660
T5
X44180Y84520
X46720Y3300
X46720Y5840
X46720Y8380
X50530Y3300
X50530Y5840
X50530Y8380
X49260Y84520
X42910Y3300
X42910Y5840
X42910Y8380
X23860Y3300
X23860Y5840
X23860Y8380
X27670Y3300
X27670Y5840
X27670Y8380
X34020Y89600
X34020Y87060
X34020Y84520
X28940Y89600
X28940Y87060
X28940Y84520
X8620Y89600
X8620Y87060
X8620Y84520
X39100Y89600
X39100Y87060
X39100Y84520
X23860Y89600
X23860Y87060
X23860Y84520
X18780Y89600
X18780Y87060
X18780Y84520
X13700Y89600
X13700Y87060
X13700Y84520
X31480Y3300
X31480Y5840
X31480Y8380
X35290Y3300
X35290Y5840
X35290Y8380
X39100Y3300
X39100Y5840
X39100Y8380
X49260Y89600
X49260Y87060
X12430Y3300
X12430Y5840
X12430Y8380
X20050Y3300
X20050Y5840
X20050Y8380
X8620Y3300
X8620Y5840
X8620Y8380
X16240Y3300
X16240Y5840
X16240Y8380
X54340Y89600
X54340Y87060
X54340Y84520
X44180Y89600
X44180Y87060
T6
X76550Y73370
X76550Y70830
X86500Y70830
X86500Y73370
X66600Y70830
X4664Y3354
X2124Y3354
X66600Y73370
T7
X65532Y34417
X72898Y34544
X79502Y33909
X5954Y11265
X47102Y59150
X34148Y61055
X34021Y68040
X76454Y66167
X23495Y79629
X82804Y32766
X83312Y73279
X59309Y19431
X54356Y60325
X50419Y30988
X40513Y22225
X56515Y80137
X55753Y79629
X70485Y41783
X52578Y35179
X36576Y21971
X51689Y33274
X37846Y80137
X79375Y15367
X55245Y55118
X77597Y41529
X53086Y80137
X70485Y50546
X77597Y50419
X56134Y57785
X27178Y80264
X17526Y77089
X20320Y73787
X21082Y73025
X70485Y59817
X26416Y23622
X26416Y22860
X77597Y59817
X84566Y29829
X85545Y60124
X26416Y24384
X46669Y35687
X41081Y35687
X72898Y52705
X65532Y52705
X72898Y43688
X65532Y43688
M30