M48
;GenerationSoftware,Autodesk,EAGLE,9.6.0*%
;CreationDate,2024-11-11T16:36:48Z*%
FMAT,2
ICI,OFF
METRIC,TZ,000.000
T13C0.300
T12C0.350
T11C0.800
T10C0.914
T9C0.950
T8C1.000
T7C1.016
T6C1.200
T5C1.600
T4C1.710
T3C2.800
T2C2.900
T1C3.250
%
G90
M71
T1
X48350Y5685
X61050Y5685
T2
X152440Y84110
X149440Y88910
X146340Y84110
T3
X157200Y92800
X2760Y92710
X2760Y3810
X157200Y3800
T4
X133980Y3680
X143200Y8180
X133980Y8180
X143200Y3680
T5
X62825Y9115
X46575Y9115
T6
X20500Y7500
X23040Y7500
T7
X131530Y62990
X131530Y60450
X134070Y73150
X134070Y70610
X134070Y68070
X134070Y65530
X134070Y62990
X134070Y60450
X75980Y40470
X73440Y40470
X70900Y40470
X68360Y40470
X65820Y40470
X75980Y37930
X73440Y37930
X70900Y37930
X68360Y37930
X65820Y37930
X41270Y25680
X38730Y25680
X41270Y28220
X41270Y30760
X41270Y33300
X41270Y35840
X41270Y38380
X41270Y40920
X38730Y28220
X38730Y33300
X38730Y35840
X38730Y38380
X38730Y40920
X131530Y73150
X131530Y70610
X131530Y68070
X36250Y88480
X33710Y88480
X31170Y88480
X131530Y65530
X38730Y30760
X26090Y88480
X23550Y88480
X36860Y80400
X36860Y77860
X34320Y80400
X31780Y80400
X29240Y80400
X28630Y88480
X24160Y80400
X21620Y80400
X34320Y77860
X31780Y77860
X29240Y77860
X26700Y77860
X24160Y77860
X21620Y77860
X26700Y80400
T8
X5300Y74930
X5300Y77470
X5300Y80010
X5300Y82550
X5300Y85090
X5300Y87630
X7840Y8890
X7840Y11430
X7840Y13970
X7840Y16510
X7840Y19050
X7840Y21590
X7840Y24130
X7840Y26670
X7840Y29210
X7840Y31750
X7840Y34290
X7840Y36830
X7840Y39370
X7840Y41910
X7840Y44450
X7840Y46990
X7840Y49530
X7840Y52070
X7840Y54610
X7840Y57150
X7840Y59690
X7840Y62230
X7840Y64770
X7840Y67310
X7840Y69850
X7840Y72390
X7840Y74930
X7840Y77470
X7840Y80010
X7840Y82550
X7840Y85090
X7840Y87630
X10380Y8890
X10380Y11430
X10380Y13970
X10380Y16510
X10380Y19050
X10380Y21590
X10380Y24130
X10380Y26670
X10380Y29210
X10380Y31750
X10380Y34290
X10380Y36830
X10380Y39370
X10380Y41910
X10380Y44450
X10380Y46990
X10380Y49530
X10380Y52070
X10380Y54610
X10380Y57150
X10380Y59690
X10380Y62230
X10380Y64770
X10380Y67310
X10380Y69850
X10380Y72390
X10380Y74930
X10380Y77470
X10380Y80010
X10380Y82550
X10380Y85090
X10380Y87630
X76250Y11550
X76250Y5050
X71750Y11550
X71750Y5050
X84250Y11550
X84250Y5050
X79750Y11550
X79750Y5050
X92250Y11550
X92250Y5050
X87750Y11550
X87750Y5050
X5300Y8890
X5300Y11430
X5300Y13970
X5300Y16510
X5300Y19050
X5300Y21590
X5300Y24130
X5300Y26670
X5300Y29210
X5300Y31750
X5300Y34290
X5300Y36830
X5300Y39370
X5300Y41910
X5300Y44450
X5300Y46990
X5300Y49530
X5300Y52070
X5300Y54610
X5300Y57150
X5300Y59690
X5300Y62230
X5300Y64770
X5300Y67310
X5300Y69850
X5300Y72390
T9
X127801Y91984
X134601Y91984
T10
X80797Y54610
X78257Y52070
X78257Y54610
X75717Y52070
X75717Y54610
X73177Y52070
X73177Y54610
X70637Y52070
X70637Y54610
X68097Y52070
X68097Y54610
X65557Y52070
X65557Y54610
X63017Y52070
X63017Y54610
X60477Y52070
X60477Y54610
X57937Y52070
X57937Y54610
X55397Y52070
X55397Y54610
X52857Y52070
X52857Y54610
X50317Y52070
X50317Y54610
X47777Y52070
X47777Y54610
X45237Y52070
X45237Y54610
X52857Y82550
X55397Y80010
X52857Y80010
X55397Y82550
X98577Y52070
X98577Y54610
X96037Y52070
X96037Y54610
X93497Y52070
X93497Y54610
X90957Y52070
X90957Y54610
X88417Y52070
X88417Y54610
X85877Y52070
X85877Y54610
X83337Y52070
X57937Y82550
X57937Y80010
X60477Y82550
X60477Y80010
X63017Y82550
X63017Y80010
X65557Y82550
X65557Y80010
X68097Y82550
X68097Y80010
X70637Y82550
X70637Y80010
X73177Y82550
X73177Y80010
X75717Y82550
X75717Y80010
X78257Y82550
X78257Y80010
X80797Y80010
X83337Y82550
X83337Y80010
X85877Y82550
X85877Y80010
X88417Y82550
X88417Y80010
X90957Y82550
X90957Y80010
X93497Y82550
X93497Y80010
X96037Y82550
X96037Y80010
X98577Y82550
X98577Y80010
X101117Y82550
X101117Y80010
X103657Y82550
X103657Y80010
X106197Y82550
X106197Y80010
X108737Y82550
X108737Y80010
X111277Y82550
X111277Y80010
X113817Y82550
X113817Y80010
X80797Y82550
X101117Y54610
X83337Y54610
X80797Y52070
X106197Y52070
X106197Y54610
X103657Y52070
X103657Y54610
X101117Y52070
T11
X52150Y8225
X54190Y8225
X141890Y7620
X135290Y7620
X56230Y8225
X51130Y10005
X57250Y10005
X55210Y10005
X53170Y10005
X58270Y8225
T12
X106700Y21600
X97600Y25400
X98800Y34500
X106800Y36600
X106200Y42500
X106300Y43600
X118400Y24600
X118143Y26957
X127800Y65083
X117300Y27400
X116309Y27400
X126000Y65100
X117500Y93200
X81200Y48700
X78100Y42600
X148700Y41600
X36500Y4400
X26400Y56600
X108600Y25100
X107400Y25100
X105700Y25100
X103300Y25100
X101400Y25100
X100400Y32200
X101400Y36617
X108000Y38800
X112300Y28500
X109200Y44000
X140000Y92700
X121500Y92100
X135000Y82800
X87800Y44700
X108070Y60450
X89400Y92300
X111300Y91800
X60000Y24300
X94000Y22900
X107068Y44117
X83500Y38200
X60000Y15800
X61240Y14500
X61300Y32100
X65000Y32100
X66000Y32100
X22000Y28700
X26400Y28800
X22000Y27569
X22500Y41400
X26400Y41400
X21800Y54000
X22300Y66600
X26400Y65900
X43000Y11100
X42200Y11100
X41400Y11100
X40600Y11100
X39800Y11100
X39000Y11100
X53000Y26400
X92200Y42800
X94700Y49700
X46900Y79200
X84300Y70900
X127100Y33700
X126800Y37200
X108200Y33500
X100700Y31200
X125000Y33700
X124500Y36800
X108400Y32800
X100800Y30300
X88700Y36200
X84000Y14900
X89500Y36900
X90300Y37500
X100300Y90100
X92200Y87300
X124800Y80500
X95000Y70900
X132300Y78700
X139100Y74300
X73700Y30500
X69200Y30500
X72698Y22517
X73300Y23200
X92000Y67500
X62700Y28400
X115400Y27450
X120700Y62100
X27300Y52300
X18400Y61031
X18400Y52800
X18400Y48331
X18400Y40200
X18300Y35531
X18400Y27300
X27300Y50100
X19069Y61040
X19100Y52700
X19080Y48331
X19100Y40200
X19080Y35531
X19100Y27300
X103700Y57500
X105200Y58200
X25100Y65069
X22000Y65900
X25100Y55700
X21169Y53469
X25100Y40500
X129600Y83000
X104400Y45512
X107400Y47200
X117800Y10100
X139800Y65530
X149600Y61000
X148200Y61000
X124900Y63800
X83000Y41300
X94900Y59000
X137800Y11700
X139000Y11700
X104900Y20800
X137200Y11000
X139023Y10700
X103500Y20800
X115400Y33100
X77000Y23400
X61110Y27730
X120440Y9360
X97500Y32700
X97600Y29400
X103900Y36600
X53100Y27400
X112600Y29800
X110100Y19900
X108400Y8860
X100300Y8860
X107700Y45000
X104353Y47047
X130900Y82800
X22000Y40800
T13
X54817Y19300
X58000Y22500
X67300Y16600
X49800Y20500
X53983Y19300
M30