G04 EAGLE Gerber RS-274X export*
G75*
%MOMM*%
%FSLAX34Y34*%
%LPD*%
%INSoldermask Bottom*%
%IPPOS*%
%AMOC8*
5,1,8,0,0,1.08239X$1,22.5*%
G01*
%ADD10C,3.003200*%
%ADD11R,1.003200X0.403200*%
%ADD12R,0.403200X1.003200*%
%ADD13R,2.003200X2.003200*%
%ADD14C,2.003200*%
%ADD15C,5.243200*%
%ADD16C,1.003200*%
%ADD17C,3.281200*%
%ADD18C,1.849119*%
%ADD19P,2.001468X8X202.500000*%
%ADD20P,2.001468X8X22.500000*%
%ADD21P,2.199416X8X22.500000*%
%ADD22C,2.032000*%
%ADD23C,5.423200*%
%ADD24R,1.303200X1.203200*%
%ADD25R,1.203200X1.303200*%
%ADD26P,2.199416X8X292.500000*%
%ADD27P,2.199416X8X112.500000*%
%ADD28C,1.153200*%
%ADD29C,1.643200*%
%ADD30C,3.083200*%
%ADD31C,3.453200*%
%ADD32R,2.363200X2.363200*%
%ADD33C,2.363200*%
%ADD34C,0.705600*%
%ADD35C,0.655600*%


D10*
X1572000Y38000D03*
X1572000Y928000D03*
D11*
X1067900Y461500D03*
X1067900Y457500D03*
D12*
X1064900Y450500D03*
X1060900Y450500D03*
X1056900Y450500D03*
D11*
X1053900Y457500D03*
X1053900Y461500D03*
D12*
X1056900Y468500D03*
X1060900Y468500D03*
X1064900Y468500D03*
D13*
X53000Y88900D03*
D14*
X53000Y114300D03*
X53000Y139700D03*
X53000Y165100D03*
X53000Y190500D03*
X53000Y215900D03*
X53000Y241300D03*
X53000Y266700D03*
X53000Y292100D03*
X53000Y317500D03*
X53000Y342900D03*
X53000Y368300D03*
X53000Y393700D03*
X53000Y419100D03*
X53000Y444500D03*
X53000Y469900D03*
X53000Y495300D03*
X53000Y520700D03*
X53000Y546100D03*
X53000Y571500D03*
X53000Y596900D03*
X53000Y622300D03*
X53000Y647700D03*
X53000Y673100D03*
X53000Y698500D03*
X53000Y723900D03*
X53000Y749300D03*
X53000Y774700D03*
X53000Y800100D03*
X53000Y825500D03*
X53000Y850900D03*
X53000Y876300D03*
X78400Y88900D03*
X78400Y114300D03*
X78400Y139700D03*
X78400Y165100D03*
X78400Y190500D03*
X78400Y215900D03*
X78400Y241300D03*
X78400Y266700D03*
X78400Y292100D03*
X78400Y317500D03*
X78400Y342900D03*
X78400Y368300D03*
X78400Y393700D03*
X78400Y419100D03*
X78400Y444500D03*
X78400Y469900D03*
X78400Y495300D03*
X78400Y520700D03*
X78400Y546100D03*
X78400Y571500D03*
X78400Y596900D03*
X78400Y622300D03*
X78400Y647700D03*
X78400Y673100D03*
X78400Y698500D03*
X78400Y723900D03*
X78400Y749300D03*
X78400Y774700D03*
X78400Y800100D03*
X78400Y825500D03*
X78400Y850900D03*
X78400Y876300D03*
X103800Y88900D03*
X103800Y114300D03*
X103800Y139700D03*
X103800Y165100D03*
X103800Y190500D03*
X103800Y215900D03*
X103800Y241300D03*
X103800Y266700D03*
X103800Y292100D03*
X103800Y317500D03*
X103800Y342900D03*
X103800Y368300D03*
X103800Y393700D03*
X103800Y419100D03*
X103800Y444500D03*
X103800Y469900D03*
X103800Y495300D03*
X103800Y520700D03*
X103800Y546100D03*
X103800Y571500D03*
X103800Y596900D03*
X103800Y622300D03*
X103800Y647700D03*
X103800Y673100D03*
X103800Y698500D03*
X103800Y723900D03*
X103800Y749300D03*
X103800Y774700D03*
X103800Y800100D03*
X103800Y825500D03*
X103800Y850900D03*
X103800Y876300D03*
D15*
X27600Y38100D03*
X27600Y927100D03*
D16*
X1352900Y76200D03*
X1418900Y76200D03*
D17*
X1339800Y81800D03*
X1432000Y81800D03*
X1339800Y36800D03*
X1432000Y36800D03*
D18*
X1061974Y520700D03*
D19*
X1061974Y546100D03*
X1036574Y520700D03*
X1036574Y546100D03*
X1011174Y520700D03*
X1011174Y546100D03*
X985774Y520700D03*
X985774Y546100D03*
X960374Y520700D03*
X960374Y546100D03*
X934974Y520700D03*
X934974Y546100D03*
X909574Y520700D03*
X909574Y546100D03*
X884174Y520700D03*
X884174Y546100D03*
X858774Y520700D03*
X858774Y546100D03*
X833374Y520700D03*
X833374Y546100D03*
X807974Y520700D03*
X807974Y546100D03*
X782574Y520700D03*
X782574Y546100D03*
X757174Y520700D03*
X757174Y546100D03*
X731774Y520700D03*
X731774Y546100D03*
X706374Y520700D03*
X706374Y546100D03*
X680974Y520700D03*
X680974Y546100D03*
X655574Y520700D03*
X655574Y546100D03*
X630174Y520700D03*
X630174Y546100D03*
X604774Y520700D03*
X604774Y546100D03*
X579374Y520700D03*
X579374Y546100D03*
D18*
X553974Y520700D03*
D19*
X553974Y546100D03*
X528574Y520700D03*
X528574Y546100D03*
X503174Y520700D03*
X503174Y546100D03*
X477774Y520700D03*
X477774Y546100D03*
X452374Y520700D03*
X452374Y546100D03*
D18*
X528574Y825500D03*
D20*
X528574Y800100D03*
X553974Y825500D03*
X553974Y800100D03*
X579374Y825500D03*
X579374Y800100D03*
X604774Y825500D03*
X604774Y800100D03*
X630174Y825500D03*
X630174Y800100D03*
X655574Y825500D03*
X655574Y800100D03*
X680974Y825500D03*
X680974Y800100D03*
X706374Y825500D03*
X706374Y800100D03*
X731774Y825500D03*
X731774Y800100D03*
X757174Y825500D03*
X757174Y800100D03*
X782574Y825500D03*
X782574Y800100D03*
X807974Y825500D03*
X807974Y800100D03*
X833374Y825500D03*
X833374Y800100D03*
X858774Y825500D03*
X858774Y800100D03*
X884174Y825500D03*
X884174Y800100D03*
X909574Y825500D03*
X909574Y800100D03*
X934974Y825500D03*
X934974Y800100D03*
X960374Y825500D03*
X960374Y800100D03*
X985774Y825500D03*
X985774Y800100D03*
X1011174Y825500D03*
X1011174Y800100D03*
D18*
X1036574Y825500D03*
D20*
X1036574Y800100D03*
X1061974Y825500D03*
X1061974Y800100D03*
X1087374Y825500D03*
X1087374Y800100D03*
X1112774Y825500D03*
X1112774Y800100D03*
X1138174Y825500D03*
X1138174Y800100D03*
D21*
X216200Y778600D03*
X241600Y778600D03*
X267000Y778600D03*
X292400Y778600D03*
X317800Y778600D03*
X343200Y778600D03*
X216200Y804000D03*
X241600Y804000D03*
X267000Y804000D03*
X292400Y804000D03*
X317800Y804000D03*
X343200Y804000D03*
X368600Y778600D03*
X368600Y804000D03*
D22*
X235500Y875656D02*
X235500Y893944D01*
X260900Y893944D02*
X260900Y875656D01*
X286300Y875656D02*
X286300Y893944D01*
X311700Y893944D02*
X311700Y875656D01*
X337100Y875656D02*
X337100Y893944D01*
X362500Y893944D02*
X362500Y875656D01*
D23*
X1463400Y841100D03*
X1494400Y889100D03*
X1524400Y841100D03*
D24*
X974500Y311000D03*
X957500Y311000D03*
X974500Y281000D03*
X957500Y281000D03*
X1141500Y260000D03*
X1124500Y260000D03*
D25*
X1041000Y378500D03*
X1041000Y395500D03*
D24*
X1141500Y340000D03*
X1124500Y340000D03*
X974500Y349000D03*
X957500Y349000D03*
D25*
X1065000Y378500D03*
X1065000Y395500D03*
D24*
X974500Y242000D03*
X957500Y242000D03*
X1078500Y214000D03*
X1095500Y214000D03*
D26*
X387300Y409200D03*
X387300Y383800D03*
X387300Y358400D03*
X387300Y333000D03*
X387300Y307600D03*
X387300Y282200D03*
X412700Y409200D03*
X412700Y383800D03*
X412700Y358400D03*
X412700Y333000D03*
X412700Y307600D03*
X412700Y282200D03*
X387300Y256800D03*
X412700Y256800D03*
D21*
X658200Y379300D03*
X683600Y379300D03*
X709000Y379300D03*
X734400Y379300D03*
X759800Y379300D03*
X658200Y404700D03*
X683600Y404700D03*
X709000Y404700D03*
X734400Y404700D03*
X759800Y404700D03*
D27*
X1340700Y604500D03*
X1340700Y629900D03*
X1340700Y655300D03*
X1340700Y680700D03*
X1340700Y706100D03*
X1340700Y731500D03*
X1315300Y604500D03*
X1315300Y629900D03*
X1315300Y655300D03*
X1315300Y680700D03*
X1315300Y706100D03*
X1315300Y731500D03*
D25*
X1092000Y469000D03*
X1092000Y452000D03*
X1030200Y452000D03*
X1030200Y469000D03*
D28*
X1346006Y919840D03*
X1278006Y919840D03*
D24*
X1321500Y830000D03*
X1338500Y830000D03*
D29*
X562300Y82250D03*
X521500Y82250D03*
X541900Y82250D03*
X582700Y82250D03*
X511300Y100050D03*
X572500Y100050D03*
X552100Y100050D03*
X531700Y100050D03*
D30*
X465750Y91150D03*
X628250Y91150D03*
D31*
X483500Y56850D03*
X610500Y56850D03*
D24*
X767000Y462500D03*
X767000Y445500D03*
X734000Y445500D03*
X734000Y462500D03*
D25*
X611000Y267500D03*
X611000Y250500D03*
X1286500Y830000D03*
X1269500Y830000D03*
D24*
X1244000Y821500D03*
X1244000Y838500D03*
D25*
X960000Y753500D03*
X960000Y770500D03*
X934000Y753500D03*
X934000Y770500D03*
X908000Y753500D03*
X908000Y770500D03*
D14*
X762500Y115500D03*
X762500Y50500D03*
X717500Y115500D03*
X717500Y50500D03*
X842500Y115500D03*
X842500Y50500D03*
X797500Y115500D03*
X797500Y50500D03*
X922500Y115500D03*
X922500Y50500D03*
X877500Y115500D03*
X877500Y50500D03*
D25*
X731500Y95000D03*
X748500Y95000D03*
X811500Y95000D03*
X828500Y95000D03*
X891500Y95000D03*
X908500Y95000D03*
D32*
X205000Y75000D03*
D33*
X230400Y75000D03*
D25*
X707500Y176000D03*
X690500Y176000D03*
X561500Y179000D03*
X578500Y179000D03*
X514500Y220000D03*
X497500Y220000D03*
X690500Y198000D03*
X707500Y198000D03*
X497500Y242000D03*
X514500Y242000D03*
X578500Y201000D03*
X561500Y201000D03*
X514500Y264000D03*
X497500Y264000D03*
X497500Y286000D03*
X514500Y286000D03*
D24*
X606000Y112500D03*
X606000Y129500D03*
D34*
X1086000Y251000D03*
X1074000Y251000D03*
X1057000Y251000D03*
X1033000Y251000D03*
X1014000Y251000D03*
X1004000Y322000D03*
X1014000Y366170D03*
X1080000Y388000D03*
X1123000Y285000D03*
X1092000Y440000D03*
X1400000Y927000D03*
X1215000Y921000D03*
X1350000Y828000D03*
X878000Y447000D03*
X1080700Y604500D03*
X894000Y923000D03*
X1113000Y918000D03*
X600000Y243000D03*
X940000Y229000D03*
X1070678Y441174D03*
X835000Y382000D03*
X600000Y158000D03*
X612400Y145000D03*
X613000Y321000D03*
X650000Y321000D03*
X660000Y321000D03*
X220000Y287000D03*
X264000Y288000D03*
X220000Y275694D03*
X225000Y414000D03*
X264000Y414000D03*
X218000Y540000D03*
X264000Y566000D03*
X223000Y666000D03*
X264000Y659000D03*
X430000Y111000D03*
X422000Y111000D03*
X414000Y111000D03*
X406000Y111000D03*
X398000Y111000D03*
X390000Y111000D03*
X530000Y264000D03*
X922000Y428000D03*
X947000Y497000D03*
X469000Y792000D03*
X843000Y709000D03*
X950000Y709000D03*
X949000Y590000D03*
X1378000Y117000D03*
X1390000Y117000D03*
X1049000Y208000D03*
X1372000Y110000D03*
X1390230Y107000D03*
X1035000Y208000D03*
X1154000Y331000D03*
X1154000Y274500D03*
X1204400Y93600D03*
X975000Y327000D03*
X976000Y294000D03*
X1039000Y366000D03*
X1126000Y298000D03*
X1101000Y199000D03*
X1084000Y88600D03*
X1003000Y88600D03*
X1077000Y450000D03*
X1043530Y470470D03*
X1067000Y216000D03*
X976000Y254000D03*
X988000Y345000D03*
X1068000Y366000D03*
X1062000Y425000D03*
X1063000Y436000D03*
X1184000Y246000D03*
X1181426Y269574D03*
X1278000Y650830D03*
X1173000Y274000D03*
X1163088Y274000D03*
X1260000Y651000D03*
X1175000Y932000D03*
X812000Y487000D03*
X781000Y426000D03*
X1487000Y416000D03*
X365000Y44000D03*
X1309000Y828000D03*
X611100Y277300D03*
X770000Y234000D03*
X830000Y413000D03*
X1249000Y638000D03*
X1482000Y610000D03*
X1496000Y610000D03*
X1398000Y655300D03*
X1178000Y101000D03*
X1074000Y472000D03*
X1044000Y455118D03*
X220000Y408000D03*
X251000Y405000D03*
X211694Y534694D03*
X251000Y557000D03*
X220000Y659000D03*
X251000Y650694D03*
X1052000Y582000D03*
X1037000Y575000D03*
X191000Y273000D03*
X190802Y355306D03*
X191000Y402000D03*
X190802Y483306D03*
X191000Y527000D03*
X190694Y610398D03*
X273000Y501000D03*
X184000Y273000D03*
X183000Y355306D03*
X184000Y402000D03*
X184000Y483306D03*
X184000Y528000D03*
X184000Y610306D03*
X273000Y523000D03*
X1207000Y621000D03*
X627000Y284000D03*
X920000Y675000D03*
X733000Y232000D03*
X726978Y225170D03*
X692000Y305000D03*
X737000Y305000D03*
X1391000Y743000D03*
X1323000Y787000D03*
X1296000Y830000D03*
X1248000Y805000D03*
X922000Y873000D03*
X1003000Y901000D03*
X903000Y375000D03*
X895000Y369000D03*
X840000Y149000D03*
X887000Y362000D03*
X1008000Y303000D03*
X1084000Y328000D03*
X1245000Y368000D03*
X1250000Y337000D03*
X1007000Y312000D03*
X1082000Y335000D03*
X1268000Y372000D03*
X1271000Y337000D03*
D35*
X673000Y166000D03*
X548167Y193000D03*
X539833Y193000D03*
X498000Y205000D03*
X580000Y225000D03*
D34*
X531000Y274000D03*
M02*
