G04 EAGLE Gerber RS-274X export*
G75*
%MOMM*%
%FSLAX34Y34*%
%LPD*%
%INBottom Copper*%
%IPPOS*%
%AMOC8*
5,1,8,0,0,1.08239X$1,22.5*%
G01*
%ADD10R,1.500000X1.300000*%
%ADD11P,1.649562X8X22.500000*%
%ADD12C,5.000000*%
%ADD13C,1.371600*%
%ADD14P,1.649562X8X202.500000*%
%ADD15C,5.080000*%
%ADD16P,1.623585X8X112.500000*%
%ADD17P,1.623585X8X292.500000*%
%ADD18R,1.300000X1.500000*%
%ADD19C,2.540000*%
%ADD20C,0.609600*%
%ADD21C,1.270000*%
%ADD22C,0.750000*%
%ADD23C,0.304800*%


D10*
X518010Y864110D03*
X518010Y845110D03*
X416410Y864110D03*
X416410Y845110D03*
X111610Y864110D03*
X111610Y845110D03*
X162410Y864110D03*
X162410Y845110D03*
X213210Y864110D03*
X213210Y845110D03*
X264010Y864110D03*
X264010Y845110D03*
X314810Y864110D03*
X314810Y845110D03*
X365610Y864110D03*
X365610Y845110D03*
X467210Y864110D03*
X467210Y845110D03*
X60810Y864110D03*
X60810Y845110D03*
D11*
X86210Y147000D03*
X86210Y172400D03*
X111610Y147000D03*
X111610Y172400D03*
X137010Y147000D03*
X137010Y172400D03*
X162410Y147000D03*
X162410Y172400D03*
X187810Y147000D03*
X187810Y172400D03*
X213210Y147000D03*
X213210Y172400D03*
X238610Y147000D03*
X238610Y172400D03*
X264010Y147000D03*
X264010Y172400D03*
X289410Y147000D03*
X289410Y172400D03*
X314810Y147000D03*
X314810Y172400D03*
X340210Y147000D03*
X340210Y172400D03*
X365610Y147000D03*
X365610Y172400D03*
X391010Y147000D03*
X391010Y172400D03*
X416410Y147000D03*
X416410Y172400D03*
X441810Y147000D03*
X441810Y172400D03*
X467210Y147000D03*
X467210Y172400D03*
X492610Y147000D03*
X492610Y172400D03*
X518010Y147000D03*
X518010Y172400D03*
X543410Y147000D03*
X543410Y172400D03*
X86210Y756600D03*
X86210Y782000D03*
X111610Y756600D03*
X111610Y782000D03*
X137010Y756600D03*
X137010Y782000D03*
X162410Y756600D03*
X162410Y782000D03*
X187810Y756600D03*
X187810Y782000D03*
X213210Y756600D03*
X213210Y782000D03*
X238610Y756600D03*
X238610Y782000D03*
X264010Y756600D03*
X264010Y782000D03*
X289410Y756600D03*
X289410Y782000D03*
X314810Y756600D03*
X314810Y782000D03*
X340210Y756600D03*
X340210Y782000D03*
X365610Y756600D03*
X365610Y782000D03*
X391010Y756600D03*
X391010Y782000D03*
X416410Y756600D03*
X416410Y782000D03*
X441810Y756600D03*
X441810Y782000D03*
X467210Y756600D03*
X467210Y782000D03*
X492610Y756600D03*
X492610Y782000D03*
X518010Y756600D03*
X518010Y782000D03*
X543410Y756600D03*
X543410Y782000D03*
D12*
X789070Y213880D03*
X820070Y261880D03*
X850070Y213880D03*
D13*
X772358Y708300D02*
X758642Y708300D01*
X758642Y733700D02*
X772358Y733700D01*
X858142Y708300D02*
X871858Y708300D01*
X871858Y733700D02*
X858142Y733700D01*
D14*
X816034Y128350D03*
X788602Y128350D03*
X761170Y128350D03*
X733738Y128350D03*
X706306Y128350D03*
X802318Y102950D03*
X774886Y102950D03*
X747454Y102950D03*
X720022Y102950D03*
D15*
X886392Y115650D03*
X635948Y115650D03*
D16*
X429100Y33000D03*
X429100Y58400D03*
X429100Y83800D03*
X238600Y33000D03*
X238600Y58400D03*
X238600Y83800D03*
X276700Y33000D03*
X276700Y58400D03*
X276700Y83800D03*
D17*
X340200Y896000D03*
X340200Y870600D03*
X340200Y845200D03*
X289400Y896000D03*
X289400Y870600D03*
X289400Y845200D03*
X86200Y896000D03*
X86200Y870600D03*
X86200Y845200D03*
X391000Y896000D03*
X391000Y870600D03*
X391000Y845200D03*
X238600Y896000D03*
X238600Y870600D03*
X238600Y845200D03*
X187800Y896000D03*
X187800Y870600D03*
X187800Y845200D03*
X137000Y896000D03*
X137000Y870600D03*
X137000Y845200D03*
D14*
X706306Y802560D03*
X733738Y802560D03*
X761170Y802560D03*
X788602Y802560D03*
X816034Y802560D03*
X720022Y827960D03*
X747454Y827960D03*
X774886Y827960D03*
X802318Y827960D03*
D15*
X886392Y815260D03*
X635948Y815260D03*
D16*
X314800Y33000D03*
X314800Y58400D03*
X314800Y83800D03*
X352900Y33000D03*
X352900Y58400D03*
X352900Y83800D03*
X391000Y33000D03*
X391000Y58400D03*
X391000Y83800D03*
D17*
X492600Y896000D03*
X492600Y870600D03*
X492600Y845200D03*
D16*
X124300Y33000D03*
X124300Y58400D03*
X124300Y83800D03*
X200500Y33000D03*
X200500Y58400D03*
X200500Y83800D03*
X86200Y33000D03*
X86200Y58400D03*
X86200Y83800D03*
X162400Y33000D03*
X162400Y58400D03*
X162400Y83800D03*
D17*
X543400Y896000D03*
X543400Y870600D03*
X543400Y845200D03*
X441800Y896000D03*
X441800Y870600D03*
X441800Y845200D03*
D13*
X46640Y40398D02*
X46640Y26682D01*
X21240Y26682D02*
X21240Y40398D01*
X659142Y733700D02*
X672858Y733700D01*
X672858Y708300D02*
X659142Y708300D01*
D16*
X467200Y33000D03*
X467200Y58400D03*
X467200Y83800D03*
X505300Y33000D03*
X505300Y58400D03*
X505300Y83800D03*
D18*
X671220Y417830D03*
X690220Y417830D03*
X671220Y508000D03*
X690220Y508000D03*
X671220Y598170D03*
X690220Y598170D03*
X743610Y598170D03*
X762610Y598170D03*
X743610Y508000D03*
X762610Y508000D03*
X743610Y417830D03*
X762610Y417830D03*
D10*
X869950Y641960D03*
X869950Y622960D03*
X869950Y340970D03*
X869950Y321970D03*
D19*
X23980Y72738D02*
X23980Y849310D01*
X63718Y33000D02*
X86200Y33000D01*
X52804Y43914D02*
X23980Y72738D01*
X52804Y43914D02*
X63718Y33000D01*
X86200Y33000D02*
X124300Y33000D01*
X162400Y33000D01*
X200500Y33000D01*
X238600Y33000D01*
X276700Y33000D01*
X314800Y33000D01*
X352900Y33000D01*
X391000Y33000D01*
X429100Y33000D01*
X467200Y33000D01*
X505300Y33000D01*
X46640Y33540D02*
X46640Y37750D01*
X52804Y43914D01*
X23980Y849310D02*
X45270Y870600D01*
X60960Y870600D01*
X86200Y870600D01*
X111760Y870600D01*
X137000Y870600D01*
X162560Y870600D01*
X187800Y870600D01*
X210820Y870600D01*
X238600Y870600D01*
X264160Y870600D01*
X289400Y870600D01*
X312420Y870600D01*
X340200Y870600D01*
X364490Y870600D01*
X391000Y870600D01*
X415290Y870600D01*
X441800Y870600D01*
X464820Y870600D01*
X492600Y870600D01*
X516890Y870600D01*
X543400Y870600D01*
D20*
X60810Y870450D02*
X60810Y864110D01*
X60810Y870450D02*
X60960Y870600D01*
X111610Y870450D02*
X111610Y864110D01*
X111610Y870450D02*
X111760Y870600D01*
X162410Y870450D02*
X162410Y864110D01*
X162410Y870450D02*
X162560Y870600D01*
X213210Y868210D02*
X213210Y864110D01*
X213210Y868210D02*
X210820Y870600D01*
X264010Y870450D02*
X264010Y864110D01*
X264010Y870450D02*
X264160Y870600D01*
X314810Y868210D02*
X314810Y864110D01*
X314810Y868210D02*
X312420Y870600D01*
X365610Y869480D02*
X365610Y864110D01*
X365610Y869480D02*
X364490Y870600D01*
X416410Y869480D02*
X416410Y864110D01*
X416410Y869480D02*
X415290Y870600D01*
X467210Y868210D02*
X467210Y864110D01*
X467210Y868210D02*
X464820Y870600D01*
X518010Y869480D02*
X518010Y864110D01*
X518010Y869480D02*
X516890Y870600D01*
D19*
X505300Y33000D02*
X539730Y33000D01*
X635520Y203720D02*
X658380Y203720D01*
X721360Y203720D01*
X778910Y203720D02*
X789070Y213880D01*
X778910Y203720D02*
X721360Y203720D01*
X579120Y72390D02*
X539730Y33000D01*
X579120Y72390D02*
X579120Y147320D01*
X635520Y203720D01*
D21*
X658380Y203720D02*
X704850Y250190D01*
X704850Y417830D01*
X704850Y505460D01*
X704850Y598170D01*
X775970Y258330D02*
X721360Y203720D01*
X775970Y258330D02*
X775970Y415290D01*
X775970Y504190D01*
X775970Y598170D01*
D22*
X704850Y417830D03*
X775970Y415290D03*
X704850Y505460D03*
X775970Y504190D03*
X704850Y598170D03*
X775970Y598170D03*
D20*
X704850Y417830D02*
X690220Y417830D01*
X690220Y508000D02*
X702310Y508000D01*
X704850Y505460D01*
X704850Y598170D02*
X690220Y598170D01*
X762610Y598170D02*
X775970Y598170D01*
X772160Y508000D02*
X762610Y508000D01*
X772160Y508000D02*
X775970Y504190D01*
X773430Y417830D02*
X762610Y417830D01*
X773430Y417830D02*
X775970Y415290D01*
X869950Y321970D02*
X846270Y298290D01*
X845660Y298290D01*
D22*
X845660Y298290D03*
D20*
X869950Y615740D02*
X869950Y622960D01*
X869950Y615740D02*
X855450Y601240D01*
D22*
X855450Y601240D03*
D19*
X85090Y824987D02*
X58397Y824987D01*
X85090Y824987D02*
X110467Y824987D01*
X135232Y824987D01*
X161290Y824987D01*
X186690Y824987D01*
X200764Y824987D01*
X200764Y825241D02*
X214099Y825241D01*
X214353Y824987D02*
X238760Y824987D01*
X263121Y824987D01*
X289560Y824987D01*
X313667Y824987D01*
X340360Y824987D01*
X366753Y824987D01*
X366245Y825114D02*
X391160Y825114D01*
X417426Y825114D01*
X442826Y825114D01*
X469496Y825114D01*
X491490Y825114D01*
X517121Y825114D01*
X549506Y825114D01*
D23*
X58397Y824987D02*
X54460Y821050D01*
X214099Y825241D02*
X214353Y824987D01*
X441810Y826130D02*
X442826Y825114D01*
D19*
X54460Y821050D02*
X54460Y713420D01*
D20*
X200764Y824987D02*
X200764Y825241D01*
D21*
X314810Y826130D02*
X314810Y782000D01*
X314810Y172400D02*
X340210Y172400D01*
X314810Y172400D02*
X314810Y147000D01*
D22*
X340210Y680400D03*
D20*
X338940Y679130D01*
X338940Y670560D01*
X338940Y613090D01*
X341480Y610550D01*
D22*
X341480Y610550D03*
D20*
X360530Y591500D01*
D22*
X471020Y591500D03*
D21*
X168760Y713420D02*
X54460Y713420D01*
X187810Y732470D02*
X187810Y756600D01*
X178520Y723180D02*
X168760Y713420D01*
X178520Y723180D02*
X187810Y732470D01*
D20*
X467210Y827400D02*
X467210Y845110D01*
X467210Y827400D02*
X469496Y825114D01*
D21*
X162410Y201610D02*
X162410Y172400D01*
D19*
X54460Y222250D02*
X54460Y713420D01*
D21*
X54460Y222250D02*
X141770Y222250D01*
X162410Y201610D01*
D22*
X59540Y112649D03*
D20*
X58270Y103759D02*
X59425Y102605D01*
D19*
X58270Y103759D02*
X54460Y107569D01*
X54460Y222250D01*
D20*
X360530Y591500D02*
X471020Y591500D01*
D19*
X467200Y83800D02*
X505300Y83800D01*
X467200Y83800D02*
X429100Y83800D01*
X391000Y83800D01*
X352900Y83800D01*
X314800Y83800D01*
X276700Y83800D01*
X238600Y83800D01*
X200500Y83800D01*
X162400Y83800D01*
X124300Y83800D01*
X86200Y83800D01*
X78229Y83800D01*
X59425Y102605D01*
D21*
X314810Y83810D02*
X314810Y147000D01*
X314810Y83810D02*
X314800Y83800D01*
D20*
X518010Y826003D02*
X518010Y845110D01*
X518010Y826003D02*
X517121Y825114D01*
X492600Y826224D02*
X492600Y845200D01*
X492600Y826224D02*
X491490Y825114D01*
X441800Y826140D02*
X441800Y845200D01*
X441800Y826140D02*
X441810Y826130D01*
X416410Y826130D02*
X416410Y845110D01*
X416410Y826130D02*
X417426Y825114D01*
X391000Y825274D02*
X391000Y845200D01*
X391000Y825274D02*
X391160Y825114D01*
X366753Y824987D02*
X365610Y826130D01*
X340200Y825147D02*
X340200Y845200D01*
X340200Y825147D02*
X340360Y824987D01*
X213210Y837687D02*
X213210Y845110D01*
X213210Y837687D02*
X200764Y825241D01*
X187800Y826097D02*
X187800Y845200D01*
X187800Y826097D02*
X186690Y824987D01*
X162410Y826107D02*
X162410Y845110D01*
X162410Y826107D02*
X161290Y824987D01*
X137000Y826755D02*
X137000Y845200D01*
X137000Y826755D02*
X135232Y824987D01*
X111610Y826130D02*
X111610Y845110D01*
X111610Y826130D02*
X110467Y824987D01*
X86200Y826097D02*
X86200Y845200D01*
X86200Y826097D02*
X85090Y824987D01*
X60810Y827400D02*
X60810Y845110D01*
X60810Y827400D02*
X58397Y824987D01*
X365610Y826130D02*
X365610Y845110D01*
X365610Y825749D02*
X366245Y825114D01*
X365610Y825749D02*
X365610Y845110D01*
D21*
X59540Y112649D02*
X59540Y102720D01*
X59425Y102605D01*
X549506Y839094D02*
X543400Y845200D01*
X549506Y839094D02*
X549506Y825114D01*
X289400Y825147D02*
X289400Y845200D01*
X289400Y825147D02*
X289560Y824987D01*
X314810Y826130D02*
X314810Y845110D01*
X314810Y826130D02*
X313667Y824987D01*
X238600Y825147D02*
X238600Y845200D01*
X238600Y825147D02*
X238760Y824987D01*
X264010Y825876D02*
X264010Y845110D01*
X264010Y825876D02*
X263121Y824987D01*
D19*
X549506Y825114D02*
X569844Y825114D01*
X886392Y815260D02*
X886392Y848428D01*
X646430Y901700D02*
X569844Y825114D01*
X646430Y901700D02*
X681990Y901700D01*
X833120Y901700D01*
X886392Y848428D01*
X886392Y815260D02*
X901700Y799952D01*
X901700Y299060D02*
X901395Y298755D01*
X900760Y299390D02*
X863250Y261880D01*
X820070Y261880D01*
X901700Y642620D02*
X901700Y799952D01*
X901700Y642620D02*
X901700Y299060D01*
X850070Y231880D02*
X820070Y261880D01*
X850070Y231880D02*
X850070Y213880D01*
X886392Y177558D01*
X886392Y115650D01*
D21*
X886392Y79942D01*
X843280Y36830D01*
X739140Y36830D01*
X693420Y82550D01*
X693420Y115464D01*
X706306Y128350D01*
X681990Y826876D02*
X681990Y901700D01*
X681990Y826876D02*
X706306Y802560D01*
D20*
X231140Y670560D02*
X178520Y723180D01*
X231140Y670560D02*
X338940Y670560D01*
D21*
X805180Y734048D02*
X886392Y815260D01*
X805180Y734048D02*
X805180Y702310D01*
X764540Y661670D01*
X655320Y618490D02*
X655320Y598170D01*
X655320Y527050D01*
X655320Y508000D01*
X655320Y436880D01*
X655320Y417830D01*
X655320Y344170D01*
X728980Y661670D02*
X764540Y661670D01*
X728980Y661670D02*
X698500Y661670D01*
X655320Y618490D01*
X728980Y599440D02*
X728980Y661670D01*
X728980Y599440D02*
X728980Y527050D01*
X728980Y508000D01*
X728980Y436880D01*
X728980Y417830D01*
X728980Y345440D01*
D20*
X820070Y265690D02*
X820070Y261880D01*
X820070Y265690D02*
X795020Y290740D01*
X795020Y339090D01*
D22*
X795020Y339090D03*
X728980Y345440D03*
X655320Y344170D03*
X655320Y436880D03*
X728980Y436880D03*
X655320Y527050D03*
X728980Y527050D03*
X764540Y661670D03*
D20*
X671220Y417830D02*
X655320Y417830D01*
X655320Y508000D02*
X671220Y508000D01*
X671220Y598170D02*
X655320Y598170D01*
X730250Y598170D02*
X743610Y598170D01*
X730250Y598170D02*
X728980Y599440D01*
X728980Y508000D02*
X743610Y508000D01*
X743610Y417830D02*
X728980Y417830D01*
X898220Y324790D02*
X898220Y301930D01*
X898220Y324790D02*
X882040Y340970D01*
X869950Y340970D01*
X900760Y299390D02*
X901395Y298755D01*
X900760Y299390D02*
X898220Y301930D01*
X901040Y641960D02*
X869950Y641960D01*
X901040Y641960D02*
X901700Y642620D01*
D22*
X410810Y356870D03*
D20*
X466690Y356870D01*
D22*
X466690Y356870D03*
D20*
X264010Y244960D02*
X264010Y172400D01*
X264160Y244810D02*
X264010Y244960D01*
X264160Y244810D02*
X264160Y243840D01*
D22*
X264160Y228600D03*
D20*
X264160Y236220D02*
X264160Y243840D01*
X264160Y236220D02*
X264160Y228600D01*
D22*
X264160Y236220D03*
X264160Y243840D03*
D23*
X353060Y769450D02*
X365610Y782000D01*
X353060Y769450D02*
X353060Y750570D01*
X332740Y730250D01*
D22*
X210820Y730250D03*
D23*
X332740Y730250D01*
X289410Y756600D02*
X270680Y737870D01*
X203200Y737870D01*
D22*
X203200Y737870D03*
D23*
X250990Y769620D02*
X264010Y756600D01*
X176530Y769620D02*
X175260Y770890D01*
X176530Y769620D02*
X250990Y769620D01*
D22*
X175260Y770890D03*
D23*
X149860Y769450D02*
X137010Y756600D01*
D22*
X234950Y796290D03*
D23*
X159817Y796290D02*
X149860Y786333D01*
X159817Y796290D02*
X234950Y796290D01*
X149860Y786333D02*
X149860Y769450D01*
X124460Y769450D02*
X111610Y756600D01*
X124460Y769450D02*
X124460Y788670D01*
X139700Y803910D01*
D22*
X271780Y802640D03*
D23*
X270510Y803910D02*
X139700Y803910D01*
X270510Y803910D02*
X271780Y802640D01*
X741680Y732120D02*
X765500Y708300D01*
X741680Y783070D02*
X761170Y802560D01*
X741680Y783070D02*
X741680Y732120D01*
X765500Y733700D02*
X765500Y779458D01*
X788602Y802560D01*
D22*
X561340Y577850D03*
D23*
X561340Y671830D01*
X623210Y733700D02*
X666000Y733700D01*
X623210Y733700D02*
X561340Y671830D01*
X666000Y733700D02*
X679090Y733700D01*
X733738Y788348D02*
X733738Y802560D01*
X733738Y788348D02*
X679090Y733700D01*
D22*
X552450Y551180D03*
D23*
X552450Y676910D01*
X720022Y793682D02*
X720022Y827960D01*
X660400Y784860D02*
X552450Y676910D01*
X660400Y784860D02*
X711200Y784860D01*
X720022Y793682D01*
D22*
X793750Y153670D03*
D23*
X759058Y153670D01*
X733738Y128350D01*
X378460Y750570D02*
X378460Y801370D01*
D22*
X378460Y801370D03*
D23*
X378460Y750570D02*
X394970Y734060D01*
X420370Y734060D01*
X481330Y673100D01*
X481330Y347980D01*
X353060Y159850D02*
X340210Y147000D01*
X353060Y219710D02*
X481330Y347980D01*
X353060Y219710D02*
X353060Y159850D01*
D22*
X516890Y332740D03*
X530860Y801370D03*
D23*
X516890Y723900D02*
X516890Y332740D01*
X530860Y737870D02*
X530860Y801370D01*
X530860Y737870D02*
X516890Y723900D01*
D22*
X525780Y351790D03*
X557530Y796290D03*
D23*
X557530Y751840D01*
X525780Y720090D01*
X525780Y351790D01*
X416410Y210500D02*
X416410Y172400D01*
X416410Y210500D02*
X534670Y328760D01*
D22*
X565150Y801370D03*
D23*
X565150Y746760D01*
X534670Y716280D01*
X534670Y328760D01*
X499110Y699300D02*
X441810Y756600D01*
X499110Y316230D02*
X405130Y222250D01*
D22*
X405130Y222250D03*
D23*
X499110Y316230D02*
X499110Y699300D01*
X490220Y682790D02*
X416410Y756600D01*
X490220Y344170D02*
X365760Y219710D01*
D22*
X365760Y219710D03*
D23*
X490220Y344170D02*
X490220Y682790D01*
X508000Y715810D02*
X467210Y756600D01*
D22*
X504190Y309880D03*
D23*
X508000Y313690D02*
X508000Y715810D01*
X508000Y313690D02*
X504190Y309880D01*
D22*
X543560Y603250D03*
D23*
X543560Y243840D02*
X593090Y194310D01*
D22*
X593090Y194310D03*
D23*
X543560Y243840D02*
X543560Y603250D01*
D22*
X833120Y732790D03*
D23*
X833120Y332740D01*
X828040Y327660D01*
D22*
X828040Y327660D03*
M02*
