G04 EAGLE Gerber RS-274X export*
G75*
%MOMM*%
%FSLAX34Y34*%
%LPD*%
%INTop Copper*%
%IPPOS*%
%AMOC8*
5,1,8,0,0,1.08239X$1,22.5*%
G01*
%ADD10R,1.500000X1.300000*%
%ADD11R,1.300000X1.500000*%
%ADD12P,1.649562X8X22.500000*%
%ADD13R,0.304800X0.990600*%
%ADD14C,5.000000*%
%ADD15C,1.371600*%
%ADD16P,1.649562X8X202.500000*%
%ADD17C,5.080000*%
%ADD18P,1.623585X8X112.500000*%
%ADD19P,1.623585X8X292.500000*%
%ADD20R,1.000000X0.700000*%
%ADD21R,1.200000X2.000000*%
%ADD22R,2.000000X1.200000*%
%ADD23C,1.270000*%
%ADD24C,0.609600*%
%ADD25C,0.750000*%
%ADD26C,0.304800*%


D10*
X55960Y174280D03*
X55960Y155280D03*
D11*
X392890Y564830D03*
X373890Y564830D03*
X458930Y564830D03*
X439930Y564830D03*
D10*
X359260Y628940D03*
X359260Y609940D03*
X471020Y609940D03*
X471020Y628940D03*
X359260Y702600D03*
X359260Y683600D03*
D12*
X86210Y147000D03*
X86210Y172400D03*
X111610Y147000D03*
X111610Y172400D03*
X137010Y147000D03*
X137010Y172400D03*
X162410Y147000D03*
X162410Y172400D03*
X187810Y147000D03*
X187810Y172400D03*
X213210Y147000D03*
X213210Y172400D03*
X238610Y147000D03*
X238610Y172400D03*
X264010Y147000D03*
X264010Y172400D03*
X289410Y147000D03*
X289410Y172400D03*
X314810Y147000D03*
X314810Y172400D03*
X340210Y147000D03*
X340210Y172400D03*
X365610Y147000D03*
X365610Y172400D03*
X391010Y147000D03*
X391010Y172400D03*
X416410Y147000D03*
X416410Y172400D03*
X441810Y147000D03*
X441810Y172400D03*
X467210Y147000D03*
X467210Y172400D03*
X492610Y147000D03*
X492610Y172400D03*
X518010Y147000D03*
X518010Y172400D03*
X543410Y147000D03*
X543410Y172400D03*
X86210Y756600D03*
X86210Y782000D03*
X111610Y756600D03*
X111610Y782000D03*
X137010Y756600D03*
X137010Y782000D03*
X162410Y756600D03*
X162410Y782000D03*
X187810Y756600D03*
X187810Y782000D03*
X213210Y756600D03*
X213210Y782000D03*
X238610Y756600D03*
X238610Y782000D03*
X264010Y756600D03*
X264010Y782000D03*
X289410Y756600D03*
X289410Y782000D03*
X314810Y756600D03*
X314810Y782000D03*
X340210Y756600D03*
X340210Y782000D03*
X365610Y756600D03*
X365610Y782000D03*
X391010Y756600D03*
X391010Y782000D03*
X416410Y756600D03*
X416410Y782000D03*
X441810Y756600D03*
X441810Y782000D03*
X467210Y756600D03*
X467210Y782000D03*
X492610Y756600D03*
X492610Y782000D03*
X518010Y756600D03*
X518010Y782000D03*
X543410Y756600D03*
X543410Y782000D03*
D13*
X393660Y625822D03*
X400160Y625822D03*
X406660Y625822D03*
X413160Y625822D03*
X419660Y625822D03*
X426160Y625822D03*
X432660Y625822D03*
X439160Y625822D03*
X439160Y684178D03*
X432660Y684178D03*
X426160Y684178D03*
X419660Y684178D03*
X413160Y684178D03*
X406660Y684178D03*
X400160Y684178D03*
X393660Y684178D03*
D14*
X789070Y213880D03*
X820070Y261880D03*
X850070Y213880D03*
D15*
X772358Y708300D02*
X758642Y708300D01*
X758642Y733700D02*
X772358Y733700D01*
X858142Y708300D02*
X871858Y708300D01*
X871858Y733700D02*
X858142Y733700D01*
D16*
X816034Y128350D03*
X788602Y128350D03*
X761170Y128350D03*
X733738Y128350D03*
X706306Y128350D03*
X802318Y102950D03*
X774886Y102950D03*
X747454Y102950D03*
X720022Y102950D03*
D17*
X886392Y115650D03*
X635948Y115650D03*
D18*
X429100Y33000D03*
X429100Y58400D03*
X429100Y83800D03*
X238600Y33000D03*
X238600Y58400D03*
X238600Y83800D03*
X276700Y33000D03*
X276700Y58400D03*
X276700Y83800D03*
D19*
X340200Y896000D03*
X340200Y870600D03*
X340200Y845200D03*
X289400Y896000D03*
X289400Y870600D03*
X289400Y845200D03*
X86200Y896000D03*
X86200Y870600D03*
X86200Y845200D03*
X391000Y896000D03*
X391000Y870600D03*
X391000Y845200D03*
X238600Y896000D03*
X238600Y870600D03*
X238600Y845200D03*
X187800Y896000D03*
X187800Y870600D03*
X187800Y845200D03*
X137000Y896000D03*
X137000Y870600D03*
X137000Y845200D03*
D16*
X706306Y802560D03*
X733738Y802560D03*
X761170Y802560D03*
X788602Y802560D03*
X816034Y802560D03*
X720022Y827960D03*
X747454Y827960D03*
X774886Y827960D03*
X802318Y827960D03*
D17*
X886392Y815260D03*
X635948Y815260D03*
D18*
X314800Y33000D03*
X314800Y58400D03*
X314800Y83800D03*
X352900Y33000D03*
X352900Y58400D03*
X352900Y83800D03*
X391000Y33000D03*
X391000Y58400D03*
X391000Y83800D03*
D19*
X492600Y896000D03*
X492600Y870600D03*
X492600Y845200D03*
D18*
X124300Y33000D03*
X124300Y58400D03*
X124300Y83800D03*
X200500Y33000D03*
X200500Y58400D03*
X200500Y83800D03*
X86200Y33000D03*
X86200Y58400D03*
X86200Y83800D03*
X162400Y33000D03*
X162400Y58400D03*
X162400Y83800D03*
D19*
X543400Y896000D03*
X543400Y870600D03*
X543400Y845200D03*
X441800Y896000D03*
X441800Y870600D03*
X441800Y845200D03*
D20*
X504740Y443520D03*
X504740Y424520D03*
X528740Y434020D03*
X418380Y443520D03*
X418380Y424520D03*
X442380Y434020D03*
D11*
X504880Y384490D03*
X485880Y384490D03*
X419560Y384490D03*
X400560Y384490D03*
D15*
X46640Y40398D02*
X46640Y26682D01*
X21240Y26682D02*
X21240Y40398D01*
X659142Y733700D02*
X672858Y733700D01*
X672858Y708300D02*
X659142Y708300D01*
D18*
X467200Y33000D03*
X467200Y58400D03*
X467200Y83800D03*
X505300Y33000D03*
X505300Y58400D03*
X505300Y83800D03*
D21*
X760950Y508300D03*
X727950Y508300D03*
X760950Y454300D03*
X727950Y454300D03*
X760950Y598300D03*
X727950Y598300D03*
X760950Y544300D03*
X727950Y544300D03*
X690950Y418300D03*
X657950Y418300D03*
X690950Y364300D03*
X657950Y364300D03*
X690950Y508300D03*
X657950Y508300D03*
X690950Y454300D03*
X657950Y454300D03*
X760950Y418300D03*
X727950Y418300D03*
X760950Y364300D03*
X727950Y364300D03*
X690950Y598300D03*
X657950Y598300D03*
X690950Y544300D03*
X657950Y544300D03*
D22*
X870280Y616070D03*
X870280Y649070D03*
X816280Y616070D03*
X816280Y649070D03*
X870280Y314800D03*
X870280Y347800D03*
X816280Y314800D03*
X816280Y347800D03*
D23*
X137010Y187440D02*
X137010Y172400D01*
X137010Y187440D02*
X121250Y203200D01*
X75530Y203200D01*
X55960Y183630D02*
X55960Y174280D01*
X55960Y183630D02*
X75530Y203200D01*
X21240Y148910D02*
X21240Y33540D01*
X54230Y176010D02*
X54230Y181900D01*
X54230Y176010D02*
X55960Y174280D01*
X54230Y181900D02*
X21240Y148910D01*
D24*
X783590Y219360D02*
X789070Y213880D01*
X783590Y219360D02*
X783590Y271780D01*
X810100Y298290D02*
X845660Y298290D01*
X810100Y298290D02*
X783590Y271780D01*
X853770Y298290D02*
X870280Y314800D01*
X853770Y298290D02*
X845660Y298290D01*
X704380Y418300D02*
X690950Y418300D01*
X704380Y418300D02*
X704850Y417830D01*
D25*
X704850Y417830D03*
D24*
X760950Y418300D02*
X772960Y418300D01*
X775970Y415290D01*
D25*
X775970Y415290D03*
D24*
X702010Y508300D02*
X690950Y508300D01*
X702010Y508300D02*
X704850Y505460D01*
D25*
X704850Y505460D03*
D24*
X760950Y508300D02*
X771860Y508300D01*
X775970Y504190D01*
D25*
X775970Y504190D03*
D24*
X704720Y598300D02*
X690950Y598300D01*
X704720Y598300D02*
X704850Y598170D01*
D25*
X704850Y598170D03*
D24*
X760950Y598300D02*
X775840Y598300D01*
X775970Y598170D01*
D25*
X775970Y598170D03*
D24*
X852380Y598170D01*
X855450Y601240D01*
X870280Y616070D01*
D25*
X845660Y298290D03*
X855450Y601240D03*
D26*
X406660Y675730D02*
X406660Y684178D01*
X406660Y675730D02*
X403710Y672780D01*
X385930Y672780D01*
X375110Y683600D01*
X359260Y683600D01*
X393660Y625822D02*
X393660Y615740D01*
X387860Y609940D02*
X359260Y609940D01*
X387860Y609940D02*
X393660Y615740D01*
D24*
X359260Y683600D02*
X343410Y683600D01*
X340210Y680400D01*
D25*
X340210Y680400D03*
X341480Y610550D03*
D26*
X358650Y610550D01*
X359260Y609940D01*
D25*
X471020Y591500D03*
D26*
X471020Y609940D01*
D23*
X55960Y155280D02*
X55730Y155050D01*
X55730Y116459D01*
X59540Y112649D01*
D25*
X59540Y112649D03*
X795020Y339090D03*
D24*
X803730Y347800D01*
X816280Y347800D01*
X728980Y363270D02*
X727950Y364300D01*
X728980Y363270D02*
X728980Y345440D01*
D25*
X728980Y345440D03*
D24*
X657950Y346800D02*
X657950Y364300D01*
X657950Y346800D02*
X655320Y344170D01*
D25*
X655320Y344170D03*
D24*
X657950Y439510D02*
X657950Y454300D01*
X657950Y439510D02*
X655320Y436880D01*
D25*
X655320Y436880D03*
D24*
X727950Y437910D02*
X727950Y454300D01*
X727950Y437910D02*
X728980Y436880D01*
D25*
X728980Y436880D03*
D24*
X657950Y529680D02*
X657950Y544300D01*
X657950Y529680D02*
X655320Y527050D01*
D25*
X655320Y527050D03*
D24*
X727950Y528080D02*
X727950Y544300D01*
X727950Y528080D02*
X728980Y527050D01*
D25*
X728980Y527050D03*
D24*
X796190Y649070D02*
X816280Y649070D01*
X796190Y649070D02*
X783590Y661670D01*
X764540Y661670D01*
D25*
X764540Y661670D03*
D26*
X393660Y702600D02*
X359260Y702600D01*
X419660Y696200D02*
X419660Y684178D01*
X413260Y702600D02*
X400160Y702600D01*
X396240Y702600D02*
X393660Y702600D01*
X413260Y702600D02*
X419660Y696200D01*
D24*
X359260Y702600D02*
X338940Y702600D01*
X314810Y678470D01*
X485880Y430670D02*
X485880Y384490D01*
X498730Y443520D02*
X504740Y443520D01*
X498730Y443520D02*
X485880Y430670D01*
X400560Y434250D02*
X400560Y384490D01*
X409830Y443520D02*
X418380Y443520D01*
X409830Y443520D02*
X400560Y434250D01*
X400560Y384490D02*
X400560Y367120D01*
X410810Y356870D01*
D25*
X410810Y356870D03*
X466690Y356870D03*
D24*
X476850Y356870D02*
X485880Y365900D01*
X476850Y356870D02*
X466690Y356870D01*
X485880Y365900D02*
X485880Y384490D01*
D25*
X264160Y228600D03*
D24*
X264160Y243840D02*
X264160Y283210D01*
X264160Y243840D02*
X264160Y236220D01*
X264160Y228600D01*
X264160Y283210D02*
X314810Y333860D01*
X314810Y383540D01*
X314810Y678470D01*
X315760Y384490D02*
X314810Y383540D01*
X315760Y384490D02*
X400560Y384490D01*
D25*
X264160Y236220D03*
X264160Y243840D03*
D26*
X393660Y684178D02*
X393660Y702600D01*
X400160Y702600D02*
X400160Y684178D01*
X400160Y702600D02*
X396240Y702600D01*
X371350Y641030D02*
X359260Y628940D01*
X371350Y641030D02*
X401170Y641030D01*
X406660Y635540D01*
X406660Y625822D01*
X432660Y625822D02*
X432660Y618430D01*
X435460Y615630D01*
X449430Y615630D01*
X462740Y628940D01*
X471020Y628940D01*
X400160Y625822D02*
X400160Y610810D01*
X373890Y584540D02*
X373890Y564830D01*
X373890Y584540D02*
X400160Y610810D01*
X413160Y613650D02*
X413160Y625822D01*
X392890Y593380D02*
X392890Y564830D01*
X392890Y593380D02*
X413160Y613650D01*
X419660Y608570D02*
X419660Y625822D01*
X439930Y588300D02*
X439930Y564830D01*
X439930Y588300D02*
X419660Y608570D01*
X426160Y612230D02*
X426160Y625822D01*
X458930Y579460D02*
X458930Y564830D01*
X458930Y579460D02*
X426160Y612230D01*
X426160Y684178D02*
X426160Y699860D01*
X398630Y727390D02*
X366880Y727390D01*
X340210Y754060D01*
X340210Y756600D01*
X398630Y727390D02*
X426160Y699860D01*
X439160Y700610D02*
X439160Y684178D01*
X492610Y754060D02*
X492610Y756600D01*
X492610Y754060D02*
X439160Y700610D01*
X365610Y149110D02*
X365610Y147000D01*
X528740Y365580D02*
X528740Y434020D01*
X378298Y161798D02*
X365610Y149110D01*
X378298Y161798D02*
X378298Y215138D01*
X528740Y365580D01*
X320320Y213040D02*
X279250Y213040D01*
X238610Y172400D01*
X320320Y213040D02*
X442380Y335100D01*
X442380Y434020D01*
D25*
X210820Y730250D03*
D26*
X143510Y730250D01*
X124460Y802640D02*
X101600Y825500D01*
X101600Y880600D01*
X86200Y896000D01*
X124460Y749300D02*
X143510Y730250D01*
X124460Y749300D02*
X124460Y802640D01*
D25*
X203200Y737870D03*
D26*
X158750Y737870D01*
X149860Y883140D02*
X137000Y896000D01*
X149860Y746760D02*
X158750Y737870D01*
X149860Y746760D02*
X149860Y883140D01*
X175260Y883460D02*
X187800Y896000D01*
D25*
X175260Y770890D03*
D26*
X175260Y883460D01*
X226060Y769150D02*
X238610Y756600D01*
X226060Y883460D02*
X238600Y896000D01*
X226060Y883460D02*
X226060Y769150D01*
D25*
X234950Y796290D03*
D26*
X273050Y834390D01*
X273050Y879650D02*
X289400Y896000D01*
X273050Y879650D02*
X273050Y834390D01*
D25*
X271780Y802640D03*
D26*
X326390Y857250D01*
X326390Y882190D02*
X340200Y896000D01*
X326390Y882190D02*
X326390Y857250D01*
X413160Y684178D02*
X413160Y676558D01*
X419478Y670240D01*
X528000Y670240D01*
X579120Y721360D01*
X752440Y721360D02*
X765500Y708300D01*
X752440Y721360D02*
X579120Y721360D01*
X765500Y733700D02*
X801730Y733700D01*
X842010Y693420D02*
X873760Y693420D01*
X902970Y664210D01*
X842010Y693420D02*
X801730Y733700D01*
X806302Y146050D02*
X788602Y128350D01*
X902970Y193040D02*
X902970Y664210D01*
X902970Y193040D02*
X855980Y146050D01*
X806302Y146050D01*
X418380Y385670D02*
X418380Y424520D01*
X418380Y385670D02*
X419560Y384490D01*
X418380Y424520D02*
X431800Y437940D01*
X431800Y448310D01*
D25*
X561340Y577850D03*
D26*
X431800Y448310D01*
X504740Y424520D02*
X504740Y385270D01*
X504880Y384490D01*
X504740Y424520D02*
X520700Y440480D01*
X520700Y519430D02*
X552450Y551180D01*
D25*
X552450Y551180D03*
D26*
X520700Y519430D02*
X520700Y440480D01*
X720022Y827960D02*
X736612Y844550D01*
X820420Y844550D02*
X842010Y822960D01*
X842010Y756690D01*
X865000Y733700D01*
X820420Y844550D02*
X736612Y844550D01*
X872620Y708300D02*
X911860Y669060D01*
X872620Y708300D02*
X865000Y708300D01*
X844550Y123190D02*
X844550Y83820D01*
X831850Y71120D01*
X744220Y71120D01*
X720022Y95318D01*
X720022Y102950D01*
X911860Y190500D02*
X911860Y669060D01*
X911860Y190500D02*
X844550Y123190D01*
X688500Y685800D02*
X666000Y708300D01*
X688500Y685800D02*
X867410Y685800D01*
X894080Y659130D01*
X894080Y195438D01*
X852312Y153670D02*
X793750Y153670D01*
D25*
X793750Y153670D03*
D26*
X852312Y153670D02*
X894080Y195438D01*
D25*
X378460Y801370D03*
D26*
X378460Y883460D01*
X391000Y896000D01*
X482450Y298300D02*
X482450Y182560D01*
X492610Y172400D01*
D25*
X516890Y332740D03*
X530860Y801370D03*
D26*
X508000Y824230D02*
X477520Y824230D01*
X516890Y332740D02*
X482450Y298300D01*
X530860Y801370D02*
X508000Y824230D01*
X477520Y824230D02*
X467360Y834390D01*
X467360Y870440D02*
X441800Y896000D01*
X467360Y870440D02*
X467360Y834390D01*
X441810Y267820D02*
X441810Y172400D01*
D25*
X525780Y351790D03*
X557530Y796290D03*
D26*
X557530Y802640D01*
X511810Y876790D02*
X492600Y896000D01*
X525780Y351790D02*
X441810Y267820D01*
X557530Y802640D02*
X511810Y848360D01*
X511810Y876790D01*
D25*
X565150Y801370D03*
D26*
X565150Y877570D01*
X546720Y896000D01*
X543400Y896000D01*
X111610Y172400D02*
X124460Y159550D01*
X167640Y106680D02*
X179070Y95250D01*
X179070Y79830D01*
X200500Y58400D01*
X124460Y128270D02*
X124460Y159550D01*
X124460Y128270D02*
X146050Y106680D01*
X167640Y106680D01*
X99060Y159550D02*
X86210Y172400D01*
X99060Y124460D02*
X107950Y115570D01*
X107950Y74750D01*
X124300Y58400D01*
X99060Y124460D02*
X99060Y159550D01*
X111610Y147000D02*
X111610Y122070D01*
X144780Y88900D02*
X144780Y67310D01*
X153690Y58400D01*
X162400Y58400D01*
X144780Y88900D02*
X111610Y122070D01*
X99060Y113830D02*
X86210Y126680D01*
X86210Y147000D01*
X99060Y71260D02*
X86200Y58400D01*
X99060Y71260D02*
X99060Y113830D01*
X99060Y769450D02*
X111610Y782000D01*
X231140Y106680D02*
X246380Y106680D01*
X257810Y95250D01*
X257810Y76200D01*
X275610Y58400D01*
X276700Y58400D01*
X231140Y106680D02*
X200660Y137160D01*
X99060Y749300D02*
X99060Y769450D01*
X99060Y749300D02*
X110490Y737870D01*
X124460Y737870D01*
X200660Y661670D01*
X200660Y137160D01*
X193040Y106680D02*
X210820Y106680D01*
X219710Y97790D01*
X219710Y74930D01*
X236240Y58400D01*
X238600Y58400D01*
X193040Y106680D02*
X175260Y124460D01*
X72390Y768180D02*
X86210Y782000D01*
X72390Y768180D02*
X72390Y750570D01*
X96520Y726440D01*
X124460Y726440D01*
X175260Y675640D01*
X175260Y124460D01*
D25*
X405130Y222250D03*
D26*
X403860Y220980D01*
X403860Y71260D01*
X391000Y58400D01*
D25*
X365760Y219710D03*
D26*
X353672Y142055D02*
X354330Y141397D01*
X354330Y110490D01*
X353672Y207622D02*
X365760Y219710D01*
X353672Y207622D02*
X353672Y142055D01*
X354330Y110490D02*
X336550Y92710D01*
X336550Y74750D02*
X352900Y58400D01*
X336550Y74750D02*
X336550Y92710D01*
X226060Y667850D02*
X314810Y756600D01*
X281940Y106680D02*
X256540Y106680D01*
X281940Y106680D02*
X295910Y92710D01*
X295910Y74930D01*
X312440Y58400D01*
X314800Y58400D01*
X226060Y137160D02*
X226060Y667850D01*
X226060Y137160D02*
X256540Y106680D01*
X454660Y159850D02*
X467210Y172400D01*
X454660Y83960D02*
X429100Y58400D01*
X454660Y83960D02*
X454660Y159850D01*
X518010Y172400D02*
X530860Y159550D01*
X530860Y83960D02*
X505300Y58400D01*
X530860Y83960D02*
X530860Y159550D01*
D25*
X504190Y309880D03*
D26*
X505460Y308610D01*
X505460Y118110D01*
X485140Y97790D01*
X485140Y76340D02*
X467200Y58400D01*
X485140Y76340D02*
X485140Y97790D01*
X439160Y625822D02*
X439160Y633470D01*
X448310Y642620D01*
X487680Y642620D01*
D25*
X543560Y603250D03*
D26*
X527050Y603250D01*
X487680Y642620D01*
D25*
X593090Y194310D03*
D26*
X632460Y154940D01*
X734580Y154940D02*
X761170Y128350D01*
X734580Y154940D02*
X632460Y154940D01*
X727950Y418300D02*
X760950Y451300D01*
X760950Y454300D01*
X727950Y508300D02*
X760950Y541300D01*
X760950Y544300D01*
X715010Y388360D02*
X690950Y364300D01*
X715010Y585360D02*
X727950Y598300D01*
X715010Y585360D02*
X715010Y388360D01*
X657950Y418300D02*
X690950Y451300D01*
X690950Y454300D01*
X657950Y508300D02*
X690950Y541300D01*
X690950Y544300D01*
X675720Y616070D02*
X816280Y616070D01*
X675720Y616070D02*
X657950Y598300D01*
X760950Y364300D02*
X847430Y364300D01*
X870280Y347800D01*
X404030Y769620D02*
X391010Y756600D01*
X796290Y769620D02*
X833120Y732790D01*
D25*
X833120Y732790D03*
X828040Y327660D03*
D26*
X828040Y326560D01*
X816280Y314800D01*
X796290Y769620D02*
X404030Y769620D01*
M02*
