G04 EAGLE Gerber RS-274X export*
G75*
%MOMM*%
%FSLAX34Y34*%
%LPD*%
%IN*%
%IPPOS*%
%AMOC8*
5,1,8,0,0,1.08239X$1,22.5*%
G01*
%ADD10C,0.254000*%


D10*
X0Y0D02*
X926110Y0D01*
X926110Y932050D01*
X0Y932050D01*
X0Y0D01*
X123950Y269986D02*
X123882Y268941D01*
X123745Y267902D01*
X123540Y266875D01*
X123269Y265863D01*
X122933Y264871D01*
X122532Y263903D01*
X122068Y262964D01*
X121545Y262056D01*
X120963Y261185D01*
X120325Y260354D01*
X119634Y259567D01*
X118893Y258826D01*
X118106Y258135D01*
X117275Y257498D01*
X116404Y256916D01*
X115496Y256392D01*
X114557Y255928D01*
X113589Y255527D01*
X112597Y255191D01*
X111585Y254920D01*
X110558Y254715D01*
X109519Y254579D01*
X108474Y254510D01*
X107426Y254510D01*
X106381Y254579D01*
X105342Y254715D01*
X104315Y254920D01*
X103303Y255191D01*
X102311Y255527D01*
X101343Y255928D01*
X100404Y256392D01*
X99496Y256916D01*
X98625Y257498D01*
X97794Y258135D01*
X97007Y258826D01*
X96266Y259567D01*
X95575Y260354D01*
X94938Y261185D01*
X94356Y262056D01*
X93832Y262964D01*
X93368Y263903D01*
X92967Y264871D01*
X92631Y265863D01*
X92360Y266875D01*
X92155Y267902D01*
X92019Y268941D01*
X91950Y269986D01*
X91950Y271034D01*
X92019Y272079D01*
X92155Y273118D01*
X92360Y274145D01*
X92631Y275157D01*
X92967Y276149D01*
X93368Y277117D01*
X93832Y278056D01*
X94356Y278964D01*
X94938Y279835D01*
X95575Y280666D01*
X96266Y281453D01*
X97007Y282194D01*
X97794Y282885D01*
X98625Y283523D01*
X99496Y284105D01*
X100404Y284628D01*
X101343Y285092D01*
X102311Y285493D01*
X103303Y285829D01*
X104315Y286100D01*
X105342Y286305D01*
X106381Y286442D01*
X107426Y286510D01*
X108474Y286510D01*
X109519Y286442D01*
X110558Y286305D01*
X111585Y286100D01*
X112597Y285829D01*
X113589Y285493D01*
X114557Y285092D01*
X115496Y284628D01*
X116404Y284105D01*
X117275Y283523D01*
X118106Y282885D01*
X118893Y282194D01*
X119634Y281453D01*
X120325Y280666D01*
X120963Y279835D01*
X121545Y278964D01*
X122068Y278056D01*
X122532Y277117D01*
X122933Y276149D01*
X123269Y275157D01*
X123540Y274145D01*
X123745Y273118D01*
X123882Y272079D01*
X123950Y271034D01*
X123950Y269986D01*
X621780Y269986D02*
X621712Y268941D01*
X621575Y267902D01*
X621370Y266875D01*
X621099Y265863D01*
X620763Y264871D01*
X620362Y263903D01*
X619898Y262964D01*
X619375Y262056D01*
X618793Y261185D01*
X618155Y260354D01*
X617464Y259567D01*
X616723Y258826D01*
X615936Y258135D01*
X615105Y257498D01*
X614234Y256916D01*
X613326Y256392D01*
X612387Y255928D01*
X611419Y255527D01*
X610427Y255191D01*
X609415Y254920D01*
X608388Y254715D01*
X607349Y254579D01*
X606304Y254510D01*
X605256Y254510D01*
X604211Y254579D01*
X603172Y254715D01*
X602145Y254920D01*
X601133Y255191D01*
X600141Y255527D01*
X599173Y255928D01*
X598234Y256392D01*
X597326Y256916D01*
X596455Y257498D01*
X595624Y258135D01*
X594837Y258826D01*
X594096Y259567D01*
X593405Y260354D01*
X592768Y261185D01*
X592186Y262056D01*
X591662Y262964D01*
X591198Y263903D01*
X590797Y264871D01*
X590461Y265863D01*
X590190Y266875D01*
X589985Y267902D01*
X589849Y268941D01*
X589780Y269986D01*
X589780Y271034D01*
X589849Y272079D01*
X589985Y273118D01*
X590190Y274145D01*
X590461Y275157D01*
X590797Y276149D01*
X591198Y277117D01*
X591662Y278056D01*
X592186Y278964D01*
X592768Y279835D01*
X593405Y280666D01*
X594096Y281453D01*
X594837Y282194D01*
X595624Y282885D01*
X596455Y283523D01*
X597326Y284105D01*
X598234Y284628D01*
X599173Y285092D01*
X600141Y285493D01*
X601133Y285829D01*
X602145Y286100D01*
X603172Y286305D01*
X604211Y286442D01*
X605256Y286510D01*
X606304Y286510D01*
X607349Y286442D01*
X608388Y286305D01*
X609415Y286100D01*
X610427Y285829D01*
X611419Y285493D01*
X612387Y285092D01*
X613326Y284628D01*
X614234Y284105D01*
X615105Y283523D01*
X615936Y282885D01*
X616723Y282194D01*
X617464Y281453D01*
X618155Y280666D01*
X618793Y279835D01*
X619375Y278964D01*
X619898Y278056D01*
X620362Y277117D01*
X620763Y276149D01*
X621099Y275157D01*
X621370Y274145D01*
X621575Y273118D01*
X621712Y272079D01*
X621780Y271034D01*
X621780Y269986D01*
X123950Y676386D02*
X123882Y675341D01*
X123745Y674302D01*
X123540Y673275D01*
X123269Y672263D01*
X122933Y671271D01*
X122532Y670303D01*
X122068Y669364D01*
X121545Y668456D01*
X120963Y667585D01*
X120325Y666754D01*
X119634Y665967D01*
X118893Y665226D01*
X118106Y664535D01*
X117275Y663898D01*
X116404Y663316D01*
X115496Y662792D01*
X114557Y662328D01*
X113589Y661927D01*
X112597Y661591D01*
X111585Y661320D01*
X110558Y661115D01*
X109519Y660979D01*
X108474Y660910D01*
X107426Y660910D01*
X106381Y660979D01*
X105342Y661115D01*
X104315Y661320D01*
X103303Y661591D01*
X102311Y661927D01*
X101343Y662328D01*
X100404Y662792D01*
X99496Y663316D01*
X98625Y663898D01*
X97794Y664535D01*
X97007Y665226D01*
X96266Y665967D01*
X95575Y666754D01*
X94938Y667585D01*
X94356Y668456D01*
X93832Y669364D01*
X93368Y670303D01*
X92967Y671271D01*
X92631Y672263D01*
X92360Y673275D01*
X92155Y674302D01*
X92019Y675341D01*
X91950Y676386D01*
X91950Y677434D01*
X92019Y678479D01*
X92155Y679518D01*
X92360Y680545D01*
X92631Y681557D01*
X92967Y682549D01*
X93368Y683517D01*
X93832Y684456D01*
X94356Y685364D01*
X94938Y686235D01*
X95575Y687066D01*
X96266Y687853D01*
X97007Y688594D01*
X97794Y689285D01*
X98625Y689923D01*
X99496Y690505D01*
X100404Y691028D01*
X101343Y691492D01*
X102311Y691893D01*
X103303Y692229D01*
X104315Y692500D01*
X105342Y692705D01*
X106381Y692842D01*
X107426Y692910D01*
X108474Y692910D01*
X109519Y692842D01*
X110558Y692705D01*
X111585Y692500D01*
X112597Y692229D01*
X113589Y691893D01*
X114557Y691492D01*
X115496Y691028D01*
X116404Y690505D01*
X117275Y689923D01*
X118106Y689285D01*
X118893Y688594D01*
X119634Y687853D01*
X120325Y687066D01*
X120963Y686235D01*
X121545Y685364D01*
X122068Y684456D01*
X122532Y683517D01*
X122933Y682549D01*
X123269Y681557D01*
X123540Y680545D01*
X123745Y679518D01*
X123882Y678479D01*
X123950Y677434D01*
X123950Y676386D01*
X621780Y676386D02*
X621712Y675341D01*
X621575Y674302D01*
X621370Y673275D01*
X621099Y672263D01*
X620763Y671271D01*
X620362Y670303D01*
X619898Y669364D01*
X619375Y668456D01*
X618793Y667585D01*
X618155Y666754D01*
X617464Y665967D01*
X616723Y665226D01*
X615936Y664535D01*
X615105Y663898D01*
X614234Y663316D01*
X613326Y662792D01*
X612387Y662328D01*
X611419Y661927D01*
X610427Y661591D01*
X609415Y661320D01*
X608388Y661115D01*
X607349Y660979D01*
X606304Y660910D01*
X605256Y660910D01*
X604211Y660979D01*
X603172Y661115D01*
X602145Y661320D01*
X601133Y661591D01*
X600141Y661927D01*
X599173Y662328D01*
X598234Y662792D01*
X597326Y663316D01*
X596455Y663898D01*
X595624Y664535D01*
X594837Y665226D01*
X594096Y665967D01*
X593405Y666754D01*
X592768Y667585D01*
X592186Y668456D01*
X591662Y669364D01*
X591198Y670303D01*
X590797Y671271D01*
X590461Y672263D01*
X590190Y673275D01*
X589985Y674302D01*
X589849Y675341D01*
X589780Y676386D01*
X589780Y677434D01*
X589849Y678479D01*
X589985Y679518D01*
X590190Y680545D01*
X590461Y681557D01*
X590797Y682549D01*
X591198Y683517D01*
X591662Y684456D01*
X592186Y685364D01*
X592768Y686235D01*
X593405Y687066D01*
X594096Y687853D01*
X594837Y688594D01*
X595624Y689285D01*
X596455Y689923D01*
X597326Y690505D01*
X598234Y691028D01*
X599173Y691492D01*
X600141Y691893D01*
X601133Y692229D01*
X602145Y692500D01*
X603172Y692705D01*
X604211Y692842D01*
X605256Y692910D01*
X606304Y692910D01*
X607349Y692842D01*
X608388Y692705D01*
X609415Y692500D01*
X610427Y692229D01*
X611419Y691893D01*
X612387Y691492D01*
X613326Y691028D01*
X614234Y690505D01*
X615105Y689923D01*
X615936Y689285D01*
X616723Y688594D01*
X617464Y687853D01*
X618155Y687066D01*
X618793Y686235D01*
X619375Y685364D01*
X619898Y684456D01*
X620362Y683517D01*
X620763Y682549D01*
X621099Y681557D01*
X621370Y680545D01*
X621575Y679518D01*
X621712Y678479D01*
X621780Y677434D01*
X621780Y676386D01*
M02*
