G04 EAGLE Gerber RS-274X export*
G75*
%MOMM*%
%FSLAX34Y34*%
%LPD*%
%INSoldermask Top*%
%IPPOS*%
%AMOC8*
5,1,8,0,0,1.08239X$1,22.5*%
G01*
%ADD10C,3.200000*%
%ADD11R,1.500000X1.300000*%
%ADD12R,1.300000X1.500000*%
%ADD13P,1.649562X8X22.500000*%
%ADD14R,0.304800X0.990600*%
%ADD15C,5.000000*%
%ADD16C,1.371600*%
%ADD17P,1.649562X8X202.500000*%
%ADD18C,5.080000*%
%ADD19P,1.623585X8X112.500000*%
%ADD20P,1.623585X8X292.500000*%
%ADD21R,1.000000X0.700000*%
%ADD22R,1.200000X2.000000*%
%ADD23R,2.000000X1.200000*%
%ADD24C,0.750000*%


D10*
X107950Y270510D03*
X605780Y270510D03*
X107950Y676910D03*
X605780Y676910D03*
D11*
X55960Y174280D03*
X55960Y155280D03*
D12*
X392890Y564830D03*
X373890Y564830D03*
X458930Y564830D03*
X439930Y564830D03*
D11*
X359260Y628940D03*
X359260Y609940D03*
X471020Y609940D03*
X471020Y628940D03*
X359260Y702600D03*
X359260Y683600D03*
D13*
X86210Y147000D03*
X86210Y172400D03*
X111610Y147000D03*
X111610Y172400D03*
X137010Y147000D03*
X137010Y172400D03*
X162410Y147000D03*
X162410Y172400D03*
X187810Y147000D03*
X187810Y172400D03*
X213210Y147000D03*
X213210Y172400D03*
X238610Y147000D03*
X238610Y172400D03*
X264010Y147000D03*
X264010Y172400D03*
X289410Y147000D03*
X289410Y172400D03*
X314810Y147000D03*
X314810Y172400D03*
X340210Y147000D03*
X340210Y172400D03*
X365610Y147000D03*
X365610Y172400D03*
X391010Y147000D03*
X391010Y172400D03*
X416410Y147000D03*
X416410Y172400D03*
X441810Y147000D03*
X441810Y172400D03*
X467210Y147000D03*
X467210Y172400D03*
X492610Y147000D03*
X492610Y172400D03*
X518010Y147000D03*
X518010Y172400D03*
X543410Y147000D03*
X543410Y172400D03*
X86210Y756600D03*
X86210Y782000D03*
X111610Y756600D03*
X111610Y782000D03*
X137010Y756600D03*
X137010Y782000D03*
X162410Y756600D03*
X162410Y782000D03*
X187810Y756600D03*
X187810Y782000D03*
X213210Y756600D03*
X213210Y782000D03*
X238610Y756600D03*
X238610Y782000D03*
X264010Y756600D03*
X264010Y782000D03*
X289410Y756600D03*
X289410Y782000D03*
X314810Y756600D03*
X314810Y782000D03*
X340210Y756600D03*
X340210Y782000D03*
X365610Y756600D03*
X365610Y782000D03*
X391010Y756600D03*
X391010Y782000D03*
X416410Y756600D03*
X416410Y782000D03*
X441810Y756600D03*
X441810Y782000D03*
X467210Y756600D03*
X467210Y782000D03*
X492610Y756600D03*
X492610Y782000D03*
X518010Y756600D03*
X518010Y782000D03*
X543410Y756600D03*
X543410Y782000D03*
D14*
X393660Y625822D03*
X400160Y625822D03*
X406660Y625822D03*
X413160Y625822D03*
X419660Y625822D03*
X426160Y625822D03*
X432660Y625822D03*
X439160Y625822D03*
X439160Y684178D03*
X432660Y684178D03*
X426160Y684178D03*
X419660Y684178D03*
X413160Y684178D03*
X406660Y684178D03*
X400160Y684178D03*
X393660Y684178D03*
D15*
X789070Y213880D03*
X820070Y261880D03*
X850070Y213880D03*
D16*
X772358Y708300D02*
X758642Y708300D01*
X758642Y733700D02*
X772358Y733700D01*
X858142Y708300D02*
X871858Y708300D01*
X871858Y733700D02*
X858142Y733700D01*
D17*
X816034Y128350D03*
X788602Y128350D03*
X761170Y128350D03*
X733738Y128350D03*
X706306Y128350D03*
X802318Y102950D03*
X774886Y102950D03*
X747454Y102950D03*
X720022Y102950D03*
D18*
X886392Y115650D03*
X635948Y115650D03*
D19*
X429100Y33000D03*
X429100Y58400D03*
X429100Y83800D03*
X238600Y33000D03*
X238600Y58400D03*
X238600Y83800D03*
X276700Y33000D03*
X276700Y58400D03*
X276700Y83800D03*
D20*
X340200Y896000D03*
X340200Y870600D03*
X340200Y845200D03*
X289400Y896000D03*
X289400Y870600D03*
X289400Y845200D03*
X86200Y896000D03*
X86200Y870600D03*
X86200Y845200D03*
X391000Y896000D03*
X391000Y870600D03*
X391000Y845200D03*
X238600Y896000D03*
X238600Y870600D03*
X238600Y845200D03*
X187800Y896000D03*
X187800Y870600D03*
X187800Y845200D03*
X137000Y896000D03*
X137000Y870600D03*
X137000Y845200D03*
D17*
X706306Y802560D03*
X733738Y802560D03*
X761170Y802560D03*
X788602Y802560D03*
X816034Y802560D03*
X720022Y827960D03*
X747454Y827960D03*
X774886Y827960D03*
X802318Y827960D03*
D18*
X886392Y815260D03*
X635948Y815260D03*
D19*
X314800Y33000D03*
X314800Y58400D03*
X314800Y83800D03*
X352900Y33000D03*
X352900Y58400D03*
X352900Y83800D03*
X391000Y33000D03*
X391000Y58400D03*
X391000Y83800D03*
D20*
X492600Y896000D03*
X492600Y870600D03*
X492600Y845200D03*
D19*
X124300Y33000D03*
X124300Y58400D03*
X124300Y83800D03*
X200500Y33000D03*
X200500Y58400D03*
X200500Y83800D03*
X86200Y33000D03*
X86200Y58400D03*
X86200Y83800D03*
X162400Y33000D03*
X162400Y58400D03*
X162400Y83800D03*
D20*
X543400Y896000D03*
X543400Y870600D03*
X543400Y845200D03*
X441800Y896000D03*
X441800Y870600D03*
X441800Y845200D03*
D21*
X504740Y443520D03*
X504740Y424520D03*
X528740Y434020D03*
X418380Y443520D03*
X418380Y424520D03*
X442380Y434020D03*
D12*
X504880Y384490D03*
X485880Y384490D03*
X419560Y384490D03*
X400560Y384490D03*
D16*
X46640Y40398D02*
X46640Y26682D01*
X21240Y26682D02*
X21240Y40398D01*
X659142Y733700D02*
X672858Y733700D01*
X672858Y708300D02*
X659142Y708300D01*
D19*
X467200Y33000D03*
X467200Y58400D03*
X467200Y83800D03*
X505300Y33000D03*
X505300Y58400D03*
X505300Y83800D03*
D22*
X760950Y508300D03*
X727950Y508300D03*
X760950Y454300D03*
X727950Y454300D03*
X760950Y598300D03*
X727950Y598300D03*
X760950Y544300D03*
X727950Y544300D03*
X690950Y418300D03*
X657950Y418300D03*
X690950Y364300D03*
X657950Y364300D03*
X690950Y508300D03*
X657950Y508300D03*
X690950Y454300D03*
X657950Y454300D03*
X760950Y418300D03*
X727950Y418300D03*
X760950Y364300D03*
X727950Y364300D03*
X690950Y598300D03*
X657950Y598300D03*
X690950Y544300D03*
X657950Y544300D03*
D23*
X870280Y616070D03*
X870280Y649070D03*
X816280Y616070D03*
X816280Y649070D03*
X870280Y314800D03*
X870280Y347800D03*
X816280Y314800D03*
X816280Y347800D03*
D24*
X704850Y417830D03*
X775970Y415290D03*
X704850Y505460D03*
X775970Y504190D03*
X704850Y598170D03*
X775970Y598170D03*
X845660Y298290D03*
X855450Y601240D03*
X340210Y680400D03*
X341480Y610550D03*
X471020Y591500D03*
X59540Y112649D03*
X795020Y339090D03*
X728980Y345440D03*
X655320Y344170D03*
X655320Y436880D03*
X728980Y436880D03*
X655320Y527050D03*
X728980Y527050D03*
X764540Y661670D03*
X410810Y356870D03*
X466690Y356870D03*
X264160Y228600D03*
X264160Y236220D03*
X264160Y243840D03*
X210820Y730250D03*
X203200Y737870D03*
X175260Y770890D03*
X234950Y796290D03*
X271780Y802640D03*
X561340Y577850D03*
X552450Y551180D03*
X793750Y153670D03*
X378460Y801370D03*
X516890Y332740D03*
X530860Y801370D03*
X525780Y351790D03*
X557530Y796290D03*
X565150Y801370D03*
X405130Y222250D03*
X365760Y219710D03*
X504190Y309880D03*
X543560Y603250D03*
X593090Y194310D03*
X833120Y732790D03*
X828040Y327660D03*
M02*
