G04 EAGLE Gerber RS-274X export*
G75*
%MOMM*%
%FSLAX34Y34*%
%LPD*%
%INSolderpaste Top*%
%IPPOS*%
%AMOC8*
5,1,8,0,0,1.08239X$1,22.5*%
G01*
%ADD10R,1.500000X1.300000*%
%ADD11R,1.300000X1.500000*%
%ADD12R,0.304800X0.990600*%
%ADD13R,1.000000X0.700000*%
%ADD14R,1.200000X2.000000*%
%ADD15R,2.000000X1.200000*%


D10*
X55960Y174280D03*
X55960Y155280D03*
D11*
X392890Y564830D03*
X373890Y564830D03*
X458930Y564830D03*
X439930Y564830D03*
D10*
X359260Y628940D03*
X359260Y609940D03*
X471020Y609940D03*
X471020Y628940D03*
X359260Y702600D03*
X359260Y683600D03*
D12*
X393660Y625822D03*
X400160Y625822D03*
X406660Y625822D03*
X413160Y625822D03*
X419660Y625822D03*
X426160Y625822D03*
X432660Y625822D03*
X439160Y625822D03*
X439160Y684178D03*
X432660Y684178D03*
X426160Y684178D03*
X419660Y684178D03*
X413160Y684178D03*
X406660Y684178D03*
X400160Y684178D03*
X393660Y684178D03*
D13*
X504740Y443520D03*
X504740Y424520D03*
X528740Y434020D03*
X418380Y443520D03*
X418380Y424520D03*
X442380Y434020D03*
D11*
X504880Y384490D03*
X485880Y384490D03*
X419560Y384490D03*
X400560Y384490D03*
D14*
X760950Y508300D03*
X727950Y508300D03*
X760950Y454300D03*
X727950Y454300D03*
X760950Y598300D03*
X727950Y598300D03*
X760950Y544300D03*
X727950Y544300D03*
X690950Y418300D03*
X657950Y418300D03*
X690950Y364300D03*
X657950Y364300D03*
X690950Y508300D03*
X657950Y508300D03*
X690950Y454300D03*
X657950Y454300D03*
X760950Y418300D03*
X727950Y418300D03*
X760950Y364300D03*
X727950Y364300D03*
X690950Y598300D03*
X657950Y598300D03*
X690950Y544300D03*
X657950Y544300D03*
D15*
X870280Y616070D03*
X870280Y649070D03*
X816280Y616070D03*
X816280Y649070D03*
X870280Y314800D03*
X870280Y347800D03*
X816280Y314800D03*
X816280Y347800D03*
M02*
