G04 EAGLE Gerber RS-274X export*
G75*
%MOMM*%
%FSLAX34Y34*%
%LPD*%
%INSoldermask Bottom*%
%IPPOS*%
%AMOC8*
5,1,8,0,0,1.08239X$1,22.5*%
G01*
%ADD10C,3.200000*%
%ADD11R,1.500000X1.300000*%
%ADD12P,1.649562X8X22.500000*%
%ADD13C,5.000000*%
%ADD14C,1.371600*%
%ADD15P,1.649562X8X202.500000*%
%ADD16C,5.080000*%
%ADD17P,1.623585X8X112.500000*%
%ADD18P,1.623585X8X292.500000*%
%ADD19R,1.300000X1.500000*%
%ADD20C,0.750000*%


D10*
X107950Y270510D03*
X605780Y270510D03*
X107950Y676910D03*
X605780Y676910D03*
D11*
X518010Y864110D03*
X518010Y845110D03*
X416410Y864110D03*
X416410Y845110D03*
X111610Y864110D03*
X111610Y845110D03*
X162410Y864110D03*
X162410Y845110D03*
X213210Y864110D03*
X213210Y845110D03*
X264010Y864110D03*
X264010Y845110D03*
X314810Y864110D03*
X314810Y845110D03*
X365610Y864110D03*
X365610Y845110D03*
X467210Y864110D03*
X467210Y845110D03*
X60810Y864110D03*
X60810Y845110D03*
D12*
X86210Y147000D03*
X86210Y172400D03*
X111610Y147000D03*
X111610Y172400D03*
X137010Y147000D03*
X137010Y172400D03*
X162410Y147000D03*
X162410Y172400D03*
X187810Y147000D03*
X187810Y172400D03*
X213210Y147000D03*
X213210Y172400D03*
X238610Y147000D03*
X238610Y172400D03*
X264010Y147000D03*
X264010Y172400D03*
X289410Y147000D03*
X289410Y172400D03*
X314810Y147000D03*
X314810Y172400D03*
X340210Y147000D03*
X340210Y172400D03*
X365610Y147000D03*
X365610Y172400D03*
X391010Y147000D03*
X391010Y172400D03*
X416410Y147000D03*
X416410Y172400D03*
X441810Y147000D03*
X441810Y172400D03*
X467210Y147000D03*
X467210Y172400D03*
X492610Y147000D03*
X492610Y172400D03*
X518010Y147000D03*
X518010Y172400D03*
X543410Y147000D03*
X543410Y172400D03*
X86210Y756600D03*
X86210Y782000D03*
X111610Y756600D03*
X111610Y782000D03*
X137010Y756600D03*
X137010Y782000D03*
X162410Y756600D03*
X162410Y782000D03*
X187810Y756600D03*
X187810Y782000D03*
X213210Y756600D03*
X213210Y782000D03*
X238610Y756600D03*
X238610Y782000D03*
X264010Y756600D03*
X264010Y782000D03*
X289410Y756600D03*
X289410Y782000D03*
X314810Y756600D03*
X314810Y782000D03*
X340210Y756600D03*
X340210Y782000D03*
X365610Y756600D03*
X365610Y782000D03*
X391010Y756600D03*
X391010Y782000D03*
X416410Y756600D03*
X416410Y782000D03*
X441810Y756600D03*
X441810Y782000D03*
X467210Y756600D03*
X467210Y782000D03*
X492610Y756600D03*
X492610Y782000D03*
X518010Y756600D03*
X518010Y782000D03*
X543410Y756600D03*
X543410Y782000D03*
D13*
X789070Y213880D03*
X820070Y261880D03*
X850070Y213880D03*
D14*
X772358Y708300D02*
X758642Y708300D01*
X758642Y733700D02*
X772358Y733700D01*
X858142Y708300D02*
X871858Y708300D01*
X871858Y733700D02*
X858142Y733700D01*
D15*
X816034Y128350D03*
X788602Y128350D03*
X761170Y128350D03*
X733738Y128350D03*
X706306Y128350D03*
X802318Y102950D03*
X774886Y102950D03*
X747454Y102950D03*
X720022Y102950D03*
D16*
X886392Y115650D03*
X635948Y115650D03*
D17*
X429100Y33000D03*
X429100Y58400D03*
X429100Y83800D03*
X238600Y33000D03*
X238600Y58400D03*
X238600Y83800D03*
X276700Y33000D03*
X276700Y58400D03*
X276700Y83800D03*
D18*
X340200Y896000D03*
X340200Y870600D03*
X340200Y845200D03*
X289400Y896000D03*
X289400Y870600D03*
X289400Y845200D03*
X86200Y896000D03*
X86200Y870600D03*
X86200Y845200D03*
X391000Y896000D03*
X391000Y870600D03*
X391000Y845200D03*
X238600Y896000D03*
X238600Y870600D03*
X238600Y845200D03*
X187800Y896000D03*
X187800Y870600D03*
X187800Y845200D03*
X137000Y896000D03*
X137000Y870600D03*
X137000Y845200D03*
D15*
X706306Y802560D03*
X733738Y802560D03*
X761170Y802560D03*
X788602Y802560D03*
X816034Y802560D03*
X720022Y827960D03*
X747454Y827960D03*
X774886Y827960D03*
X802318Y827960D03*
D16*
X886392Y815260D03*
X635948Y815260D03*
D17*
X314800Y33000D03*
X314800Y58400D03*
X314800Y83800D03*
X352900Y33000D03*
X352900Y58400D03*
X352900Y83800D03*
X391000Y33000D03*
X391000Y58400D03*
X391000Y83800D03*
D18*
X492600Y896000D03*
X492600Y870600D03*
X492600Y845200D03*
D17*
X124300Y33000D03*
X124300Y58400D03*
X124300Y83800D03*
X200500Y33000D03*
X200500Y58400D03*
X200500Y83800D03*
X86200Y33000D03*
X86200Y58400D03*
X86200Y83800D03*
X162400Y33000D03*
X162400Y58400D03*
X162400Y83800D03*
D18*
X543400Y896000D03*
X543400Y870600D03*
X543400Y845200D03*
X441800Y896000D03*
X441800Y870600D03*
X441800Y845200D03*
D14*
X46640Y40398D02*
X46640Y26682D01*
X21240Y26682D02*
X21240Y40398D01*
X659142Y733700D02*
X672858Y733700D01*
X672858Y708300D02*
X659142Y708300D01*
D17*
X467200Y33000D03*
X467200Y58400D03*
X467200Y83800D03*
X505300Y33000D03*
X505300Y58400D03*
X505300Y83800D03*
D19*
X671220Y417830D03*
X690220Y417830D03*
X671220Y508000D03*
X690220Y508000D03*
X671220Y598170D03*
X690220Y598170D03*
X743610Y598170D03*
X762610Y598170D03*
X743610Y508000D03*
X762610Y508000D03*
X743610Y417830D03*
X762610Y417830D03*
D11*
X869950Y641960D03*
X869950Y622960D03*
X869950Y340970D03*
X869950Y321970D03*
D20*
X704850Y417830D03*
X775970Y415290D03*
X704850Y505460D03*
X775970Y504190D03*
X704850Y598170D03*
X775970Y598170D03*
X845660Y298290D03*
X855450Y601240D03*
X340210Y680400D03*
X341480Y610550D03*
X471020Y591500D03*
X59540Y112649D03*
X795020Y339090D03*
X728980Y345440D03*
X655320Y344170D03*
X655320Y436880D03*
X728980Y436880D03*
X655320Y527050D03*
X728980Y527050D03*
X764540Y661670D03*
X410810Y356870D03*
X466690Y356870D03*
X264160Y228600D03*
X264160Y236220D03*
X264160Y243840D03*
X210820Y730250D03*
X203200Y737870D03*
X175260Y770890D03*
X234950Y796290D03*
X271780Y802640D03*
X561340Y577850D03*
X552450Y551180D03*
X793750Y153670D03*
X378460Y801370D03*
X516890Y332740D03*
X530860Y801370D03*
X525780Y351790D03*
X557530Y796290D03*
X565150Y801370D03*
X405130Y222250D03*
X365760Y219710D03*
X504190Y309880D03*
X543560Y603250D03*
X593090Y194310D03*
X833120Y732790D03*
X828040Y327660D03*
M02*
