M48
;GenerationSoftware,Autodesk,EAGLE,9.6.2*%
;CreationDate,2024-05-09T12:20:02Z*%
FMAT,2
ICI,OFF
METRIC,TZ,000.000
T10C0.350
T9C0.700
T8C1.000
T7C1.200
T6C1.250
T5C1.600
T4C1.650
T3C1.700
T2C1.750
T1C2.479
%
G90
M71
T1
X4320Y21000
T2
X4250Y7580
X4250Y2580
X4290Y37290
T3
X4143Y15347
X4143Y12847
T4
X4320Y31000
T5
X4290Y49790
T6
X13930Y5080
X11500Y26000
X13930Y2580
X13930Y7580
X11430Y2580
X11500Y31000
X11430Y5080
X11430Y7580
X14000Y26000
X14000Y21000
X14000Y23500
X11500Y28500
X14000Y28500
X14000Y31000
X11500Y21000
X11500Y23500
T7
X13970Y37290
X13970Y39790
X13970Y42290
X13970Y44790
X13970Y47290
X13970Y49790
X11470Y39790
X11470Y42290
X11470Y44790
X11470Y47290
X13823Y15347
X11323Y15347
X11323Y12847
X11470Y37290
X50150Y24320
X50150Y10620
X46050Y2570
X58050Y2570
X58050Y30570
X46050Y30570
X11470Y49790
X13823Y12847
T8
X34590Y49650
X42210Y48634
X42210Y50666
T9
X25385Y50530
X21235Y50530
T10
X30250Y17890
X23950Y22250
X37350Y25530
X29980Y41590
X19890Y3170
X15640Y2620
X19830Y5220
X26010Y31250
X28310Y34490
X31190Y34370
X32610Y21340
X24140Y32920
X22370Y33850
X10470Y16920
X37960Y36420
X30560Y9290
X31640Y17890
X39000Y46800
X41600Y35500
X38800Y43100
X24300Y40100
X20720Y27700
X49000Y36400
X55000Y36300
X36700Y15400
X31000Y50600
X48740Y21980
X23940Y18460
X26700Y34200
X24400Y11300
X24300Y29300
X32510Y23590
X24200Y8900
X16800Y26400
X10030Y25200
X19330Y27204
X15370Y27310
X22620Y24750
X20180Y6554
X17490Y2730
X25300Y2770
X26450Y5680
X25390Y26060
X37089Y23110
X25980Y21980
X25722Y33258
X25920Y17890
X34840Y14780
X26290Y27120
X22430Y27990
X41920Y29831
X41930Y30780
X22282Y35581
X22550Y41790
X57700Y37600
X32930Y4060
X7000Y14500
X50190Y20450
X53910Y26950
X26449Y32339
X41580Y20530
X35737Y39497
X37400Y46400
X16898Y24410
X23800Y14857
X36685Y30425
X45460Y39270
X33880Y36670
X29580Y34400
X35761Y14650
X19360Y31440
X26388Y29210
X47500Y29008
X37187Y34540
X50230Y21540
X21557Y34323
X26100Y30300
X28310Y42262
X27238Y44208
X26290Y42350
X29870Y40210
X27360Y40360
X34599Y31270
X21371Y24490
X23630Y43720
X34201Y15628
X46148Y22740
X19250Y14628
X29310Y14010
X26340Y21121
X22402Y20508
X56480Y39740
X21360Y21350
X28449Y22678
X50300Y22700
X53000Y25400
X34255Y17895
X27300Y7430
X53840Y21830
X53880Y33150
X31010Y5130
X30985Y8265
X42380Y28300
X50400Y48600
X8668Y24700
X20700Y48786
X47700Y48500
X21935Y23035
X21331Y44700
X15018Y32512
X27360Y49110
X7200Y9400
X15172Y11608
X47510Y19870
X47500Y23000
X12290Y18230
X42650Y23800
X46530Y39250
X43000Y29500
X42670Y32480
X15500Y4650
X9140Y9230
X13890Y18870
X35390Y54010
X53770Y39340
X52820Y24170
X22580Y2140
X34160Y21110
X30290Y20680
X15170Y35950
X7000Y46000
X7000Y42000
X7000Y38500
X7000Y35000
X7000Y30500
X7000Y27000
X7000Y23500
X37280Y24530
X7000Y20500
X7000Y12000
X7000Y7000
X7000Y4000
X26440Y36700
X19100Y7850
X26040Y7080
X28000Y3000
X35000Y2500
X37500Y2500
X37500Y5000
X38500Y8000
X37500Y10500
X37500Y13000
X49500Y3000
X54000Y3000
X57500Y20000
X55000Y18000
X46930Y25260
X42500Y25500
X48000Y32000
X46330Y37660
X54670Y43940
X51500Y45500
X32770Y36180
X29490Y50250
M30