G04 EAGLE Gerber RS-274X export*
G75*
%MOMM*%
%FSLAX34Y34*%
%LPD*%
%INSilkscreen Top*%
%IPPOS*%
%AMOC8*
5,1,8,0,0,1.08239X$1,22.5*%
G01*
%ADD10C,0.076200*%
%ADD11C,0.101600*%
%ADD12C,0.254000*%
%ADD13R,0.500000X0.750000*%
%ADD14C,0.127000*%
%ADD15C,0.200000*%
%ADD16C,0.100000*%
%ADD17C,0.100000*%
%ADD18C,0.250000*%
%ADD19C,0.152400*%
%ADD20C,0.203200*%
%ADD21R,0.635000X2.540000*%
%ADD22C,0.070000*%
%ADD23R,0.700000X0.300000*%
%ADD24C,0.050800*%
%ADD25C,0.304800*%
%ADD26R,0.007619X3.070859*%
%ADD27R,0.007622X3.093722*%
%ADD28R,0.007619X3.177538*%
%ADD29R,0.007619X3.246119*%
%ADD30R,0.007622X3.291838*%
%ADD31R,0.007619X3.329938*%
%ADD32R,0.007622X3.368038*%
%ADD33R,0.007619X3.398519*%
%ADD34R,0.007619X3.429000*%
%ADD35R,0.007622X3.467100*%
%ADD36R,0.007619X3.482341*%
%ADD37R,0.007622X3.505200*%
%ADD38R,0.007619X3.528063*%
%ADD39R,0.007619X3.558541*%
%ADD40R,0.007622X3.581400*%
%ADD41R,0.007619X3.596641*%
%ADD42R,0.007622X3.611878*%
%ADD43R,0.007619X3.627119*%
%ADD44R,0.007619X3.649978*%
%ADD45R,0.007622X3.672841*%
%ADD46R,0.007619X3.680459*%
%ADD47R,0.007622X3.695700*%
%ADD48R,0.007619X3.710941*%
%ADD49R,0.007619X3.733800*%
%ADD50R,0.007622X3.741419*%
%ADD51R,0.007619X3.756659*%
%ADD52R,0.007622X3.764278*%
%ADD53R,0.007619X3.779519*%
%ADD54R,0.007619X3.787141*%
%ADD55R,0.007622X3.802381*%
%ADD56R,0.007619X3.810000*%
%ADD57R,0.007622X3.825241*%
%ADD58R,0.007619X3.840481*%
%ADD59R,0.007622X3.855722*%
%ADD60R,0.007619X3.870963*%
%ADD61R,0.007622X3.878581*%
%ADD62R,0.007619X3.878578*%
%ADD63R,0.007619X3.893819*%
%ADD64R,0.007622X3.901441*%
%ADD65R,0.007619X3.901441*%
%ADD66R,0.007622X3.916681*%
%ADD67R,0.007619X3.924300*%
%ADD68R,0.007619X3.931922*%
%ADD69R,0.007622X3.939538*%
%ADD70R,0.007619X3.947159*%
%ADD71R,0.007622X3.954778*%
%ADD72R,0.007619X3.962400*%
%ADD73R,0.007622X3.970019*%
%ADD74R,0.007619X3.977641*%
%ADD75R,0.007622X3.985259*%
%ADD76R,0.007619X3.985263*%
%ADD77R,0.007619X3.992881*%
%ADD78R,0.007622X4.008122*%
%ADD79R,0.007619X4.008122*%
%ADD80R,0.007622X4.015741*%
%ADD81R,0.007619X4.015741*%
%ADD82R,0.007619X4.030978*%
%ADD83R,0.007622X4.030978*%
%ADD84R,0.007619X4.038600*%
%ADD85R,0.007622X4.038600*%
%ADD86R,0.007619X4.046222*%
%ADD87R,0.007619X4.053841*%
%ADD88R,0.007622X4.053838*%
%ADD89R,0.007619X4.053838*%
%ADD90R,0.007622X4.061459*%
%ADD91R,0.007619X4.069078*%
%ADD92R,0.007619X4.069081*%
%ADD93R,0.007622X4.069081*%
%ADD94R,0.007619X4.076700*%
%ADD95R,0.007622X4.084319*%
%ADD96R,0.007619X4.091941*%
%ADD97R,0.007619X4.084322*%
%ADD98R,0.007622X4.091941*%
%ADD99R,0.007619X4.099563*%
%ADD100R,0.007622X4.099563*%
%ADD101R,0.007619X4.107181*%
%ADD102R,0.007619X4.107178*%
%ADD103R,0.007622X4.107178*%
%ADD104R,0.007619X4.114800*%
%ADD105R,0.007622X4.114800*%
%ADD106R,0.007622X4.122422*%
%ADD107R,0.007619X4.122419*%
%ADD108R,0.007622X4.122419*%
%ADD109R,0.007619X4.130038*%
%ADD110R,0.007622X4.130041*%
%ADD111R,0.007619X4.130041*%
%ADD112R,0.007622X4.137659*%
%ADD113R,0.007619X4.137659*%
%ADD114R,0.007622X4.137663*%
%ADD115R,0.007619X4.137663*%
%ADD116R,0.007622X4.145281*%
%ADD117R,0.007619X4.145281*%
%ADD118R,0.007619X4.145278*%
%ADD119R,0.007622X4.145278*%
%ADD120R,0.007619X4.152900*%
%ADD121R,0.007622X4.152900*%
%ADD122R,0.007622X4.160519*%
%ADD123R,0.007619X4.160519*%
%ADD124R,0.007619X4.160522*%
%ADD125R,0.007622X4.160522*%
%ADD126R,0.007622X1.584959*%
%ADD127R,0.007622X0.022859*%
%ADD128R,0.007622X0.007619*%
%ADD129R,0.007622X0.007622*%
%ADD130R,0.007622X2.065019*%
%ADD131R,0.007619X1.478281*%
%ADD132R,0.007619X1.767841*%
%ADD133R,0.007622X1.417319*%
%ADD134R,0.007622X1.600200*%
%ADD135R,0.007619X1.371600*%
%ADD136R,0.007619X1.485900*%
%ADD137R,0.007619X1.333500*%
%ADD138R,0.007619X1.402078*%
%ADD139R,0.007622X1.303019*%
%ADD140R,0.007622X1.348738*%
%ADD141R,0.007619X1.272541*%
%ADD142R,0.007619X1.280159*%
%ADD143R,0.007622X1.242063*%
%ADD144R,0.007622X1.211581*%
%ADD145R,0.007619X1.219200*%
%ADD146R,0.007619X1.158241*%
%ADD147R,0.007619X1.203963*%
%ADD148R,0.007619X1.104900*%
%ADD149R,0.007622X1.181100*%
%ADD150R,0.007622X1.082041*%
%ADD151R,0.007619X1.165859*%
%ADD152R,0.007619X1.043941*%
%ADD153R,0.007622X1.143000*%
%ADD154R,0.007622X1.005841*%
%ADD155R,0.007619X1.127759*%
%ADD156R,0.007619X0.960119*%
%ADD157R,0.007619X1.112522*%
%ADD158R,0.007619X0.937262*%
%ADD159R,0.007622X1.097281*%
%ADD160R,0.007622X0.906781*%
%ADD161R,0.007619X1.089659*%
%ADD162R,0.007619X0.883922*%
%ADD163R,0.007622X1.074422*%
%ADD164R,0.007622X0.883922*%
%ADD165R,0.007619X1.059178*%
%ADD166R,0.007619X0.876300*%
%ADD167R,0.007619X1.043937*%
%ADD168R,0.007619X0.883919*%
%ADD169R,0.007622X1.036319*%
%ADD170R,0.007622X0.883919*%
%ADD171R,0.007619X1.028700*%
%ADD172R,0.007622X1.013459*%
%ADD173R,0.007619X1.005841*%
%ADD174R,0.007619X0.998219*%
%ADD175R,0.007622X0.990600*%
%ADD176R,0.007619X0.975363*%
%ADD177R,0.007622X0.967741*%
%ADD178R,0.007619X0.960122*%
%ADD179R,0.007622X0.944878*%
%ADD180R,0.007619X0.937259*%
%ADD181R,0.007622X0.929641*%
%ADD182R,0.007619X0.929641*%
%ADD183R,0.007619X0.922019*%
%ADD184R,0.007622X0.914400*%
%ADD185R,0.007619X0.906781*%
%ADD186R,0.007622X0.899159*%
%ADD187R,0.007622X0.876300*%
%ADD188R,0.007619X0.891538*%
%ADD189R,0.007622X0.868681*%
%ADD190R,0.007619X0.868681*%
%ADD191R,0.007619X0.861059*%
%ADD192R,0.007622X0.861059*%
%ADD193R,0.007619X0.853441*%
%ADD194R,0.007622X0.845822*%
%ADD195R,0.007619X0.845822*%
%ADD196R,0.007619X0.838200*%
%ADD197R,0.007622X0.838200*%
%ADD198R,0.007619X0.830578*%
%ADD199R,0.007622X0.830578*%
%ADD200R,0.007619X0.822959*%
%ADD201R,0.007619X0.815341*%
%ADD202R,0.007622X0.815341*%
%ADD203R,0.007619X0.807722*%
%ADD204R,0.007622X0.807722*%
%ADD205R,0.007619X0.800100*%
%ADD206R,0.007622X0.800100*%
%ADD207R,0.007619X0.784859*%
%ADD208R,0.007622X0.784859*%
%ADD209R,0.007622X0.777241*%
%ADD210R,0.007619X0.777241*%
%ADD211R,0.007619X1.143000*%
%ADD212R,0.007622X1.295400*%
%ADD213R,0.007619X1.386841*%
%ADD214R,0.007622X0.769619*%
%ADD215R,0.007622X1.485900*%
%ADD216R,0.007619X0.769619*%
%ADD217R,0.007619X2.476500*%
%ADD218R,0.007619X2.499359*%
%ADD219R,0.007622X0.762000*%
%ADD220R,0.007622X2.522222*%
%ADD221R,0.007619X0.762000*%
%ADD222R,0.007619X2.529841*%
%ADD223R,0.007622X2.545081*%
%ADD224R,0.007619X2.552700*%
%ADD225R,0.007619X0.754378*%
%ADD226R,0.007619X2.567941*%
%ADD227R,0.007622X0.754378*%
%ADD228R,0.007622X2.575559*%
%ADD229R,0.007619X2.583181*%
%ADD230R,0.007622X2.590800*%
%ADD231R,0.007619X0.746759*%
%ADD232R,0.007619X2.606038*%
%ADD233R,0.007619X2.613659*%
%ADD234R,0.007622X0.746759*%
%ADD235R,0.007622X2.613659*%
%ADD236R,0.007619X2.628900*%
%ADD237R,0.007622X0.739141*%
%ADD238R,0.007622X2.628900*%
%ADD239R,0.007619X0.739141*%
%ADD240R,0.007619X2.636522*%
%ADD241R,0.007622X2.644141*%
%ADD242R,0.007619X2.651759*%
%ADD243R,0.007622X0.731519*%
%ADD244R,0.007622X2.651759*%
%ADD245R,0.007619X0.731519*%
%ADD246R,0.007619X2.659378*%
%ADD247R,0.007622X0.723900*%
%ADD248R,0.007622X2.667000*%
%ADD249R,0.007619X0.723900*%
%ADD250R,0.007619X2.667000*%
%ADD251R,0.007619X0.731522*%
%ADD252R,0.007619X2.674619*%
%ADD253R,0.007622X2.674619*%
%ADD254R,0.007619X2.682238*%
%ADD255R,0.007619X0.716281*%
%ADD256R,0.007622X0.716281*%
%ADD257R,0.007622X2.682238*%
%ADD258R,0.007619X2.689859*%
%ADD259R,0.007622X2.689859*%
%ADD260R,0.007619X0.708663*%
%ADD261R,0.007619X2.697478*%
%ADD262R,0.007622X2.697478*%
%ADD263R,0.007619X0.708659*%
%ADD264R,0.007622X0.716278*%
%ADD265R,0.007622X2.697481*%
%ADD266R,0.007619X2.697481*%
%ADD267R,0.007622X0.708659*%
%ADD268R,0.007619X2.705100*%
%ADD269R,0.007619X0.701041*%
%ADD270R,0.007622X0.510541*%
%ADD271R,0.007622X0.015241*%
%ADD272R,0.007622X1.699259*%
%ADD273R,0.007619X0.403859*%
%ADD274R,0.007619X0.335281*%
%ADD275R,0.007619X1.409700*%
%ADD276R,0.007622X0.701041*%
%ADD277R,0.007622X0.312422*%
%ADD278R,0.007622X1.371600*%
%ADD279R,0.007619X0.274322*%
%ADD280R,0.007622X0.708663*%
%ADD281R,0.007622X0.251459*%
%ADD282R,0.007622X1.287778*%
%ADD283R,0.007619X0.228600*%
%ADD284R,0.007619X1.257300*%
%ADD285R,0.007619X0.213359*%
%ADD286R,0.007619X1.226819*%
%ADD287R,0.007622X0.213359*%
%ADD288R,0.007619X1.188722*%
%ADD289R,0.007622X1.158241*%
%ADD290R,0.007619X0.220978*%
%ADD291R,0.007619X1.135381*%
%ADD292R,0.007622X1.112519*%
%ADD293R,0.007619X0.701037*%
%ADD294R,0.007622X0.701037*%
%ADD295R,0.007622X0.220981*%
%ADD296R,0.007622X1.074419*%
%ADD297R,0.007619X0.220981*%
%ADD298R,0.007619X1.066800*%
%ADD299R,0.007619X0.213363*%
%ADD300R,0.007619X1.051559*%
%ADD301R,0.007622X0.213363*%
%ADD302R,0.007622X1.021081*%
%ADD303R,0.007619X0.998222*%
%ADD304R,0.007622X0.982981*%
%ADD305R,0.007619X0.982978*%
%ADD306R,0.007622X0.975359*%
%ADD307R,0.007619X0.952500*%
%ADD308R,0.007622X0.952500*%
%ADD309R,0.007622X0.220978*%
%ADD310R,0.007619X0.922022*%
%ADD311R,0.007619X0.899159*%
%ADD312R,0.007622X0.891538*%
%ADD313R,0.007619X0.891541*%
%ADD314R,0.007619X0.868678*%
%ADD315R,0.007622X0.853441*%
%ADD316R,0.007619X0.830581*%
%ADD317R,0.007622X0.830581*%
%ADD318R,0.007622X0.822959*%
%ADD319R,0.007619X0.716278*%
%ADD320R,0.007619X0.815338*%
%ADD321R,0.007619X1.059181*%
%ADD322R,0.007622X1.059178*%
%ADD323R,0.007619X0.807719*%
%ADD324R,0.007622X1.059181*%
%ADD325R,0.007622X0.807719*%
%ADD326R,0.007622X1.051559*%
%ADD327R,0.007622X0.731522*%
%ADD328R,0.007622X1.051562*%
%ADD329R,0.007619X1.051562*%
%ADD330R,0.007622X1.043941*%
%ADD331R,0.007619X1.036319*%
%ADD332R,0.007622X0.754381*%
%ADD333R,0.007622X1.028700*%
%ADD334R,0.007619X1.036322*%
%ADD335R,0.007622X0.815338*%
%ADD336R,0.007619X1.021081*%
%ADD337R,0.007619X1.013459*%
%ADD338R,0.007622X0.769622*%
%ADD339R,0.007619X0.769622*%
%ADD340R,0.007622X0.998219*%
%ADD341R,0.007619X0.990600*%
%ADD342R,0.007622X0.822963*%
%ADD343R,0.007619X0.822963*%
%ADD344R,0.007619X0.975359*%
%ADD345R,0.007619X0.967741*%
%ADD346R,0.007622X0.792481*%
%ADD347R,0.007622X0.975363*%
%ADD348R,0.007619X0.792478*%
%ADD349R,0.007622X0.960122*%
%ADD350R,0.007619X0.944878*%
%ADD351R,0.007622X0.845819*%
%ADD352R,0.007619X0.609600*%
%ADD353R,0.007619X0.861063*%
%ADD354R,0.007619X0.845819*%
%ADD355R,0.007619X0.914400*%
%ADD356R,0.007622X0.922019*%
%ADD357R,0.007619X0.944881*%
%ADD358R,0.007622X0.944881*%
%ADD359R,0.007622X0.960119*%
%ADD360R,0.007622X1.005837*%
%ADD361R,0.007619X1.005837*%
%ADD362R,0.007622X1.036322*%
%ADD363R,0.007619X1.089662*%
%ADD364R,0.007619X1.074419*%
%ADD365R,0.007619X1.082041*%
%ADD366R,0.007622X1.120141*%
%ADD367R,0.007619X1.181100*%
%ADD368R,0.007622X1.196341*%
%ADD369R,0.007622X1.165859*%
%ADD370R,0.007619X1.211581*%
%ADD371R,0.007622X1.226822*%
%ADD372R,0.007619X1.272538*%
%ADD373R,0.007619X1.249678*%
%ADD374R,0.007622X1.264919*%
%ADD375R,0.007619X1.325878*%
%ADD376R,0.007619X1.287778*%
%ADD377R,0.007622X1.348741*%
%ADD378R,0.007622X1.325881*%
%ADD379R,0.007619X1.356359*%
%ADD380R,0.007619X1.432559*%
%ADD381R,0.007619X1.394459*%
%ADD382R,0.007622X1.463041*%
%ADD383R,0.007622X1.424941*%
%ADD384R,0.007619X1.501141*%
%ADD385R,0.007619X1.470659*%
%ADD386R,0.007622X1.569722*%
%ADD387R,0.007622X1.531619*%
%ADD388R,0.007619X1.645922*%
%ADD389R,0.007619X1.615441*%
%ADD390R,0.007619X1.760219*%
%ADD391R,0.007619X1.744978*%
%ADD392R,0.007619X4.122422*%
%ADD393R,0.007622X4.107181*%
%ADD394R,0.007619X4.099559*%
%ADD395R,0.007622X4.099559*%
%ADD396R,0.007622X4.069078*%
%ADD397R,0.007622X4.061463*%
%ADD398R,0.007619X4.061463*%
%ADD399R,0.007622X4.053841*%
%ADD400R,0.007619X4.046219*%
%ADD401R,0.007619X4.023359*%
%ADD402R,0.007622X4.030981*%
%ADD403R,0.007619X4.000500*%
%ADD404R,0.007622X4.000500*%
%ADD405R,0.007619X3.992878*%
%ADD406R,0.007619X3.985259*%
%ADD407R,0.007622X3.977641*%
%ADD408R,0.007622X3.970022*%
%ADD409R,0.007619X3.954781*%
%ADD410R,0.007622X3.947163*%
%ADD411R,0.007622X3.939541*%
%ADD412R,0.007619X3.931919*%
%ADD413R,0.007622X3.924300*%
%ADD414R,0.007619X3.916678*%
%ADD415R,0.007622X3.909059*%
%ADD416R,0.007619X3.893822*%
%ADD417R,0.007622X3.886200*%
%ADD418R,0.007619X3.878581*%
%ADD419R,0.007622X3.878578*%
%ADD420R,0.007619X3.863341*%
%ADD421R,0.007619X3.855719*%
%ADD422R,0.007622X3.848100*%
%ADD423R,0.007619X3.848100*%
%ADD424R,0.007622X3.832863*%
%ADD425R,0.007619X3.825241*%
%ADD426R,0.007619X3.817622*%
%ADD427R,0.007619X3.802381*%
%ADD428R,0.007622X3.794759*%
%ADD429R,0.007622X3.749041*%
%ADD430R,0.007619X3.726181*%
%ADD431R,0.007622X3.718559*%
%ADD432R,0.007619X3.703322*%
%ADD433R,0.007619X3.672841*%
%ADD434R,0.007622X3.657600*%
%ADD435R,0.007619X3.649981*%
%ADD436R,0.007622X3.634741*%
%ADD437R,0.007619X3.619500*%
%ADD438R,0.007619X3.604263*%
%ADD439R,0.007622X3.589022*%
%ADD440R,0.007619X3.581400*%
%ADD441R,0.007622X3.566159*%
%ADD442R,0.007619X3.543300*%
%ADD443R,0.007622X3.528059*%
%ADD444R,0.007619X3.505200*%
%ADD445R,0.007622X3.482338*%
%ADD446R,0.007619X3.474722*%
%ADD447R,0.007619X3.451859*%
%ADD448R,0.007622X3.436622*%
%ADD449R,0.007619X3.413759*%
%ADD450R,0.007622X3.398519*%
%ADD451R,0.007619X3.375659*%
%ADD452R,0.007619X3.352800*%
%ADD453R,0.007622X3.337559*%
%ADD454R,0.007619X3.307078*%
%ADD455R,0.007622X3.284222*%
%ADD456R,0.007619X3.246122*%
%ADD457R,0.007619X3.215641*%
%ADD458R,0.007622X3.185163*%
%ADD459R,0.007619X3.147059*%
%ADD460R,0.007622X3.093719*%
%ADD461R,0.007619X3.017519*%
%ADD462R,0.007619X2.979419*%
%ADD463C,0.000000*%


D10*
X252101Y62651D02*
X244735Y62651D01*
X244735Y64697D01*
X244737Y64786D01*
X244743Y64875D01*
X244753Y64964D01*
X244766Y65052D01*
X244783Y65140D01*
X244805Y65227D01*
X244830Y65312D01*
X244858Y65397D01*
X244891Y65480D01*
X244927Y65562D01*
X244966Y65642D01*
X245009Y65720D01*
X245055Y65796D01*
X245105Y65871D01*
X245158Y65943D01*
X245214Y66012D01*
X245273Y66079D01*
X245334Y66144D01*
X245399Y66205D01*
X245466Y66264D01*
X245535Y66320D01*
X245607Y66373D01*
X245682Y66423D01*
X245758Y66469D01*
X245836Y66512D01*
X245916Y66551D01*
X245998Y66587D01*
X246081Y66620D01*
X246166Y66648D01*
X246251Y66673D01*
X246338Y66695D01*
X246426Y66712D01*
X246514Y66725D01*
X246603Y66735D01*
X246692Y66741D01*
X246781Y66743D01*
X250054Y66743D01*
X250143Y66741D01*
X250232Y66735D01*
X250321Y66725D01*
X250409Y66712D01*
X250497Y66695D01*
X250584Y66673D01*
X250669Y66648D01*
X250754Y66620D01*
X250837Y66587D01*
X250919Y66551D01*
X250999Y66512D01*
X251077Y66469D01*
X251153Y66423D01*
X251228Y66373D01*
X251300Y66320D01*
X251369Y66264D01*
X251436Y66205D01*
X251501Y66144D01*
X251562Y66079D01*
X251621Y66012D01*
X251677Y65943D01*
X251730Y65871D01*
X251780Y65796D01*
X251826Y65720D01*
X251869Y65642D01*
X251908Y65562D01*
X251944Y65480D01*
X251977Y65397D01*
X252005Y65312D01*
X252030Y65227D01*
X252052Y65140D01*
X252069Y65052D01*
X252082Y64964D01*
X252092Y64875D01*
X252098Y64786D01*
X252100Y64697D01*
X252101Y64697D02*
X252101Y62651D01*
X252101Y72256D02*
X244735Y69801D01*
X244735Y74711D02*
X252101Y72256D01*
X252101Y79139D02*
X252101Y80776D01*
X252101Y79139D02*
X252099Y79061D01*
X252094Y78983D01*
X252084Y78906D01*
X252071Y78829D01*
X252055Y78753D01*
X252035Y78678D01*
X252011Y78604D01*
X251984Y78531D01*
X251953Y78459D01*
X251919Y78389D01*
X251882Y78321D01*
X251841Y78254D01*
X251797Y78189D01*
X251751Y78127D01*
X251701Y78067D01*
X251649Y78009D01*
X251594Y77954D01*
X251536Y77902D01*
X251476Y77852D01*
X251414Y77806D01*
X251349Y77762D01*
X251283Y77721D01*
X251214Y77684D01*
X251144Y77650D01*
X251072Y77619D01*
X250999Y77592D01*
X250925Y77568D01*
X250850Y77548D01*
X250774Y77532D01*
X250697Y77519D01*
X250620Y77509D01*
X250542Y77504D01*
X250464Y77502D01*
X246371Y77502D01*
X246291Y77504D01*
X246211Y77510D01*
X246131Y77520D01*
X246052Y77533D01*
X245973Y77551D01*
X245896Y77572D01*
X245820Y77598D01*
X245745Y77627D01*
X245671Y77659D01*
X245599Y77695D01*
X245529Y77735D01*
X245462Y77778D01*
X245396Y77824D01*
X245333Y77874D01*
X245272Y77926D01*
X245213Y77981D01*
X245158Y78040D01*
X245106Y78100D01*
X245056Y78164D01*
X245010Y78229D01*
X244967Y78297D01*
X244927Y78367D01*
X244891Y78439D01*
X244859Y78513D01*
X244830Y78587D01*
X244805Y78664D01*
X244783Y78741D01*
X244765Y78820D01*
X244752Y78899D01*
X244742Y78978D01*
X244736Y79059D01*
X244734Y79139D01*
X244735Y79139D02*
X244735Y80776D01*
X244735Y83865D02*
X250054Y83865D01*
X250143Y83867D01*
X250232Y83873D01*
X250321Y83883D01*
X250409Y83896D01*
X250497Y83913D01*
X250584Y83935D01*
X250669Y83960D01*
X250754Y83988D01*
X250837Y84021D01*
X250919Y84057D01*
X250999Y84096D01*
X251077Y84139D01*
X251153Y84185D01*
X251228Y84235D01*
X251300Y84288D01*
X251369Y84344D01*
X251436Y84403D01*
X251501Y84464D01*
X251562Y84529D01*
X251621Y84596D01*
X251677Y84665D01*
X251730Y84737D01*
X251780Y84812D01*
X251826Y84888D01*
X251869Y84966D01*
X251908Y85046D01*
X251944Y85128D01*
X251977Y85211D01*
X252005Y85296D01*
X252030Y85381D01*
X252052Y85468D01*
X252069Y85556D01*
X252082Y85644D01*
X252092Y85733D01*
X252098Y85822D01*
X252100Y85911D01*
X252098Y86000D01*
X252092Y86089D01*
X252082Y86178D01*
X252069Y86266D01*
X252052Y86354D01*
X252030Y86441D01*
X252005Y86526D01*
X251977Y86611D01*
X251944Y86694D01*
X251908Y86776D01*
X251869Y86856D01*
X251826Y86934D01*
X251780Y87010D01*
X251730Y87085D01*
X251677Y87157D01*
X251621Y87226D01*
X251562Y87293D01*
X251501Y87358D01*
X251436Y87419D01*
X251369Y87478D01*
X251300Y87534D01*
X251228Y87587D01*
X251153Y87637D01*
X251077Y87683D01*
X250999Y87726D01*
X250919Y87765D01*
X250837Y87801D01*
X250754Y87834D01*
X250669Y87862D01*
X250584Y87887D01*
X250497Y87909D01*
X250409Y87926D01*
X250321Y87939D01*
X250232Y87949D01*
X250143Y87955D01*
X250054Y87957D01*
X244735Y87957D01*
X247190Y95003D02*
X252101Y96640D01*
X247190Y98277D01*
X248418Y101178D02*
X248265Y101180D01*
X248112Y101186D01*
X247960Y101195D01*
X247807Y101209D01*
X247655Y101226D01*
X247504Y101247D01*
X247353Y101272D01*
X247203Y101301D01*
X247053Y101333D01*
X246905Y101370D01*
X246757Y101410D01*
X246610Y101453D01*
X246465Y101501D01*
X246321Y101552D01*
X246178Y101606D01*
X246036Y101665D01*
X245897Y101726D01*
X245758Y101792D01*
X245758Y101791D02*
X245688Y101817D01*
X245618Y101847D01*
X245551Y101880D01*
X245485Y101916D01*
X245421Y101955D01*
X245359Y101998D01*
X245300Y102044D01*
X245242Y102092D01*
X245188Y102143D01*
X245135Y102197D01*
X245086Y102254D01*
X245039Y102313D01*
X244996Y102374D01*
X244955Y102437D01*
X244918Y102502D01*
X244883Y102569D01*
X244853Y102638D01*
X244825Y102708D01*
X244802Y102779D01*
X244781Y102851D01*
X244765Y102924D01*
X244752Y102998D01*
X244742Y103073D01*
X244737Y103148D01*
X244735Y103223D01*
X244737Y103298D01*
X244742Y103373D01*
X244752Y103448D01*
X244765Y103522D01*
X244781Y103595D01*
X244802Y103667D01*
X244825Y103738D01*
X244853Y103808D01*
X244883Y103877D01*
X244918Y103944D01*
X244955Y104009D01*
X244996Y104072D01*
X245039Y104133D01*
X245086Y104192D01*
X245135Y104249D01*
X245188Y104303D01*
X245242Y104354D01*
X245300Y104403D01*
X245359Y104448D01*
X245421Y104491D01*
X245485Y104530D01*
X245551Y104567D01*
X245619Y104599D01*
X245688Y104629D01*
X245758Y104655D01*
X245758Y104656D02*
X245896Y104721D01*
X246036Y104783D01*
X246178Y104841D01*
X246321Y104896D01*
X246465Y104947D01*
X246610Y104995D01*
X246757Y105038D01*
X246904Y105078D01*
X247053Y105115D01*
X247203Y105147D01*
X247353Y105176D01*
X247504Y105201D01*
X247655Y105222D01*
X247807Y105239D01*
X247960Y105253D01*
X248112Y105262D01*
X248265Y105268D01*
X248418Y105270D01*
X248418Y101178D02*
X248571Y101180D01*
X248724Y101186D01*
X248876Y101195D01*
X249029Y101209D01*
X249181Y101226D01*
X249332Y101247D01*
X249483Y101272D01*
X249633Y101301D01*
X249783Y101333D01*
X249931Y101370D01*
X250079Y101410D01*
X250226Y101453D01*
X250371Y101501D01*
X250515Y101552D01*
X250658Y101606D01*
X250800Y101665D01*
X250939Y101726D01*
X251078Y101792D01*
X251077Y101791D02*
X251148Y101817D01*
X251217Y101847D01*
X251284Y101880D01*
X251350Y101916D01*
X251414Y101955D01*
X251476Y101998D01*
X251535Y102044D01*
X251593Y102092D01*
X251647Y102143D01*
X251700Y102197D01*
X251749Y102254D01*
X251796Y102313D01*
X251839Y102374D01*
X251880Y102437D01*
X251917Y102502D01*
X251952Y102569D01*
X251982Y102638D01*
X252010Y102708D01*
X252033Y102779D01*
X252054Y102851D01*
X252070Y102924D01*
X252083Y102998D01*
X252093Y103073D01*
X252098Y103148D01*
X252100Y103223D01*
X251078Y104655D02*
X250940Y104720D01*
X250800Y104782D01*
X250658Y104840D01*
X250515Y104895D01*
X250371Y104946D01*
X250226Y104994D01*
X250079Y105037D01*
X249932Y105077D01*
X249783Y105114D01*
X249633Y105146D01*
X249483Y105175D01*
X249332Y105200D01*
X249181Y105221D01*
X249029Y105238D01*
X248876Y105252D01*
X248724Y105261D01*
X248571Y105267D01*
X248418Y105269D01*
X251077Y104655D02*
X251147Y104629D01*
X251217Y104599D01*
X251284Y104566D01*
X251350Y104530D01*
X251414Y104491D01*
X251476Y104448D01*
X251535Y104402D01*
X251593Y104354D01*
X251647Y104303D01*
X251700Y104249D01*
X251749Y104192D01*
X251796Y104133D01*
X251839Y104072D01*
X251880Y104009D01*
X251917Y103944D01*
X251952Y103877D01*
X251982Y103808D01*
X252010Y103738D01*
X252033Y103667D01*
X252054Y103595D01*
X252070Y103522D01*
X252083Y103448D01*
X252093Y103373D01*
X252098Y103298D01*
X252100Y103223D01*
X250464Y101587D02*
X246371Y104860D01*
X251691Y108139D02*
X252101Y108139D01*
X251691Y108139D02*
X251691Y108549D01*
X252101Y108549D01*
X252101Y108139D01*
X250464Y111419D02*
X244735Y113055D01*
X250464Y111419D02*
X250464Y115511D01*
X248827Y114283D02*
X252101Y114283D01*
X256927Y65925D02*
X264293Y65925D01*
X264293Y63878D01*
X264291Y63809D01*
X264285Y63741D01*
X264276Y63672D01*
X264262Y63605D01*
X264245Y63538D01*
X264224Y63472D01*
X264200Y63408D01*
X264171Y63345D01*
X264140Y63284D01*
X264105Y63225D01*
X264067Y63167D01*
X264025Y63112D01*
X263981Y63060D01*
X263933Y63010D01*
X263883Y62962D01*
X263831Y62918D01*
X263776Y62877D01*
X263718Y62838D01*
X263659Y62803D01*
X263598Y62772D01*
X263535Y62743D01*
X263471Y62719D01*
X263405Y62698D01*
X263338Y62681D01*
X263271Y62667D01*
X263203Y62658D01*
X263134Y62652D01*
X263065Y62650D01*
X263065Y62651D02*
X260610Y62651D01*
X260610Y62650D02*
X260541Y62652D01*
X260473Y62658D01*
X260404Y62667D01*
X260337Y62681D01*
X260270Y62698D01*
X260204Y62719D01*
X260140Y62743D01*
X260077Y62772D01*
X260016Y62803D01*
X259957Y62838D01*
X259899Y62876D01*
X259844Y62918D01*
X259792Y62962D01*
X259742Y63010D01*
X259694Y63060D01*
X259650Y63112D01*
X259608Y63167D01*
X259570Y63225D01*
X259535Y63284D01*
X259504Y63345D01*
X259475Y63408D01*
X259451Y63472D01*
X259430Y63538D01*
X259413Y63605D01*
X259399Y63672D01*
X259390Y63741D01*
X259384Y63809D01*
X259382Y63878D01*
X259382Y65925D01*
X264293Y70503D02*
X264293Y72549D01*
X264293Y70503D02*
X264291Y70434D01*
X264285Y70366D01*
X264276Y70297D01*
X264262Y70230D01*
X264245Y70163D01*
X264224Y70097D01*
X264200Y70033D01*
X264171Y69970D01*
X264140Y69909D01*
X264105Y69850D01*
X264067Y69792D01*
X264025Y69737D01*
X263981Y69685D01*
X263933Y69635D01*
X263883Y69587D01*
X263831Y69543D01*
X263776Y69502D01*
X263718Y69463D01*
X263659Y69428D01*
X263598Y69397D01*
X263535Y69368D01*
X263471Y69344D01*
X263405Y69323D01*
X263338Y69306D01*
X263271Y69292D01*
X263203Y69283D01*
X263134Y69277D01*
X263065Y69275D01*
X261019Y69275D01*
X260940Y69277D01*
X260861Y69283D01*
X260782Y69292D01*
X260704Y69305D01*
X260627Y69323D01*
X260551Y69343D01*
X260476Y69368D01*
X260402Y69396D01*
X260329Y69427D01*
X260258Y69463D01*
X260189Y69501D01*
X260122Y69543D01*
X260057Y69588D01*
X259994Y69636D01*
X259933Y69687D01*
X259876Y69741D01*
X259820Y69797D01*
X259768Y69856D01*
X259718Y69918D01*
X259672Y69982D01*
X259628Y70048D01*
X259588Y70116D01*
X259552Y70186D01*
X259518Y70258D01*
X259488Y70332D01*
X259462Y70406D01*
X259439Y70482D01*
X259421Y70559D01*
X259405Y70636D01*
X259394Y70715D01*
X259386Y70793D01*
X259382Y70872D01*
X259382Y70952D01*
X259386Y71031D01*
X259394Y71109D01*
X259405Y71188D01*
X259421Y71265D01*
X259439Y71342D01*
X259462Y71418D01*
X259488Y71492D01*
X259518Y71566D01*
X259552Y71638D01*
X259588Y71708D01*
X259628Y71776D01*
X259672Y71842D01*
X259718Y71906D01*
X259768Y71968D01*
X259820Y72027D01*
X259876Y72083D01*
X259933Y72137D01*
X259994Y72188D01*
X260057Y72236D01*
X260122Y72281D01*
X260189Y72323D01*
X260258Y72361D01*
X260329Y72397D01*
X260402Y72428D01*
X260476Y72456D01*
X260551Y72481D01*
X260627Y72501D01*
X260704Y72519D01*
X260782Y72532D01*
X260861Y72541D01*
X260940Y72547D01*
X261019Y72549D01*
X261837Y72549D01*
X261837Y69275D01*
X259382Y75371D02*
X264293Y77008D01*
X259382Y78645D01*
X263269Y81437D02*
X263679Y81437D01*
X263269Y81437D02*
X263269Y81846D01*
X263679Y81846D01*
X263679Y81437D01*
X260405Y81437D02*
X259996Y81437D01*
X259996Y81846D01*
X260405Y81846D01*
X260405Y81437D01*
X256927Y89120D02*
X264293Y89120D01*
X264293Y92394D01*
X264293Y94848D02*
X263883Y94848D01*
X263883Y95257D01*
X264293Y95257D01*
X264293Y94848D01*
X264293Y102288D02*
X256927Y102288D01*
X256927Y105561D01*
X260200Y105561D02*
X260200Y102288D01*
X263065Y108373D02*
X256927Y108373D01*
X263065Y108372D02*
X263134Y108374D01*
X263202Y108380D01*
X263271Y108389D01*
X263338Y108403D01*
X263405Y108420D01*
X263471Y108441D01*
X263535Y108465D01*
X263598Y108494D01*
X263659Y108525D01*
X263718Y108560D01*
X263776Y108598D01*
X263831Y108640D01*
X263883Y108684D01*
X263933Y108732D01*
X263981Y108782D01*
X264025Y108834D01*
X264067Y108889D01*
X264105Y108947D01*
X264140Y109006D01*
X264171Y109067D01*
X264200Y109130D01*
X264224Y109194D01*
X264245Y109260D01*
X264262Y109327D01*
X264276Y109394D01*
X264285Y109463D01*
X264291Y109531D01*
X264293Y109600D01*
X261428Y113582D02*
X261428Y115424D01*
X261428Y113582D02*
X261430Y113507D01*
X261436Y113432D01*
X261446Y113358D01*
X261459Y113284D01*
X261477Y113211D01*
X261498Y113139D01*
X261523Y113069D01*
X261552Y113000D01*
X261584Y112932D01*
X261620Y112866D01*
X261659Y112802D01*
X261701Y112740D01*
X261747Y112681D01*
X261796Y112624D01*
X261847Y112569D01*
X261902Y112518D01*
X261959Y112469D01*
X262018Y112423D01*
X262080Y112381D01*
X262144Y112342D01*
X262210Y112306D01*
X262278Y112274D01*
X262347Y112245D01*
X262417Y112220D01*
X262489Y112199D01*
X262562Y112181D01*
X262636Y112168D01*
X262710Y112158D01*
X262785Y112152D01*
X262860Y112150D01*
X262935Y112152D01*
X263010Y112158D01*
X263084Y112168D01*
X263158Y112181D01*
X263231Y112199D01*
X263303Y112220D01*
X263373Y112245D01*
X263442Y112274D01*
X263510Y112306D01*
X263576Y112342D01*
X263640Y112381D01*
X263702Y112423D01*
X263761Y112469D01*
X263818Y112518D01*
X263873Y112569D01*
X263924Y112624D01*
X263973Y112681D01*
X264019Y112740D01*
X264061Y112802D01*
X264100Y112866D01*
X264136Y112932D01*
X264168Y113000D01*
X264197Y113069D01*
X264222Y113139D01*
X264243Y113211D01*
X264261Y113284D01*
X264274Y113358D01*
X264284Y113432D01*
X264290Y113507D01*
X264292Y113582D01*
X264293Y113582D02*
X264293Y115424D01*
X260610Y115424D01*
X260541Y115422D01*
X260473Y115416D01*
X260404Y115407D01*
X260337Y115393D01*
X260270Y115376D01*
X260204Y115355D01*
X260140Y115331D01*
X260077Y115302D01*
X260016Y115271D01*
X259957Y115236D01*
X259899Y115198D01*
X259844Y115156D01*
X259792Y115112D01*
X259742Y115064D01*
X259694Y115014D01*
X259650Y114962D01*
X259609Y114907D01*
X259570Y114849D01*
X259535Y114790D01*
X259504Y114729D01*
X259475Y114666D01*
X259451Y114602D01*
X259430Y114536D01*
X259413Y114469D01*
X259399Y114402D01*
X259390Y114334D01*
X259384Y114265D01*
X259382Y114196D01*
X259382Y112559D01*
X256927Y122007D02*
X264293Y122007D01*
X264293Y119961D01*
X264291Y119892D01*
X264285Y119824D01*
X264276Y119755D01*
X264262Y119688D01*
X264245Y119621D01*
X264224Y119555D01*
X264200Y119491D01*
X264171Y119428D01*
X264140Y119367D01*
X264105Y119308D01*
X264067Y119250D01*
X264025Y119195D01*
X263981Y119143D01*
X263933Y119093D01*
X263883Y119045D01*
X263831Y119001D01*
X263776Y118960D01*
X263718Y118921D01*
X263659Y118886D01*
X263598Y118855D01*
X263535Y118826D01*
X263471Y118802D01*
X263405Y118781D01*
X263338Y118764D01*
X263271Y118750D01*
X263203Y118741D01*
X263134Y118735D01*
X263065Y118733D01*
X263065Y118734D02*
X260610Y118734D01*
X260610Y118733D02*
X260541Y118735D01*
X260473Y118741D01*
X260404Y118750D01*
X260337Y118764D01*
X260270Y118781D01*
X260204Y118802D01*
X260140Y118826D01*
X260077Y118855D01*
X260016Y118886D01*
X259957Y118921D01*
X259899Y118959D01*
X259844Y119001D01*
X259792Y119045D01*
X259742Y119093D01*
X259694Y119143D01*
X259650Y119195D01*
X259608Y119250D01*
X259570Y119308D01*
X259535Y119367D01*
X259504Y119428D01*
X259475Y119491D01*
X259451Y119555D01*
X259430Y119621D01*
X259413Y119688D01*
X259399Y119755D01*
X259390Y119824D01*
X259384Y119892D01*
X259382Y119961D01*
X259382Y122007D01*
X209416Y426003D02*
X207779Y426003D01*
X207701Y426005D01*
X207623Y426010D01*
X207546Y426020D01*
X207469Y426033D01*
X207393Y426049D01*
X207318Y426069D01*
X207244Y426093D01*
X207171Y426120D01*
X207099Y426151D01*
X207029Y426185D01*
X206961Y426222D01*
X206894Y426263D01*
X206829Y426307D01*
X206767Y426353D01*
X206707Y426403D01*
X206649Y426455D01*
X206594Y426510D01*
X206542Y426568D01*
X206492Y426628D01*
X206446Y426690D01*
X206402Y426755D01*
X206361Y426822D01*
X206324Y426890D01*
X206290Y426960D01*
X206259Y427032D01*
X206232Y427105D01*
X206208Y427179D01*
X206188Y427254D01*
X206172Y427330D01*
X206159Y427407D01*
X206149Y427484D01*
X206144Y427562D01*
X206142Y427640D01*
X206143Y427640D02*
X206143Y431732D01*
X206142Y431732D02*
X206144Y431812D01*
X206150Y431892D01*
X206160Y431972D01*
X206173Y432051D01*
X206191Y432130D01*
X206212Y432207D01*
X206238Y432283D01*
X206267Y432358D01*
X206299Y432432D01*
X206335Y432504D01*
X206375Y432574D01*
X206418Y432641D01*
X206464Y432707D01*
X206514Y432770D01*
X206566Y432831D01*
X206621Y432890D01*
X206680Y432945D01*
X206740Y432997D01*
X206804Y433047D01*
X206870Y433093D01*
X206937Y433136D01*
X207007Y433176D01*
X207079Y433212D01*
X207153Y433244D01*
X207227Y433273D01*
X207304Y433299D01*
X207381Y433320D01*
X207460Y433338D01*
X207539Y433351D01*
X207619Y433361D01*
X207699Y433367D01*
X207779Y433369D01*
X209416Y433369D01*
X212262Y431732D02*
X214308Y433369D01*
X214308Y426003D01*
X212262Y426003D02*
X216354Y426003D01*
X219577Y432551D02*
X219577Y433369D01*
X223669Y433369D01*
X221623Y426003D01*
D11*
X284254Y442358D02*
X286851Y442358D01*
X284254Y442358D02*
X284155Y442360D01*
X284055Y442366D01*
X283956Y442375D01*
X283858Y442388D01*
X283760Y442405D01*
X283662Y442426D01*
X283566Y442451D01*
X283471Y442479D01*
X283377Y442511D01*
X283284Y442546D01*
X283192Y442585D01*
X283102Y442628D01*
X283014Y442673D01*
X282927Y442723D01*
X282843Y442775D01*
X282760Y442831D01*
X282680Y442889D01*
X282602Y442951D01*
X282527Y443016D01*
X282454Y443084D01*
X282384Y443154D01*
X282316Y443227D01*
X282251Y443302D01*
X282189Y443380D01*
X282131Y443460D01*
X282075Y443543D01*
X282023Y443627D01*
X281973Y443714D01*
X281928Y443802D01*
X281885Y443892D01*
X281846Y443984D01*
X281811Y444077D01*
X281779Y444171D01*
X281751Y444266D01*
X281726Y444362D01*
X281705Y444460D01*
X281688Y444558D01*
X281675Y444656D01*
X281666Y444755D01*
X281660Y444855D01*
X281658Y444954D01*
X281658Y451446D01*
X281660Y451545D01*
X281666Y451645D01*
X281675Y451744D01*
X281688Y451842D01*
X281705Y451940D01*
X281726Y452038D01*
X281751Y452134D01*
X281779Y452229D01*
X281811Y452323D01*
X281846Y452416D01*
X281885Y452508D01*
X281928Y452598D01*
X281973Y452686D01*
X282023Y452773D01*
X282075Y452857D01*
X282131Y452940D01*
X282189Y453020D01*
X282251Y453098D01*
X282316Y453173D01*
X282384Y453246D01*
X282454Y453316D01*
X282527Y453384D01*
X282602Y453449D01*
X282680Y453511D01*
X282760Y453569D01*
X282843Y453625D01*
X282927Y453677D01*
X283014Y453727D01*
X283102Y453772D01*
X283192Y453815D01*
X283284Y453854D01*
X283376Y453889D01*
X283471Y453921D01*
X283566Y453949D01*
X283662Y453974D01*
X283760Y453995D01*
X283858Y454012D01*
X283956Y454025D01*
X284055Y454034D01*
X284155Y454040D01*
X284254Y454042D01*
X286851Y454042D01*
X294786Y454042D02*
X294893Y454040D01*
X294999Y454034D01*
X295105Y454024D01*
X295211Y454011D01*
X295317Y453993D01*
X295421Y453972D01*
X295525Y453947D01*
X295628Y453918D01*
X295729Y453886D01*
X295829Y453849D01*
X295928Y453809D01*
X296026Y453766D01*
X296122Y453719D01*
X296216Y453668D01*
X296308Y453614D01*
X296398Y453557D01*
X296486Y453497D01*
X296571Y453433D01*
X296654Y453366D01*
X296735Y453296D01*
X296813Y453224D01*
X296889Y453148D01*
X296961Y453070D01*
X297031Y452989D01*
X297098Y452906D01*
X297162Y452821D01*
X297222Y452733D01*
X297279Y452643D01*
X297333Y452551D01*
X297384Y452457D01*
X297431Y452361D01*
X297474Y452263D01*
X297514Y452164D01*
X297551Y452064D01*
X297583Y451963D01*
X297612Y451860D01*
X297637Y451756D01*
X297658Y451652D01*
X297676Y451546D01*
X297689Y451440D01*
X297699Y451334D01*
X297705Y451228D01*
X297707Y451121D01*
X294786Y454042D02*
X294665Y454040D01*
X294544Y454034D01*
X294424Y454024D01*
X294303Y454011D01*
X294184Y453993D01*
X294064Y453972D01*
X293946Y453947D01*
X293829Y453918D01*
X293712Y453885D01*
X293597Y453849D01*
X293483Y453808D01*
X293370Y453765D01*
X293258Y453717D01*
X293149Y453666D01*
X293041Y453611D01*
X292934Y453553D01*
X292830Y453492D01*
X292728Y453427D01*
X292628Y453359D01*
X292530Y453288D01*
X292434Y453214D01*
X292341Y453137D01*
X292251Y453056D01*
X292163Y452973D01*
X292078Y452887D01*
X291995Y452798D01*
X291916Y452707D01*
X291839Y452613D01*
X291766Y452517D01*
X291696Y452419D01*
X291629Y452318D01*
X291565Y452215D01*
X291505Y452110D01*
X291448Y452003D01*
X291394Y451895D01*
X291344Y451785D01*
X291298Y451673D01*
X291255Y451560D01*
X291216Y451445D01*
X296734Y448849D02*
X296813Y448926D01*
X296889Y449007D01*
X296962Y449090D01*
X297032Y449175D01*
X297099Y449263D01*
X297163Y449353D01*
X297223Y449445D01*
X297280Y449540D01*
X297334Y449636D01*
X297385Y449734D01*
X297432Y449834D01*
X297476Y449936D01*
X297516Y450039D01*
X297552Y450143D01*
X297584Y450249D01*
X297613Y450355D01*
X297638Y450463D01*
X297660Y450571D01*
X297677Y450681D01*
X297691Y450790D01*
X297700Y450900D01*
X297706Y451011D01*
X297708Y451121D01*
X296734Y448849D02*
X291216Y442358D01*
X297707Y442358D01*
X305243Y447551D02*
X309137Y447551D01*
X305243Y447551D02*
X305144Y447553D01*
X305044Y447559D01*
X304945Y447568D01*
X304847Y447581D01*
X304749Y447598D01*
X304651Y447619D01*
X304555Y447644D01*
X304460Y447672D01*
X304366Y447704D01*
X304273Y447739D01*
X304181Y447778D01*
X304091Y447821D01*
X304003Y447866D01*
X303916Y447916D01*
X303832Y447968D01*
X303749Y448024D01*
X303669Y448082D01*
X303591Y448144D01*
X303516Y448209D01*
X303443Y448277D01*
X303373Y448347D01*
X303305Y448420D01*
X303240Y448495D01*
X303178Y448573D01*
X303120Y448653D01*
X303064Y448736D01*
X303012Y448820D01*
X302962Y448907D01*
X302917Y448995D01*
X302874Y449085D01*
X302835Y449177D01*
X302800Y449270D01*
X302768Y449364D01*
X302740Y449459D01*
X302715Y449555D01*
X302694Y449653D01*
X302677Y449751D01*
X302664Y449849D01*
X302655Y449948D01*
X302649Y450048D01*
X302647Y450147D01*
X302646Y450147D02*
X302646Y450796D01*
X302648Y450909D01*
X302654Y451022D01*
X302664Y451135D01*
X302678Y451248D01*
X302695Y451360D01*
X302717Y451471D01*
X302742Y451581D01*
X302772Y451691D01*
X302805Y451799D01*
X302842Y451906D01*
X302882Y452012D01*
X302927Y452116D01*
X302975Y452219D01*
X303026Y452320D01*
X303081Y452419D01*
X303139Y452516D01*
X303201Y452611D01*
X303266Y452704D01*
X303334Y452794D01*
X303405Y452882D01*
X303480Y452968D01*
X303557Y453051D01*
X303637Y453131D01*
X303720Y453208D01*
X303806Y453283D01*
X303894Y453354D01*
X303984Y453422D01*
X304077Y453487D01*
X304172Y453549D01*
X304269Y453607D01*
X304368Y453662D01*
X304469Y453713D01*
X304572Y453761D01*
X304676Y453806D01*
X304782Y453846D01*
X304889Y453883D01*
X304997Y453916D01*
X305107Y453946D01*
X305217Y453971D01*
X305328Y453993D01*
X305440Y454010D01*
X305553Y454024D01*
X305666Y454034D01*
X305779Y454040D01*
X305892Y454042D01*
X306005Y454040D01*
X306118Y454034D01*
X306231Y454024D01*
X306344Y454010D01*
X306456Y453993D01*
X306567Y453971D01*
X306677Y453946D01*
X306787Y453916D01*
X306895Y453883D01*
X307002Y453846D01*
X307108Y453806D01*
X307212Y453761D01*
X307315Y453713D01*
X307416Y453662D01*
X307515Y453607D01*
X307612Y453549D01*
X307707Y453487D01*
X307800Y453422D01*
X307890Y453354D01*
X307978Y453283D01*
X308064Y453208D01*
X308147Y453131D01*
X308227Y453051D01*
X308304Y452968D01*
X308379Y452882D01*
X308450Y452794D01*
X308518Y452704D01*
X308583Y452611D01*
X308645Y452516D01*
X308703Y452419D01*
X308758Y452320D01*
X308809Y452219D01*
X308857Y452116D01*
X308902Y452012D01*
X308942Y451906D01*
X308979Y451799D01*
X309012Y451691D01*
X309042Y451581D01*
X309067Y451471D01*
X309089Y451360D01*
X309106Y451248D01*
X309120Y451135D01*
X309130Y451022D01*
X309136Y450909D01*
X309138Y450796D01*
X309137Y450796D02*
X309137Y447551D01*
X309135Y447408D01*
X309129Y447265D01*
X309119Y447122D01*
X309105Y446980D01*
X309088Y446838D01*
X309066Y446696D01*
X309041Y446555D01*
X309011Y446415D01*
X308978Y446276D01*
X308941Y446138D01*
X308900Y446001D01*
X308856Y445865D01*
X308807Y445730D01*
X308755Y445597D01*
X308700Y445465D01*
X308640Y445335D01*
X308577Y445206D01*
X308511Y445079D01*
X308441Y444954D01*
X308368Y444832D01*
X308291Y444711D01*
X308211Y444592D01*
X308128Y444476D01*
X308042Y444361D01*
X307953Y444250D01*
X307860Y444140D01*
X307765Y444034D01*
X307666Y443930D01*
X307565Y443829D01*
X307461Y443730D01*
X307355Y443635D01*
X307245Y443542D01*
X307134Y443453D01*
X307019Y443367D01*
X306903Y443284D01*
X306784Y443204D01*
X306663Y443127D01*
X306541Y443054D01*
X306416Y442984D01*
X306289Y442918D01*
X306160Y442855D01*
X306030Y442795D01*
X305898Y442740D01*
X305765Y442688D01*
X305630Y442639D01*
X305494Y442595D01*
X305357Y442554D01*
X305219Y442517D01*
X305080Y442484D01*
X304940Y442454D01*
X304799Y442429D01*
X304657Y442407D01*
X304515Y442390D01*
X304373Y442376D01*
X304230Y442366D01*
X304087Y442360D01*
X303944Y442358D01*
X373654Y442358D02*
X376251Y442358D01*
X373654Y442358D02*
X373555Y442360D01*
X373455Y442366D01*
X373356Y442375D01*
X373258Y442388D01*
X373160Y442405D01*
X373062Y442426D01*
X372966Y442451D01*
X372871Y442479D01*
X372777Y442511D01*
X372684Y442546D01*
X372592Y442585D01*
X372502Y442628D01*
X372414Y442673D01*
X372327Y442723D01*
X372243Y442775D01*
X372160Y442831D01*
X372080Y442889D01*
X372002Y442951D01*
X371927Y443016D01*
X371854Y443084D01*
X371784Y443154D01*
X371716Y443227D01*
X371651Y443302D01*
X371589Y443380D01*
X371531Y443460D01*
X371475Y443543D01*
X371423Y443627D01*
X371373Y443714D01*
X371328Y443802D01*
X371285Y443892D01*
X371246Y443984D01*
X371211Y444077D01*
X371179Y444171D01*
X371151Y444266D01*
X371126Y444362D01*
X371105Y444460D01*
X371088Y444558D01*
X371075Y444656D01*
X371066Y444755D01*
X371060Y444855D01*
X371058Y444954D01*
X371058Y451446D01*
X371060Y451545D01*
X371066Y451645D01*
X371075Y451744D01*
X371088Y451842D01*
X371105Y451940D01*
X371126Y452038D01*
X371151Y452134D01*
X371179Y452229D01*
X371211Y452323D01*
X371246Y452416D01*
X371285Y452508D01*
X371328Y452598D01*
X371373Y452686D01*
X371423Y452773D01*
X371475Y452857D01*
X371531Y452940D01*
X371589Y453020D01*
X371651Y453098D01*
X371716Y453173D01*
X371784Y453246D01*
X371854Y453316D01*
X371927Y453384D01*
X372002Y453449D01*
X372080Y453511D01*
X372160Y453569D01*
X372243Y453625D01*
X372327Y453677D01*
X372414Y453727D01*
X372502Y453772D01*
X372592Y453815D01*
X372684Y453854D01*
X372776Y453889D01*
X372871Y453921D01*
X372966Y453949D01*
X373062Y453974D01*
X373160Y453995D01*
X373258Y454012D01*
X373356Y454025D01*
X373455Y454034D01*
X373555Y454040D01*
X373654Y454042D01*
X376251Y454042D01*
X380616Y442358D02*
X383862Y442358D01*
X383975Y442360D01*
X384088Y442366D01*
X384201Y442376D01*
X384314Y442390D01*
X384426Y442407D01*
X384537Y442429D01*
X384647Y442454D01*
X384757Y442484D01*
X384865Y442517D01*
X384972Y442554D01*
X385078Y442594D01*
X385182Y442639D01*
X385285Y442687D01*
X385386Y442738D01*
X385485Y442793D01*
X385582Y442851D01*
X385677Y442913D01*
X385770Y442978D01*
X385860Y443046D01*
X385948Y443117D01*
X386034Y443192D01*
X386117Y443269D01*
X386197Y443349D01*
X386274Y443432D01*
X386349Y443518D01*
X386420Y443606D01*
X386488Y443696D01*
X386553Y443789D01*
X386615Y443884D01*
X386673Y443981D01*
X386728Y444080D01*
X386779Y444181D01*
X386827Y444284D01*
X386872Y444388D01*
X386912Y444494D01*
X386949Y444601D01*
X386982Y444709D01*
X387012Y444819D01*
X387037Y444929D01*
X387059Y445040D01*
X387076Y445152D01*
X387090Y445265D01*
X387100Y445378D01*
X387106Y445491D01*
X387108Y445604D01*
X387106Y445717D01*
X387100Y445830D01*
X387090Y445943D01*
X387076Y446056D01*
X387059Y446168D01*
X387037Y446279D01*
X387012Y446389D01*
X386982Y446499D01*
X386949Y446607D01*
X386912Y446714D01*
X386872Y446820D01*
X386827Y446924D01*
X386779Y447027D01*
X386728Y447128D01*
X386673Y447227D01*
X386615Y447324D01*
X386553Y447419D01*
X386488Y447512D01*
X386420Y447602D01*
X386349Y447690D01*
X386274Y447776D01*
X386197Y447859D01*
X386117Y447939D01*
X386034Y448016D01*
X385948Y448091D01*
X385860Y448162D01*
X385770Y448230D01*
X385677Y448295D01*
X385582Y448357D01*
X385485Y448415D01*
X385386Y448470D01*
X385285Y448521D01*
X385182Y448569D01*
X385078Y448614D01*
X384972Y448654D01*
X384865Y448691D01*
X384757Y448724D01*
X384647Y448754D01*
X384537Y448779D01*
X384426Y448801D01*
X384314Y448818D01*
X384201Y448832D01*
X384088Y448842D01*
X383975Y448848D01*
X383862Y448850D01*
X384511Y454042D02*
X380616Y454042D01*
X384511Y454042D02*
X384612Y454040D01*
X384712Y454034D01*
X384812Y454024D01*
X384912Y454011D01*
X385011Y453993D01*
X385110Y453972D01*
X385207Y453947D01*
X385304Y453918D01*
X385399Y453885D01*
X385493Y453849D01*
X385585Y453809D01*
X385676Y453766D01*
X385765Y453719D01*
X385852Y453669D01*
X385938Y453615D01*
X386021Y453558D01*
X386101Y453498D01*
X386180Y453435D01*
X386256Y453368D01*
X386329Y453299D01*
X386399Y453227D01*
X386467Y453153D01*
X386532Y453076D01*
X386593Y452996D01*
X386652Y452914D01*
X386707Y452830D01*
X386759Y452744D01*
X386808Y452656D01*
X386853Y452566D01*
X386895Y452474D01*
X386933Y452381D01*
X386967Y452286D01*
X386998Y452191D01*
X387025Y452094D01*
X387048Y451996D01*
X387068Y451897D01*
X387083Y451797D01*
X387095Y451697D01*
X387103Y451597D01*
X387107Y451496D01*
X387107Y451396D01*
X387103Y451295D01*
X387095Y451195D01*
X387083Y451095D01*
X387068Y450995D01*
X387048Y450896D01*
X387025Y450798D01*
X386998Y450701D01*
X386967Y450606D01*
X386933Y450511D01*
X386895Y450418D01*
X386853Y450326D01*
X386808Y450236D01*
X386759Y450148D01*
X386707Y450062D01*
X386652Y449978D01*
X386593Y449896D01*
X386532Y449816D01*
X386467Y449739D01*
X386399Y449665D01*
X386329Y449593D01*
X386256Y449524D01*
X386180Y449457D01*
X386101Y449394D01*
X386021Y449334D01*
X385938Y449277D01*
X385852Y449223D01*
X385765Y449173D01*
X385676Y449126D01*
X385585Y449083D01*
X385493Y449043D01*
X385399Y449007D01*
X385304Y448974D01*
X385207Y448945D01*
X385110Y448920D01*
X385011Y448899D01*
X384912Y448881D01*
X384812Y448868D01*
X384712Y448858D01*
X384612Y448852D01*
X384511Y448850D01*
X384511Y448849D02*
X381914Y448849D01*
X392047Y448200D02*
X392050Y448430D01*
X392058Y448660D01*
X392072Y448889D01*
X392091Y449118D01*
X392116Y449347D01*
X392146Y449574D01*
X392181Y449802D01*
X392222Y450028D01*
X392268Y450253D01*
X392320Y450477D01*
X392377Y450699D01*
X392439Y450921D01*
X392507Y451140D01*
X392580Y451358D01*
X392658Y451575D01*
X392741Y451789D01*
X392829Y452001D01*
X392922Y452211D01*
X393021Y452419D01*
X393020Y452419D02*
X393053Y452509D01*
X393089Y452598D01*
X393129Y452686D01*
X393173Y452771D01*
X393220Y452855D01*
X393270Y452937D01*
X393324Y453017D01*
X393380Y453094D01*
X393440Y453170D01*
X393503Y453243D01*
X393568Y453313D01*
X393637Y453381D01*
X393708Y453445D01*
X393781Y453507D01*
X393857Y453566D01*
X393935Y453622D01*
X394016Y453675D01*
X394098Y453724D01*
X394182Y453770D01*
X394269Y453813D01*
X394356Y453852D01*
X394446Y453888D01*
X394536Y453920D01*
X394628Y453948D01*
X394721Y453973D01*
X394815Y453994D01*
X394909Y454011D01*
X395004Y454025D01*
X395100Y454034D01*
X395196Y454040D01*
X395292Y454042D01*
X395388Y454040D01*
X395484Y454034D01*
X395580Y454025D01*
X395675Y454011D01*
X395769Y453994D01*
X395863Y453973D01*
X395956Y453948D01*
X396048Y453920D01*
X396138Y453888D01*
X396228Y453852D01*
X396315Y453813D01*
X396402Y453770D01*
X396486Y453724D01*
X396568Y453675D01*
X396649Y453622D01*
X396727Y453566D01*
X396803Y453507D01*
X396876Y453445D01*
X396947Y453381D01*
X397016Y453313D01*
X397081Y453243D01*
X397144Y453170D01*
X397204Y453094D01*
X397260Y453017D01*
X397314Y452937D01*
X397364Y452855D01*
X397411Y452771D01*
X397455Y452686D01*
X397495Y452598D01*
X397531Y452509D01*
X397564Y452419D01*
X397663Y452212D01*
X397756Y452002D01*
X397844Y451789D01*
X397927Y451575D01*
X398005Y451359D01*
X398078Y451141D01*
X398146Y450921D01*
X398208Y450700D01*
X398265Y450477D01*
X398317Y450253D01*
X398363Y450028D01*
X398404Y449802D01*
X398439Y449575D01*
X398469Y449347D01*
X398494Y449118D01*
X398513Y448889D01*
X398527Y448660D01*
X398535Y448430D01*
X398538Y448200D01*
X392046Y448200D02*
X392049Y447970D01*
X392057Y447740D01*
X392071Y447511D01*
X392090Y447282D01*
X392115Y447053D01*
X392145Y446825D01*
X392180Y446598D01*
X392221Y446372D01*
X392267Y446147D01*
X392319Y445923D01*
X392376Y445700D01*
X392438Y445479D01*
X392506Y445259D01*
X392579Y445041D01*
X392657Y444825D01*
X392740Y444611D01*
X392828Y444399D01*
X392921Y444188D01*
X393020Y443981D01*
X393053Y443891D01*
X393089Y443802D01*
X393130Y443714D01*
X393173Y443629D01*
X393220Y443545D01*
X393270Y443463D01*
X393324Y443383D01*
X393380Y443306D01*
X393440Y443230D01*
X393503Y443157D01*
X393568Y443087D01*
X393637Y443019D01*
X393708Y442955D01*
X393781Y442893D01*
X393857Y442834D01*
X393935Y442778D01*
X394016Y442725D01*
X394098Y442676D01*
X394182Y442630D01*
X394269Y442587D01*
X394356Y442548D01*
X394446Y442512D01*
X394536Y442480D01*
X394628Y442452D01*
X394721Y442427D01*
X394815Y442406D01*
X394909Y442389D01*
X395004Y442375D01*
X395100Y442366D01*
X395196Y442360D01*
X395292Y442358D01*
X397564Y443981D02*
X397663Y444188D01*
X397756Y444399D01*
X397844Y444611D01*
X397927Y444825D01*
X398005Y445041D01*
X398078Y445259D01*
X398146Y445479D01*
X398208Y445700D01*
X398265Y445923D01*
X398317Y446147D01*
X398363Y446372D01*
X398404Y446598D01*
X398439Y446825D01*
X398469Y447053D01*
X398494Y447282D01*
X398513Y447511D01*
X398527Y447740D01*
X398535Y447970D01*
X398538Y448200D01*
X397564Y443981D02*
X397531Y443891D01*
X397495Y443802D01*
X397455Y443714D01*
X397411Y443629D01*
X397364Y443545D01*
X397314Y443463D01*
X397260Y443383D01*
X397204Y443306D01*
X397144Y443230D01*
X397081Y443157D01*
X397016Y443087D01*
X396947Y443019D01*
X396876Y442955D01*
X396803Y442893D01*
X396727Y442834D01*
X396649Y442778D01*
X396568Y442725D01*
X396486Y442676D01*
X396402Y442630D01*
X396315Y442587D01*
X396228Y442548D01*
X396138Y442512D01*
X396048Y442480D01*
X395956Y442452D01*
X395863Y442427D01*
X395769Y442406D01*
X395675Y442389D01*
X395580Y442375D01*
X395484Y442366D01*
X395388Y442360D01*
X395292Y442358D01*
X392695Y444954D02*
X397888Y451446D01*
D10*
X169848Y427131D02*
X168239Y427131D01*
X168160Y427133D01*
X168081Y427139D01*
X168003Y427148D01*
X167925Y427162D01*
X167848Y427179D01*
X167772Y427200D01*
X167697Y427225D01*
X167624Y427253D01*
X167551Y427285D01*
X167481Y427321D01*
X167412Y427360D01*
X167346Y427402D01*
X167281Y427447D01*
X167219Y427496D01*
X167159Y427548D01*
X167102Y427602D01*
X167048Y427659D01*
X166996Y427719D01*
X166947Y427781D01*
X166902Y427846D01*
X166860Y427912D01*
X166821Y427981D01*
X166785Y428051D01*
X166753Y428124D01*
X166725Y428197D01*
X166700Y428272D01*
X166679Y428348D01*
X166662Y428425D01*
X166648Y428503D01*
X166639Y428581D01*
X166633Y428660D01*
X166631Y428739D01*
X166631Y432761D01*
X166633Y432840D01*
X166639Y432919D01*
X166648Y432997D01*
X166662Y433075D01*
X166679Y433152D01*
X166700Y433228D01*
X166725Y433303D01*
X166753Y433376D01*
X166785Y433449D01*
X166821Y433519D01*
X166860Y433588D01*
X166902Y433654D01*
X166947Y433719D01*
X166996Y433781D01*
X167048Y433841D01*
X167102Y433898D01*
X167159Y433952D01*
X167219Y434004D01*
X167281Y434053D01*
X167346Y434098D01*
X167412Y434140D01*
X167481Y434179D01*
X167551Y434215D01*
X167624Y434247D01*
X167697Y434275D01*
X167772Y434300D01*
X167848Y434321D01*
X167925Y434338D01*
X168003Y434352D01*
X168081Y434361D01*
X168160Y434367D01*
X168239Y434369D01*
X169848Y434369D01*
X174865Y434370D02*
X174949Y434368D01*
X175032Y434362D01*
X175115Y434353D01*
X175198Y434339D01*
X175279Y434322D01*
X175360Y434301D01*
X175440Y434276D01*
X175519Y434248D01*
X175596Y434216D01*
X175672Y434180D01*
X175746Y434141D01*
X175818Y434099D01*
X175888Y434053D01*
X175956Y434004D01*
X176021Y433952D01*
X176084Y433898D01*
X176145Y433840D01*
X176203Y433779D01*
X176257Y433716D01*
X176309Y433651D01*
X176358Y433583D01*
X176404Y433513D01*
X176446Y433441D01*
X176485Y433367D01*
X176521Y433291D01*
X176553Y433214D01*
X176581Y433135D01*
X176606Y433055D01*
X176627Y432974D01*
X176644Y432893D01*
X176658Y432810D01*
X176667Y432727D01*
X176673Y432644D01*
X176675Y432560D01*
X174865Y434369D02*
X174771Y434367D01*
X174677Y434361D01*
X174583Y434352D01*
X174489Y434338D01*
X174397Y434321D01*
X174305Y434300D01*
X174214Y434276D01*
X174124Y434248D01*
X174035Y434216D01*
X173947Y434180D01*
X173862Y434141D01*
X173777Y434099D01*
X173695Y434053D01*
X173614Y434004D01*
X173536Y433952D01*
X173460Y433896D01*
X173386Y433838D01*
X173314Y433776D01*
X173245Y433712D01*
X173179Y433645D01*
X173115Y433575D01*
X173055Y433503D01*
X172997Y433428D01*
X172942Y433351D01*
X172891Y433272D01*
X172843Y433191D01*
X172798Y433108D01*
X172756Y433024D01*
X172718Y432937D01*
X172684Y432849D01*
X172653Y432760D01*
X176072Y431152D02*
X176134Y431214D01*
X176193Y431278D01*
X176249Y431346D01*
X176302Y431415D01*
X176352Y431487D01*
X176399Y431561D01*
X176442Y431637D01*
X176482Y431715D01*
X176518Y431794D01*
X176550Y431875D01*
X176579Y431958D01*
X176605Y432042D01*
X176626Y432126D01*
X176644Y432212D01*
X176657Y432298D01*
X176667Y432385D01*
X176673Y432473D01*
X176675Y432560D01*
X176072Y431152D02*
X172654Y427131D01*
X176675Y427131D01*
X179854Y431152D02*
X182267Y431152D01*
X182346Y431150D01*
X182425Y431144D01*
X182503Y431135D01*
X182581Y431121D01*
X182658Y431104D01*
X182734Y431083D01*
X182809Y431058D01*
X182882Y431030D01*
X182955Y430998D01*
X183025Y430962D01*
X183094Y430923D01*
X183160Y430881D01*
X183225Y430836D01*
X183287Y430787D01*
X183347Y430735D01*
X183404Y430681D01*
X183458Y430624D01*
X183510Y430564D01*
X183559Y430502D01*
X183604Y430437D01*
X183646Y430371D01*
X183685Y430302D01*
X183721Y430232D01*
X183753Y430159D01*
X183781Y430086D01*
X183806Y430011D01*
X183827Y429935D01*
X183844Y429858D01*
X183858Y429780D01*
X183867Y429702D01*
X183873Y429623D01*
X183875Y429544D01*
X183875Y429142D01*
X183873Y429053D01*
X183867Y428964D01*
X183857Y428876D01*
X183844Y428788D01*
X183826Y428701D01*
X183805Y428614D01*
X183779Y428529D01*
X183750Y428445D01*
X183718Y428362D01*
X183681Y428281D01*
X183641Y428201D01*
X183598Y428124D01*
X183551Y428048D01*
X183501Y427974D01*
X183448Y427903D01*
X183392Y427834D01*
X183332Y427768D01*
X183270Y427704D01*
X183205Y427644D01*
X183138Y427586D01*
X183068Y427531D01*
X182995Y427479D01*
X182920Y427431D01*
X182844Y427386D01*
X182765Y427344D01*
X182685Y427306D01*
X182603Y427272D01*
X182519Y427241D01*
X182434Y427214D01*
X182349Y427190D01*
X182262Y427171D01*
X182174Y427155D01*
X182086Y427143D01*
X181997Y427135D01*
X181908Y427131D01*
X181820Y427131D01*
X181731Y427135D01*
X181642Y427143D01*
X181554Y427155D01*
X181466Y427171D01*
X181379Y427190D01*
X181294Y427214D01*
X181209Y427241D01*
X181125Y427272D01*
X181043Y427306D01*
X180963Y427344D01*
X180884Y427386D01*
X180808Y427431D01*
X180733Y427479D01*
X180660Y427531D01*
X180590Y427586D01*
X180523Y427644D01*
X180458Y427704D01*
X180396Y427768D01*
X180336Y427834D01*
X180280Y427903D01*
X180227Y427974D01*
X180177Y428048D01*
X180130Y428124D01*
X180087Y428201D01*
X180047Y428281D01*
X180010Y428362D01*
X179978Y428445D01*
X179949Y428529D01*
X179923Y428614D01*
X179902Y428701D01*
X179884Y428788D01*
X179871Y428876D01*
X179861Y428964D01*
X179855Y429053D01*
X179853Y429142D01*
X179854Y429142D02*
X179854Y431152D01*
X179856Y431264D01*
X179862Y431376D01*
X179872Y431488D01*
X179885Y431600D01*
X179903Y431711D01*
X179924Y431821D01*
X179950Y431930D01*
X179979Y432039D01*
X180011Y432146D01*
X180048Y432252D01*
X180088Y432357D01*
X180132Y432460D01*
X180180Y432562D01*
X180231Y432662D01*
X180285Y432760D01*
X180343Y432857D01*
X180404Y432951D01*
X180468Y433043D01*
X180536Y433133D01*
X180607Y433220D01*
X180680Y433305D01*
X180757Y433387D01*
X180836Y433466D01*
X180918Y433543D01*
X181003Y433616D01*
X181090Y433687D01*
X181180Y433755D01*
X181272Y433819D01*
X181366Y433880D01*
X181462Y433938D01*
X181561Y433992D01*
X181661Y434043D01*
X181763Y434091D01*
X181866Y434135D01*
X181971Y434175D01*
X182077Y434212D01*
X182184Y434244D01*
X182293Y434273D01*
X182402Y434299D01*
X182512Y434320D01*
X182623Y434338D01*
X182735Y434351D01*
X182847Y434361D01*
X182959Y434367D01*
X183071Y434369D01*
D12*
X237250Y131320D02*
X237250Y86320D01*
X200750Y86320D02*
X200750Y131320D01*
X231500Y131320D02*
X237250Y131320D01*
X206500Y131320D02*
X200750Y131320D01*
X200750Y86320D02*
X203625Y86344D01*
X206500Y86320D01*
X231500Y86320D02*
X237250Y86320D01*
D13*
X234000Y120070D03*
X204000Y120070D03*
D14*
X167994Y110265D02*
X167994Y98835D01*
X167994Y110265D02*
X171169Y110265D01*
X171280Y110263D01*
X171390Y110257D01*
X171501Y110248D01*
X171611Y110234D01*
X171720Y110217D01*
X171829Y110196D01*
X171937Y110171D01*
X172044Y110142D01*
X172150Y110110D01*
X172255Y110074D01*
X172358Y110034D01*
X172460Y109991D01*
X172561Y109944D01*
X172660Y109893D01*
X172757Y109840D01*
X172851Y109783D01*
X172944Y109722D01*
X173035Y109659D01*
X173124Y109592D01*
X173210Y109522D01*
X173293Y109449D01*
X173375Y109374D01*
X173453Y109296D01*
X173528Y109214D01*
X173601Y109131D01*
X173671Y109045D01*
X173738Y108956D01*
X173801Y108865D01*
X173862Y108772D01*
X173919Y108678D01*
X173972Y108581D01*
X174023Y108482D01*
X174070Y108381D01*
X174113Y108279D01*
X174153Y108176D01*
X174189Y108071D01*
X174221Y107965D01*
X174250Y107858D01*
X174275Y107750D01*
X174296Y107641D01*
X174313Y107532D01*
X174327Y107422D01*
X174336Y107311D01*
X174342Y107201D01*
X174344Y107090D01*
X174344Y102010D01*
X174342Y101899D01*
X174336Y101789D01*
X174327Y101678D01*
X174313Y101568D01*
X174296Y101459D01*
X174275Y101350D01*
X174250Y101242D01*
X174221Y101135D01*
X174189Y101029D01*
X174153Y100924D01*
X174113Y100821D01*
X174070Y100719D01*
X174023Y100618D01*
X173972Y100519D01*
X173919Y100422D01*
X173862Y100328D01*
X173801Y100235D01*
X173738Y100144D01*
X173671Y100055D01*
X173601Y99969D01*
X173528Y99886D01*
X173453Y99804D01*
X173375Y99726D01*
X173293Y99651D01*
X173210Y99578D01*
X173124Y99508D01*
X173035Y99441D01*
X172944Y99378D01*
X172851Y99317D01*
X172756Y99260D01*
X172660Y99207D01*
X172561Y99156D01*
X172460Y99109D01*
X172358Y99066D01*
X172255Y99026D01*
X172150Y98990D01*
X172044Y98958D01*
X171937Y98929D01*
X171829Y98904D01*
X171720Y98883D01*
X171611Y98866D01*
X171501Y98852D01*
X171390Y98843D01*
X171280Y98837D01*
X171169Y98835D01*
X167994Y98835D01*
X179805Y107725D02*
X182980Y110265D01*
X182980Y98835D01*
X179805Y98835D02*
X186155Y98835D01*
X191235Y102010D02*
X191237Y102121D01*
X191243Y102231D01*
X191252Y102342D01*
X191266Y102452D01*
X191283Y102561D01*
X191304Y102670D01*
X191329Y102778D01*
X191358Y102885D01*
X191390Y102991D01*
X191426Y103096D01*
X191466Y103199D01*
X191509Y103301D01*
X191556Y103402D01*
X191607Y103501D01*
X191660Y103597D01*
X191717Y103692D01*
X191778Y103785D01*
X191841Y103876D01*
X191908Y103965D01*
X191978Y104051D01*
X192051Y104134D01*
X192126Y104216D01*
X192204Y104294D01*
X192286Y104369D01*
X192369Y104442D01*
X192455Y104512D01*
X192544Y104579D01*
X192635Y104642D01*
X192728Y104703D01*
X192823Y104760D01*
X192919Y104813D01*
X193018Y104864D01*
X193119Y104911D01*
X193221Y104954D01*
X193324Y104994D01*
X193429Y105030D01*
X193535Y105062D01*
X193642Y105091D01*
X193750Y105116D01*
X193859Y105137D01*
X193968Y105154D01*
X194078Y105168D01*
X194189Y105177D01*
X194299Y105183D01*
X194410Y105185D01*
X194521Y105183D01*
X194631Y105177D01*
X194742Y105168D01*
X194852Y105154D01*
X194961Y105137D01*
X195070Y105116D01*
X195178Y105091D01*
X195285Y105062D01*
X195391Y105030D01*
X195496Y104994D01*
X195599Y104954D01*
X195701Y104911D01*
X195802Y104864D01*
X195901Y104813D01*
X195998Y104760D01*
X196092Y104703D01*
X196185Y104642D01*
X196276Y104579D01*
X196365Y104512D01*
X196451Y104442D01*
X196534Y104369D01*
X196616Y104294D01*
X196694Y104216D01*
X196769Y104134D01*
X196842Y104051D01*
X196912Y103965D01*
X196979Y103876D01*
X197042Y103785D01*
X197103Y103692D01*
X197160Y103598D01*
X197213Y103501D01*
X197264Y103402D01*
X197311Y103301D01*
X197354Y103199D01*
X197394Y103096D01*
X197430Y102991D01*
X197462Y102885D01*
X197491Y102778D01*
X197516Y102670D01*
X197537Y102561D01*
X197554Y102452D01*
X197568Y102342D01*
X197577Y102231D01*
X197583Y102121D01*
X197585Y102010D01*
X197583Y101899D01*
X197577Y101789D01*
X197568Y101678D01*
X197554Y101568D01*
X197537Y101459D01*
X197516Y101350D01*
X197491Y101242D01*
X197462Y101135D01*
X197430Y101029D01*
X197394Y100924D01*
X197354Y100821D01*
X197311Y100719D01*
X197264Y100618D01*
X197213Y100519D01*
X197160Y100422D01*
X197103Y100328D01*
X197042Y100235D01*
X196979Y100144D01*
X196912Y100055D01*
X196842Y99969D01*
X196769Y99886D01*
X196694Y99804D01*
X196616Y99726D01*
X196534Y99651D01*
X196451Y99578D01*
X196365Y99508D01*
X196276Y99441D01*
X196185Y99378D01*
X196092Y99317D01*
X195997Y99260D01*
X195901Y99207D01*
X195802Y99156D01*
X195701Y99109D01*
X195599Y99066D01*
X195496Y99026D01*
X195391Y98990D01*
X195285Y98958D01*
X195178Y98929D01*
X195070Y98904D01*
X194961Y98883D01*
X194852Y98866D01*
X194742Y98852D01*
X194631Y98843D01*
X194521Y98837D01*
X194410Y98835D01*
X194299Y98837D01*
X194189Y98843D01*
X194078Y98852D01*
X193968Y98866D01*
X193859Y98883D01*
X193750Y98904D01*
X193642Y98929D01*
X193535Y98958D01*
X193429Y98990D01*
X193324Y99026D01*
X193221Y99066D01*
X193119Y99109D01*
X193018Y99156D01*
X192919Y99207D01*
X192823Y99260D01*
X192728Y99317D01*
X192635Y99378D01*
X192544Y99441D01*
X192455Y99508D01*
X192369Y99578D01*
X192286Y99651D01*
X192204Y99726D01*
X192126Y99804D01*
X192051Y99886D01*
X191978Y99969D01*
X191908Y100055D01*
X191841Y100144D01*
X191778Y100235D01*
X191717Y100328D01*
X191660Y100423D01*
X191607Y100519D01*
X191556Y100618D01*
X191509Y100719D01*
X191466Y100821D01*
X191426Y100924D01*
X191390Y101029D01*
X191358Y101135D01*
X191329Y101242D01*
X191304Y101350D01*
X191283Y101459D01*
X191266Y101568D01*
X191252Y101678D01*
X191243Y101789D01*
X191237Y101899D01*
X191235Y102010D01*
X191870Y107725D02*
X191872Y107825D01*
X191878Y107924D01*
X191888Y108024D01*
X191901Y108122D01*
X191919Y108221D01*
X191940Y108318D01*
X191965Y108414D01*
X191994Y108510D01*
X192027Y108604D01*
X192063Y108697D01*
X192103Y108788D01*
X192147Y108878D01*
X192194Y108966D01*
X192244Y109052D01*
X192298Y109136D01*
X192355Y109218D01*
X192415Y109297D01*
X192479Y109375D01*
X192545Y109449D01*
X192614Y109521D01*
X192686Y109590D01*
X192760Y109656D01*
X192838Y109720D01*
X192917Y109780D01*
X192999Y109837D01*
X193083Y109891D01*
X193169Y109941D01*
X193257Y109988D01*
X193347Y110032D01*
X193438Y110072D01*
X193531Y110108D01*
X193625Y110141D01*
X193721Y110170D01*
X193817Y110195D01*
X193914Y110216D01*
X194013Y110234D01*
X194111Y110247D01*
X194211Y110257D01*
X194310Y110263D01*
X194410Y110265D01*
X194510Y110263D01*
X194609Y110257D01*
X194709Y110247D01*
X194807Y110234D01*
X194906Y110216D01*
X195003Y110195D01*
X195099Y110170D01*
X195195Y110141D01*
X195289Y110108D01*
X195382Y110072D01*
X195473Y110032D01*
X195563Y109988D01*
X195651Y109941D01*
X195737Y109891D01*
X195821Y109837D01*
X195903Y109780D01*
X195982Y109720D01*
X196060Y109656D01*
X196134Y109590D01*
X196206Y109521D01*
X196275Y109449D01*
X196341Y109375D01*
X196405Y109297D01*
X196465Y109218D01*
X196522Y109136D01*
X196576Y109052D01*
X196626Y108966D01*
X196673Y108878D01*
X196717Y108788D01*
X196757Y108697D01*
X196793Y108604D01*
X196826Y108510D01*
X196855Y108414D01*
X196880Y108318D01*
X196901Y108221D01*
X196919Y108122D01*
X196932Y108024D01*
X196942Y107924D01*
X196948Y107825D01*
X196950Y107725D01*
X196948Y107625D01*
X196942Y107526D01*
X196932Y107426D01*
X196919Y107328D01*
X196901Y107229D01*
X196880Y107132D01*
X196855Y107036D01*
X196826Y106940D01*
X196793Y106846D01*
X196757Y106753D01*
X196717Y106662D01*
X196673Y106572D01*
X196626Y106484D01*
X196576Y106398D01*
X196522Y106314D01*
X196465Y106232D01*
X196405Y106153D01*
X196341Y106075D01*
X196275Y106001D01*
X196206Y105929D01*
X196134Y105860D01*
X196060Y105794D01*
X195982Y105730D01*
X195903Y105670D01*
X195821Y105613D01*
X195737Y105559D01*
X195651Y105509D01*
X195563Y105462D01*
X195473Y105418D01*
X195382Y105378D01*
X195289Y105342D01*
X195195Y105309D01*
X195099Y105280D01*
X195003Y105255D01*
X194906Y105234D01*
X194807Y105216D01*
X194709Y105203D01*
X194609Y105193D01*
X194510Y105187D01*
X194410Y105185D01*
X194310Y105187D01*
X194211Y105193D01*
X194111Y105203D01*
X194013Y105216D01*
X193914Y105234D01*
X193817Y105255D01*
X193721Y105280D01*
X193625Y105309D01*
X193531Y105342D01*
X193438Y105378D01*
X193347Y105418D01*
X193257Y105462D01*
X193169Y105509D01*
X193083Y105559D01*
X192999Y105613D01*
X192917Y105670D01*
X192838Y105730D01*
X192760Y105794D01*
X192686Y105860D01*
X192614Y105929D01*
X192545Y106001D01*
X192479Y106075D01*
X192415Y106153D01*
X192355Y106232D01*
X192298Y106314D01*
X192244Y106398D01*
X192194Y106484D01*
X192147Y106572D01*
X192103Y106662D01*
X192063Y106753D01*
X192027Y106846D01*
X191994Y106940D01*
X191965Y107036D01*
X191940Y107132D01*
X191919Y107229D01*
X191901Y107328D01*
X191888Y107426D01*
X191878Y107526D01*
X191872Y107625D01*
X191870Y107725D01*
X273100Y501300D02*
X273100Y517800D01*
X193100Y517800D02*
X193100Y501300D01*
X273100Y541800D02*
X273100Y544300D01*
X193100Y544300D02*
X193100Y541800D01*
D15*
X245100Y490800D02*
X245102Y490863D01*
X245108Y490925D01*
X245118Y490987D01*
X245131Y491049D01*
X245149Y491109D01*
X245170Y491168D01*
X245195Y491226D01*
X245224Y491282D01*
X245256Y491336D01*
X245291Y491388D01*
X245329Y491437D01*
X245371Y491485D01*
X245415Y491529D01*
X245463Y491571D01*
X245512Y491609D01*
X245564Y491644D01*
X245618Y491676D01*
X245674Y491705D01*
X245732Y491730D01*
X245791Y491751D01*
X245851Y491769D01*
X245913Y491782D01*
X245975Y491792D01*
X246037Y491798D01*
X246100Y491800D01*
X246163Y491798D01*
X246225Y491792D01*
X246287Y491782D01*
X246349Y491769D01*
X246409Y491751D01*
X246468Y491730D01*
X246526Y491705D01*
X246582Y491676D01*
X246636Y491644D01*
X246688Y491609D01*
X246737Y491571D01*
X246785Y491529D01*
X246829Y491485D01*
X246871Y491437D01*
X246909Y491388D01*
X246944Y491336D01*
X246976Y491282D01*
X247005Y491226D01*
X247030Y491168D01*
X247051Y491109D01*
X247069Y491049D01*
X247082Y490987D01*
X247092Y490925D01*
X247098Y490863D01*
X247100Y490800D01*
X247098Y490737D01*
X247092Y490675D01*
X247082Y490613D01*
X247069Y490551D01*
X247051Y490491D01*
X247030Y490432D01*
X247005Y490374D01*
X246976Y490318D01*
X246944Y490264D01*
X246909Y490212D01*
X246871Y490163D01*
X246829Y490115D01*
X246785Y490071D01*
X246737Y490029D01*
X246688Y489991D01*
X246636Y489956D01*
X246582Y489924D01*
X246526Y489895D01*
X246468Y489870D01*
X246409Y489849D01*
X246349Y489831D01*
X246287Y489818D01*
X246225Y489808D01*
X246163Y489802D01*
X246100Y489800D01*
X246037Y489802D01*
X245975Y489808D01*
X245913Y489818D01*
X245851Y489831D01*
X245791Y489849D01*
X245732Y489870D01*
X245674Y489895D01*
X245618Y489924D01*
X245564Y489956D01*
X245512Y489991D01*
X245463Y490029D01*
X245415Y490071D01*
X245371Y490115D01*
X245329Y490163D01*
X245291Y490212D01*
X245256Y490264D01*
X245224Y490318D01*
X245195Y490374D01*
X245170Y490432D01*
X245149Y490491D01*
X245131Y490551D01*
X245118Y490613D01*
X245108Y490675D01*
X245102Y490737D01*
X245100Y490800D01*
D14*
X258600Y501300D02*
X273100Y501300D01*
X207600Y501300D02*
X193100Y501300D01*
X193100Y544300D02*
X273100Y544300D01*
D10*
X264122Y516530D02*
X264122Y510801D01*
X264120Y510723D01*
X264115Y510645D01*
X264105Y510568D01*
X264092Y510491D01*
X264076Y510415D01*
X264056Y510340D01*
X264032Y510266D01*
X264005Y510193D01*
X263974Y510121D01*
X263940Y510051D01*
X263903Y509983D01*
X263862Y509916D01*
X263818Y509851D01*
X263772Y509789D01*
X263722Y509729D01*
X263670Y509671D01*
X263615Y509616D01*
X263557Y509564D01*
X263497Y509514D01*
X263435Y509468D01*
X263370Y509424D01*
X263304Y509383D01*
X263235Y509346D01*
X263165Y509312D01*
X263093Y509281D01*
X263020Y509254D01*
X262946Y509230D01*
X262871Y509210D01*
X262795Y509194D01*
X262718Y509181D01*
X262641Y509171D01*
X262563Y509166D01*
X262485Y509164D01*
X261667Y509164D01*
X267557Y509164D02*
X270012Y509164D01*
X270090Y509166D01*
X270168Y509171D01*
X270245Y509181D01*
X270322Y509194D01*
X270398Y509210D01*
X270473Y509230D01*
X270547Y509254D01*
X270620Y509281D01*
X270692Y509312D01*
X270762Y509346D01*
X270831Y509383D01*
X270897Y509424D01*
X270962Y509468D01*
X271024Y509514D01*
X271084Y509564D01*
X271142Y509616D01*
X271197Y509671D01*
X271249Y509729D01*
X271299Y509789D01*
X271345Y509851D01*
X271389Y509916D01*
X271430Y509983D01*
X271467Y510051D01*
X271501Y510121D01*
X271532Y510193D01*
X271559Y510266D01*
X271583Y510340D01*
X271603Y510415D01*
X271619Y510491D01*
X271632Y510568D01*
X271642Y510645D01*
X271647Y510723D01*
X271649Y510801D01*
X271649Y511619D01*
X271647Y511697D01*
X271642Y511775D01*
X271632Y511852D01*
X271619Y511929D01*
X271603Y512005D01*
X271583Y512080D01*
X271559Y512154D01*
X271532Y512227D01*
X271501Y512299D01*
X271467Y512369D01*
X271430Y512438D01*
X271389Y512504D01*
X271345Y512569D01*
X271299Y512631D01*
X271249Y512691D01*
X271197Y512749D01*
X271142Y512804D01*
X271084Y512856D01*
X271024Y512906D01*
X270962Y512952D01*
X270897Y512996D01*
X270831Y513037D01*
X270762Y513074D01*
X270692Y513108D01*
X270620Y513139D01*
X270547Y513166D01*
X270473Y513190D01*
X270398Y513210D01*
X270322Y513226D01*
X270245Y513239D01*
X270168Y513249D01*
X270090Y513254D01*
X270012Y513256D01*
X267557Y513256D01*
X267557Y516530D01*
X271649Y516530D01*
D14*
X345900Y471100D02*
X422100Y471100D01*
D11*
X342953Y517304D02*
X342953Y526392D01*
X342952Y517304D02*
X342950Y517205D01*
X342944Y517105D01*
X342935Y517006D01*
X342922Y516908D01*
X342905Y516810D01*
X342884Y516712D01*
X342859Y516616D01*
X342831Y516521D01*
X342799Y516427D01*
X342764Y516334D01*
X342725Y516242D01*
X342682Y516152D01*
X342637Y516064D01*
X342587Y515977D01*
X342535Y515893D01*
X342479Y515810D01*
X342421Y515730D01*
X342359Y515652D01*
X342294Y515577D01*
X342226Y515504D01*
X342156Y515434D01*
X342083Y515366D01*
X342008Y515301D01*
X341930Y515239D01*
X341850Y515181D01*
X341767Y515125D01*
X341683Y515073D01*
X341596Y515023D01*
X341508Y514978D01*
X341418Y514935D01*
X341326Y514896D01*
X341233Y514861D01*
X341139Y514829D01*
X341044Y514801D01*
X340948Y514776D01*
X340850Y514755D01*
X340752Y514738D01*
X340654Y514725D01*
X340555Y514716D01*
X340455Y514710D01*
X340356Y514708D01*
X339058Y514708D01*
X348226Y521199D02*
X352121Y521199D01*
X352220Y521197D01*
X352320Y521191D01*
X352419Y521182D01*
X352517Y521169D01*
X352615Y521152D01*
X352713Y521131D01*
X352809Y521106D01*
X352904Y521078D01*
X352998Y521046D01*
X353091Y521011D01*
X353183Y520972D01*
X353273Y520929D01*
X353361Y520884D01*
X353448Y520834D01*
X353532Y520782D01*
X353615Y520726D01*
X353695Y520668D01*
X353773Y520606D01*
X353848Y520541D01*
X353921Y520473D01*
X353991Y520403D01*
X354059Y520330D01*
X354124Y520255D01*
X354186Y520177D01*
X354244Y520097D01*
X354300Y520014D01*
X354352Y519930D01*
X354402Y519843D01*
X354447Y519755D01*
X354490Y519665D01*
X354529Y519573D01*
X354564Y519480D01*
X354596Y519386D01*
X354624Y519291D01*
X354649Y519195D01*
X354670Y519097D01*
X354687Y518999D01*
X354700Y518901D01*
X354709Y518802D01*
X354715Y518702D01*
X354717Y518603D01*
X354717Y517954D01*
X354718Y517954D02*
X354716Y517841D01*
X354710Y517728D01*
X354700Y517615D01*
X354686Y517502D01*
X354669Y517390D01*
X354647Y517279D01*
X354622Y517169D01*
X354592Y517059D01*
X354559Y516951D01*
X354522Y516844D01*
X354482Y516738D01*
X354437Y516634D01*
X354389Y516531D01*
X354338Y516430D01*
X354283Y516331D01*
X354225Y516234D01*
X354163Y516139D01*
X354098Y516046D01*
X354030Y515956D01*
X353959Y515868D01*
X353884Y515782D01*
X353807Y515699D01*
X353727Y515619D01*
X353644Y515542D01*
X353558Y515467D01*
X353470Y515396D01*
X353380Y515328D01*
X353287Y515263D01*
X353192Y515201D01*
X353095Y515143D01*
X352996Y515088D01*
X352895Y515037D01*
X352792Y514989D01*
X352688Y514944D01*
X352582Y514904D01*
X352475Y514867D01*
X352367Y514834D01*
X352257Y514804D01*
X352147Y514779D01*
X352036Y514757D01*
X351924Y514740D01*
X351811Y514726D01*
X351698Y514716D01*
X351585Y514710D01*
X351472Y514708D01*
X351359Y514710D01*
X351246Y514716D01*
X351133Y514726D01*
X351020Y514740D01*
X350908Y514757D01*
X350797Y514779D01*
X350687Y514804D01*
X350577Y514834D01*
X350469Y514867D01*
X350362Y514904D01*
X350256Y514944D01*
X350152Y514989D01*
X350049Y515037D01*
X349948Y515088D01*
X349849Y515143D01*
X349752Y515201D01*
X349657Y515263D01*
X349564Y515328D01*
X349474Y515396D01*
X349386Y515467D01*
X349300Y515542D01*
X349217Y515619D01*
X349137Y515699D01*
X349060Y515782D01*
X348985Y515868D01*
X348914Y515956D01*
X348846Y516046D01*
X348781Y516139D01*
X348719Y516234D01*
X348661Y516331D01*
X348606Y516430D01*
X348555Y516531D01*
X348507Y516634D01*
X348462Y516738D01*
X348422Y516844D01*
X348385Y516951D01*
X348352Y517059D01*
X348322Y517169D01*
X348297Y517279D01*
X348275Y517390D01*
X348258Y517502D01*
X348244Y517615D01*
X348234Y517728D01*
X348228Y517841D01*
X348226Y517954D01*
X348226Y521199D01*
X348228Y521342D01*
X348234Y521485D01*
X348244Y521628D01*
X348258Y521770D01*
X348275Y521912D01*
X348297Y522054D01*
X348322Y522195D01*
X348352Y522335D01*
X348385Y522474D01*
X348422Y522612D01*
X348463Y522749D01*
X348507Y522885D01*
X348556Y523020D01*
X348608Y523153D01*
X348663Y523285D01*
X348723Y523415D01*
X348786Y523544D01*
X348852Y523671D01*
X348922Y523795D01*
X348995Y523918D01*
X349072Y524039D01*
X349152Y524158D01*
X349235Y524274D01*
X349321Y524389D01*
X349410Y524500D01*
X349503Y524610D01*
X349598Y524716D01*
X349697Y524820D01*
X349798Y524921D01*
X349902Y525020D01*
X350008Y525115D01*
X350118Y525208D01*
X350229Y525297D01*
X350344Y525383D01*
X350460Y525466D01*
X350579Y525546D01*
X350700Y525623D01*
X350822Y525696D01*
X350947Y525766D01*
X351074Y525832D01*
X351203Y525895D01*
X351333Y525955D01*
X351465Y526010D01*
X351598Y526062D01*
X351733Y526111D01*
X351869Y526155D01*
X352006Y526196D01*
X352144Y526233D01*
X352283Y526266D01*
X352423Y526296D01*
X352564Y526321D01*
X352706Y526343D01*
X352848Y526360D01*
X352990Y526374D01*
X353133Y526384D01*
X353276Y526390D01*
X353419Y526392D01*
D16*
X95500Y515100D02*
X95500Y355700D01*
X10900Y355700D01*
X10900Y515100D01*
X95500Y515100D01*
D17*
X139700Y352900D03*
D16*
X139656Y352898D01*
X139613Y352892D01*
X139571Y352883D01*
X139529Y352870D01*
X139489Y352853D01*
X139450Y352833D01*
X139413Y352810D01*
X139379Y352783D01*
X139346Y352754D01*
X139317Y352721D01*
X139290Y352687D01*
X139267Y352650D01*
X139247Y352611D01*
X139230Y352571D01*
X139217Y352529D01*
X139208Y352487D01*
X139202Y352444D01*
X139200Y352400D01*
X139202Y352356D01*
X139208Y352313D01*
X139217Y352271D01*
X139230Y352229D01*
X139247Y352189D01*
X139267Y352150D01*
X139290Y352113D01*
X139317Y352079D01*
X139346Y352046D01*
X139379Y352017D01*
X139413Y351990D01*
X139450Y351967D01*
X139489Y351947D01*
X139529Y351930D01*
X139571Y351917D01*
X139613Y351908D01*
X139656Y351902D01*
X139700Y351900D01*
D17*
X139700Y351900D03*
D16*
X139744Y351902D01*
X139787Y351908D01*
X139829Y351917D01*
X139871Y351930D01*
X139911Y351947D01*
X139950Y351967D01*
X139987Y351990D01*
X140021Y352017D01*
X140054Y352046D01*
X140083Y352079D01*
X140110Y352113D01*
X140133Y352150D01*
X140153Y352189D01*
X140170Y352229D01*
X140183Y352271D01*
X140192Y352313D01*
X140198Y352356D01*
X140200Y352400D01*
X140198Y352444D01*
X140192Y352487D01*
X140183Y352529D01*
X140170Y352571D01*
X140153Y352611D01*
X140133Y352650D01*
X140110Y352687D01*
X140083Y352721D01*
X140054Y352754D01*
X140021Y352783D01*
X139987Y352810D01*
X139950Y352833D01*
X139911Y352853D01*
X139871Y352870D01*
X139829Y352883D01*
X139787Y352892D01*
X139744Y352898D01*
X139700Y352900D01*
D11*
X92346Y428365D02*
X83258Y428365D01*
X92346Y428365D02*
X92445Y428363D01*
X92545Y428357D01*
X92644Y428348D01*
X92742Y428335D01*
X92840Y428318D01*
X92938Y428297D01*
X93034Y428272D01*
X93129Y428244D01*
X93223Y428212D01*
X93316Y428177D01*
X93408Y428138D01*
X93498Y428095D01*
X93586Y428050D01*
X93673Y428000D01*
X93757Y427948D01*
X93840Y427892D01*
X93920Y427834D01*
X93998Y427772D01*
X94073Y427707D01*
X94146Y427639D01*
X94216Y427569D01*
X94284Y427496D01*
X94349Y427421D01*
X94411Y427343D01*
X94469Y427263D01*
X94525Y427180D01*
X94577Y427096D01*
X94627Y427009D01*
X94672Y426921D01*
X94715Y426831D01*
X94754Y426739D01*
X94789Y426646D01*
X94821Y426552D01*
X94849Y426457D01*
X94874Y426361D01*
X94895Y426263D01*
X94912Y426165D01*
X94925Y426067D01*
X94934Y425968D01*
X94940Y425868D01*
X94942Y425769D01*
X94942Y424470D01*
X92346Y433638D02*
X83258Y436235D01*
X92346Y433638D02*
X92346Y440130D01*
X94942Y438182D02*
X89749Y438182D01*
D18*
X89300Y93000D02*
X10500Y93000D01*
X10500Y8600D01*
X89300Y8600D01*
X89300Y93000D01*
X158676Y25900D02*
X158678Y25953D01*
X158684Y26007D01*
X158694Y26059D01*
X158707Y26111D01*
X158725Y26162D01*
X158746Y26211D01*
X158771Y26258D01*
X158799Y26304D01*
X158830Y26347D01*
X158865Y26388D01*
X158902Y26426D01*
X158943Y26461D01*
X158985Y26493D01*
X159030Y26522D01*
X159077Y26548D01*
X159126Y26570D01*
X159176Y26589D01*
X159228Y26603D01*
X159280Y26614D01*
X159333Y26621D01*
X159387Y26624D01*
X159440Y26623D01*
X159493Y26618D01*
X159546Y26609D01*
X159598Y26596D01*
X159649Y26580D01*
X159699Y26560D01*
X159746Y26536D01*
X159792Y26508D01*
X159836Y26478D01*
X159878Y26444D01*
X159917Y26407D01*
X159953Y26368D01*
X159986Y26326D01*
X160016Y26281D01*
X160042Y26235D01*
X160065Y26186D01*
X160084Y26136D01*
X160100Y26085D01*
X160112Y26033D01*
X160120Y25980D01*
X160124Y25927D01*
X160124Y25873D01*
X160120Y25820D01*
X160112Y25767D01*
X160100Y25715D01*
X160084Y25664D01*
X160065Y25614D01*
X160042Y25565D01*
X160016Y25519D01*
X159986Y25474D01*
X159953Y25432D01*
X159917Y25393D01*
X159878Y25356D01*
X159836Y25322D01*
X159792Y25292D01*
X159746Y25264D01*
X159699Y25240D01*
X159649Y25220D01*
X159598Y25204D01*
X159546Y25191D01*
X159493Y25182D01*
X159440Y25177D01*
X159387Y25176D01*
X159333Y25179D01*
X159280Y25186D01*
X159228Y25197D01*
X159176Y25211D01*
X159126Y25230D01*
X159077Y25252D01*
X159030Y25278D01*
X158985Y25307D01*
X158943Y25339D01*
X158902Y25374D01*
X158865Y25412D01*
X158830Y25453D01*
X158799Y25496D01*
X158771Y25542D01*
X158746Y25589D01*
X158725Y25638D01*
X158707Y25689D01*
X158694Y25741D01*
X158684Y25793D01*
X158678Y25847D01*
X158676Y25900D01*
D11*
X81746Y47075D02*
X72658Y47075D01*
X81746Y47075D02*
X81845Y47073D01*
X81945Y47067D01*
X82044Y47058D01*
X82142Y47045D01*
X82240Y47028D01*
X82338Y47007D01*
X82434Y46982D01*
X82529Y46954D01*
X82623Y46922D01*
X82716Y46887D01*
X82808Y46848D01*
X82898Y46805D01*
X82986Y46760D01*
X83073Y46710D01*
X83157Y46658D01*
X83240Y46602D01*
X83320Y46544D01*
X83398Y46482D01*
X83473Y46417D01*
X83546Y46349D01*
X83616Y46279D01*
X83684Y46206D01*
X83749Y46131D01*
X83811Y46053D01*
X83869Y45973D01*
X83925Y45890D01*
X83977Y45806D01*
X84027Y45719D01*
X84072Y45631D01*
X84115Y45541D01*
X84154Y45449D01*
X84189Y45356D01*
X84221Y45262D01*
X84249Y45167D01*
X84274Y45071D01*
X84295Y44973D01*
X84312Y44875D01*
X84325Y44777D01*
X84334Y44678D01*
X84340Y44578D01*
X84342Y44479D01*
X84342Y43180D01*
X75254Y52348D02*
X72658Y55594D01*
X84342Y55594D01*
X84342Y52348D02*
X84342Y58840D01*
D19*
X170840Y51036D02*
X170840Y33764D01*
X188620Y31224D02*
X188720Y31226D01*
X188819Y31232D01*
X188919Y31242D01*
X189017Y31255D01*
X189116Y31273D01*
X189213Y31294D01*
X189309Y31319D01*
X189405Y31348D01*
X189499Y31381D01*
X189592Y31417D01*
X189683Y31457D01*
X189773Y31501D01*
X189861Y31548D01*
X189947Y31598D01*
X190031Y31652D01*
X190113Y31709D01*
X190192Y31769D01*
X190270Y31833D01*
X190344Y31899D01*
X190416Y31968D01*
X190485Y32040D01*
X190551Y32114D01*
X190615Y32192D01*
X190675Y32271D01*
X190732Y32353D01*
X190786Y32437D01*
X190836Y32523D01*
X190883Y32611D01*
X190927Y32701D01*
X190967Y32792D01*
X191003Y32885D01*
X191036Y32979D01*
X191065Y33075D01*
X191090Y33171D01*
X191111Y33268D01*
X191129Y33367D01*
X191142Y33465D01*
X191152Y33565D01*
X191158Y33664D01*
X191160Y33764D01*
X191160Y51036D02*
X191158Y51136D01*
X191152Y51235D01*
X191142Y51335D01*
X191129Y51433D01*
X191111Y51532D01*
X191090Y51629D01*
X191065Y51725D01*
X191036Y51821D01*
X191003Y51915D01*
X190967Y52008D01*
X190927Y52099D01*
X190883Y52189D01*
X190836Y52277D01*
X190786Y52363D01*
X190732Y52447D01*
X190675Y52529D01*
X190615Y52608D01*
X190551Y52686D01*
X190485Y52760D01*
X190416Y52832D01*
X190344Y52901D01*
X190270Y52967D01*
X190192Y53031D01*
X190113Y53091D01*
X190031Y53148D01*
X189947Y53202D01*
X189861Y53252D01*
X189773Y53299D01*
X189683Y53343D01*
X189592Y53383D01*
X189499Y53419D01*
X189405Y53452D01*
X189309Y53481D01*
X189213Y53506D01*
X189116Y53527D01*
X189017Y53545D01*
X188919Y53558D01*
X188819Y53568D01*
X188720Y53574D01*
X188620Y53576D01*
X173380Y53576D02*
X173280Y53574D01*
X173181Y53568D01*
X173081Y53558D01*
X172983Y53545D01*
X172884Y53527D01*
X172787Y53506D01*
X172691Y53481D01*
X172595Y53452D01*
X172501Y53419D01*
X172408Y53383D01*
X172317Y53343D01*
X172227Y53299D01*
X172139Y53252D01*
X172053Y53202D01*
X171969Y53148D01*
X171887Y53091D01*
X171808Y53031D01*
X171730Y52967D01*
X171656Y52901D01*
X171584Y52832D01*
X171515Y52760D01*
X171449Y52686D01*
X171385Y52608D01*
X171325Y52529D01*
X171268Y52447D01*
X171214Y52363D01*
X171164Y52277D01*
X171117Y52189D01*
X171073Y52099D01*
X171033Y52008D01*
X170997Y51915D01*
X170964Y51821D01*
X170935Y51725D01*
X170910Y51629D01*
X170889Y51532D01*
X170871Y51433D01*
X170858Y51335D01*
X170848Y51235D01*
X170842Y51136D01*
X170840Y51036D01*
X170840Y33764D02*
X170842Y33664D01*
X170848Y33565D01*
X170858Y33465D01*
X170871Y33367D01*
X170889Y33268D01*
X170910Y33171D01*
X170935Y33075D01*
X170964Y32979D01*
X170997Y32885D01*
X171033Y32792D01*
X171073Y32701D01*
X171117Y32611D01*
X171164Y32523D01*
X171214Y32437D01*
X171268Y32353D01*
X171325Y32271D01*
X171385Y32192D01*
X171449Y32114D01*
X171515Y32040D01*
X171584Y31968D01*
X171656Y31899D01*
X171730Y31833D01*
X171808Y31769D01*
X171887Y31709D01*
X171969Y31652D01*
X172053Y31598D01*
X172139Y31548D01*
X172227Y31501D01*
X172317Y31457D01*
X172408Y31417D01*
X172501Y31381D01*
X172595Y31348D01*
X172691Y31319D01*
X172787Y31294D01*
X172884Y31273D01*
X172983Y31255D01*
X173081Y31242D01*
X173181Y31232D01*
X173280Y31226D01*
X173380Y31224D01*
X188620Y31224D01*
X188620Y53576D02*
X173380Y53576D01*
X191160Y51036D02*
X191160Y33764D01*
D14*
X175447Y21891D02*
X175447Y18137D01*
X175446Y18137D02*
X175444Y18072D01*
X175438Y18008D01*
X175428Y17944D01*
X175415Y17880D01*
X175397Y17818D01*
X175376Y17757D01*
X175352Y17697D01*
X175323Y17639D01*
X175291Y17582D01*
X175256Y17528D01*
X175218Y17476D01*
X175176Y17426D01*
X175132Y17379D01*
X175085Y17335D01*
X175035Y17293D01*
X174983Y17255D01*
X174929Y17220D01*
X174872Y17188D01*
X174814Y17159D01*
X174754Y17135D01*
X174693Y17114D01*
X174631Y17096D01*
X174567Y17083D01*
X174503Y17073D01*
X174439Y17067D01*
X174374Y17065D01*
X173838Y17065D01*
X178724Y17065D02*
X178724Y21891D01*
X180064Y21891D01*
X180135Y21889D01*
X180207Y21883D01*
X180277Y21874D01*
X180347Y21861D01*
X180417Y21844D01*
X180485Y21823D01*
X180552Y21799D01*
X180618Y21771D01*
X180682Y21740D01*
X180745Y21705D01*
X180805Y21667D01*
X180864Y21626D01*
X180920Y21582D01*
X180974Y21535D01*
X181025Y21486D01*
X181073Y21433D01*
X181119Y21378D01*
X181161Y21321D01*
X181201Y21261D01*
X181237Y21200D01*
X181270Y21136D01*
X181299Y21071D01*
X181325Y21005D01*
X181348Y20937D01*
X181367Y20868D01*
X181382Y20798D01*
X181393Y20728D01*
X181401Y20657D01*
X181405Y20586D01*
X181405Y20514D01*
X181401Y20443D01*
X181393Y20372D01*
X181382Y20302D01*
X181367Y20232D01*
X181348Y20163D01*
X181325Y20095D01*
X181299Y20029D01*
X181270Y19964D01*
X181237Y19900D01*
X181201Y19839D01*
X181161Y19779D01*
X181119Y19722D01*
X181073Y19667D01*
X181025Y19614D01*
X180974Y19565D01*
X180920Y19518D01*
X180864Y19474D01*
X180805Y19433D01*
X180745Y19395D01*
X180682Y19360D01*
X180618Y19329D01*
X180552Y19301D01*
X180485Y19277D01*
X180417Y19256D01*
X180347Y19239D01*
X180277Y19226D01*
X180207Y19217D01*
X180135Y19211D01*
X180064Y19209D01*
X180064Y19210D02*
X178724Y19210D01*
X183881Y20819D02*
X185221Y21891D01*
X185221Y17065D01*
X183881Y17065D02*
X186562Y17065D01*
D19*
X246740Y33864D02*
X246740Y51136D01*
X264520Y31324D02*
X264620Y31326D01*
X264719Y31332D01*
X264819Y31342D01*
X264917Y31355D01*
X265016Y31373D01*
X265113Y31394D01*
X265209Y31419D01*
X265305Y31448D01*
X265399Y31481D01*
X265492Y31517D01*
X265583Y31557D01*
X265673Y31601D01*
X265761Y31648D01*
X265847Y31698D01*
X265931Y31752D01*
X266013Y31809D01*
X266092Y31869D01*
X266170Y31933D01*
X266244Y31999D01*
X266316Y32068D01*
X266385Y32140D01*
X266451Y32214D01*
X266515Y32292D01*
X266575Y32371D01*
X266632Y32453D01*
X266686Y32537D01*
X266736Y32623D01*
X266783Y32711D01*
X266827Y32801D01*
X266867Y32892D01*
X266903Y32985D01*
X266936Y33079D01*
X266965Y33175D01*
X266990Y33271D01*
X267011Y33368D01*
X267029Y33467D01*
X267042Y33565D01*
X267052Y33665D01*
X267058Y33764D01*
X267060Y33864D01*
X267060Y51136D02*
X267058Y51236D01*
X267052Y51335D01*
X267042Y51435D01*
X267029Y51533D01*
X267011Y51632D01*
X266990Y51729D01*
X266965Y51825D01*
X266936Y51921D01*
X266903Y52015D01*
X266867Y52108D01*
X266827Y52199D01*
X266783Y52289D01*
X266736Y52377D01*
X266686Y52463D01*
X266632Y52547D01*
X266575Y52629D01*
X266515Y52708D01*
X266451Y52786D01*
X266385Y52860D01*
X266316Y52932D01*
X266244Y53001D01*
X266170Y53067D01*
X266092Y53131D01*
X266013Y53191D01*
X265931Y53248D01*
X265847Y53302D01*
X265761Y53352D01*
X265673Y53399D01*
X265583Y53443D01*
X265492Y53483D01*
X265399Y53519D01*
X265305Y53552D01*
X265209Y53581D01*
X265113Y53606D01*
X265016Y53627D01*
X264917Y53645D01*
X264819Y53658D01*
X264719Y53668D01*
X264620Y53674D01*
X264520Y53676D01*
X249280Y53676D02*
X249180Y53674D01*
X249081Y53668D01*
X248981Y53658D01*
X248883Y53645D01*
X248784Y53627D01*
X248687Y53606D01*
X248591Y53581D01*
X248495Y53552D01*
X248401Y53519D01*
X248308Y53483D01*
X248217Y53443D01*
X248127Y53399D01*
X248039Y53352D01*
X247953Y53302D01*
X247869Y53248D01*
X247787Y53191D01*
X247708Y53131D01*
X247630Y53067D01*
X247556Y53001D01*
X247484Y52932D01*
X247415Y52860D01*
X247349Y52786D01*
X247285Y52708D01*
X247225Y52629D01*
X247168Y52547D01*
X247114Y52463D01*
X247064Y52377D01*
X247017Y52289D01*
X246973Y52199D01*
X246933Y52108D01*
X246897Y52015D01*
X246864Y51921D01*
X246835Y51825D01*
X246810Y51729D01*
X246789Y51632D01*
X246771Y51533D01*
X246758Y51435D01*
X246748Y51335D01*
X246742Y51236D01*
X246740Y51136D01*
X246740Y33864D02*
X246742Y33764D01*
X246748Y33665D01*
X246758Y33565D01*
X246771Y33467D01*
X246789Y33368D01*
X246810Y33271D01*
X246835Y33175D01*
X246864Y33079D01*
X246897Y32985D01*
X246933Y32892D01*
X246973Y32801D01*
X247017Y32711D01*
X247064Y32623D01*
X247114Y32537D01*
X247168Y32453D01*
X247225Y32371D01*
X247285Y32292D01*
X247349Y32214D01*
X247415Y32140D01*
X247484Y32068D01*
X247556Y31999D01*
X247630Y31933D01*
X247708Y31869D01*
X247787Y31809D01*
X247869Y31752D01*
X247953Y31698D01*
X248039Y31648D01*
X248127Y31601D01*
X248217Y31557D01*
X248308Y31517D01*
X248401Y31481D01*
X248495Y31448D01*
X248591Y31419D01*
X248687Y31394D01*
X248784Y31373D01*
X248883Y31355D01*
X248981Y31342D01*
X249081Y31332D01*
X249180Y31326D01*
X249280Y31324D01*
X264520Y31324D01*
X264520Y53676D02*
X249280Y53676D01*
X267060Y51136D02*
X267060Y33864D01*
D14*
X252647Y21491D02*
X252647Y17737D01*
X252646Y17737D02*
X252644Y17672D01*
X252638Y17608D01*
X252628Y17544D01*
X252615Y17480D01*
X252597Y17418D01*
X252576Y17357D01*
X252552Y17297D01*
X252523Y17239D01*
X252491Y17182D01*
X252456Y17128D01*
X252418Y17076D01*
X252376Y17026D01*
X252332Y16979D01*
X252285Y16935D01*
X252235Y16893D01*
X252183Y16855D01*
X252129Y16820D01*
X252072Y16788D01*
X252014Y16759D01*
X251954Y16735D01*
X251893Y16714D01*
X251831Y16696D01*
X251767Y16683D01*
X251703Y16673D01*
X251639Y16667D01*
X251574Y16665D01*
X251038Y16665D01*
X255924Y16665D02*
X255924Y21491D01*
X257264Y21491D01*
X257335Y21489D01*
X257407Y21483D01*
X257477Y21474D01*
X257547Y21461D01*
X257617Y21444D01*
X257685Y21423D01*
X257752Y21399D01*
X257818Y21371D01*
X257882Y21340D01*
X257945Y21305D01*
X258005Y21267D01*
X258064Y21226D01*
X258120Y21182D01*
X258174Y21135D01*
X258225Y21086D01*
X258273Y21033D01*
X258319Y20978D01*
X258361Y20921D01*
X258401Y20861D01*
X258437Y20800D01*
X258470Y20736D01*
X258499Y20671D01*
X258525Y20605D01*
X258548Y20537D01*
X258567Y20468D01*
X258582Y20398D01*
X258593Y20328D01*
X258601Y20257D01*
X258605Y20186D01*
X258605Y20114D01*
X258601Y20043D01*
X258593Y19972D01*
X258582Y19902D01*
X258567Y19832D01*
X258548Y19763D01*
X258525Y19695D01*
X258499Y19629D01*
X258470Y19564D01*
X258437Y19500D01*
X258401Y19439D01*
X258361Y19379D01*
X258319Y19322D01*
X258273Y19267D01*
X258225Y19214D01*
X258174Y19165D01*
X258120Y19118D01*
X258064Y19074D01*
X258005Y19033D01*
X257945Y18995D01*
X257882Y18960D01*
X257818Y18929D01*
X257752Y18901D01*
X257685Y18877D01*
X257617Y18856D01*
X257547Y18839D01*
X257477Y18826D01*
X257407Y18817D01*
X257335Y18811D01*
X257264Y18809D01*
X257264Y18810D02*
X255924Y18810D01*
X262556Y21491D02*
X262624Y21489D01*
X262691Y21483D01*
X262758Y21474D01*
X262825Y21461D01*
X262890Y21444D01*
X262955Y21423D01*
X263018Y21399D01*
X263080Y21371D01*
X263140Y21340D01*
X263198Y21306D01*
X263254Y21268D01*
X263309Y21228D01*
X263360Y21184D01*
X263409Y21137D01*
X263456Y21088D01*
X263500Y21037D01*
X263540Y20982D01*
X263578Y20926D01*
X263612Y20868D01*
X263643Y20808D01*
X263671Y20746D01*
X263695Y20683D01*
X263716Y20618D01*
X263733Y20553D01*
X263746Y20486D01*
X263755Y20419D01*
X263761Y20352D01*
X263763Y20284D01*
X262556Y21491D02*
X262478Y21489D01*
X262400Y21483D01*
X262323Y21473D01*
X262246Y21460D01*
X262170Y21442D01*
X262095Y21421D01*
X262021Y21396D01*
X261949Y21367D01*
X261878Y21335D01*
X261809Y21299D01*
X261741Y21260D01*
X261676Y21217D01*
X261613Y21171D01*
X261552Y21122D01*
X261494Y21070D01*
X261439Y21015D01*
X261386Y20958D01*
X261337Y20898D01*
X261290Y20835D01*
X261247Y20771D01*
X261207Y20704D01*
X261170Y20635D01*
X261137Y20564D01*
X261107Y20492D01*
X261081Y20419D01*
X263360Y19346D02*
X263409Y19395D01*
X263456Y19447D01*
X263499Y19502D01*
X263540Y19559D01*
X263578Y19618D01*
X263612Y19679D01*
X263643Y19742D01*
X263671Y19806D01*
X263695Y19872D01*
X263715Y19938D01*
X263732Y20006D01*
X263745Y20075D01*
X263754Y20144D01*
X263760Y20214D01*
X263762Y20284D01*
X263360Y19346D02*
X261081Y16665D01*
X263762Y16665D01*
D20*
X442600Y354100D02*
X442600Y426100D01*
X590600Y426100D02*
X590600Y354100D01*
X571550Y354100D02*
X537850Y354100D01*
X463600Y426100D02*
X442600Y426100D01*
X442600Y354100D02*
X463600Y354100D01*
X537850Y426100D02*
X571550Y426100D01*
D21*
X583275Y390100D03*
D11*
X527908Y387708D02*
X527908Y399392D01*
X534399Y399392D02*
X527908Y392252D01*
X530504Y394848D02*
X534399Y387708D01*
X538788Y396796D02*
X542033Y399392D01*
X542033Y387708D01*
X538788Y387708D02*
X545279Y387708D01*
D14*
X590000Y330700D02*
X450000Y330700D01*
X450000Y700D01*
X590000Y700D01*
X590000Y330700D01*
D11*
X524392Y157408D02*
X512708Y157408D01*
X512708Y163899D02*
X519848Y157408D01*
X517252Y160004D02*
X524392Y163899D01*
X515629Y174779D02*
X515522Y174777D01*
X515416Y174771D01*
X515310Y174761D01*
X515204Y174748D01*
X515098Y174730D01*
X514994Y174709D01*
X514890Y174684D01*
X514787Y174655D01*
X514686Y174623D01*
X514586Y174586D01*
X514487Y174546D01*
X514389Y174503D01*
X514293Y174456D01*
X514199Y174405D01*
X514107Y174351D01*
X514017Y174294D01*
X513929Y174234D01*
X513844Y174170D01*
X513761Y174103D01*
X513680Y174033D01*
X513602Y173961D01*
X513526Y173885D01*
X513454Y173807D01*
X513384Y173726D01*
X513317Y173643D01*
X513253Y173558D01*
X513193Y173470D01*
X513136Y173380D01*
X513082Y173288D01*
X513031Y173194D01*
X512984Y173098D01*
X512941Y173000D01*
X512901Y172901D01*
X512864Y172801D01*
X512832Y172700D01*
X512803Y172597D01*
X512778Y172493D01*
X512757Y172389D01*
X512739Y172283D01*
X512726Y172177D01*
X512716Y172071D01*
X512710Y171965D01*
X512708Y171858D01*
X512710Y171737D01*
X512716Y171616D01*
X512726Y171496D01*
X512739Y171375D01*
X512757Y171256D01*
X512778Y171136D01*
X512803Y171018D01*
X512832Y170901D01*
X512865Y170784D01*
X512901Y170669D01*
X512942Y170555D01*
X512985Y170442D01*
X513033Y170330D01*
X513084Y170221D01*
X513139Y170113D01*
X513197Y170006D01*
X513258Y169902D01*
X513323Y169800D01*
X513391Y169700D01*
X513462Y169602D01*
X513536Y169506D01*
X513613Y169413D01*
X513694Y169323D01*
X513777Y169235D01*
X513863Y169150D01*
X513952Y169067D01*
X514043Y168988D01*
X514137Y168911D01*
X514233Y168838D01*
X514331Y168768D01*
X514432Y168701D01*
X514535Y168637D01*
X514640Y168577D01*
X514747Y168519D01*
X514855Y168466D01*
X514965Y168416D01*
X515077Y168370D01*
X515190Y168327D01*
X515305Y168288D01*
X517901Y173804D02*
X517823Y173883D01*
X517743Y173959D01*
X517660Y174032D01*
X517574Y174102D01*
X517487Y174169D01*
X517396Y174233D01*
X517304Y174293D01*
X517210Y174351D01*
X517113Y174405D01*
X517015Y174455D01*
X516915Y174502D01*
X516814Y174546D01*
X516711Y174586D01*
X516606Y174622D01*
X516501Y174654D01*
X516394Y174683D01*
X516287Y174708D01*
X516178Y174730D01*
X516069Y174747D01*
X515960Y174761D01*
X515850Y174770D01*
X515739Y174776D01*
X515629Y174778D01*
X517901Y173805D02*
X524392Y168288D01*
X524392Y174779D01*
D14*
X188400Y388400D02*
X163400Y388400D01*
D22*
X165400Y382150D02*
X185400Y382150D01*
X185400Y394650D02*
X165400Y394650D01*
D23*
X175400Y388400D03*
D24*
X171031Y380221D02*
X171031Y374633D01*
X173514Y374633D01*
X178696Y378824D02*
X178694Y378897D01*
X178688Y378970D01*
X178679Y379043D01*
X178665Y379114D01*
X178648Y379186D01*
X178628Y379256D01*
X178603Y379325D01*
X178575Y379392D01*
X178544Y379458D01*
X178509Y379523D01*
X178471Y379585D01*
X178429Y379645D01*
X178385Y379703D01*
X178337Y379759D01*
X178287Y379812D01*
X178234Y379862D01*
X178178Y379910D01*
X178120Y379954D01*
X178060Y379996D01*
X177998Y380034D01*
X177933Y380069D01*
X177867Y380100D01*
X177800Y380128D01*
X177731Y380153D01*
X177661Y380173D01*
X177589Y380190D01*
X177518Y380204D01*
X177445Y380213D01*
X177372Y380219D01*
X177299Y380221D01*
X177215Y380219D01*
X177132Y380213D01*
X177049Y380204D01*
X176967Y380190D01*
X176885Y380173D01*
X176804Y380151D01*
X176724Y380126D01*
X176646Y380098D01*
X176568Y380066D01*
X176493Y380030D01*
X176419Y379991D01*
X176347Y379948D01*
X176277Y379902D01*
X176210Y379853D01*
X176144Y379800D01*
X176082Y379745D01*
X176022Y379687D01*
X175964Y379626D01*
X175910Y379563D01*
X175858Y379497D01*
X175810Y379429D01*
X175765Y379358D01*
X175723Y379286D01*
X175685Y379211D01*
X175650Y379135D01*
X175619Y379058D01*
X175591Y378979D01*
X178230Y377738D02*
X178284Y377791D01*
X178335Y377848D01*
X178383Y377907D01*
X178428Y377968D01*
X178469Y378031D01*
X178508Y378097D01*
X178543Y378164D01*
X178575Y378233D01*
X178603Y378304D01*
X178627Y378375D01*
X178648Y378448D01*
X178665Y378522D01*
X178679Y378597D01*
X178688Y378672D01*
X178694Y378748D01*
X178696Y378824D01*
X178230Y377737D02*
X175592Y374633D01*
X178696Y374633D01*
D10*
X281218Y79418D02*
X288456Y79418D01*
X288456Y82635D01*
X288456Y85658D02*
X288456Y88875D01*
X288456Y85658D02*
X281218Y85658D01*
X281218Y88875D01*
X284435Y88071D02*
X284435Y85658D01*
X281218Y91883D02*
X288456Y91883D01*
X281218Y91883D02*
X281218Y93893D01*
X281220Y93981D01*
X281226Y94068D01*
X281235Y94155D01*
X281249Y94242D01*
X281266Y94328D01*
X281287Y94413D01*
X281311Y94498D01*
X281339Y94581D01*
X281371Y94663D01*
X281406Y94743D01*
X281445Y94822D01*
X281487Y94899D01*
X281533Y94974D01*
X281582Y95046D01*
X281634Y95117D01*
X281688Y95186D01*
X281746Y95252D01*
X281807Y95315D01*
X281870Y95376D01*
X281936Y95434D01*
X282005Y95488D01*
X282076Y95540D01*
X282148Y95589D01*
X282224Y95635D01*
X282300Y95677D01*
X282379Y95716D01*
X282459Y95751D01*
X282541Y95783D01*
X282624Y95811D01*
X282709Y95835D01*
X282794Y95856D01*
X282880Y95873D01*
X282967Y95887D01*
X283054Y95896D01*
X283141Y95902D01*
X283229Y95904D01*
X286446Y95904D01*
X286534Y95902D01*
X286621Y95896D01*
X286708Y95887D01*
X286795Y95873D01*
X286881Y95856D01*
X286966Y95835D01*
X287051Y95811D01*
X287134Y95783D01*
X287216Y95751D01*
X287296Y95716D01*
X287375Y95677D01*
X287452Y95635D01*
X287527Y95589D01*
X287599Y95540D01*
X287670Y95488D01*
X287739Y95434D01*
X287805Y95376D01*
X287868Y95315D01*
X287929Y95252D01*
X287987Y95186D01*
X288041Y95117D01*
X288093Y95046D01*
X288142Y94973D01*
X288188Y94898D01*
X288230Y94822D01*
X288269Y94743D01*
X288304Y94663D01*
X288336Y94581D01*
X288364Y94498D01*
X288388Y94413D01*
X288409Y94328D01*
X288426Y94242D01*
X288440Y94155D01*
X288449Y94068D01*
X288455Y93981D01*
X288457Y93893D01*
X288456Y93893D02*
X288456Y91883D01*
X282827Y99323D02*
X281218Y101333D01*
X288456Y101333D01*
X288456Y99323D02*
X288456Y103344D01*
X288756Y45418D02*
X281518Y45418D01*
X288756Y45418D02*
X288756Y48635D01*
X288756Y51658D02*
X288756Y54875D01*
X288756Y51658D02*
X281518Y51658D01*
X281518Y54875D01*
X284735Y54071D02*
X284735Y51658D01*
X281518Y57883D02*
X288756Y57883D01*
X281518Y57883D02*
X281518Y59893D01*
X281520Y59981D01*
X281526Y60068D01*
X281535Y60155D01*
X281549Y60242D01*
X281566Y60328D01*
X281587Y60413D01*
X281611Y60498D01*
X281639Y60581D01*
X281671Y60663D01*
X281706Y60743D01*
X281745Y60822D01*
X281787Y60899D01*
X281833Y60974D01*
X281882Y61046D01*
X281934Y61117D01*
X281988Y61186D01*
X282046Y61252D01*
X282107Y61315D01*
X282170Y61376D01*
X282236Y61434D01*
X282305Y61488D01*
X282376Y61540D01*
X282448Y61589D01*
X282524Y61635D01*
X282600Y61677D01*
X282679Y61716D01*
X282759Y61751D01*
X282841Y61783D01*
X282924Y61811D01*
X283009Y61835D01*
X283094Y61856D01*
X283180Y61873D01*
X283267Y61887D01*
X283354Y61896D01*
X283441Y61902D01*
X283529Y61904D01*
X286746Y61904D01*
X286834Y61902D01*
X286921Y61896D01*
X287008Y61887D01*
X287095Y61873D01*
X287181Y61856D01*
X287266Y61835D01*
X287351Y61811D01*
X287434Y61783D01*
X287516Y61751D01*
X287596Y61716D01*
X287675Y61677D01*
X287752Y61635D01*
X287827Y61589D01*
X287899Y61540D01*
X287970Y61488D01*
X288039Y61434D01*
X288105Y61376D01*
X288168Y61315D01*
X288229Y61252D01*
X288287Y61186D01*
X288341Y61117D01*
X288393Y61046D01*
X288442Y60973D01*
X288488Y60898D01*
X288530Y60822D01*
X288569Y60743D01*
X288604Y60663D01*
X288636Y60581D01*
X288664Y60498D01*
X288688Y60413D01*
X288709Y60328D01*
X288726Y60242D01*
X288740Y60155D01*
X288749Y60068D01*
X288755Y59981D01*
X288757Y59893D01*
X288756Y59893D02*
X288756Y57883D01*
X281518Y67534D02*
X281520Y67618D01*
X281526Y67701D01*
X281535Y67784D01*
X281549Y67867D01*
X281566Y67948D01*
X281587Y68029D01*
X281612Y68109D01*
X281640Y68188D01*
X281672Y68265D01*
X281708Y68341D01*
X281747Y68415D01*
X281789Y68487D01*
X281835Y68557D01*
X281884Y68625D01*
X281936Y68690D01*
X281990Y68753D01*
X282048Y68814D01*
X282109Y68872D01*
X282172Y68926D01*
X282237Y68978D01*
X282305Y69027D01*
X282375Y69073D01*
X282447Y69115D01*
X282521Y69154D01*
X282597Y69190D01*
X282674Y69222D01*
X282753Y69250D01*
X282833Y69275D01*
X282914Y69296D01*
X282995Y69313D01*
X283078Y69327D01*
X283161Y69336D01*
X283244Y69342D01*
X283328Y69344D01*
X281518Y67534D02*
X281520Y67440D01*
X281526Y67346D01*
X281535Y67252D01*
X281549Y67158D01*
X281566Y67066D01*
X281587Y66974D01*
X281611Y66883D01*
X281639Y66793D01*
X281671Y66704D01*
X281707Y66616D01*
X281746Y66531D01*
X281788Y66446D01*
X281834Y66364D01*
X281883Y66283D01*
X281935Y66205D01*
X281991Y66129D01*
X282049Y66055D01*
X282111Y65983D01*
X282175Y65914D01*
X282242Y65848D01*
X282312Y65784D01*
X282384Y65724D01*
X282459Y65666D01*
X282536Y65611D01*
X282615Y65560D01*
X282696Y65512D01*
X282779Y65467D01*
X282863Y65425D01*
X282950Y65387D01*
X283038Y65353D01*
X283127Y65322D01*
X284736Y68741D02*
X284674Y68803D01*
X284610Y68862D01*
X284543Y68918D01*
X284473Y68971D01*
X284401Y69021D01*
X284327Y69068D01*
X284251Y69111D01*
X284173Y69151D01*
X284094Y69187D01*
X284013Y69219D01*
X283930Y69248D01*
X283846Y69274D01*
X283762Y69295D01*
X283676Y69313D01*
X283590Y69326D01*
X283503Y69336D01*
X283415Y69342D01*
X283328Y69344D01*
X284735Y68741D02*
X288756Y65323D01*
X288756Y69344D01*
D15*
X137730Y112970D02*
X137732Y113033D01*
X137738Y113095D01*
X137748Y113157D01*
X137761Y113219D01*
X137779Y113279D01*
X137800Y113338D01*
X137825Y113396D01*
X137854Y113452D01*
X137886Y113506D01*
X137921Y113558D01*
X137959Y113607D01*
X138001Y113655D01*
X138045Y113699D01*
X138093Y113741D01*
X138142Y113779D01*
X138194Y113814D01*
X138248Y113846D01*
X138304Y113875D01*
X138362Y113900D01*
X138421Y113921D01*
X138481Y113939D01*
X138543Y113952D01*
X138605Y113962D01*
X138667Y113968D01*
X138730Y113970D01*
X138793Y113968D01*
X138855Y113962D01*
X138917Y113952D01*
X138979Y113939D01*
X139039Y113921D01*
X139098Y113900D01*
X139156Y113875D01*
X139212Y113846D01*
X139266Y113814D01*
X139318Y113779D01*
X139367Y113741D01*
X139415Y113699D01*
X139459Y113655D01*
X139501Y113607D01*
X139539Y113558D01*
X139574Y113506D01*
X139606Y113452D01*
X139635Y113396D01*
X139660Y113338D01*
X139681Y113279D01*
X139699Y113219D01*
X139712Y113157D01*
X139722Y113095D01*
X139728Y113033D01*
X139730Y112970D01*
X139728Y112907D01*
X139722Y112845D01*
X139712Y112783D01*
X139699Y112721D01*
X139681Y112661D01*
X139660Y112602D01*
X139635Y112544D01*
X139606Y112488D01*
X139574Y112434D01*
X139539Y112382D01*
X139501Y112333D01*
X139459Y112285D01*
X139415Y112241D01*
X139367Y112199D01*
X139318Y112161D01*
X139266Y112126D01*
X139212Y112094D01*
X139156Y112065D01*
X139098Y112040D01*
X139039Y112019D01*
X138979Y112001D01*
X138917Y111988D01*
X138855Y111978D01*
X138793Y111972D01*
X138730Y111970D01*
X138667Y111972D01*
X138605Y111978D01*
X138543Y111988D01*
X138481Y112001D01*
X138421Y112019D01*
X138362Y112040D01*
X138304Y112065D01*
X138248Y112094D01*
X138194Y112126D01*
X138142Y112161D01*
X138093Y112199D01*
X138045Y112241D01*
X138001Y112285D01*
X137959Y112333D01*
X137921Y112382D01*
X137886Y112434D01*
X137854Y112488D01*
X137825Y112544D01*
X137800Y112602D01*
X137779Y112661D01*
X137761Y112721D01*
X137748Y112783D01*
X137738Y112845D01*
X137732Y112907D01*
X137730Y112970D01*
D14*
X94030Y111270D02*
X94030Y170670D01*
X94030Y111270D02*
X9430Y111270D01*
X9430Y170670D01*
X94030Y170670D01*
D11*
X88311Y138442D02*
X79200Y138442D01*
X88311Y138441D02*
X88411Y138439D01*
X88510Y138433D01*
X88610Y138424D01*
X88708Y138410D01*
X88807Y138393D01*
X88904Y138373D01*
X89001Y138348D01*
X89096Y138320D01*
X89191Y138288D01*
X89284Y138252D01*
X89376Y138213D01*
X89466Y138171D01*
X89555Y138125D01*
X89641Y138075D01*
X89726Y138023D01*
X89809Y137967D01*
X89889Y137908D01*
X89967Y137846D01*
X90043Y137781D01*
X90116Y137714D01*
X90187Y137643D01*
X90254Y137570D01*
X90319Y137494D01*
X90381Y137416D01*
X90440Y137336D01*
X90496Y137253D01*
X90548Y137168D01*
X90598Y137082D01*
X90644Y136993D01*
X90686Y136903D01*
X90725Y136811D01*
X90761Y136718D01*
X90793Y136623D01*
X90821Y136528D01*
X90846Y136431D01*
X90866Y136334D01*
X90883Y136235D01*
X90897Y136137D01*
X90906Y136037D01*
X90912Y135938D01*
X90914Y135838D01*
X90914Y134537D01*
X79199Y147305D02*
X79201Y147412D01*
X79207Y147519D01*
X79217Y147625D01*
X79230Y147731D01*
X79248Y147837D01*
X79269Y147942D01*
X79294Y148046D01*
X79323Y148149D01*
X79356Y148251D01*
X79392Y148351D01*
X79432Y148451D01*
X79476Y148548D01*
X79523Y148644D01*
X79574Y148739D01*
X79628Y148831D01*
X79685Y148921D01*
X79746Y149009D01*
X79810Y149095D01*
X79877Y149179D01*
X79947Y149260D01*
X80019Y149338D01*
X80095Y149414D01*
X80173Y149486D01*
X80254Y149556D01*
X80338Y149623D01*
X80424Y149687D01*
X80512Y149748D01*
X80602Y149805D01*
X80695Y149859D01*
X80789Y149910D01*
X80885Y149957D01*
X80982Y150001D01*
X81082Y150041D01*
X81182Y150077D01*
X81284Y150110D01*
X81387Y150139D01*
X81491Y150164D01*
X81596Y150185D01*
X81702Y150203D01*
X81808Y150216D01*
X81914Y150226D01*
X82021Y150232D01*
X82128Y150234D01*
X79200Y147305D02*
X79202Y147184D01*
X79208Y147063D01*
X79218Y146942D01*
X79231Y146821D01*
X79249Y146701D01*
X79270Y146582D01*
X79295Y146463D01*
X79324Y146345D01*
X79357Y146228D01*
X79394Y146113D01*
X79434Y145998D01*
X79478Y145885D01*
X79526Y145774D01*
X79577Y145664D01*
X79632Y145555D01*
X79690Y145449D01*
X79751Y145344D01*
X79816Y145242D01*
X79884Y145142D01*
X79956Y145044D01*
X80030Y144948D01*
X80108Y144854D01*
X80188Y144764D01*
X80271Y144676D01*
X80358Y144590D01*
X80447Y144508D01*
X80538Y144428D01*
X80632Y144351D01*
X80729Y144278D01*
X80827Y144207D01*
X80928Y144140D01*
X81031Y144076D01*
X81136Y144016D01*
X81243Y143958D01*
X81352Y143905D01*
X81463Y143855D01*
X81575Y143808D01*
X81688Y143765D01*
X81803Y143726D01*
X84405Y149257D02*
X84328Y149336D01*
X84247Y149412D01*
X84164Y149485D01*
X84078Y149555D01*
X83990Y149622D01*
X83900Y149686D01*
X83807Y149747D01*
X83713Y149805D01*
X83616Y149859D01*
X83518Y149909D01*
X83418Y149956D01*
X83316Y150000D01*
X83213Y150040D01*
X83108Y150076D01*
X83002Y150109D01*
X82895Y150138D01*
X82787Y150163D01*
X82679Y150184D01*
X82569Y150202D01*
X82460Y150215D01*
X82349Y150225D01*
X82239Y150231D01*
X82128Y150233D01*
X84406Y149258D02*
X90914Y143726D01*
X90914Y150234D01*
D25*
X367291Y190589D02*
X367293Y190743D01*
X367299Y190898D01*
X367309Y191052D01*
X367323Y191206D01*
X367341Y191359D01*
X367362Y191512D01*
X367388Y191665D01*
X367418Y191816D01*
X367451Y191967D01*
X367489Y192117D01*
X367530Y192266D01*
X367575Y192414D01*
X367624Y192560D01*
X367677Y192706D01*
X367733Y192849D01*
X367793Y192992D01*
X367857Y193132D01*
X367924Y193272D01*
X367995Y193409D01*
X368069Y193544D01*
X368147Y193678D01*
X368228Y193809D01*
X368313Y193938D01*
X368401Y194066D01*
X368492Y194190D01*
X368586Y194313D01*
X368684Y194433D01*
X368784Y194550D01*
X368888Y194665D01*
X368994Y194777D01*
X369103Y194886D01*
X369215Y194992D01*
X369330Y195096D01*
X369447Y195196D01*
X369567Y195294D01*
X369690Y195388D01*
X369814Y195479D01*
X369942Y195567D01*
X370071Y195652D01*
X370202Y195733D01*
X370336Y195811D01*
X370471Y195885D01*
X370608Y195956D01*
X370748Y196023D01*
X370888Y196087D01*
X371031Y196147D01*
X371174Y196203D01*
X371320Y196256D01*
X371466Y196305D01*
X371614Y196350D01*
X371763Y196391D01*
X371913Y196429D01*
X372064Y196462D01*
X372215Y196492D01*
X372368Y196518D01*
X372521Y196539D01*
X372674Y196557D01*
X372828Y196571D01*
X372982Y196581D01*
X373137Y196587D01*
X373291Y196589D01*
X373445Y196587D01*
X373600Y196581D01*
X373754Y196571D01*
X373908Y196557D01*
X374061Y196539D01*
X374214Y196518D01*
X374367Y196492D01*
X374518Y196462D01*
X374669Y196429D01*
X374819Y196391D01*
X374968Y196350D01*
X375116Y196305D01*
X375262Y196256D01*
X375408Y196203D01*
X375551Y196147D01*
X375694Y196087D01*
X375834Y196023D01*
X375974Y195956D01*
X376111Y195885D01*
X376246Y195811D01*
X376380Y195733D01*
X376511Y195652D01*
X376640Y195567D01*
X376768Y195479D01*
X376892Y195388D01*
X377015Y195294D01*
X377135Y195196D01*
X377252Y195096D01*
X377367Y194992D01*
X377479Y194886D01*
X377588Y194777D01*
X377694Y194665D01*
X377798Y194550D01*
X377898Y194433D01*
X377996Y194313D01*
X378090Y194190D01*
X378181Y194066D01*
X378269Y193938D01*
X378354Y193809D01*
X378435Y193678D01*
X378513Y193544D01*
X378587Y193409D01*
X378658Y193272D01*
X378725Y193132D01*
X378789Y192992D01*
X378849Y192849D01*
X378905Y192706D01*
X378958Y192560D01*
X379007Y192414D01*
X379052Y192266D01*
X379093Y192117D01*
X379131Y191967D01*
X379164Y191816D01*
X379194Y191665D01*
X379220Y191512D01*
X379241Y191359D01*
X379259Y191206D01*
X379273Y191052D01*
X379283Y190898D01*
X379289Y190743D01*
X379291Y190589D01*
X379289Y190435D01*
X379283Y190280D01*
X379273Y190126D01*
X379259Y189972D01*
X379241Y189819D01*
X379220Y189666D01*
X379194Y189513D01*
X379164Y189362D01*
X379131Y189211D01*
X379093Y189061D01*
X379052Y188912D01*
X379007Y188764D01*
X378958Y188618D01*
X378905Y188472D01*
X378849Y188329D01*
X378789Y188186D01*
X378725Y188046D01*
X378658Y187906D01*
X378587Y187769D01*
X378513Y187634D01*
X378435Y187500D01*
X378354Y187369D01*
X378269Y187240D01*
X378181Y187112D01*
X378090Y186988D01*
X377996Y186865D01*
X377898Y186745D01*
X377798Y186628D01*
X377694Y186513D01*
X377588Y186401D01*
X377479Y186292D01*
X377367Y186186D01*
X377252Y186082D01*
X377135Y185982D01*
X377015Y185884D01*
X376892Y185790D01*
X376768Y185699D01*
X376640Y185611D01*
X376511Y185526D01*
X376380Y185445D01*
X376246Y185367D01*
X376111Y185293D01*
X375974Y185222D01*
X375834Y185155D01*
X375694Y185091D01*
X375551Y185031D01*
X375408Y184975D01*
X375262Y184922D01*
X375116Y184873D01*
X374968Y184828D01*
X374819Y184787D01*
X374669Y184749D01*
X374518Y184716D01*
X374367Y184686D01*
X374214Y184660D01*
X374061Y184639D01*
X373908Y184621D01*
X373754Y184607D01*
X373600Y184597D01*
X373445Y184591D01*
X373291Y184589D01*
X373137Y184591D01*
X372982Y184597D01*
X372828Y184607D01*
X372674Y184621D01*
X372521Y184639D01*
X372368Y184660D01*
X372215Y184686D01*
X372064Y184716D01*
X371913Y184749D01*
X371763Y184787D01*
X371614Y184828D01*
X371466Y184873D01*
X371320Y184922D01*
X371174Y184975D01*
X371031Y185031D01*
X370888Y185091D01*
X370748Y185155D01*
X370608Y185222D01*
X370471Y185293D01*
X370336Y185367D01*
X370202Y185445D01*
X370071Y185526D01*
X369942Y185611D01*
X369814Y185699D01*
X369690Y185790D01*
X369567Y185884D01*
X369447Y185982D01*
X369330Y186082D01*
X369215Y186186D01*
X369103Y186292D01*
X368994Y186401D01*
X368888Y186513D01*
X368784Y186628D01*
X368684Y186745D01*
X368586Y186865D01*
X368492Y186988D01*
X368401Y187112D01*
X368313Y187240D01*
X368228Y187369D01*
X368147Y187500D01*
X368069Y187634D01*
X367995Y187769D01*
X367924Y187906D01*
X367857Y188046D01*
X367793Y188186D01*
X367733Y188329D01*
X367677Y188472D01*
X367624Y188618D01*
X367575Y188764D01*
X367530Y188912D01*
X367489Y189061D01*
X367451Y189211D01*
X367418Y189362D01*
X367388Y189513D01*
X367362Y189666D01*
X367341Y189819D01*
X367323Y189972D01*
X367309Y190126D01*
X367299Y190280D01*
X367293Y190435D01*
X367291Y190589D01*
D14*
X378290Y175590D02*
X382290Y175590D01*
X388290Y181590D01*
X388290Y185590D01*
X388290Y365590D02*
X388290Y375590D01*
X380290Y375590D01*
X198290Y375590D02*
X188290Y375590D01*
X188290Y365590D01*
X188290Y175590D02*
X198290Y175590D01*
X188290Y175590D02*
X188290Y185590D01*
D11*
X391200Y173482D02*
X391200Y165044D01*
X391199Y165044D02*
X391201Y164931D01*
X391207Y164818D01*
X391217Y164705D01*
X391231Y164592D01*
X391248Y164480D01*
X391270Y164369D01*
X391295Y164259D01*
X391325Y164149D01*
X391358Y164041D01*
X391395Y163934D01*
X391435Y163828D01*
X391480Y163724D01*
X391528Y163621D01*
X391579Y163520D01*
X391634Y163421D01*
X391692Y163324D01*
X391754Y163229D01*
X391819Y163136D01*
X391887Y163046D01*
X391958Y162958D01*
X392033Y162872D01*
X392110Y162789D01*
X392190Y162709D01*
X392273Y162632D01*
X392359Y162557D01*
X392447Y162486D01*
X392537Y162418D01*
X392630Y162353D01*
X392725Y162291D01*
X392822Y162233D01*
X392921Y162178D01*
X393022Y162127D01*
X393125Y162079D01*
X393229Y162034D01*
X393335Y161994D01*
X393442Y161957D01*
X393550Y161924D01*
X393660Y161894D01*
X393770Y161869D01*
X393881Y161847D01*
X393993Y161830D01*
X394106Y161816D01*
X394219Y161806D01*
X394332Y161800D01*
X394445Y161798D01*
X394558Y161800D01*
X394671Y161806D01*
X394784Y161816D01*
X394897Y161830D01*
X395009Y161847D01*
X395120Y161869D01*
X395230Y161894D01*
X395340Y161924D01*
X395448Y161957D01*
X395555Y161994D01*
X395661Y162034D01*
X395765Y162079D01*
X395868Y162127D01*
X395969Y162178D01*
X396068Y162233D01*
X396165Y162291D01*
X396260Y162353D01*
X396353Y162418D01*
X396443Y162486D01*
X396531Y162557D01*
X396617Y162632D01*
X396700Y162709D01*
X396780Y162789D01*
X396857Y162872D01*
X396932Y162958D01*
X397003Y163046D01*
X397071Y163136D01*
X397136Y163229D01*
X397198Y163324D01*
X397256Y163421D01*
X397311Y163520D01*
X397362Y163621D01*
X397410Y163724D01*
X397455Y163828D01*
X397495Y163934D01*
X397532Y164041D01*
X397565Y164149D01*
X397595Y164259D01*
X397620Y164369D01*
X397642Y164480D01*
X397659Y164592D01*
X397673Y164705D01*
X397683Y164818D01*
X397689Y164931D01*
X397691Y165044D01*
X397691Y173482D01*
X403011Y161798D02*
X406256Y161798D01*
X406369Y161800D01*
X406482Y161806D01*
X406595Y161816D01*
X406708Y161830D01*
X406820Y161847D01*
X406931Y161869D01*
X407041Y161894D01*
X407151Y161924D01*
X407259Y161957D01*
X407366Y161994D01*
X407472Y162034D01*
X407576Y162079D01*
X407679Y162127D01*
X407780Y162178D01*
X407879Y162233D01*
X407976Y162291D01*
X408071Y162353D01*
X408164Y162418D01*
X408254Y162486D01*
X408342Y162557D01*
X408428Y162632D01*
X408511Y162709D01*
X408591Y162789D01*
X408668Y162872D01*
X408743Y162958D01*
X408814Y163046D01*
X408882Y163136D01*
X408947Y163229D01*
X409009Y163324D01*
X409067Y163421D01*
X409122Y163520D01*
X409173Y163621D01*
X409221Y163724D01*
X409266Y163828D01*
X409306Y163934D01*
X409343Y164041D01*
X409376Y164149D01*
X409406Y164259D01*
X409431Y164369D01*
X409453Y164480D01*
X409470Y164592D01*
X409484Y164705D01*
X409494Y164818D01*
X409500Y164931D01*
X409502Y165044D01*
X409500Y165157D01*
X409494Y165270D01*
X409484Y165383D01*
X409470Y165496D01*
X409453Y165608D01*
X409431Y165719D01*
X409406Y165829D01*
X409376Y165939D01*
X409343Y166047D01*
X409306Y166154D01*
X409266Y166260D01*
X409221Y166364D01*
X409173Y166467D01*
X409122Y166568D01*
X409067Y166667D01*
X409009Y166764D01*
X408947Y166859D01*
X408882Y166952D01*
X408814Y167042D01*
X408743Y167130D01*
X408668Y167216D01*
X408591Y167299D01*
X408511Y167379D01*
X408428Y167456D01*
X408342Y167531D01*
X408254Y167602D01*
X408164Y167670D01*
X408071Y167735D01*
X407976Y167797D01*
X407879Y167855D01*
X407780Y167910D01*
X407679Y167961D01*
X407576Y168009D01*
X407472Y168054D01*
X407366Y168094D01*
X407259Y168131D01*
X407151Y168164D01*
X407041Y168194D01*
X406931Y168219D01*
X406820Y168241D01*
X406708Y168258D01*
X406595Y168272D01*
X406482Y168282D01*
X406369Y168288D01*
X406256Y168290D01*
X406906Y173482D02*
X403011Y173482D01*
X406906Y173482D02*
X407007Y173480D01*
X407107Y173474D01*
X407207Y173464D01*
X407307Y173451D01*
X407406Y173433D01*
X407505Y173412D01*
X407602Y173387D01*
X407699Y173358D01*
X407794Y173325D01*
X407888Y173289D01*
X407980Y173249D01*
X408071Y173206D01*
X408160Y173159D01*
X408247Y173109D01*
X408333Y173055D01*
X408416Y172998D01*
X408496Y172938D01*
X408575Y172875D01*
X408651Y172808D01*
X408724Y172739D01*
X408794Y172667D01*
X408862Y172593D01*
X408927Y172516D01*
X408988Y172436D01*
X409047Y172354D01*
X409102Y172270D01*
X409154Y172184D01*
X409203Y172096D01*
X409248Y172006D01*
X409290Y171914D01*
X409328Y171821D01*
X409362Y171726D01*
X409393Y171631D01*
X409420Y171534D01*
X409443Y171436D01*
X409463Y171337D01*
X409478Y171237D01*
X409490Y171137D01*
X409498Y171037D01*
X409502Y170936D01*
X409502Y170836D01*
X409498Y170735D01*
X409490Y170635D01*
X409478Y170535D01*
X409463Y170435D01*
X409443Y170336D01*
X409420Y170238D01*
X409393Y170141D01*
X409362Y170046D01*
X409328Y169951D01*
X409290Y169858D01*
X409248Y169766D01*
X409203Y169676D01*
X409154Y169588D01*
X409102Y169502D01*
X409047Y169418D01*
X408988Y169336D01*
X408927Y169256D01*
X408862Y169179D01*
X408794Y169105D01*
X408724Y169033D01*
X408651Y168964D01*
X408575Y168897D01*
X408496Y168834D01*
X408416Y168774D01*
X408333Y168717D01*
X408247Y168663D01*
X408160Y168613D01*
X408071Y168566D01*
X407980Y168523D01*
X407888Y168483D01*
X407794Y168447D01*
X407699Y168414D01*
X407602Y168385D01*
X407505Y168360D01*
X407406Y168339D01*
X407307Y168321D01*
X407207Y168308D01*
X407107Y168298D01*
X407007Y168292D01*
X406906Y168290D01*
X406906Y168289D02*
X404309Y168289D01*
D14*
X409478Y153400D02*
X315752Y153400D01*
X315752Y1000D01*
X409478Y1000D01*
X409478Y153400D01*
X325930Y478963D02*
X329105Y482138D01*
X329105Y526588D01*
X325930Y529763D01*
X316405Y529763D01*
X310055Y529763D02*
X300530Y529763D01*
X297355Y526588D01*
X297355Y482138D01*
X300530Y478963D01*
X310055Y478963D01*
X316405Y478963D02*
X325930Y478963D01*
X316405Y478963D02*
X316405Y482138D01*
X310055Y482138D01*
X310055Y478963D01*
X310055Y526588D02*
X310055Y529763D01*
X310055Y526588D02*
X316405Y526588D01*
X316405Y529763D01*
D11*
X305495Y537830D02*
X313284Y549514D01*
X305495Y549514D02*
X313284Y537830D01*
X317574Y546918D02*
X320819Y549514D01*
X320819Y537830D01*
X317574Y537830D02*
X324065Y537830D01*
D26*
X244203Y34618D03*
D27*
X244127Y34809D03*
D28*
X244051Y35304D03*
D29*
X243974Y35647D03*
D30*
X243898Y35876D03*
D31*
X243822Y36066D03*
D32*
X243746Y36257D03*
D33*
X243670Y36485D03*
D34*
X243593Y36638D03*
D35*
X243517Y36828D03*
D36*
X243441Y36904D03*
D37*
X243365Y37095D03*
D38*
X243289Y37209D03*
D39*
X243212Y37361D03*
D40*
X243136Y37476D03*
D41*
X243060Y37552D03*
D42*
X242984Y37704D03*
D43*
X242908Y37781D03*
D44*
X242831Y37895D03*
D45*
X242755Y38009D03*
D46*
X242679Y38123D03*
D47*
X242603Y38200D03*
D48*
X242527Y38276D03*
D49*
X242450Y38390D03*
D50*
X242374Y38504D03*
D51*
X242298Y38581D03*
D52*
X242222Y38619D03*
D53*
X242146Y38695D03*
D54*
X242069Y38809D03*
D55*
X241993Y38885D03*
D56*
X241917Y38924D03*
D57*
X241841Y39000D03*
D58*
X241765Y39076D03*
X241688Y39152D03*
D59*
X241612Y39228D03*
D60*
X241536Y39305D03*
D61*
X241460Y39343D03*
D62*
X241384Y39419D03*
D63*
X241307Y39495D03*
D64*
X241231Y39533D03*
D65*
X241155Y39609D03*
D66*
X241079Y39686D03*
D67*
X241003Y39724D03*
D68*
X240926Y39762D03*
D69*
X240850Y39876D03*
D70*
X240774Y39914D03*
D71*
X240698Y39952D03*
D72*
X240622Y39990D03*
X240545Y40067D03*
D73*
X240469Y40105D03*
D74*
X240393Y40143D03*
D75*
X240317Y40181D03*
D76*
X240241Y40257D03*
D77*
X240164Y40295D03*
D78*
X240088Y40371D03*
D79*
X240012Y40371D03*
D80*
X239936Y40409D03*
D81*
X239860Y40486D03*
D82*
X239783Y40562D03*
D83*
X239707Y40562D03*
D84*
X239631Y40600D03*
D85*
X239555Y40676D03*
D86*
X239479Y40714D03*
D87*
X239402Y40752D03*
D88*
X239326Y40829D03*
D89*
X239250Y40829D03*
D90*
X239174Y40867D03*
D91*
X239098Y40905D03*
D92*
X239021Y40981D03*
D93*
X238945Y40981D03*
D94*
X238869Y41019D03*
D95*
X238793Y41057D03*
D96*
X238717Y41095D03*
D97*
X238640Y41133D03*
D98*
X238564Y41171D03*
D99*
X238488Y41210D03*
D100*
X238412Y41210D03*
D101*
X238336Y41248D03*
D102*
X238259Y41324D03*
D103*
X238183Y41324D03*
D104*
X238107Y41362D03*
D105*
X238031Y41362D03*
D104*
X237955Y41438D03*
X237878Y41438D03*
D106*
X237802Y41476D03*
D107*
X237726Y41552D03*
D108*
X237650Y41552D03*
D109*
X237574Y41591D03*
X237497Y41591D03*
D110*
X237421Y41667D03*
D111*
X237345Y41667D03*
D112*
X237269Y41705D03*
D113*
X237193Y41705D03*
X237116Y41705D03*
D114*
X237040Y41781D03*
D115*
X236964Y41781D03*
D116*
X236888Y41819D03*
D117*
X236812Y41819D03*
D118*
X236735Y41895D03*
D119*
X236659Y41895D03*
D120*
X236583Y41933D03*
D121*
X236507Y41933D03*
D117*
X236431Y41972D03*
D120*
X236354Y42010D03*
D121*
X236278Y42010D03*
D120*
X236202Y42010D03*
D121*
X236126Y42086D03*
D120*
X236050Y42086D03*
X235973Y42086D03*
D122*
X235897Y42124D03*
D120*
X235821Y42162D03*
D121*
X235745Y42162D03*
D123*
X235669Y42200D03*
X235592Y42200D03*
D121*
X235516Y42238D03*
D124*
X235440Y42276D03*
D125*
X235364Y42276D03*
D124*
X235288Y42276D03*
X235211Y42276D03*
D122*
X235135Y42353D03*
D123*
X235059Y42353D03*
D122*
X234983Y42353D03*
D123*
X234907Y42353D03*
D124*
X234830Y42429D03*
D125*
X234754Y42429D03*
D124*
X234678Y42429D03*
D121*
X234602Y42467D03*
D120*
X234526Y42467D03*
D123*
X234449Y42505D03*
D126*
X234373Y29627D03*
D127*
X234373Y41552D03*
D128*
X234373Y41933D03*
D129*
X234373Y42086D03*
X234373Y42238D03*
D128*
X234373Y42391D03*
X234373Y42543D03*
D130*
X234373Y52982D03*
D131*
X234297Y29170D03*
D132*
X234297Y54468D03*
D133*
X234221Y28865D03*
D134*
X234221Y55307D03*
D135*
X234145Y28637D03*
D136*
X234145Y55954D03*
D137*
X234068Y28446D03*
D138*
X234068Y56373D03*
D139*
X233992Y28294D03*
D140*
X233992Y56640D03*
D141*
X233916Y28217D03*
D142*
X233916Y57059D03*
D143*
X233840Y28065D03*
D144*
X233840Y57402D03*
D145*
X233764Y27951D03*
D146*
X233764Y57669D03*
D147*
X233687Y27875D03*
D148*
X233687Y57935D03*
D149*
X233611Y27836D03*
D150*
X233611Y58126D03*
D151*
X233535Y27760D03*
D152*
X233535Y58316D03*
D153*
X233459Y27646D03*
D154*
X233459Y58507D03*
D155*
X233383Y27570D03*
D156*
X233383Y58736D03*
D157*
X233306Y27570D03*
D158*
X233306Y58926D03*
D159*
X233230Y27494D03*
D160*
X233230Y59078D03*
D161*
X233154Y27455D03*
D162*
X233154Y59193D03*
D163*
X233078Y27379D03*
D164*
X233078Y59193D03*
D165*
X233002Y27379D03*
D166*
X233002Y59231D03*
D167*
X232925Y27303D03*
D168*
X232925Y59269D03*
D169*
X232849Y27265D03*
D170*
X232849Y59269D03*
D171*
X232773Y27227D03*
D168*
X232773Y59269D03*
D172*
X232697Y27227D03*
D170*
X232697Y59345D03*
D173*
X232621Y27189D03*
D168*
X232621Y59345D03*
D174*
X232544Y27151D03*
D168*
X232544Y59345D03*
D175*
X232468Y27113D03*
D170*
X232468Y59345D03*
D176*
X232392Y27113D03*
D162*
X232392Y59421D03*
D177*
X232316Y27074D03*
D164*
X232316Y59421D03*
D178*
X232240Y27036D03*
D162*
X232240Y59421D03*
D178*
X232163Y27036D03*
D162*
X232163Y59421D03*
D179*
X232087Y27036D03*
D170*
X232087Y59498D03*
D180*
X232011Y26998D03*
D168*
X232011Y59498D03*
D181*
X231935Y26960D03*
D170*
X231935Y59498D03*
D182*
X231859Y26960D03*
D166*
X231859Y59536D03*
D183*
X231782Y26922D03*
D166*
X231782Y59536D03*
D184*
X231706Y26960D03*
D164*
X231706Y59574D03*
D185*
X231630Y26922D03*
D162*
X231630Y59574D03*
D186*
X231554Y26884D03*
D187*
X231554Y59612D03*
D188*
X231478Y26922D03*
D168*
X231478Y59650D03*
X231401Y26884D03*
X231401Y59650D03*
D170*
X231325Y26884D03*
X231325Y59650D03*
D166*
X231249Y26846D03*
X231249Y59688D03*
D189*
X231173Y26884D03*
D187*
X231173Y59688D03*
D190*
X231097Y26884D03*
D168*
X231097Y59726D03*
D191*
X231020Y26846D03*
D168*
X231020Y59726D03*
D192*
X230944Y26846D03*
D187*
X230944Y59764D03*
D193*
X230868Y26808D03*
D162*
X230868Y59802D03*
D194*
X230792Y26846D03*
D164*
X230792Y59802D03*
D195*
X230716Y26846D03*
D162*
X230716Y59802D03*
D196*
X230639Y26808D03*
D162*
X230639Y59802D03*
D197*
X230563Y26808D03*
D170*
X230563Y59879D03*
D198*
X230487Y26846D03*
D168*
X230487Y59879D03*
D199*
X230411Y26846D03*
D187*
X230411Y59917D03*
D200*
X230335Y26808D03*
D166*
X230335Y59917D03*
D201*
X230258Y26846D03*
D166*
X230258Y59917D03*
D202*
X230182Y26846D03*
D164*
X230182Y59955D03*
D203*
X230106Y26808D03*
D166*
X230106Y59993D03*
D204*
X230030Y26808D03*
D187*
X230030Y59993D03*
D203*
X229954Y26808D03*
D166*
X229954Y59993D03*
D205*
X229877Y26846D03*
D168*
X229877Y60031D03*
D206*
X229801Y26846D03*
D187*
X229801Y60069D03*
D205*
X229725Y26846D03*
D166*
X229725Y60069D03*
D206*
X229649Y26846D03*
D187*
X229649Y60069D03*
D207*
X229573Y26846D03*
D168*
X229573Y60107D03*
D207*
X229496Y26846D03*
D168*
X229496Y60107D03*
D208*
X229420Y26846D03*
D187*
X229420Y60145D03*
D207*
X229344Y26846D03*
D162*
X229344Y60183D03*
D209*
X229268Y26884D03*
D164*
X229268Y60183D03*
D210*
X229192Y26884D03*
D182*
X229192Y46467D03*
D166*
X229192Y60221D03*
D210*
X229115Y26884D03*
D211*
X229115Y46772D03*
D166*
X229115Y60221D03*
D209*
X229039Y26884D03*
D212*
X229039Y47153D03*
D170*
X229039Y60260D03*
D210*
X228963Y26884D03*
D213*
X228963Y47382D03*
D168*
X228963Y60260D03*
D214*
X228887Y26922D03*
D215*
X228887Y47572D03*
D170*
X228887Y60260D03*
D216*
X228811Y26922D03*
D217*
X228811Y52297D03*
D216*
X228734Y26922D03*
D218*
X228734Y52182D03*
D219*
X228658Y26960D03*
D220*
X228658Y52144D03*
D221*
X228582Y26960D03*
D222*
X228582Y52106D03*
D219*
X228506Y26960D03*
D223*
X228506Y52030D03*
D221*
X228430Y26960D03*
D224*
X228430Y51992D03*
D225*
X228353Y26998D03*
D226*
X228353Y51992D03*
D227*
X228277Y26998D03*
D228*
X228277Y51954D03*
D225*
X228201Y26998D03*
D229*
X228201Y51916D03*
D227*
X228125Y26998D03*
D230*
X228125Y51878D03*
D231*
X228049Y27036D03*
D232*
X228049Y51878D03*
D231*
X227972Y27036D03*
D233*
X227972Y51839D03*
D234*
X227896Y27036D03*
D235*
X227896Y51839D03*
D231*
X227820Y27036D03*
D236*
X227820Y51839D03*
D237*
X227744Y27074D03*
D238*
X227744Y51839D03*
D239*
X227668Y27074D03*
D240*
X227668Y51801D03*
D239*
X227591Y27074D03*
D240*
X227591Y51801D03*
D237*
X227515Y27074D03*
D241*
X227515Y51763D03*
D239*
X227439Y27074D03*
D242*
X227439Y51801D03*
D243*
X227363Y27113D03*
D244*
X227363Y51801D03*
D245*
X227287Y27113D03*
D246*
X227287Y51763D03*
D245*
X227210Y27113D03*
D246*
X227210Y51763D03*
D247*
X227134Y27151D03*
D248*
X227134Y51801D03*
D249*
X227058Y27151D03*
D250*
X227058Y51801D03*
D247*
X226982Y27151D03*
D248*
X226982Y51801D03*
D249*
X226906Y27151D03*
D250*
X226906Y51801D03*
D251*
X226829Y27189D03*
D252*
X226829Y51839D03*
D247*
X226753Y27227D03*
D253*
X226753Y51839D03*
D249*
X226677Y27227D03*
D252*
X226677Y51839D03*
D247*
X226601Y27227D03*
D253*
X226601Y51839D03*
D249*
X226525Y27227D03*
D254*
X226525Y51878D03*
D255*
X226448Y27265D03*
D254*
X226448Y51878D03*
D256*
X226372Y27265D03*
D257*
X226372Y51878D03*
D255*
X226296Y27265D03*
D258*
X226296Y51916D03*
D256*
X226220Y27265D03*
D259*
X226220Y51916D03*
D260*
X226144Y27303D03*
D258*
X226144Y51916D03*
D255*
X226067Y27341D03*
D258*
X226067Y51916D03*
D256*
X225991Y27341D03*
D259*
X225991Y51916D03*
D255*
X225915Y27341D03*
D261*
X225915Y51954D03*
D256*
X225839Y27341D03*
D262*
X225839Y51954D03*
D263*
X225763Y27379D03*
D258*
X225763Y51992D03*
D263*
X225686Y27379D03*
D258*
X225686Y51992D03*
D264*
X225610Y27417D03*
D265*
X225610Y52030D03*
D263*
X225534Y27455D03*
D266*
X225534Y52030D03*
D267*
X225458Y27455D03*
D265*
X225458Y52030D03*
D263*
X225382Y27455D03*
D266*
X225382Y52030D03*
D263*
X225305Y27455D03*
D266*
X225305Y52106D03*
D267*
X225229Y27532D03*
D265*
X225229Y52106D03*
D263*
X225153Y27532D03*
D266*
X225153Y52106D03*
D267*
X225077Y27532D03*
D265*
X225077Y52106D03*
D263*
X225001Y27532D03*
D268*
X225001Y52144D03*
D269*
X224924Y27570D03*
D268*
X224924Y52144D03*
D267*
X224848Y27608D03*
D262*
X224848Y52182D03*
D263*
X224772Y27608D03*
D268*
X224772Y52220D03*
D267*
X224696Y27608D03*
D270*
X224696Y41248D03*
D128*
X224696Y43915D03*
X224696Y44067D03*
X224696Y44219D03*
D129*
X224696Y44372D03*
X224696Y44524D03*
D128*
X224696Y44677D03*
D271*
X224696Y48601D03*
D272*
X224696Y57250D03*
D263*
X224620Y27608D03*
D273*
X224620Y40714D03*
D136*
X224620Y58316D03*
D269*
X224543Y27646D03*
D274*
X224543Y40448D03*
D275*
X224543Y58697D03*
D276*
X224467Y27646D03*
D277*
X224467Y40333D03*
D278*
X224467Y58888D03*
D260*
X224391Y27684D03*
D279*
X224391Y40143D03*
D137*
X224391Y59155D03*
D280*
X224315Y27684D03*
D281*
X224315Y40028D03*
D282*
X224315Y59383D03*
D269*
X224239Y27722D03*
D283*
X224239Y39914D03*
D284*
X224239Y59536D03*
D269*
X224162Y27722D03*
D285*
X224162Y39914D03*
D286*
X224162Y59688D03*
D276*
X224086Y27722D03*
D287*
X224086Y39914D03*
D144*
X224086Y59840D03*
D263*
X224010Y27760D03*
D285*
X224010Y39914D03*
D288*
X224010Y59955D03*
D276*
X223934Y27798D03*
D287*
X223934Y39914D03*
D289*
X223934Y60107D03*
D269*
X223858Y27798D03*
D290*
X223858Y39952D03*
D291*
X223858Y60221D03*
D269*
X223781Y27798D03*
D285*
X223781Y39990D03*
D155*
X223781Y60336D03*
D276*
X223705Y27798D03*
D287*
X223705Y39990D03*
D292*
X223705Y60412D03*
D293*
X223629Y27875D03*
D285*
X223629Y39990D03*
D161*
X223629Y60526D03*
D294*
X223553Y27875D03*
D295*
X223553Y40028D03*
D296*
X223553Y60602D03*
D293*
X223477Y27875D03*
D297*
X223477Y40028D03*
D298*
X223477Y60717D03*
D263*
X223400Y27913D03*
D299*
X223400Y40067D03*
D300*
X223400Y60793D03*
D276*
X223324Y27951D03*
D301*
X223324Y40067D03*
D169*
X223324Y60869D03*
D269*
X223248Y27951D03*
D299*
X223248Y40067D03*
D171*
X223248Y60907D03*
D276*
X223172Y27951D03*
D295*
X223172Y40105D03*
D302*
X223172Y61022D03*
D263*
X223096Y27989D03*
D297*
X223096Y40105D03*
D173*
X223096Y61098D03*
D269*
X223019Y28027D03*
D285*
X223019Y40143D03*
D303*
X223019Y61136D03*
D276*
X222943Y28027D03*
D287*
X222943Y40143D03*
D304*
X222943Y61212D03*
D269*
X222867Y28027D03*
D290*
X222867Y40181D03*
D305*
X222867Y61288D03*
D280*
X222791Y28065D03*
D287*
X222791Y40219D03*
D306*
X222791Y61326D03*
D260*
X222715Y28065D03*
D297*
X222715Y40257D03*
D156*
X222715Y61403D03*
D269*
X222638Y28103D03*
D297*
X222638Y40257D03*
D307*
X222638Y61441D03*
D276*
X222562Y28103D03*
D295*
X222562Y40257D03*
D308*
X222562Y61517D03*
D269*
X222486Y28103D03*
D285*
X222486Y40295D03*
D158*
X222486Y61593D03*
D276*
X222410Y28179D03*
D309*
X222410Y40333D03*
D181*
X222410Y61631D03*
D269*
X222334Y28179D03*
D290*
X222334Y40333D03*
D310*
X222334Y61669D03*
D269*
X222257Y28179D03*
D290*
X222257Y40333D03*
D183*
X222257Y61745D03*
D276*
X222181Y28179D03*
D287*
X222181Y40371D03*
D184*
X222181Y61784D03*
D293*
X222105Y28256D03*
D297*
X222105Y40409D03*
D185*
X222105Y61822D03*
D294*
X222029Y28256D03*
D295*
X222029Y40409D03*
D186*
X222029Y61860D03*
D293*
X221953Y28256D03*
D297*
X221953Y40409D03*
D311*
X221953Y61936D03*
D263*
X221876Y28294D03*
D299*
X221876Y40448D03*
D188*
X221876Y61974D03*
D276*
X221800Y28332D03*
D301*
X221800Y40448D03*
D312*
X221800Y61974D03*
D269*
X221724Y28332D03*
D297*
X221724Y40486D03*
D313*
X221724Y62050D03*
D267*
X221648Y28370D03*
D295*
X221648Y40486D03*
D164*
X221648Y62088D03*
D263*
X221572Y28370D03*
D285*
X221572Y40524D03*
D166*
X221572Y62126D03*
D263*
X221495Y28370D03*
D290*
X221495Y40562D03*
D190*
X221495Y62165D03*
D276*
X221419Y28408D03*
D309*
X221419Y40562D03*
D189*
X221419Y62165D03*
D260*
X221343Y28446D03*
D285*
X221343Y40600D03*
D314*
X221343Y62241D03*
D280*
X221267Y28446D03*
D287*
X221267Y40600D03*
D192*
X221267Y62279D03*
D260*
X221191Y28446D03*
D297*
X221191Y40638D03*
D193*
X221191Y62317D03*
D269*
X221114Y28484D03*
D285*
X221114Y40676D03*
D193*
X221114Y62317D03*
D267*
X221038Y28522D03*
D287*
X221038Y40676D03*
D315*
X221038Y62393D03*
D263*
X220962Y28522D03*
D290*
X220962Y40714D03*
D195*
X220962Y62431D03*
D267*
X220886Y28522D03*
D309*
X220886Y40714D03*
D194*
X220886Y62431D03*
D269*
X220810Y28560D03*
D285*
X220810Y40752D03*
D196*
X220810Y62469D03*
D263*
X220733Y28598D03*
D285*
X220733Y40752D03*
D316*
X220733Y62507D03*
D267*
X220657Y28598D03*
D287*
X220657Y40752D03*
D317*
X220657Y62584D03*
D255*
X220581Y28637D03*
D297*
X220581Y40790D03*
D316*
X220581Y62584D03*
D267*
X220505Y28675D03*
D301*
X220505Y40829D03*
D318*
X220505Y62622D03*
D263*
X220429Y28675D03*
D299*
X220429Y40829D03*
D198*
X220429Y62660D03*
D319*
X220352Y28713D03*
D297*
X220352Y40867D03*
D200*
X220352Y62698D03*
D264*
X220276Y28713D03*
D287*
X220276Y40905D03*
D318*
X220276Y62698D03*
D263*
X220200Y28751D03*
D285*
X220200Y40905D03*
D320*
X220200Y62736D03*
D267*
X220124Y28751D03*
D287*
X220124Y40981D03*
D318*
X220124Y62774D03*
D255*
X220048Y28789D03*
D321*
X220048Y45210D03*
D200*
X220048Y62774D03*
D255*
X219971Y28789D03*
D321*
X219971Y45210D03*
D201*
X219971Y62812D03*
D280*
X219895Y28827D03*
D322*
X219895Y45286D03*
D202*
X219895Y62812D03*
D255*
X219819Y28865D03*
D165*
X219819Y45286D03*
D201*
X219819Y62888D03*
D256*
X219743Y28865D03*
D322*
X219743Y45286D03*
D202*
X219743Y62888D03*
D255*
X219667Y28865D03*
D298*
X219667Y45324D03*
D201*
X219667Y62888D03*
D249*
X219590Y28903D03*
D321*
X219590Y45362D03*
D323*
X219590Y62927D03*
D264*
X219514Y28941D03*
D324*
X219514Y45362D03*
D202*
X219514Y62965D03*
D319*
X219438Y28941D03*
D298*
X219438Y45401D03*
D203*
X219438Y63003D03*
D247*
X219362Y28979D03*
D324*
X219362Y45439D03*
D204*
X219362Y63003D03*
D255*
X219286Y29018D03*
D298*
X219286Y45477D03*
D203*
X219286Y63003D03*
D249*
X219209Y29056D03*
D298*
X219209Y45477D03*
D201*
X219209Y63041D03*
D247*
X219133Y29056D03*
D322*
X219133Y45515D03*
D325*
X219133Y63079D03*
D249*
X219057Y29056D03*
D298*
X219057Y45553D03*
D323*
X219057Y63079D03*
D247*
X218981Y29132D03*
D324*
X218981Y45591D03*
D325*
X218981Y63079D03*
D249*
X218905Y29132D03*
D321*
X218905Y45591D03*
D320*
X218905Y63117D03*
D249*
X218828Y29132D03*
D321*
X218828Y45591D03*
D323*
X218828Y63155D03*
D243*
X218752Y29170D03*
D322*
X218752Y45667D03*
D325*
X218752Y63155D03*
D249*
X218676Y29208D03*
D165*
X218676Y45667D03*
D323*
X218676Y63155D03*
D247*
X218600Y29208D03*
D326*
X218600Y45705D03*
D202*
X218600Y63193D03*
D245*
X218524Y29246D03*
D300*
X218524Y45705D03*
D203*
X218524Y63231D03*
D245*
X218447Y29246D03*
D300*
X218447Y45705D03*
D203*
X218447Y63231D03*
D327*
X218371Y29322D03*
D328*
X218371Y45782D03*
D204*
X218371Y63231D03*
D251*
X218295Y29322D03*
D329*
X218295Y45782D03*
D201*
X218295Y63269D03*
D237*
X218219Y29360D03*
D328*
X218219Y45782D03*
D325*
X218219Y63308D03*
D239*
X218143Y29360D03*
D152*
X218143Y45820D03*
D323*
X218143Y63308D03*
D239*
X218066Y29360D03*
D300*
X218066Y45858D03*
D323*
X218066Y63308D03*
D237*
X217990Y29437D03*
D330*
X217990Y45896D03*
D202*
X217990Y63346D03*
D239*
X217914Y29437D03*
D152*
X217914Y45896D03*
D203*
X217914Y63384D03*
D237*
X217838Y29437D03*
D169*
X217838Y45934D03*
D204*
X217838Y63384D03*
D231*
X217762Y29475D03*
D331*
X217762Y45934D03*
D203*
X217762Y63384D03*
D239*
X217685Y29513D03*
D331*
X217685Y46010D03*
D203*
X217685Y63384D03*
D234*
X217609Y29551D03*
D169*
X217609Y46010D03*
D202*
X217609Y63422D03*
D231*
X217533Y29551D03*
D331*
X217533Y46010D03*
D323*
X217533Y63460D03*
D332*
X217457Y29589D03*
D333*
X217457Y46048D03*
D325*
X217457Y63460D03*
D231*
X217381Y29627D03*
D334*
X217381Y46086D03*
D320*
X217381Y63498D03*
D225*
X217304Y29665D03*
D171*
X217304Y46124D03*
D320*
X217304Y63498D03*
D227*
X217228Y29665D03*
D333*
X217228Y46124D03*
D335*
X217228Y63498D03*
D221*
X217152Y29703D03*
D336*
X217152Y46163D03*
D320*
X217152Y63498D03*
D332*
X217076Y29741D03*
D302*
X217076Y46163D03*
D318*
X217076Y63536D03*
D221*
X217000Y29780D03*
D337*
X217000Y46201D03*
D201*
X217000Y63574D03*
D221*
X216923Y29780D03*
D337*
X216923Y46201D03*
D201*
X216923Y63574D03*
D219*
X216847Y29780D03*
D172*
X216847Y46277D03*
D202*
X216847Y63574D03*
D221*
X216771Y29856D03*
D337*
X216771Y46277D03*
D200*
X216771Y63612D03*
D338*
X216695Y29894D03*
D154*
X216695Y46315D03*
D318*
X216695Y63612D03*
D339*
X216619Y29894D03*
D173*
X216619Y46315D03*
D200*
X216619Y63612D03*
D210*
X216542Y29932D03*
D174*
X216542Y46353D03*
D200*
X216542Y63612D03*
D214*
X216466Y29970D03*
D340*
X216466Y46353D03*
D318*
X216466Y63612D03*
D210*
X216390Y30008D03*
D341*
X216390Y46391D03*
D316*
X216390Y63650D03*
D209*
X216314Y30008D03*
D175*
X216314Y46391D03*
D342*
X216314Y63689D03*
D207*
X216238Y30046D03*
D305*
X216238Y46429D03*
D343*
X216238Y63689D03*
D210*
X216161Y30084D03*
D344*
X216161Y46467D03*
D343*
X216161Y63689D03*
D208*
X216085Y30122D03*
D306*
X216085Y46467D03*
D317*
X216085Y63727D03*
D207*
X216009Y30122D03*
D345*
X216009Y46505D03*
D316*
X216009Y63727D03*
D346*
X215933Y30161D03*
D347*
X215933Y46544D03*
D317*
X215933Y63727D03*
D348*
X215857Y30237D03*
D345*
X215857Y46582D03*
D316*
X215857Y63727D03*
D348*
X215780Y30237D03*
D345*
X215780Y46582D03*
D196*
X215780Y63765D03*
D206*
X215704Y30275D03*
D349*
X215704Y46620D03*
D197*
X215704Y63765D03*
D323*
X215628Y30313D03*
D350*
X215628Y46620D03*
D196*
X215628Y63765D03*
D206*
X215552Y30351D03*
D179*
X215552Y46620D03*
D194*
X215552Y63803D03*
D323*
X215476Y30389D03*
D180*
X215476Y46658D03*
D195*
X215476Y63803D03*
D201*
X215399Y30427D03*
D185*
X215399Y46886D03*
D195*
X215399Y63803D03*
D202*
X215323Y30427D03*
D351*
X215323Y47115D03*
D194*
X215323Y63803D03*
D200*
X215247Y30465D03*
D352*
X215247Y47306D03*
D195*
X215247Y63803D03*
D342*
X215171Y30542D03*
D315*
X215171Y63841D03*
D343*
X215095Y30542D03*
D193*
X215095Y63841D03*
D316*
X215018Y30580D03*
D193*
X215018Y63841D03*
D197*
X214942Y30618D03*
D315*
X214942Y63841D03*
D198*
X214866Y30656D03*
D353*
X214866Y63879D03*
D197*
X214790Y30694D03*
D189*
X214790Y63841D03*
D354*
X214714Y30732D03*
D190*
X214714Y63841D03*
D195*
X214637Y30808D03*
D190*
X214637Y63841D03*
D194*
X214561Y30808D03*
D187*
X214561Y63879D03*
D193*
X214485Y30846D03*
D166*
X214485Y63879D03*
D192*
X214409Y30884D03*
D187*
X214409Y63879D03*
D191*
X214333Y30961D03*
D168*
X214333Y63917D03*
D314*
X214256Y30999D03*
D188*
X214256Y63879D03*
D187*
X214180Y31037D03*
D312*
X214180Y63879D03*
D168*
X214104Y31075D03*
D188*
X214104Y63879D03*
D312*
X214028Y31113D03*
D186*
X214028Y63917D03*
D168*
X213952Y31151D03*
D311*
X213952Y63917D03*
X213875Y31227D03*
D185*
X213875Y63879D03*
D186*
X213799Y31227D03*
D160*
X213799Y63879D03*
D185*
X213723Y31265D03*
D355*
X213723Y63917D03*
D160*
X213647Y31342D03*
D356*
X213647Y63879D03*
D355*
X213571Y31380D03*
D183*
X213571Y63879D03*
D310*
X213494Y31418D03*
D182*
X213494Y63841D03*
D181*
X213418Y31456D03*
X213418Y63841D03*
D158*
X213342Y31494D03*
D357*
X213342Y63841D03*
D179*
X213266Y31608D03*
D358*
X213266Y63841D03*
D307*
X213190Y31646D03*
D357*
X213190Y63841D03*
D156*
X213113Y31685D03*
D307*
X213113Y63803D03*
D349*
X213037Y31761D03*
D359*
X213037Y63841D03*
D344*
X212961Y31837D03*
D345*
X212961Y63803D03*
D304*
X212885Y31875D03*
D306*
X212885Y63765D03*
D341*
X212809Y31913D03*
D344*
X212809Y63765D03*
D341*
X212732Y31989D03*
X212732Y63765D03*
D360*
X212656Y32066D03*
D340*
X212656Y63727D03*
D337*
X212580Y32104D03*
D361*
X212580Y63689D03*
D333*
X212504Y32180D03*
D172*
X212504Y63727D03*
D171*
X212428Y32256D03*
D336*
X212428Y63689D03*
D152*
X212351Y32332D03*
D171*
X212351Y63650D03*
D324*
X212275Y32408D03*
D362*
X212275Y63612D03*
D298*
X212199Y32447D03*
D300*
X212199Y63612D03*
D150*
X212123Y32523D03*
D322*
X212123Y63574D03*
D363*
X212047Y32637D03*
D364*
X212047Y63498D03*
D148*
X211970Y32713D03*
D365*
X211970Y63460D03*
D366*
X211894Y32789D03*
D159*
X211894Y63460D03*
D291*
X211818Y32866D03*
D148*
X211818Y63422D03*
D153*
X211742Y32980D03*
D366*
X211742Y63346D03*
D146*
X211666Y33056D03*
D291*
X211666Y63269D03*
D367*
X211589Y33170D03*
D211*
X211589Y63231D03*
D368*
X211513Y33247D03*
D369*
X211513Y63193D03*
D370*
X211437Y33399D03*
D367*
X211437Y63117D03*
D371*
X211361Y33475D03*
D368*
X211361Y63041D03*
D284*
X211285Y33628D03*
D286*
X211285Y62965D03*
D372*
X211208Y33780D03*
D373*
X211208Y62850D03*
D139*
X211132Y33932D03*
D374*
X211132Y62774D03*
D375*
X211056Y34047D03*
D376*
X211056Y62660D03*
D377*
X210980Y34237D03*
D378*
X210980Y62546D03*
D213*
X210904Y34428D03*
D379*
X210904Y62393D03*
D380*
X210827Y34656D03*
D381*
X210827Y62203D03*
D382*
X210751Y34809D03*
D383*
X210751Y62050D03*
D384*
X210675Y35075D03*
D385*
X210675Y61822D03*
D386*
X210599Y35418D03*
D387*
X210599Y61593D03*
D388*
X210523Y35799D03*
D389*
X210523Y61174D03*
D390*
X210446Y36447D03*
D391*
X210446Y60526D03*
D122*
X210370Y48449D03*
D124*
X210294Y48525D03*
D125*
X210218Y48525D03*
D120*
X210142Y48563D03*
X210065Y48563D03*
D122*
X209989Y48601D03*
D120*
X209913Y48639D03*
D121*
X209837Y48639D03*
D117*
X209761Y48677D03*
D120*
X209684Y48715D03*
D121*
X209608Y48715D03*
D118*
X209532Y48753D03*
D121*
X209456Y48791D03*
D117*
X209380Y48830D03*
D113*
X209303Y48868D03*
D112*
X209227Y48868D03*
D113*
X209151Y48868D03*
D112*
X209075Y48944D03*
D113*
X208999Y48944D03*
D111*
X208922Y48982D03*
D110*
X208846Y48982D03*
D111*
X208770Y49058D03*
D106*
X208694Y49096D03*
D392*
X208618Y49096D03*
D104*
X208541Y49134D03*
D108*
X208465Y49172D03*
D104*
X208389Y49211D03*
D393*
X208313Y49249D03*
D104*
X208237Y49287D03*
D102*
X208160Y49325D03*
D103*
X208084Y49325D03*
D394*
X208008Y49363D03*
D395*
X207932Y49363D03*
D394*
X207856Y49439D03*
D96*
X207779Y49477D03*
D98*
X207703Y49477D03*
D97*
X207627Y49515D03*
D95*
X207551Y49592D03*
D94*
X207475Y49630D03*
X207398Y49630D03*
D396*
X207322Y49668D03*
D92*
X207246Y49744D03*
D397*
X207170Y49782D03*
D398*
X207094Y49782D03*
D87*
X207017Y49820D03*
D399*
X206941Y49896D03*
D400*
X206865Y49934D03*
D85*
X206789Y49973D03*
D84*
X206713Y49973D03*
X206636Y50049D03*
D83*
X206560Y50087D03*
D401*
X206484Y50125D03*
D402*
X206408Y50163D03*
D81*
X206332Y50239D03*
D79*
X206255Y50277D03*
D78*
X206179Y50277D03*
D403*
X206103Y50315D03*
D404*
X206027Y50392D03*
D405*
X205951Y50430D03*
D406*
X205874Y50468D03*
D407*
X205798Y50506D03*
D74*
X205722Y50582D03*
D408*
X205646Y50620D03*
D72*
X205570Y50658D03*
D409*
X205493Y50696D03*
D410*
X205417Y50735D03*
D70*
X205341Y50811D03*
D411*
X205265Y50849D03*
D412*
X205189Y50887D03*
X205112Y50963D03*
D413*
X205036Y51001D03*
D414*
X204960Y51039D03*
D415*
X204884Y51154D03*
D65*
X204808Y51192D03*
D416*
X204731Y51230D03*
D417*
X204655Y51268D03*
D418*
X204579Y51306D03*
D419*
X204503Y51382D03*
D420*
X204427Y51458D03*
D421*
X204350Y51497D03*
D422*
X204274Y51535D03*
D423*
X204198Y51611D03*
D424*
X204122Y51687D03*
D425*
X204046Y51725D03*
D426*
X203969Y51763D03*
D55*
X203893Y51839D03*
D427*
X203817Y51916D03*
D428*
X203741Y51954D03*
D53*
X203665Y52030D03*
X203588Y52106D03*
D52*
X203512Y52182D03*
D51*
X203436Y52220D03*
D429*
X203360Y52335D03*
D49*
X203284Y52411D03*
D430*
X203207Y52449D03*
D431*
X203131Y52487D03*
D432*
X203055Y52563D03*
D47*
X202979Y52678D03*
D46*
X202903Y52754D03*
D433*
X202826Y52792D03*
D434*
X202750Y52868D03*
D435*
X202674Y52982D03*
D436*
X202598Y53059D03*
D437*
X202522Y53135D03*
D438*
X202445Y53211D03*
D439*
X202369Y53287D03*
D440*
X202293Y53402D03*
D441*
X202217Y53478D03*
D442*
X202141Y53592D03*
X202064Y53668D03*
D443*
X201988Y53744D03*
D444*
X201912Y53859D03*
D445*
X201836Y53973D03*
D446*
X201760Y54087D03*
D447*
X201683Y54202D03*
D448*
X201607Y54278D03*
D449*
X201531Y54392D03*
D450*
X201455Y54545D03*
D451*
X201379Y54659D03*
D452*
X201302Y54773D03*
D453*
X201226Y54849D03*
D454*
X201150Y55002D03*
D455*
X201074Y55192D03*
D456*
X200998Y55383D03*
D457*
X200921Y55535D03*
D458*
X200845Y55688D03*
D459*
X200769Y55954D03*
D460*
X200693Y56221D03*
D461*
X200617Y56678D03*
D462*
X200540Y56869D03*
D463*
X244432Y19302D02*
X244584Y19302D01*
X244432Y19302D02*
X244432Y19344D01*
X244433Y19355D01*
X244438Y19365D01*
X244444Y19374D01*
X244453Y19380D01*
X244463Y19385D01*
X244474Y19386D01*
X244474Y19387D02*
X244542Y19387D01*
X244542Y19386D02*
X244553Y19385D01*
X244563Y19380D01*
X244572Y19374D01*
X244578Y19365D01*
X244583Y19355D01*
X244584Y19344D01*
X244584Y19302D01*
X244571Y19445D02*
X244563Y19445D01*
X244563Y19454D01*
X244571Y19454D01*
X244571Y19445D01*
X244504Y19445D02*
X244495Y19445D01*
X244495Y19454D01*
X244504Y19454D01*
X244504Y19445D01*
X244601Y19502D02*
X244415Y19570D01*
X244584Y19622D02*
X244584Y19690D01*
X244584Y19622D02*
X244432Y19622D01*
X244432Y19690D01*
X244499Y19673D02*
X244499Y19622D01*
X244432Y19741D02*
X244584Y19741D01*
X244516Y19792D02*
X244432Y19741D01*
X244516Y19792D02*
X244432Y19843D01*
X244584Y19843D01*
X244584Y19934D02*
X244584Y19968D01*
X244584Y19934D02*
X244582Y19923D01*
X244578Y19914D01*
X244570Y19907D01*
X244561Y19902D01*
X244550Y19900D01*
X244550Y19901D02*
X244465Y19901D01*
X244465Y19900D02*
X244454Y19902D01*
X244445Y19906D01*
X244438Y19914D01*
X244433Y19923D01*
X244431Y19934D01*
X244432Y19934D02*
X244432Y19968D01*
X244584Y20049D02*
X244584Y20083D01*
X244584Y20049D02*
X244582Y20038D01*
X244578Y20029D01*
X244570Y20022D01*
X244561Y20017D01*
X244550Y20015D01*
X244465Y20015D01*
X244454Y20017D01*
X244445Y20021D01*
X244438Y20029D01*
X244433Y20038D01*
X244431Y20049D01*
X244432Y20049D02*
X244432Y20083D01*
X244432Y20132D02*
X244559Y20132D01*
X244567Y20133D01*
X244574Y20137D01*
X244579Y20142D01*
X244583Y20149D01*
X244584Y20157D01*
X244550Y20202D02*
X244516Y20202D01*
X244505Y20204D01*
X244496Y20208D01*
X244488Y20216D01*
X244484Y20225D01*
X244482Y20236D01*
X244484Y20247D01*
X244488Y20256D01*
X244496Y20264D01*
X244505Y20268D01*
X244516Y20270D01*
X244550Y20270D01*
X244561Y20268D01*
X244570Y20264D01*
X244578Y20256D01*
X244582Y20247D01*
X244584Y20236D01*
X244582Y20225D01*
X244578Y20216D01*
X244570Y20208D01*
X244561Y20204D01*
X244550Y20202D01*
X244559Y20325D02*
X244482Y20325D01*
X244559Y20326D02*
X244567Y20327D01*
X244574Y20331D01*
X244579Y20336D01*
X244583Y20343D01*
X244584Y20351D01*
X244584Y20393D01*
X244482Y20393D01*
X244432Y20516D02*
X244584Y20516D01*
X244584Y20474D01*
X244583Y20466D01*
X244579Y20459D01*
X244574Y20454D01*
X244567Y20450D01*
X244559Y20449D01*
X244559Y20448D02*
X244508Y20448D01*
X244508Y20449D02*
X244498Y20451D01*
X244490Y20456D01*
X244485Y20464D01*
X244483Y20474D01*
X244482Y20474D02*
X244482Y20516D01*
X244601Y20567D02*
X244415Y20635D01*
X244584Y20707D02*
X244584Y20749D01*
X244584Y20707D02*
X244583Y20699D01*
X244579Y20692D01*
X244574Y20687D01*
X244567Y20683D01*
X244559Y20682D01*
X244516Y20682D01*
X244505Y20684D01*
X244496Y20688D01*
X244488Y20696D01*
X244484Y20705D01*
X244482Y20716D01*
X244484Y20727D01*
X244488Y20736D01*
X244496Y20744D01*
X244505Y20748D01*
X244516Y20750D01*
X244516Y20749D02*
X244533Y20749D01*
X244533Y20682D01*
X244584Y20807D02*
X244432Y20807D01*
X244516Y20857D01*
X244432Y20908D01*
X244584Y20908D01*
X244584Y20999D02*
X244584Y21033D01*
X244584Y20999D02*
X244582Y20988D01*
X244578Y20979D01*
X244570Y20972D01*
X244561Y20967D01*
X244550Y20965D01*
X244550Y20966D02*
X244465Y20966D01*
X244465Y20965D02*
X244454Y20967D01*
X244445Y20971D01*
X244438Y20979D01*
X244433Y20988D01*
X244431Y20999D01*
X244432Y20999D02*
X244432Y21033D01*
X244465Y21153D02*
X244432Y21196D01*
X244584Y21196D01*
X244584Y21238D02*
X244584Y21153D01*
X244542Y21291D02*
X244530Y21293D01*
X244519Y21298D01*
X244510Y21305D01*
X244504Y21316D01*
X244500Y21327D01*
X244500Y21339D01*
X244504Y21350D01*
X244510Y21361D01*
X244519Y21368D01*
X244530Y21373D01*
X244542Y21375D01*
X244554Y21373D01*
X244565Y21368D01*
X244574Y21361D01*
X244580Y21350D01*
X244584Y21339D01*
X244584Y21327D01*
X244580Y21316D01*
X244574Y21305D01*
X244565Y21298D01*
X244554Y21293D01*
X244542Y21291D01*
X244465Y21299D02*
X244454Y21301D01*
X244445Y21305D01*
X244437Y21313D01*
X244433Y21322D01*
X244431Y21333D01*
X244433Y21344D01*
X244437Y21353D01*
X244445Y21361D01*
X244454Y21365D01*
X244465Y21367D01*
X244476Y21365D01*
X244485Y21361D01*
X244493Y21353D01*
X244497Y21344D01*
X244499Y21333D01*
X244497Y21322D01*
X244493Y21313D01*
X244485Y21305D01*
X244476Y21301D01*
X244465Y21299D01*
X244601Y21422D02*
X244415Y21490D01*
X244465Y21537D02*
X244432Y21580D01*
X244584Y21580D01*
X244584Y21622D02*
X244584Y21537D01*
X244550Y21674D02*
X244432Y21708D01*
X244550Y21674D02*
X244550Y21759D01*
X244516Y21734D02*
X244584Y21734D01*
X244601Y21806D02*
X244601Y21874D01*
X244584Y21927D02*
X244432Y21927D01*
X244432Y21969D01*
X244434Y21981D01*
X244439Y21992D01*
X244446Y22001D01*
X244457Y22007D01*
X244468Y22011D01*
X244480Y22011D01*
X244491Y22007D01*
X244502Y22001D01*
X244509Y21992D01*
X244514Y21981D01*
X244516Y21969D01*
X244516Y21927D01*
X244584Y22083D02*
X244584Y22125D01*
X244584Y22083D02*
X244583Y22075D01*
X244579Y22068D01*
X244574Y22063D01*
X244567Y22059D01*
X244559Y22058D01*
X244516Y22058D01*
X244505Y22060D01*
X244496Y22064D01*
X244488Y22072D01*
X244484Y22081D01*
X244482Y22092D01*
X244484Y22103D01*
X244488Y22112D01*
X244496Y22120D01*
X244505Y22124D01*
X244516Y22126D01*
X244516Y22125D02*
X244533Y22125D01*
X244533Y22058D01*
X244584Y22182D02*
X244482Y22182D01*
X244482Y22232D01*
X244499Y22232D01*
X244525Y22285D02*
X244542Y22328D01*
X244524Y22285D02*
X244520Y22278D01*
X244513Y22273D01*
X244504Y22271D01*
X244496Y22273D01*
X244488Y22278D01*
X244484Y22285D01*
X244482Y22293D01*
X244483Y22293D02*
X244484Y22306D01*
X244487Y22319D01*
X244491Y22331D01*
X244542Y22327D02*
X244546Y22334D01*
X244553Y22339D01*
X244562Y22341D01*
X244570Y22339D01*
X244578Y22334D01*
X244582Y22327D01*
X244584Y22319D01*
X244582Y22295D01*
X244576Y22272D01*
X244550Y22391D02*
X244516Y22391D01*
X244505Y22393D01*
X244496Y22397D01*
X244488Y22405D01*
X244484Y22414D01*
X244482Y22425D01*
X244484Y22436D01*
X244488Y22445D01*
X244496Y22453D01*
X244505Y22457D01*
X244516Y22459D01*
X244550Y22459D01*
X244561Y22457D01*
X244570Y22453D01*
X244578Y22445D01*
X244582Y22436D01*
X244584Y22425D01*
X244582Y22414D01*
X244578Y22405D01*
X244570Y22397D01*
X244561Y22393D01*
X244550Y22391D01*
X244584Y22515D02*
X244482Y22515D01*
X244482Y22557D01*
X244483Y22557D02*
X244484Y22565D01*
X244488Y22572D01*
X244493Y22577D01*
X244500Y22581D01*
X244508Y22582D01*
X244508Y22583D02*
X244584Y22583D01*
X244525Y22667D02*
X244525Y22706D01*
X244524Y22667D02*
X244525Y22658D01*
X244530Y22649D01*
X244536Y22643D01*
X244545Y22638D01*
X244554Y22637D01*
X244563Y22638D01*
X244572Y22643D01*
X244578Y22649D01*
X244583Y22658D01*
X244584Y22667D01*
X244584Y22706D01*
X244508Y22706D01*
X244508Y22705D02*
X244498Y22703D01*
X244490Y22698D01*
X244485Y22690D01*
X244483Y22680D01*
X244482Y22680D02*
X244482Y22646D01*
X244432Y22765D02*
X244559Y22765D01*
X244567Y22766D01*
X244574Y22770D01*
X244579Y22775D01*
X244583Y22782D01*
X244584Y22790D01*
X244601Y22830D02*
X244601Y22898D01*
X244584Y22972D02*
X244432Y22938D01*
X244482Y23006D02*
X244584Y22972D01*
X244584Y23040D02*
X244482Y23006D01*
X244432Y23074D02*
X244584Y23040D01*
X244550Y23118D02*
X244516Y23118D01*
X244505Y23120D01*
X244496Y23124D01*
X244488Y23132D01*
X244484Y23141D01*
X244482Y23152D01*
X244484Y23163D01*
X244488Y23172D01*
X244496Y23180D01*
X244505Y23184D01*
X244516Y23186D01*
X244550Y23186D01*
X244561Y23184D01*
X244570Y23180D01*
X244578Y23172D01*
X244582Y23163D01*
X244584Y23152D01*
X244582Y23141D01*
X244578Y23132D01*
X244570Y23124D01*
X244561Y23120D01*
X244550Y23118D01*
X244584Y23242D02*
X244482Y23242D01*
X244482Y23293D01*
X244499Y23293D01*
X244432Y23338D02*
X244584Y23338D01*
X244533Y23338D02*
X244482Y23406D01*
X244512Y23368D02*
X244584Y23406D01*
X244482Y23447D02*
X244482Y23515D01*
X244584Y23447D01*
X244584Y23515D01*
X244550Y23562D02*
X244516Y23562D01*
X244516Y23561D02*
X244505Y23563D01*
X244496Y23567D01*
X244488Y23575D01*
X244484Y23584D01*
X244482Y23595D01*
X244484Y23606D01*
X244488Y23615D01*
X244496Y23623D01*
X244505Y23627D01*
X244516Y23629D01*
X244550Y23629D01*
X244561Y23627D01*
X244570Y23623D01*
X244578Y23615D01*
X244582Y23606D01*
X244584Y23595D01*
X244582Y23584D01*
X244578Y23575D01*
X244570Y23567D01*
X244561Y23563D01*
X244550Y23561D01*
X244584Y23685D02*
X244482Y23685D01*
X244482Y23727D01*
X244483Y23727D02*
X244484Y23735D01*
X244488Y23742D01*
X244493Y23747D01*
X244500Y23751D01*
X244508Y23752D01*
X244508Y23753D02*
X244584Y23753D01*
X244584Y23834D02*
X244584Y23876D01*
X244584Y23834D02*
X244583Y23826D01*
X244579Y23819D01*
X244574Y23814D01*
X244567Y23810D01*
X244559Y23809D01*
X244559Y23808D02*
X244516Y23808D01*
X244505Y23810D01*
X244496Y23814D01*
X244488Y23822D01*
X244484Y23831D01*
X244482Y23842D01*
X244484Y23853D01*
X244488Y23862D01*
X244496Y23870D01*
X244505Y23874D01*
X244516Y23876D01*
X244533Y23876D01*
X244533Y23808D01*
X244601Y23923D02*
X244415Y23990D01*
X244525Y24050D02*
X244542Y24092D01*
X244524Y24050D02*
X244520Y24043D01*
X244513Y24038D01*
X244504Y24036D01*
X244496Y24038D01*
X244488Y24043D01*
X244484Y24050D01*
X244482Y24058D01*
X244483Y24058D02*
X244484Y24071D01*
X244487Y24084D01*
X244491Y24096D01*
X244542Y24092D02*
X244546Y24099D01*
X244553Y24104D01*
X244562Y24106D01*
X244570Y24104D01*
X244578Y24099D01*
X244582Y24092D01*
X244584Y24084D01*
X244582Y24060D01*
X244576Y24037D01*
X244584Y24181D02*
X244584Y24224D01*
X244584Y24181D02*
X244583Y24173D01*
X244579Y24166D01*
X244574Y24161D01*
X244567Y24157D01*
X244559Y24156D01*
X244516Y24156D01*
X244505Y24158D01*
X244496Y24162D01*
X244488Y24170D01*
X244484Y24179D01*
X244482Y24190D01*
X244484Y24201D01*
X244488Y24210D01*
X244496Y24218D01*
X244505Y24222D01*
X244516Y24224D01*
X244533Y24224D01*
X244533Y24156D01*
X244584Y24283D02*
X244457Y24283D01*
X244449Y24284D01*
X244442Y24288D01*
X244437Y24293D01*
X244433Y24300D01*
X244432Y24308D01*
X244432Y24317D01*
X244482Y24317D02*
X244482Y24266D01*
X244584Y24378D02*
X244584Y24420D01*
X244584Y24378D02*
X244583Y24370D01*
X244579Y24363D01*
X244574Y24358D01*
X244567Y24354D01*
X244559Y24353D01*
X244559Y24352D02*
X244516Y24352D01*
X244505Y24354D01*
X244496Y24358D01*
X244488Y24366D01*
X244484Y24375D01*
X244482Y24386D01*
X244484Y24397D01*
X244488Y24406D01*
X244496Y24414D01*
X244505Y24418D01*
X244516Y24420D01*
X244533Y24420D01*
X244533Y24352D01*
X244584Y24476D02*
X244482Y24476D01*
X244482Y24527D01*
X244499Y24527D01*
X244601Y24563D02*
X244415Y24630D01*
X244499Y24683D02*
X244499Y24725D01*
X244500Y24725D02*
X244502Y24737D01*
X244507Y24748D01*
X244514Y24757D01*
X244525Y24763D01*
X244536Y24767D01*
X244548Y24767D01*
X244559Y24763D01*
X244570Y24757D01*
X244577Y24748D01*
X244582Y24737D01*
X244584Y24725D01*
X244584Y24683D01*
X244432Y24683D01*
X244432Y24725D01*
X244431Y24725D02*
X244433Y24736D01*
X244437Y24745D01*
X244445Y24753D01*
X244454Y24757D01*
X244465Y24759D01*
X244476Y24757D01*
X244485Y24753D01*
X244493Y24745D01*
X244497Y24736D01*
X244499Y24725D01*
X244470Y24827D02*
X244462Y24824D01*
X244453Y24823D01*
X244445Y24826D01*
X244438Y24832D01*
X244434Y24839D01*
X244432Y24848D01*
X244470Y24826D02*
X244584Y24898D01*
X244470Y24869D02*
X244462Y24872D01*
X244453Y24873D01*
X244445Y24870D01*
X244438Y24864D01*
X244434Y24857D01*
X244432Y24848D01*
X244559Y24814D02*
X244567Y24815D01*
X244574Y24819D01*
X244579Y24824D01*
X244583Y24831D01*
X244584Y24839D01*
X244559Y24814D02*
X244552Y24815D01*
X244546Y24818D01*
X244470Y24869D01*
X244580Y24852D02*
X244583Y24846D01*
X244584Y24839D01*
X244580Y24852D02*
X244533Y24915D01*
X244584Y24956D02*
X244584Y25024D01*
X244584Y24956D02*
X244432Y24956D01*
X244432Y25024D01*
X244499Y25007D02*
X244499Y24956D01*
X244601Y25065D02*
X244415Y25133D01*
X244432Y25186D02*
X244584Y25186D01*
X244432Y25186D02*
X244432Y25228D01*
X244434Y25240D01*
X244439Y25251D01*
X244446Y25260D01*
X244457Y25266D01*
X244468Y25270D01*
X244480Y25270D01*
X244491Y25266D01*
X244502Y25260D01*
X244509Y25251D01*
X244514Y25240D01*
X244516Y25228D01*
X244516Y25186D01*
X244584Y25351D02*
X244584Y25385D01*
X244584Y25351D02*
X244582Y25340D01*
X244578Y25331D01*
X244570Y25324D01*
X244561Y25319D01*
X244550Y25317D01*
X244465Y25317D01*
X244454Y25319D01*
X244445Y25323D01*
X244438Y25331D01*
X244433Y25340D01*
X244431Y25351D01*
X244432Y25351D02*
X244432Y25385D01*
X244499Y25437D02*
X244499Y25480D01*
X244500Y25480D02*
X244502Y25492D01*
X244507Y25503D01*
X244514Y25512D01*
X244525Y25518D01*
X244536Y25522D01*
X244548Y25522D01*
X244559Y25518D01*
X244570Y25512D01*
X244577Y25503D01*
X244582Y25492D01*
X244584Y25480D01*
X244584Y25437D01*
X244432Y25437D01*
X244432Y25480D01*
X244431Y25480D02*
X244433Y25491D01*
X244437Y25500D01*
X244445Y25508D01*
X244454Y25512D01*
X244465Y25514D01*
X244476Y25512D01*
X244485Y25508D01*
X244493Y25500D01*
X244497Y25491D01*
X244499Y25480D01*
X244601Y25564D02*
X244601Y25631D01*
X244584Y25745D02*
X244432Y25745D01*
X244584Y25745D02*
X244584Y25703D01*
X244583Y25695D01*
X244579Y25688D01*
X244574Y25683D01*
X244567Y25679D01*
X244559Y25678D01*
X244508Y25678D01*
X244498Y25680D01*
X244490Y25685D01*
X244485Y25693D01*
X244483Y25703D01*
X244482Y25703D02*
X244482Y25745D01*
X244584Y25827D02*
X244584Y25869D01*
X244584Y25827D02*
X244583Y25819D01*
X244579Y25812D01*
X244574Y25807D01*
X244567Y25803D01*
X244559Y25802D01*
X244559Y25801D02*
X244516Y25801D01*
X244505Y25803D01*
X244496Y25807D01*
X244488Y25815D01*
X244484Y25824D01*
X244482Y25835D01*
X244484Y25846D01*
X244488Y25855D01*
X244496Y25863D01*
X244505Y25867D01*
X244516Y25869D01*
X244533Y25869D01*
X244533Y25801D01*
X244525Y25933D02*
X244542Y25975D01*
X244524Y25933D02*
X244520Y25926D01*
X244513Y25921D01*
X244504Y25919D01*
X244496Y25921D01*
X244488Y25926D01*
X244484Y25933D01*
X244482Y25941D01*
X244483Y25941D02*
X244484Y25954D01*
X244487Y25967D01*
X244491Y25979D01*
X244542Y25975D02*
X244546Y25982D01*
X244553Y25987D01*
X244562Y25989D01*
X244570Y25987D01*
X244578Y25982D01*
X244582Y25975D01*
X244584Y25967D01*
X244582Y25943D01*
X244576Y25920D01*
X244584Y26041D02*
X244482Y26041D01*
X244440Y26037D02*
X244432Y26037D01*
X244432Y26045D01*
X244440Y26045D01*
X244440Y26037D01*
X244584Y26119D02*
X244584Y26161D01*
X244584Y26119D02*
X244583Y26111D01*
X244579Y26104D01*
X244574Y26099D01*
X244567Y26095D01*
X244559Y26094D01*
X244559Y26093D02*
X244508Y26093D01*
X244508Y26094D02*
X244498Y26096D01*
X244490Y26101D01*
X244485Y26109D01*
X244483Y26119D01*
X244482Y26119D02*
X244482Y26161D01*
X244609Y26161D01*
X244617Y26160D01*
X244624Y26156D01*
X244629Y26151D01*
X244633Y26144D01*
X244634Y26136D01*
X244635Y26136D02*
X244635Y26102D01*
X244584Y26222D02*
X244482Y26222D01*
X244482Y26264D01*
X244483Y26264D02*
X244484Y26272D01*
X244488Y26279D01*
X244493Y26284D01*
X244500Y26288D01*
X244508Y26289D01*
X244508Y26290D02*
X244584Y26290D01*
X244601Y26341D02*
X244415Y26408D01*
X244482Y26461D02*
X244584Y26461D01*
X244482Y26461D02*
X244482Y26537D01*
X244483Y26537D02*
X244484Y26545D01*
X244488Y26552D01*
X244493Y26557D01*
X244500Y26561D01*
X244508Y26562D01*
X244584Y26562D01*
X244584Y26512D02*
X244482Y26512D01*
X244482Y26621D02*
X244584Y26621D01*
X244440Y26617D02*
X244432Y26617D01*
X244432Y26626D01*
X244440Y26626D01*
X244440Y26617D01*
X244525Y26687D02*
X244542Y26729D01*
X244524Y26687D02*
X244520Y26680D01*
X244513Y26675D01*
X244504Y26673D01*
X244496Y26675D01*
X244488Y26680D01*
X244484Y26687D01*
X244482Y26695D01*
X244483Y26695D02*
X244484Y26708D01*
X244487Y26721D01*
X244491Y26733D01*
X244542Y26729D02*
X244546Y26736D01*
X244553Y26741D01*
X244562Y26743D01*
X244570Y26741D01*
X244578Y26736D01*
X244582Y26729D01*
X244584Y26721D01*
X244582Y26697D01*
X244576Y26674D01*
X244584Y26819D02*
X244584Y26852D01*
X244584Y26819D02*
X244583Y26811D01*
X244579Y26804D01*
X244574Y26799D01*
X244567Y26795D01*
X244559Y26794D01*
X244559Y26793D02*
X244508Y26793D01*
X244508Y26794D02*
X244498Y26796D01*
X244490Y26801D01*
X244485Y26809D01*
X244483Y26819D01*
X244482Y26819D02*
X244482Y26852D01*
X244601Y26894D02*
X244415Y26961D01*
X244584Y27033D02*
X244584Y27076D01*
X244584Y27033D02*
X244583Y27025D01*
X244579Y27018D01*
X244574Y27013D01*
X244567Y27009D01*
X244559Y27008D01*
X244516Y27008D01*
X244505Y27010D01*
X244496Y27014D01*
X244488Y27022D01*
X244484Y27031D01*
X244482Y27042D01*
X244484Y27053D01*
X244488Y27062D01*
X244496Y27070D01*
X244505Y27074D01*
X244516Y27076D01*
X244533Y27076D01*
X244533Y27008D01*
X244576Y27124D02*
X244584Y27124D01*
X244576Y27124D02*
X244576Y27133D01*
X244584Y27133D01*
X244584Y27124D01*
X244584Y27187D02*
X244432Y27187D01*
X244584Y27187D02*
X244584Y27229D01*
X244583Y27237D01*
X244579Y27244D01*
X244574Y27249D01*
X244567Y27253D01*
X244559Y27254D01*
X244508Y27254D01*
X244498Y27252D01*
X244490Y27247D01*
X244485Y27239D01*
X244483Y27229D01*
X244482Y27229D02*
X244482Y27187D01*
X244482Y27311D02*
X244584Y27311D01*
X244482Y27311D02*
X244482Y27387D01*
X244483Y27387D02*
X244484Y27395D01*
X244488Y27402D01*
X244493Y27407D01*
X244500Y27411D01*
X244508Y27412D01*
X244508Y27413D02*
X244584Y27413D01*
X244584Y27362D02*
X244482Y27362D01*
X244482Y27475D02*
X244635Y27475D01*
X244482Y27475D02*
X244482Y27517D01*
X244483Y27517D02*
X244484Y27525D01*
X244488Y27532D01*
X244493Y27537D01*
X244500Y27541D01*
X244508Y27542D01*
X244559Y27542D01*
X244567Y27541D01*
X244574Y27537D01*
X244579Y27532D01*
X244583Y27525D01*
X244584Y27517D01*
X244584Y27475D01*
D20*
X442200Y461500D02*
X442200Y533500D01*
X590200Y533500D02*
X590200Y461500D01*
X571150Y461500D02*
X537450Y461500D01*
X463200Y533500D02*
X442200Y533500D01*
X442200Y461500D02*
X463200Y461500D01*
X537450Y533500D02*
X571150Y533500D01*
D21*
X582875Y497500D03*
D11*
X522608Y491908D02*
X522608Y503592D01*
X529099Y503592D02*
X522608Y496452D01*
X525204Y499048D02*
X529099Y491908D01*
X533488Y491908D02*
X536733Y491908D01*
X536846Y491910D01*
X536959Y491916D01*
X537072Y491926D01*
X537185Y491940D01*
X537297Y491957D01*
X537408Y491979D01*
X537518Y492004D01*
X537628Y492034D01*
X537736Y492067D01*
X537843Y492104D01*
X537949Y492144D01*
X538053Y492189D01*
X538156Y492237D01*
X538257Y492288D01*
X538356Y492343D01*
X538453Y492401D01*
X538548Y492463D01*
X538641Y492528D01*
X538731Y492596D01*
X538819Y492667D01*
X538905Y492742D01*
X538988Y492819D01*
X539068Y492899D01*
X539145Y492982D01*
X539220Y493068D01*
X539291Y493156D01*
X539359Y493246D01*
X539424Y493339D01*
X539486Y493434D01*
X539544Y493531D01*
X539599Y493630D01*
X539650Y493731D01*
X539698Y493834D01*
X539743Y493938D01*
X539783Y494044D01*
X539820Y494151D01*
X539853Y494259D01*
X539883Y494369D01*
X539908Y494479D01*
X539930Y494590D01*
X539947Y494702D01*
X539961Y494815D01*
X539971Y494928D01*
X539977Y495041D01*
X539979Y495154D01*
X539977Y495267D01*
X539971Y495380D01*
X539961Y495493D01*
X539947Y495606D01*
X539930Y495718D01*
X539908Y495829D01*
X539883Y495939D01*
X539853Y496049D01*
X539820Y496157D01*
X539783Y496264D01*
X539743Y496370D01*
X539698Y496474D01*
X539650Y496577D01*
X539599Y496678D01*
X539544Y496777D01*
X539486Y496874D01*
X539424Y496969D01*
X539359Y497062D01*
X539291Y497152D01*
X539220Y497240D01*
X539145Y497326D01*
X539068Y497409D01*
X538988Y497489D01*
X538905Y497566D01*
X538819Y497641D01*
X538731Y497712D01*
X538641Y497780D01*
X538548Y497845D01*
X538453Y497907D01*
X538356Y497965D01*
X538257Y498020D01*
X538156Y498071D01*
X538053Y498119D01*
X537949Y498164D01*
X537843Y498204D01*
X537736Y498241D01*
X537628Y498274D01*
X537518Y498304D01*
X537408Y498329D01*
X537297Y498351D01*
X537185Y498368D01*
X537072Y498382D01*
X536959Y498392D01*
X536846Y498398D01*
X536733Y498400D01*
X537382Y503592D02*
X533488Y503592D01*
X537382Y503592D02*
X537483Y503590D01*
X537583Y503584D01*
X537683Y503574D01*
X537783Y503561D01*
X537882Y503543D01*
X537981Y503522D01*
X538078Y503497D01*
X538175Y503468D01*
X538270Y503435D01*
X538364Y503399D01*
X538456Y503359D01*
X538547Y503316D01*
X538636Y503269D01*
X538723Y503219D01*
X538809Y503165D01*
X538892Y503108D01*
X538972Y503048D01*
X539051Y502985D01*
X539127Y502918D01*
X539200Y502849D01*
X539270Y502777D01*
X539338Y502703D01*
X539403Y502626D01*
X539464Y502546D01*
X539523Y502464D01*
X539578Y502380D01*
X539630Y502294D01*
X539679Y502206D01*
X539724Y502116D01*
X539766Y502024D01*
X539804Y501931D01*
X539838Y501836D01*
X539869Y501741D01*
X539896Y501644D01*
X539919Y501546D01*
X539939Y501447D01*
X539954Y501347D01*
X539966Y501247D01*
X539974Y501147D01*
X539978Y501046D01*
X539978Y500946D01*
X539974Y500845D01*
X539966Y500745D01*
X539954Y500645D01*
X539939Y500545D01*
X539919Y500446D01*
X539896Y500348D01*
X539869Y500251D01*
X539838Y500156D01*
X539804Y500061D01*
X539766Y499968D01*
X539724Y499876D01*
X539679Y499786D01*
X539630Y499698D01*
X539578Y499612D01*
X539523Y499528D01*
X539464Y499446D01*
X539403Y499366D01*
X539338Y499289D01*
X539270Y499215D01*
X539200Y499143D01*
X539127Y499074D01*
X539051Y499007D01*
X538972Y498944D01*
X538892Y498884D01*
X538809Y498827D01*
X538723Y498773D01*
X538636Y498723D01*
X538547Y498676D01*
X538456Y498633D01*
X538364Y498593D01*
X538270Y498557D01*
X538175Y498524D01*
X538078Y498495D01*
X537981Y498470D01*
X537882Y498449D01*
X537783Y498431D01*
X537683Y498418D01*
X537583Y498408D01*
X537483Y498402D01*
X537382Y498400D01*
X537382Y498399D02*
X534786Y498399D01*
D16*
X95800Y327200D02*
X95800Y192800D01*
X11200Y192800D01*
X11200Y327200D01*
X95800Y327200D01*
D11*
X83536Y256065D02*
X74448Y256065D01*
X83536Y256065D02*
X83635Y256063D01*
X83735Y256057D01*
X83834Y256048D01*
X83932Y256035D01*
X84030Y256018D01*
X84128Y255997D01*
X84224Y255972D01*
X84319Y255944D01*
X84413Y255912D01*
X84506Y255877D01*
X84598Y255838D01*
X84688Y255795D01*
X84776Y255750D01*
X84863Y255700D01*
X84947Y255648D01*
X85030Y255592D01*
X85110Y255534D01*
X85188Y255472D01*
X85263Y255407D01*
X85336Y255339D01*
X85406Y255269D01*
X85474Y255196D01*
X85539Y255121D01*
X85601Y255043D01*
X85659Y254963D01*
X85715Y254880D01*
X85767Y254796D01*
X85817Y254709D01*
X85862Y254621D01*
X85905Y254531D01*
X85944Y254439D01*
X85979Y254346D01*
X86011Y254252D01*
X86039Y254157D01*
X86064Y254061D01*
X86085Y253963D01*
X86102Y253865D01*
X86115Y253767D01*
X86124Y253668D01*
X86130Y253568D01*
X86132Y253469D01*
X86132Y252170D01*
X86132Y261338D02*
X86132Y264584D01*
X86130Y264697D01*
X86124Y264810D01*
X86114Y264923D01*
X86100Y265036D01*
X86083Y265148D01*
X86061Y265259D01*
X86036Y265369D01*
X86006Y265479D01*
X85973Y265587D01*
X85936Y265694D01*
X85896Y265800D01*
X85851Y265904D01*
X85803Y266007D01*
X85752Y266108D01*
X85697Y266207D01*
X85639Y266304D01*
X85577Y266399D01*
X85512Y266492D01*
X85444Y266582D01*
X85373Y266670D01*
X85298Y266756D01*
X85221Y266839D01*
X85141Y266919D01*
X85058Y266996D01*
X84972Y267071D01*
X84884Y267142D01*
X84794Y267210D01*
X84701Y267275D01*
X84606Y267337D01*
X84509Y267395D01*
X84410Y267450D01*
X84309Y267501D01*
X84206Y267549D01*
X84102Y267594D01*
X83996Y267634D01*
X83889Y267671D01*
X83781Y267704D01*
X83671Y267734D01*
X83561Y267759D01*
X83450Y267781D01*
X83338Y267798D01*
X83225Y267812D01*
X83112Y267822D01*
X82999Y267828D01*
X82886Y267830D01*
X82773Y267828D01*
X82660Y267822D01*
X82547Y267812D01*
X82434Y267798D01*
X82322Y267781D01*
X82211Y267759D01*
X82101Y267734D01*
X81991Y267704D01*
X81883Y267671D01*
X81776Y267634D01*
X81670Y267594D01*
X81566Y267549D01*
X81463Y267501D01*
X81362Y267450D01*
X81263Y267395D01*
X81166Y267337D01*
X81071Y267275D01*
X80978Y267210D01*
X80888Y267142D01*
X80800Y267071D01*
X80714Y266996D01*
X80631Y266919D01*
X80551Y266839D01*
X80474Y266756D01*
X80399Y266670D01*
X80328Y266582D01*
X80260Y266492D01*
X80195Y266399D01*
X80133Y266304D01*
X80075Y266207D01*
X80020Y266108D01*
X79969Y266007D01*
X79921Y265904D01*
X79876Y265800D01*
X79836Y265694D01*
X79799Y265587D01*
X79766Y265479D01*
X79736Y265369D01*
X79711Y265259D01*
X79689Y265148D01*
X79672Y265036D01*
X79658Y264923D01*
X79648Y264810D01*
X79642Y264697D01*
X79640Y264584D01*
X74448Y265233D02*
X74448Y261338D01*
X74448Y265233D02*
X74450Y265334D01*
X74456Y265434D01*
X74466Y265534D01*
X74479Y265634D01*
X74497Y265733D01*
X74518Y265832D01*
X74543Y265929D01*
X74572Y266026D01*
X74605Y266121D01*
X74641Y266215D01*
X74681Y266307D01*
X74724Y266398D01*
X74771Y266487D01*
X74821Y266574D01*
X74875Y266660D01*
X74932Y266743D01*
X74992Y266823D01*
X75055Y266902D01*
X75122Y266978D01*
X75191Y267051D01*
X75263Y267121D01*
X75337Y267189D01*
X75414Y267254D01*
X75494Y267315D01*
X75576Y267374D01*
X75660Y267429D01*
X75746Y267481D01*
X75834Y267530D01*
X75924Y267575D01*
X76016Y267617D01*
X76109Y267655D01*
X76204Y267689D01*
X76299Y267720D01*
X76396Y267747D01*
X76494Y267770D01*
X76593Y267790D01*
X76693Y267805D01*
X76793Y267817D01*
X76893Y267825D01*
X76994Y267829D01*
X77094Y267829D01*
X77195Y267825D01*
X77295Y267817D01*
X77395Y267805D01*
X77495Y267790D01*
X77594Y267770D01*
X77692Y267747D01*
X77789Y267720D01*
X77884Y267689D01*
X77979Y267655D01*
X78072Y267617D01*
X78164Y267575D01*
X78254Y267530D01*
X78342Y267481D01*
X78428Y267429D01*
X78512Y267374D01*
X78594Y267315D01*
X78674Y267254D01*
X78751Y267189D01*
X78825Y267121D01*
X78897Y267051D01*
X78966Y266978D01*
X79033Y266902D01*
X79096Y266823D01*
X79156Y266743D01*
X79213Y266660D01*
X79267Y266574D01*
X79317Y266487D01*
X79364Y266398D01*
X79407Y266307D01*
X79447Y266215D01*
X79483Y266121D01*
X79516Y266026D01*
X79545Y265929D01*
X79570Y265832D01*
X79591Y265733D01*
X79609Y265634D01*
X79622Y265534D01*
X79632Y265434D01*
X79638Y265334D01*
X79640Y265233D01*
X79641Y265233D02*
X79641Y262637D01*
M02*
