G04 EAGLE Gerber RS-274X export*
G75*
%MOMM*%
%FSLAX34Y34*%
%LPD*%
%INSolderpaste Bottom*%
%IPPOS*%
%AMOC8*
5,1,8,0,0,1.08239X$1,22.5*%
G01*
%ADD10R,1.000000X1.100000*%
%ADD11R,1.100000X1.000000*%
%ADD12R,1.600000X2.400000*%
%ADD13R,0.783900X1.127200*%
%ADD14R,1.350000X0.650000*%
%ADD15R,1.200000X1.000000*%
%ADD16R,1.600000X3.000000*%
%ADD17R,5.800000X6.200000*%
%ADD18R,1.400000X1.000000*%
%ADD19R,1.000000X0.950000*%
%ADD20R,1.981200X0.558800*%
%ADD21R,1.250000X0.950000*%
%ADD22R,1.250000X3.200000*%
%ADD23R,1.127200X0.783900*%


D10*
X203400Y324000D03*
X203400Y341000D03*
D11*
X159200Y93100D03*
X176200Y93100D03*
D10*
X203200Y360000D03*
X203200Y377000D03*
X315400Y270400D03*
X315400Y253400D03*
X314800Y217600D03*
X314800Y234600D03*
X356500Y301300D03*
X356500Y284300D03*
D11*
X353400Y173000D03*
X370400Y173000D03*
X353500Y193400D03*
X370500Y193400D03*
D10*
X336100Y301300D03*
X336100Y284300D03*
X203300Y229600D03*
X203300Y212600D03*
X182700Y246100D03*
X182700Y263100D03*
D11*
X384200Y248600D03*
X401200Y248600D03*
X206200Y93000D03*
X189200Y93000D03*
D10*
X335600Y314900D03*
X335600Y331900D03*
D12*
X409000Y273400D03*
X379000Y273400D03*
X523800Y71600D03*
X553800Y71600D03*
X524500Y100600D03*
X554500Y100600D03*
X525000Y129400D03*
X555000Y129400D03*
X524500Y159100D03*
X554500Y159100D03*
D10*
X202700Y154900D03*
X202700Y137900D03*
X315500Y301500D03*
X315500Y284500D03*
X203200Y191100D03*
X203200Y174100D03*
X203000Y413100D03*
X203000Y396100D03*
D13*
X538900Y285085D03*
X538900Y319515D03*
D14*
X242880Y195200D03*
X242880Y176000D03*
X222880Y185600D03*
X242900Y411230D03*
X242900Y392030D03*
X222900Y401630D03*
X354300Y232910D03*
X354300Y213710D03*
X334300Y223310D03*
D13*
X520400Y285085D03*
X520400Y319515D03*
X502100Y285085D03*
X502100Y319515D03*
D14*
X242980Y339200D03*
X242980Y320000D03*
X222980Y329600D03*
X242900Y267100D03*
X242900Y247900D03*
X222900Y257500D03*
X242880Y231100D03*
X242880Y211900D03*
X222880Y221500D03*
X354280Y269000D03*
X354280Y249800D03*
X334280Y259400D03*
X242900Y375200D03*
X242900Y356000D03*
X222900Y365600D03*
X242780Y159030D03*
X242780Y139830D03*
X222780Y149430D03*
D15*
X384200Y230600D03*
X406200Y230600D03*
D16*
X447650Y364380D03*
D17*
X424800Y436170D03*
D16*
X401950Y364380D03*
X360050Y364280D03*
D17*
X337200Y436070D03*
D16*
X314350Y364280D03*
D18*
X307900Y127900D03*
X329900Y118400D03*
X329900Y137400D03*
X267000Y191800D03*
X289000Y182300D03*
X289000Y201300D03*
X307900Y191600D03*
X329900Y182100D03*
X329900Y201100D03*
X307700Y160300D03*
X329700Y150800D03*
X329700Y169800D03*
X265200Y160100D03*
X287200Y150600D03*
X287200Y169600D03*
D10*
X166500Y17700D03*
X183500Y17700D03*
D11*
X274300Y301600D03*
X274300Y284600D03*
X295100Y284600D03*
X295100Y301600D03*
X162700Y229600D03*
X162700Y212600D03*
X182900Y212600D03*
X182900Y229600D03*
X162100Y154900D03*
X162100Y137900D03*
X162600Y360100D03*
X162600Y377100D03*
X182700Y413200D03*
X182700Y396200D03*
X182900Y377000D03*
X182900Y360000D03*
X182400Y137900D03*
X182400Y154900D03*
X295100Y253400D03*
X295100Y270400D03*
D10*
X245200Y17600D03*
X262200Y17600D03*
D11*
X162400Y191200D03*
X162400Y174200D03*
X182700Y174100D03*
X182700Y191100D03*
X294700Y332000D03*
X294700Y315000D03*
X274400Y217600D03*
X274400Y234600D03*
X294600Y234600D03*
X294600Y217600D03*
D10*
X269400Y100500D03*
X286400Y100500D03*
X286400Y120900D03*
X269400Y120900D03*
D11*
X322000Y81700D03*
X322000Y98700D03*
D10*
X292200Y17600D03*
X275200Y17600D03*
D11*
X322200Y51400D03*
X322200Y68400D03*
X377200Y331800D03*
X377200Y314800D03*
X397400Y331800D03*
X397400Y314800D03*
X274600Y270400D03*
X274600Y253400D03*
D10*
X213700Y17700D03*
X196700Y17700D03*
D11*
X315200Y332000D03*
X315200Y315000D03*
X274300Y314900D03*
X274300Y331900D03*
X162600Y324000D03*
X162600Y341000D03*
X183100Y341000D03*
X183100Y324000D03*
X202900Y263100D03*
X202900Y246100D03*
X162400Y396200D03*
X162400Y413200D03*
X356900Y314700D03*
X356900Y331700D03*
D19*
X262900Y434300D03*
X262900Y450300D03*
X283000Y434300D03*
X283000Y450300D03*
D20*
X169362Y40150D03*
X169362Y52850D03*
X169362Y65550D03*
X169362Y78250D03*
X218638Y78250D03*
X218638Y65550D03*
X218638Y52850D03*
X218638Y40150D03*
X245362Y40050D03*
X245362Y52750D03*
X245362Y65450D03*
X245362Y78150D03*
X294638Y78150D03*
X294638Y65450D03*
X294638Y52750D03*
X294638Y40050D03*
D21*
X403100Y55400D03*
X403100Y78400D03*
X403100Y101400D03*
D22*
X471100Y78400D03*
D21*
X403100Y133000D03*
X403100Y156000D03*
X403100Y179000D03*
D22*
X471100Y156000D03*
D11*
X262800Y395100D03*
X262800Y412100D03*
X283100Y395100D03*
X283100Y412100D03*
D13*
X557400Y285085D03*
X557400Y319515D03*
D10*
X203200Y305100D03*
X203200Y288100D03*
D11*
X162600Y305100D03*
X162600Y288100D03*
X182900Y288100D03*
X182900Y305100D03*
D14*
X243000Y303200D03*
X243000Y284000D03*
X223000Y293600D03*
D10*
X203000Y432000D03*
X203000Y449000D03*
D11*
X162400Y432000D03*
X162400Y449000D03*
X182700Y449000D03*
X182700Y432000D03*
D14*
X242900Y447200D03*
X242900Y428000D03*
X222900Y437600D03*
D23*
X319015Y492400D03*
X284585Y492400D03*
D10*
X202800Y124500D03*
X202800Y107500D03*
D11*
X162100Y124500D03*
X162100Y107500D03*
X182400Y107600D03*
X182400Y124600D03*
D14*
X242700Y123100D03*
X242700Y103900D03*
X222700Y113500D03*
M02*
