G04 EAGLE Gerber RS-274X export*
G75*
%MOMM*%
%FSLAX34Y34*%
%LPD*%
%INSoldermask Bottom*%
%IPPOS*%
%AMOC8*
5,1,8,0,0,1.08239X$1,22.5*%
G01*
%ADD10R,1.203200X1.303200*%
%ADD11R,1.303200X1.203200*%
%ADD12R,1.803200X2.603200*%
%ADD13R,0.987100X1.330400*%
%ADD14R,1.553200X0.853200*%
%ADD15C,0.903200*%
%ADD16C,1.203200*%
%ADD17C,2.003200*%
%ADD18C,1.953200*%
%ADD19C,1.803200*%
%ADD20C,2.103200*%
%ADD21C,2.828200*%
%ADD22R,1.403200X1.203200*%
%ADD23R,2.003200X2.003200*%
%ADD24C,1.903200*%
%ADD25R,1.803200X3.203200*%
%ADD26R,6.003200X6.403200*%
%ADD27R,1.603200X1.203200*%
%ADD28R,1.203200X1.153200*%
%ADD29R,2.184400X0.762000*%
%ADD30R,1.453200X1.153200*%
%ADD31R,1.453200X3.403200*%
%ADD32R,2.078200X2.078200*%
%ADD33C,2.078200*%
%ADD34C,2.682109*%
%ADD35C,1.853200*%
%ADD36R,1.330400X0.987100*%
%ADD37C,0.959600*%


D10*
X203400Y324000D03*
X203400Y341000D03*
D11*
X159200Y93100D03*
X176200Y93100D03*
D10*
X203200Y360000D03*
X203200Y377000D03*
X315400Y270400D03*
X315400Y253400D03*
X314800Y217600D03*
X314800Y234600D03*
X356500Y301300D03*
X356500Y284300D03*
D11*
X353400Y173000D03*
X370400Y173000D03*
X353500Y193400D03*
X370500Y193400D03*
D10*
X336100Y301300D03*
X336100Y284300D03*
X203300Y229600D03*
X203300Y212600D03*
X182700Y246100D03*
X182700Y263100D03*
D11*
X384200Y248600D03*
X401200Y248600D03*
X206200Y93000D03*
X189200Y93000D03*
D10*
X335600Y314900D03*
X335600Y331900D03*
D12*
X409000Y273400D03*
X379000Y273400D03*
X523800Y71600D03*
X553800Y71600D03*
X524500Y100600D03*
X554500Y100600D03*
X525000Y129400D03*
X555000Y129400D03*
X524500Y159100D03*
X554500Y159100D03*
D10*
X202700Y154900D03*
X202700Y137900D03*
X315500Y301500D03*
X315500Y284500D03*
X203200Y191100D03*
X203200Y174100D03*
X203000Y413100D03*
X203000Y396100D03*
D13*
X538900Y285085D03*
X538900Y319515D03*
D14*
X242880Y195200D03*
X242880Y176000D03*
X222880Y185600D03*
X242900Y411230D03*
X242900Y392030D03*
X222900Y401630D03*
X354300Y232910D03*
X354300Y213710D03*
X334300Y223310D03*
D13*
X520400Y285085D03*
X520400Y319515D03*
X502100Y285085D03*
X502100Y319515D03*
D14*
X242980Y339200D03*
X242980Y320000D03*
X222980Y329600D03*
X242900Y267100D03*
X242900Y247900D03*
X222900Y257500D03*
X242880Y231100D03*
X242880Y211900D03*
X222880Y221500D03*
X354280Y269000D03*
X354280Y249800D03*
X334280Y259400D03*
X242900Y375200D03*
X242900Y356000D03*
X222900Y365600D03*
X242780Y159030D03*
X242780Y139830D03*
X222780Y149430D03*
D15*
X253850Y505300D03*
X212350Y505300D03*
D16*
X345900Y496500D03*
X422100Y486340D03*
X422100Y506660D03*
D17*
X139700Y372900D03*
X139700Y397900D03*
X139700Y422900D03*
X139700Y447900D03*
X139700Y472900D03*
X139700Y497900D03*
X114700Y372900D03*
X114700Y397900D03*
X114700Y422900D03*
X114700Y447900D03*
X114700Y472900D03*
X114700Y497900D03*
D18*
X42900Y372900D03*
D19*
X42900Y497900D03*
D20*
X139300Y25800D03*
X139300Y50800D03*
X139300Y75800D03*
X114300Y25800D03*
X114300Y50800D03*
X114300Y75800D03*
D21*
X42500Y75800D03*
X42500Y25800D03*
D17*
X501500Y243200D03*
X501500Y106200D03*
X460500Y25700D03*
X580500Y25700D03*
X580500Y305700D03*
X460500Y305700D03*
D22*
X384200Y230600D03*
X406200Y230600D03*
D23*
X138230Y128470D03*
D17*
X138230Y153470D03*
X113230Y153470D03*
X113230Y128470D03*
D24*
X41430Y153470D03*
X41430Y128470D03*
D25*
X447650Y364380D03*
D26*
X424800Y436170D03*
D25*
X401950Y364380D03*
X360050Y364280D03*
D26*
X337200Y436070D03*
D25*
X314350Y364280D03*
D27*
X307900Y127900D03*
X329900Y118400D03*
X329900Y137400D03*
X267000Y191800D03*
X289000Y182300D03*
X289000Y201300D03*
X307900Y191600D03*
X329900Y182100D03*
X329900Y201100D03*
X307700Y160300D03*
X329700Y150800D03*
X329700Y169800D03*
X265200Y160100D03*
X287200Y150600D03*
X287200Y169600D03*
D10*
X166500Y17700D03*
X183500Y17700D03*
D11*
X274300Y301600D03*
X274300Y284600D03*
X295100Y284600D03*
X295100Y301600D03*
X162700Y229600D03*
X162700Y212600D03*
X182900Y212600D03*
X182900Y229600D03*
X162100Y154900D03*
X162100Y137900D03*
X162600Y360100D03*
X162600Y377100D03*
X182700Y413200D03*
X182700Y396200D03*
X182900Y377000D03*
X182900Y360000D03*
X182400Y137900D03*
X182400Y154900D03*
X295100Y253400D03*
X295100Y270400D03*
D10*
X245200Y17600D03*
X262200Y17600D03*
D11*
X162400Y191200D03*
X162400Y174200D03*
X182700Y174100D03*
X182700Y191100D03*
X294700Y332000D03*
X294700Y315000D03*
X274400Y217600D03*
X274400Y234600D03*
X294600Y234600D03*
X294600Y217600D03*
D10*
X269400Y100500D03*
X286400Y100500D03*
X286400Y120900D03*
X269400Y120900D03*
D11*
X322000Y81700D03*
X322000Y98700D03*
D10*
X292200Y17600D03*
X275200Y17600D03*
D11*
X322200Y51400D03*
X322200Y68400D03*
X377200Y331800D03*
X377200Y314800D03*
X397400Y331800D03*
X397400Y314800D03*
X274600Y270400D03*
X274600Y253400D03*
D10*
X213700Y17700D03*
X196700Y17700D03*
D11*
X315200Y332000D03*
X315200Y315000D03*
X274300Y314900D03*
X274300Y331900D03*
X162600Y324000D03*
X162600Y341000D03*
X183100Y341000D03*
X183100Y324000D03*
X202900Y263100D03*
X202900Y246100D03*
X162400Y396200D03*
X162400Y413200D03*
X356900Y314700D03*
X356900Y331700D03*
D28*
X262900Y434300D03*
X262900Y450300D03*
X283000Y434300D03*
X283000Y450300D03*
D29*
X169362Y40150D03*
X169362Y52850D03*
X169362Y65550D03*
X169362Y78250D03*
X218638Y78250D03*
X218638Y65550D03*
X218638Y52850D03*
X218638Y40150D03*
X245362Y40050D03*
X245362Y52750D03*
X245362Y65450D03*
X245362Y78150D03*
X294638Y78150D03*
X294638Y65450D03*
X294638Y52750D03*
X294638Y40050D03*
D30*
X403100Y55400D03*
X403100Y78400D03*
X403100Y101400D03*
D31*
X471100Y78400D03*
D30*
X403100Y133000D03*
X403100Y156000D03*
X403100Y179000D03*
D31*
X471100Y156000D03*
D11*
X262800Y395100D03*
X262800Y412100D03*
X283100Y395100D03*
X283100Y412100D03*
D13*
X557400Y285085D03*
X557400Y319515D03*
D32*
X140000Y210000D03*
D33*
X140000Y235000D03*
X140000Y260000D03*
X140000Y285000D03*
X140000Y310000D03*
X115000Y210000D03*
X115000Y235000D03*
X115000Y260000D03*
X115000Y285000D03*
X115000Y310000D03*
D34*
X43200Y210000D03*
D35*
X43200Y310000D03*
D10*
X203200Y305100D03*
X203200Y288100D03*
D11*
X162600Y305100D03*
X162600Y288100D03*
X182900Y288100D03*
X182900Y305100D03*
D14*
X243000Y303200D03*
X243000Y284000D03*
X223000Y293600D03*
D10*
X203000Y432000D03*
X203000Y449000D03*
D11*
X162400Y432000D03*
X162400Y449000D03*
X182700Y449000D03*
X182700Y432000D03*
D14*
X242900Y447200D03*
X242900Y428000D03*
X222900Y437600D03*
D36*
X319015Y492400D03*
X284585Y492400D03*
D10*
X202800Y124500D03*
X202800Y107500D03*
D11*
X162100Y124500D03*
X162100Y107500D03*
X182400Y107600D03*
X182400Y124600D03*
D14*
X242700Y123100D03*
X242700Y103900D03*
X222700Y113500D03*
D37*
X72000Y94000D03*
X475100Y198700D03*
X475000Y230000D03*
X122900Y182300D03*
X426500Y238000D03*
X465300Y392500D03*
X430000Y295000D03*
X426700Y324800D03*
X155000Y46500D03*
X91400Y92300D03*
X138900Y188700D03*
X353900Y540100D03*
X537700Y393400D03*
X528200Y241700D03*
X225800Y21400D03*
X341600Y211100D03*
X302900Y206800D03*
X151700Y359500D03*
X70000Y460000D03*
X70000Y420000D03*
X70000Y385000D03*
X70000Y350000D03*
X70000Y305000D03*
X70000Y270000D03*
X70000Y235000D03*
X70000Y205000D03*
X70000Y145000D03*
X70000Y120000D03*
X70000Y70000D03*
X70000Y40000D03*
X264400Y367000D03*
X191000Y78500D03*
X260400Y70800D03*
X280000Y30000D03*
X350000Y25000D03*
X375000Y25000D03*
X375000Y50000D03*
X385000Y80000D03*
X375000Y105000D03*
X375000Y130000D03*
X495000Y30000D03*
X540000Y30000D03*
X575000Y200000D03*
X550000Y180000D03*
X469300Y252600D03*
X425000Y255000D03*
X480000Y320000D03*
X463300Y376600D03*
X546700Y439400D03*
X515000Y455000D03*
X327700Y361800D03*
X302500Y178900D03*
X239500Y222500D03*
X373500Y255300D03*
X299800Y415900D03*
X198900Y31700D03*
X156400Y26200D03*
X198300Y52200D03*
X260100Y312500D03*
X283100Y344900D03*
X311900Y343700D03*
X326100Y213400D03*
X241400Y329200D03*
X223700Y338500D03*
X104700Y169200D03*
X379600Y364200D03*
X305600Y92900D03*
X316400Y178900D03*
X390000Y468000D03*
X416000Y355000D03*
X388000Y431000D03*
X243000Y401000D03*
X207200Y277000D03*
X490000Y364000D03*
X550000Y363000D03*
X367000Y154000D03*
X310000Y506000D03*
X487400Y219800D03*
X239400Y184600D03*
X267000Y342000D03*
X244000Y113000D03*
X243000Y293000D03*
X325100Y235900D03*
X242000Y89000D03*
X168000Y264000D03*
X100296Y251996D03*
X193300Y272044D03*
X153700Y273100D03*
X226200Y247500D03*
X201800Y65538D03*
X174900Y27300D03*
X253000Y27700D03*
X264500Y56800D03*
X253900Y260600D03*
X370894Y231100D03*
X259800Y219800D03*
X257224Y332576D03*
X259200Y178896D03*
X348400Y147800D03*
X262900Y271200D03*
X224300Y279900D03*
X419196Y298308D03*
X419300Y307800D03*
X222824Y355812D03*
X225500Y417900D03*
X577000Y376000D03*
X329300Y40600D03*
X372800Y245300D03*
X501900Y204500D03*
X539100Y269500D03*
X264494Y323394D03*
X415800Y205300D03*
X357366Y394965D03*
X374000Y464000D03*
X168984Y244100D03*
X238000Y148574D03*
X366850Y304250D03*
X454600Y392700D03*
X338800Y366700D03*
X295800Y344000D03*
X357614Y146500D03*
X193600Y314400D03*
X263876Y292100D03*
X475000Y290076D03*
X371866Y345400D03*
X502300Y215400D03*
X215574Y343226D03*
X261000Y303000D03*
X283100Y422616D03*
X272377Y442077D03*
X262900Y423500D03*
X298700Y402100D03*
X273596Y403600D03*
X345994Y312700D03*
X213706Y244900D03*
X236300Y437200D03*
X342006Y156284D03*
X461476Y227400D03*
X192500Y146284D03*
X293100Y140100D03*
X263400Y211206D03*
X224024Y205076D03*
X564800Y397400D03*
X213600Y213500D03*
X284494Y226776D03*
X503000Y227000D03*
X530000Y254000D03*
X342552Y178952D03*
X273000Y74300D03*
X538400Y218300D03*
X538800Y331500D03*
X310100Y51300D03*
X309848Y82652D03*
X423800Y283000D03*
X504000Y486000D03*
X86676Y247000D03*
X207000Y487858D03*
X477000Y485000D03*
X219350Y230350D03*
X213306Y447000D03*
X150181Y325115D03*
X273600Y491100D03*
X294900Y502500D03*
X151724Y116076D03*
M02*
