G04 EAGLE Gerber RS-274X export*
G75*
%MOMM*%
%FSLAX34Y34*%
%LPD*%
%IN*%
%IPPOS*%
%AMOC8*
5,1,8,0,0,1.08239X$1,22.5*%
G01*
%ADD10C,0.254000*%


D10*
X0Y0D02*
X1600000Y0D01*
X1600000Y961900D01*
X0Y961900D01*
X0Y0D01*
X1586000Y37500D02*
X1585929Y36503D01*
X1585786Y35513D01*
X1585574Y34536D01*
X1585292Y33576D01*
X1584943Y32639D01*
X1584527Y31729D01*
X1584048Y30852D01*
X1583507Y30010D01*
X1582908Y29210D01*
X1582253Y28454D01*
X1581546Y27747D01*
X1580790Y27092D01*
X1579990Y26493D01*
X1579148Y25952D01*
X1578271Y25473D01*
X1577361Y25057D01*
X1576424Y24708D01*
X1575465Y24426D01*
X1574487Y24214D01*
X1573498Y24071D01*
X1572500Y24000D01*
X1571500Y24000D01*
X1570503Y24071D01*
X1569513Y24214D01*
X1568536Y24426D01*
X1567576Y24708D01*
X1566639Y25057D01*
X1565729Y25473D01*
X1564852Y25952D01*
X1564010Y26493D01*
X1563210Y27092D01*
X1562454Y27747D01*
X1561747Y28454D01*
X1561092Y29210D01*
X1560493Y30010D01*
X1559952Y30852D01*
X1559473Y31729D01*
X1559057Y32639D01*
X1558708Y33576D01*
X1558426Y34536D01*
X1558214Y35513D01*
X1558071Y36503D01*
X1558000Y37500D01*
X1558000Y38500D01*
X1558071Y39498D01*
X1558214Y40487D01*
X1558426Y41465D01*
X1558708Y42424D01*
X1559057Y43361D01*
X1559473Y44271D01*
X1559952Y45148D01*
X1560493Y45990D01*
X1561092Y46790D01*
X1561747Y47546D01*
X1562454Y48253D01*
X1563210Y48908D01*
X1564010Y49507D01*
X1564852Y50048D01*
X1565729Y50527D01*
X1566639Y50943D01*
X1567576Y51292D01*
X1568536Y51574D01*
X1569513Y51786D01*
X1570503Y51929D01*
X1571500Y52000D01*
X1572500Y52000D01*
X1573498Y51929D01*
X1574487Y51786D01*
X1575465Y51574D01*
X1576424Y51292D01*
X1577361Y50943D01*
X1578271Y50527D01*
X1579148Y50048D01*
X1579990Y49507D01*
X1580790Y48908D01*
X1581546Y48253D01*
X1582253Y47546D01*
X1582908Y46790D01*
X1583507Y45990D01*
X1584048Y45148D01*
X1584527Y44271D01*
X1584943Y43361D01*
X1585292Y42424D01*
X1585574Y41465D01*
X1585786Y40487D01*
X1585929Y39498D01*
X1586000Y38500D01*
X1586000Y37500D01*
X1586000Y927500D02*
X1585929Y926503D01*
X1585786Y925513D01*
X1585574Y924536D01*
X1585292Y923576D01*
X1584943Y922639D01*
X1584527Y921729D01*
X1584048Y920852D01*
X1583507Y920010D01*
X1582908Y919210D01*
X1582253Y918454D01*
X1581546Y917747D01*
X1580790Y917092D01*
X1579990Y916493D01*
X1579148Y915952D01*
X1578271Y915473D01*
X1577361Y915057D01*
X1576424Y914708D01*
X1575465Y914426D01*
X1574487Y914214D01*
X1573498Y914071D01*
X1572500Y914000D01*
X1571500Y914000D01*
X1570503Y914071D01*
X1569513Y914214D01*
X1568536Y914426D01*
X1567576Y914708D01*
X1566639Y915057D01*
X1565729Y915473D01*
X1564852Y915952D01*
X1564010Y916493D01*
X1563210Y917092D01*
X1562454Y917747D01*
X1561747Y918454D01*
X1561092Y919210D01*
X1560493Y920010D01*
X1559952Y920852D01*
X1559473Y921729D01*
X1559057Y922639D01*
X1558708Y923576D01*
X1558426Y924536D01*
X1558214Y925513D01*
X1558071Y926503D01*
X1558000Y927500D01*
X1558000Y928500D01*
X1558071Y929498D01*
X1558214Y930487D01*
X1558426Y931465D01*
X1558708Y932424D01*
X1559057Y933361D01*
X1559473Y934271D01*
X1559952Y935148D01*
X1560493Y935990D01*
X1561092Y936790D01*
X1561747Y937546D01*
X1562454Y938253D01*
X1563210Y938908D01*
X1564010Y939507D01*
X1564852Y940048D01*
X1565729Y940527D01*
X1566639Y940943D01*
X1567576Y941292D01*
X1568536Y941574D01*
X1569513Y941786D01*
X1570503Y941929D01*
X1571500Y942000D01*
X1572500Y942000D01*
X1573498Y941929D01*
X1574487Y941786D01*
X1575465Y941574D01*
X1576424Y941292D01*
X1577361Y940943D01*
X1578271Y940527D01*
X1579148Y940048D01*
X1579990Y939507D01*
X1580790Y938908D01*
X1581546Y938253D01*
X1582253Y937546D01*
X1582908Y936790D01*
X1583507Y935990D01*
X1584048Y935148D01*
X1584527Y934271D01*
X1584943Y933361D01*
X1585292Y932424D01*
X1585574Y931465D01*
X1585786Y930487D01*
X1585929Y929498D01*
X1586000Y928500D01*
X1586000Y927500D01*
X1356900Y75938D02*
X1356832Y75418D01*
X1356696Y74911D01*
X1356495Y74427D01*
X1356233Y73973D01*
X1355914Y73557D01*
X1355543Y73186D01*
X1355127Y72867D01*
X1354673Y72605D01*
X1354189Y72404D01*
X1353682Y72268D01*
X1353162Y72200D01*
X1352638Y72200D01*
X1352118Y72268D01*
X1351611Y72404D01*
X1351127Y72605D01*
X1350673Y72867D01*
X1350257Y73186D01*
X1349886Y73557D01*
X1349567Y73973D01*
X1349305Y74427D01*
X1349104Y74911D01*
X1348968Y75418D01*
X1348900Y75938D01*
X1348900Y76462D01*
X1348968Y76982D01*
X1349104Y77489D01*
X1349305Y77973D01*
X1349567Y78427D01*
X1349886Y78843D01*
X1350257Y79214D01*
X1350673Y79533D01*
X1351127Y79795D01*
X1351611Y79996D01*
X1352118Y80132D01*
X1352638Y80200D01*
X1353162Y80200D01*
X1353682Y80132D01*
X1354189Y79996D01*
X1354673Y79795D01*
X1355127Y79533D01*
X1355543Y79214D01*
X1355914Y78843D01*
X1356233Y78427D01*
X1356495Y77973D01*
X1356696Y77489D01*
X1356832Y76982D01*
X1356900Y76462D01*
X1356900Y75938D01*
X1422900Y75938D02*
X1422832Y75418D01*
X1422696Y74911D01*
X1422495Y74427D01*
X1422233Y73973D01*
X1421914Y73557D01*
X1421543Y73186D01*
X1421127Y72867D01*
X1420673Y72605D01*
X1420189Y72404D01*
X1419682Y72268D01*
X1419162Y72200D01*
X1418638Y72200D01*
X1418118Y72268D01*
X1417611Y72404D01*
X1417127Y72605D01*
X1416673Y72867D01*
X1416257Y73186D01*
X1415886Y73557D01*
X1415567Y73973D01*
X1415305Y74427D01*
X1415104Y74911D01*
X1414968Y75418D01*
X1414900Y75938D01*
X1414900Y76462D01*
X1414968Y76982D01*
X1415104Y77489D01*
X1415305Y77973D01*
X1415567Y78427D01*
X1415886Y78843D01*
X1416257Y79214D01*
X1416673Y79533D01*
X1417127Y79795D01*
X1417611Y79996D01*
X1418118Y80132D01*
X1418638Y80200D01*
X1419162Y80200D01*
X1419682Y80132D01*
X1420189Y79996D01*
X1420673Y79795D01*
X1421127Y79533D01*
X1421543Y79214D01*
X1421914Y78843D01*
X1422233Y78427D01*
X1422495Y77973D01*
X1422696Y77489D01*
X1422832Y76982D01*
X1422900Y76462D01*
X1422900Y75938D01*
X1341256Y920107D02*
X1341316Y920637D01*
X1341434Y921157D01*
X1341611Y921661D01*
X1341842Y922141D01*
X1342126Y922593D01*
X1342459Y923010D01*
X1342836Y923387D01*
X1343253Y923720D01*
X1343705Y924004D01*
X1344185Y924235D01*
X1344689Y924412D01*
X1345209Y924530D01*
X1345739Y924590D01*
X1346273Y924590D01*
X1346803Y924530D01*
X1347323Y924412D01*
X1347827Y924235D01*
X1348307Y924004D01*
X1348759Y923720D01*
X1349176Y923387D01*
X1349553Y923010D01*
X1349886Y922593D01*
X1350170Y922141D01*
X1350401Y921661D01*
X1350578Y921157D01*
X1350696Y920637D01*
X1350756Y920107D01*
X1350756Y919573D01*
X1350696Y919043D01*
X1350578Y918523D01*
X1350401Y918019D01*
X1350170Y917539D01*
X1349886Y917087D01*
X1349553Y916670D01*
X1349176Y916293D01*
X1348759Y915960D01*
X1348307Y915676D01*
X1347827Y915445D01*
X1347323Y915268D01*
X1346803Y915150D01*
X1346273Y915090D01*
X1345739Y915090D01*
X1345209Y915150D01*
X1344689Y915268D01*
X1344185Y915445D01*
X1343705Y915676D01*
X1343253Y915960D01*
X1342836Y916293D01*
X1342459Y916670D01*
X1342126Y917087D01*
X1341842Y917539D01*
X1341611Y918019D01*
X1341434Y918523D01*
X1341316Y919043D01*
X1341256Y919573D01*
X1341256Y920107D01*
X1273256Y920107D02*
X1273316Y920637D01*
X1273434Y921157D01*
X1273611Y921661D01*
X1273842Y922141D01*
X1274126Y922593D01*
X1274459Y923010D01*
X1274836Y923387D01*
X1275253Y923720D01*
X1275705Y924004D01*
X1276185Y924235D01*
X1276689Y924412D01*
X1277209Y924530D01*
X1277739Y924590D01*
X1278273Y924590D01*
X1278803Y924530D01*
X1279323Y924412D01*
X1279827Y924235D01*
X1280307Y924004D01*
X1280759Y923720D01*
X1281176Y923387D01*
X1281553Y923010D01*
X1281886Y922593D01*
X1282170Y922141D01*
X1282401Y921661D01*
X1282578Y921157D01*
X1282696Y920637D01*
X1282756Y920107D01*
X1282756Y919573D01*
X1282696Y919043D01*
X1282578Y918523D01*
X1282401Y918019D01*
X1282170Y917539D01*
X1281886Y917087D01*
X1281553Y916670D01*
X1281176Y916293D01*
X1280759Y915960D01*
X1280307Y915676D01*
X1279827Y915445D01*
X1279323Y915268D01*
X1278803Y915150D01*
X1278273Y915090D01*
X1277739Y915090D01*
X1277209Y915150D01*
X1276689Y915268D01*
X1276185Y915445D01*
X1275705Y915676D01*
X1275253Y915960D01*
X1274836Y916293D01*
X1274459Y916670D01*
X1274126Y917087D01*
X1273842Y917539D01*
X1273611Y918019D01*
X1273434Y918523D01*
X1273316Y919043D01*
X1273256Y919573D01*
X1273256Y920107D01*
X499750Y56318D02*
X499680Y55256D01*
X499542Y54202D01*
X499334Y53158D01*
X499059Y52130D01*
X498717Y51123D01*
X498309Y50140D01*
X497839Y49186D01*
X497307Y48264D01*
X496716Y47380D01*
X496068Y46536D01*
X495367Y45736D01*
X494614Y44983D01*
X493814Y44282D01*
X492970Y43634D01*
X492086Y43043D01*
X491164Y42511D01*
X490210Y42041D01*
X489227Y41633D01*
X488220Y41291D01*
X487192Y41016D01*
X486148Y40808D01*
X485094Y40670D01*
X484032Y40600D01*
X482968Y40600D01*
X481906Y40670D01*
X480852Y40808D01*
X479808Y41016D01*
X478780Y41291D01*
X477773Y41633D01*
X476790Y42041D01*
X475836Y42511D01*
X474914Y43043D01*
X474030Y43634D01*
X473186Y44282D01*
X472386Y44983D01*
X471633Y45736D01*
X470932Y46536D01*
X470284Y47380D01*
X469693Y48264D01*
X469161Y49186D01*
X468691Y50140D01*
X468283Y51123D01*
X467941Y52130D01*
X467666Y53158D01*
X467458Y54202D01*
X467320Y55256D01*
X467250Y56318D01*
X467250Y57382D01*
X467320Y58444D01*
X467458Y59498D01*
X467666Y60542D01*
X467941Y61570D01*
X468283Y62577D01*
X468691Y63560D01*
X469161Y64514D01*
X469693Y65436D01*
X470284Y66320D01*
X470932Y67164D01*
X471633Y67964D01*
X472386Y68717D01*
X473186Y69418D01*
X474030Y70066D01*
X474914Y70657D01*
X475836Y71189D01*
X476790Y71659D01*
X477773Y72067D01*
X478780Y72409D01*
X479808Y72684D01*
X480852Y72892D01*
X481906Y73030D01*
X482968Y73100D01*
X484032Y73100D01*
X485094Y73030D01*
X486148Y72892D01*
X487192Y72684D01*
X488220Y72409D01*
X489227Y72067D01*
X490210Y71659D01*
X491164Y71189D01*
X492086Y70657D01*
X492970Y70066D01*
X493814Y69418D01*
X494614Y68717D01*
X495367Y67964D01*
X496068Y67164D01*
X496716Y66320D01*
X497307Y65436D01*
X497839Y64514D01*
X498309Y63560D01*
X498717Y62577D01*
X499059Y61570D01*
X499334Y60542D01*
X499542Y59498D01*
X499680Y58444D01*
X499750Y57382D01*
X499750Y56318D01*
X626750Y56318D02*
X626680Y55256D01*
X626542Y54202D01*
X626334Y53158D01*
X626059Y52130D01*
X625717Y51123D01*
X625309Y50140D01*
X624839Y49186D01*
X624307Y48264D01*
X623716Y47380D01*
X623068Y46536D01*
X622367Y45736D01*
X621614Y44983D01*
X620814Y44282D01*
X619970Y43634D01*
X619086Y43043D01*
X618164Y42511D01*
X617210Y42041D01*
X616227Y41633D01*
X615220Y41291D01*
X614192Y41016D01*
X613148Y40808D01*
X612094Y40670D01*
X611032Y40600D01*
X609968Y40600D01*
X608906Y40670D01*
X607852Y40808D01*
X606808Y41016D01*
X605780Y41291D01*
X604773Y41633D01*
X603790Y42041D01*
X602836Y42511D01*
X601914Y43043D01*
X601030Y43634D01*
X600186Y44282D01*
X599386Y44983D01*
X598633Y45736D01*
X597932Y46536D01*
X597284Y47380D01*
X596693Y48264D01*
X596161Y49186D01*
X595691Y50140D01*
X595283Y51123D01*
X594941Y52130D01*
X594666Y53158D01*
X594458Y54202D01*
X594320Y55256D01*
X594250Y56318D01*
X594250Y57382D01*
X594320Y58444D01*
X594458Y59498D01*
X594666Y60542D01*
X594941Y61570D01*
X595283Y62577D01*
X595691Y63560D01*
X596161Y64514D01*
X596693Y65436D01*
X597284Y66320D01*
X597932Y67164D01*
X598633Y67964D01*
X599386Y68717D01*
X600186Y69418D01*
X601030Y70066D01*
X601914Y70657D01*
X602836Y71189D01*
X603790Y71659D01*
X604773Y72067D01*
X605780Y72409D01*
X606808Y72684D01*
X607852Y72892D01*
X608906Y73030D01*
X609968Y73100D01*
X611032Y73100D01*
X612094Y73030D01*
X613148Y72892D01*
X614192Y72684D01*
X615220Y72409D01*
X616227Y72067D01*
X617210Y71659D01*
X618164Y71189D01*
X619086Y70657D01*
X619970Y70066D01*
X620814Y69418D01*
X621614Y68717D01*
X622367Y67964D01*
X623068Y67164D01*
X623716Y66320D01*
X624307Y65436D01*
X624839Y64514D01*
X625309Y63560D01*
X625717Y62577D01*
X626059Y61570D01*
X626334Y60542D01*
X626542Y59498D01*
X626680Y58444D01*
X626750Y57382D01*
X626750Y56318D01*
M02*
