G04 EAGLE Gerber RS-274X export*
G75*
%MOMM*%
%FSLAX34Y34*%
%LPD*%
%INSolderpaste Top*%
%IPPOS*%
%AMOC8*
5,1,8,0,0,1.08239X$1,22.5*%
G01*
%ADD10R,0.700000X0.600000*%
%ADD11R,0.600000X0.700000*%
%ADD12R,0.180000X1.355000*%
%ADD13R,1.355000X0.180000*%
%ADD14R,1.295000X0.270000*%
%ADD15R,1.010000X0.360000*%
%ADD16R,0.270000X1.295000*%
%ADD17R,0.360000X1.010000*%
%ADD18R,0.180000X1.130000*%
%ADD19R,0.620000X0.570000*%
%ADD20R,0.570000X0.620000*%
%ADD21R,0.480000X0.480000*%
%ADD22R,0.381000X1.016000*%
%ADD23R,1.396000X1.296000*%
%ADD24R,1.380000X2.180000*%
%ADD25R,2.180000X1.380000*%
%ADD26R,1.560000X0.960000*%
%ADD27R,1.320000X0.720000*%
%ADD28R,0.372000X1.152000*%
%ADD29R,0.660000X1.960000*%
%ADD30R,1.268000X0.390000*%
%ADD31R,0.270000X1.220000*%
%ADD32R,1.411600X1.107600*%


D10*
X842600Y310700D03*
X825600Y310700D03*
D11*
X976700Y184500D03*
X976700Y201500D03*
X895100Y201500D03*
X895100Y184500D03*
D10*
X1195600Y83800D03*
X1178600Y83800D03*
D11*
X166900Y286100D03*
X166900Y303100D03*
X166900Y413100D03*
X166900Y430100D03*
X166900Y540100D03*
X166900Y557100D03*
X167100Y666900D03*
X167100Y683900D03*
D10*
X1444500Y219800D03*
X1461500Y219800D03*
X1444500Y241900D03*
X1461500Y241900D03*
X1019500Y167000D03*
X1002500Y167000D03*
X1067500Y167000D03*
X1084500Y167000D03*
D12*
X1010400Y236820D03*
X1015400Y236820D03*
X1020400Y236820D03*
X1025400Y236820D03*
X1030400Y236820D03*
X1035400Y236820D03*
X1040400Y236820D03*
X1045400Y236820D03*
X1050400Y236820D03*
X1055400Y236820D03*
X1060400Y236820D03*
X1065400Y236820D03*
X1070400Y236820D03*
X1075400Y236820D03*
X1080400Y236820D03*
X1085400Y236820D03*
D13*
X1105280Y256700D03*
X1105280Y261700D03*
X1105280Y266700D03*
X1105280Y271700D03*
X1105280Y276700D03*
X1105280Y281700D03*
X1105280Y286700D03*
X1105280Y291700D03*
X1105280Y296700D03*
X1105280Y301700D03*
X1105280Y306700D03*
X1105280Y311700D03*
X1105280Y316700D03*
X1105280Y321700D03*
X1105280Y326700D03*
X1105280Y331700D03*
D12*
X1085400Y351580D03*
X1080400Y351580D03*
X1075400Y351580D03*
X1070400Y351580D03*
X1065400Y351580D03*
X1060400Y351580D03*
X1055400Y351580D03*
X1050400Y351580D03*
X1045400Y351580D03*
X1040400Y351580D03*
X1035400Y351580D03*
X1030400Y351580D03*
X1025400Y351580D03*
X1020400Y351580D03*
X1015400Y351580D03*
X1010400Y351580D03*
D13*
X990520Y331700D03*
X990520Y326700D03*
X990520Y321700D03*
X990520Y316700D03*
X990520Y311700D03*
X990520Y306700D03*
X990520Y301700D03*
X990520Y296700D03*
X990520Y291700D03*
X990520Y286700D03*
X990520Y281700D03*
X990520Y276700D03*
X990520Y271700D03*
X990520Y266700D03*
X990520Y261700D03*
X990520Y256700D03*
D14*
X864580Y270050D03*
X864580Y276550D03*
X864580Y283050D03*
X864580Y289550D03*
X805820Y289550D03*
X805820Y283050D03*
X805820Y276550D03*
X805820Y270050D03*
D15*
X1193600Y123700D03*
X1193600Y114200D03*
X1193600Y104700D03*
X1218600Y104700D03*
X1218600Y123700D03*
D16*
X184250Y494620D03*
X190750Y494620D03*
X197250Y494620D03*
X203750Y494620D03*
X210250Y494620D03*
X216750Y494620D03*
X223250Y494620D03*
X229750Y494620D03*
X229750Y553380D03*
X223250Y553380D03*
X216750Y553380D03*
X210250Y553380D03*
X203750Y553380D03*
X197250Y553380D03*
X190750Y553380D03*
X184250Y553380D03*
X184250Y367620D03*
X190750Y367620D03*
X197250Y367620D03*
X203750Y367620D03*
X210250Y367620D03*
X216750Y367620D03*
X223250Y367620D03*
X229750Y367620D03*
X229750Y426380D03*
X223250Y426380D03*
X216750Y426380D03*
X210250Y426380D03*
X203750Y426380D03*
X197250Y426380D03*
X190750Y426380D03*
X184250Y426380D03*
X184250Y240620D03*
X190750Y240620D03*
X197250Y240620D03*
X203750Y240620D03*
X210250Y240620D03*
X216750Y240620D03*
X223250Y240620D03*
X229750Y240620D03*
X229750Y299380D03*
X223250Y299380D03*
X216750Y299380D03*
X210250Y299380D03*
X203750Y299380D03*
X197250Y299380D03*
X190750Y299380D03*
X184250Y299380D03*
D17*
X1353900Y87550D03*
X1361900Y87550D03*
D18*
X1373400Y87550D03*
X1383400Y87550D03*
X1388400Y87550D03*
X1398400Y87550D03*
D17*
X1409900Y87550D03*
X1417900Y87550D03*
D18*
X1403400Y87550D03*
X1393400Y87550D03*
X1378400Y87550D03*
X1368400Y87550D03*
D19*
X1448000Y197000D03*
X1448000Y181000D03*
D20*
X1003000Y106000D03*
X1019000Y106000D03*
X1084000Y106000D03*
X1068000Y106000D03*
D10*
X899000Y287500D03*
X899000Y304500D03*
X920600Y287500D03*
X920600Y304500D03*
X920500Y263200D03*
X920500Y246200D03*
X899000Y263200D03*
X899000Y246200D03*
D11*
X1084500Y189000D03*
X1067500Y189000D03*
X1002500Y189000D03*
X1019500Y189000D03*
X1263600Y83800D03*
X1246600Y83800D03*
X1263500Y104800D03*
X1246500Y104800D03*
D16*
X184250Y621620D03*
X190750Y621620D03*
X197250Y621620D03*
X203750Y621620D03*
X210250Y621620D03*
X216750Y621620D03*
X223250Y621620D03*
X229750Y621620D03*
X229750Y680380D03*
X223250Y680380D03*
X216750Y680380D03*
X210250Y680380D03*
X203750Y680380D03*
X197250Y680380D03*
X190750Y680380D03*
X184250Y680380D03*
D21*
X1398000Y469500D03*
X1398000Y454500D03*
X1349000Y469500D03*
X1349000Y454500D03*
X1300000Y469500D03*
X1300000Y454500D03*
X1251000Y469500D03*
X1251000Y454500D03*
X1202000Y469500D03*
X1202000Y454500D03*
D10*
X1398000Y416500D03*
X1398000Y433500D03*
X1349000Y416500D03*
X1349000Y433500D03*
X1300000Y416500D03*
X1300000Y433500D03*
X1251000Y416500D03*
X1251000Y433500D03*
X1202000Y416500D03*
X1202000Y433500D03*
D22*
X1368110Y333030D03*
X1377610Y333030D03*
X1387110Y333030D03*
X1387110Y360030D03*
X1368110Y360030D03*
D23*
X1352500Y241000D03*
X1401500Y241000D03*
D24*
X1408400Y285000D03*
X1348329Y285000D03*
D25*
X1453000Y376400D03*
X1453000Y316329D03*
D26*
X996000Y137000D03*
X1026000Y137000D03*
X1091000Y137000D03*
X1061000Y137000D03*
D10*
X1444500Y265000D03*
X1461500Y265000D03*
D11*
X1413000Y362500D03*
X1413000Y345500D03*
X1493000Y362500D03*
X1493000Y345500D03*
D27*
X916000Y205000D03*
X916000Y181000D03*
X956000Y181000D03*
X956000Y205000D03*
D11*
X1334500Y138000D03*
X1351500Y138000D03*
X1420500Y138000D03*
X1403500Y138000D03*
D28*
X1286206Y805640D03*
X1297206Y805640D03*
X1308206Y805640D03*
X1319206Y805640D03*
X1330206Y805640D03*
X1341206Y805640D03*
X1352206Y805640D03*
X1363206Y805640D03*
X1374206Y805640D03*
D29*
X1388006Y915640D03*
X1388006Y825640D03*
X1226506Y825640D03*
X1226506Y915640D03*
D14*
X595620Y296750D03*
X595620Y290250D03*
X595620Y283750D03*
X595620Y277250D03*
X595620Y270750D03*
X595620Y264250D03*
X595620Y257750D03*
X595620Y251250D03*
X654380Y251250D03*
X654380Y257750D03*
X654380Y264250D03*
X654380Y270750D03*
X654380Y277250D03*
X654380Y283750D03*
X654380Y290250D03*
X654380Y296750D03*
X691620Y234750D03*
X691620Y228250D03*
X691620Y221750D03*
X691620Y215250D03*
X691620Y208750D03*
X691620Y202250D03*
X691620Y195750D03*
X691620Y189250D03*
X750380Y189250D03*
X750380Y195750D03*
X750380Y202250D03*
X750380Y208750D03*
X750380Y215250D03*
X750380Y221750D03*
X750380Y228250D03*
X750380Y234750D03*
D11*
X762000Y251500D03*
X762000Y268500D03*
D30*
X814890Y413050D03*
X814890Y400350D03*
X814890Y387650D03*
X814890Y374950D03*
X869110Y374950D03*
X869110Y387650D03*
X869110Y400350D03*
X869110Y413050D03*
D10*
X833500Y447000D03*
X850500Y447000D03*
D11*
X713500Y170000D03*
X730500Y170000D03*
X706500Y274000D03*
X723500Y274000D03*
X1383500Y761000D03*
X1400500Y761000D03*
X1345500Y761000D03*
X1362500Y761000D03*
D31*
X1496250Y661000D03*
X1502750Y661000D03*
X1509250Y661000D03*
X1515750Y661000D03*
X1515750Y705000D03*
X1509250Y705000D03*
X1502750Y705000D03*
X1496250Y705000D03*
D32*
X1506000Y683000D03*
D10*
X1501500Y635000D03*
X1518500Y635000D03*
X1500500Y738000D03*
X1517500Y738000D03*
X1095800Y901500D03*
X1095800Y918500D03*
X1070400Y901500D03*
X1070400Y918500D03*
X1045000Y918500D03*
X1045000Y901500D03*
D11*
X932500Y724000D03*
X949500Y724000D03*
X949500Y746000D03*
X932500Y746000D03*
X932500Y768000D03*
X949500Y768000D03*
X875500Y724000D03*
X892500Y724000D03*
X875500Y768000D03*
X892500Y768000D03*
X875500Y746000D03*
X892500Y746000D03*
D10*
X909600Y918500D03*
X909600Y901500D03*
X935000Y918500D03*
X935000Y901500D03*
X960400Y901500D03*
X960400Y918500D03*
X1164500Y100000D03*
X1147500Y100000D03*
D21*
X1250000Y324500D03*
X1250000Y309500D03*
X1271000Y324500D03*
X1271000Y309500D03*
D10*
X1250000Y258500D03*
X1250000Y275500D03*
X1271000Y258500D03*
X1271000Y275500D03*
D11*
X684500Y129000D03*
X667500Y129000D03*
X684500Y150000D03*
X667500Y150000D03*
D10*
X555000Y232500D03*
X555000Y215500D03*
X534000Y232500D03*
X534000Y215500D03*
D11*
X602500Y194000D03*
X585500Y194000D03*
X602500Y215000D03*
X585500Y215000D03*
X535500Y308000D03*
X518500Y308000D03*
X535500Y287000D03*
X518500Y287000D03*
M02*
