G04 EAGLE Gerber RS-274X export*
G75*
%MOMM*%
%FSLAX34Y34*%
%LPD*%
%IN*%
%IPPOS*%
%AMOC8*
5,1,8,0,0,1.08239X$1,22.5*%
G01*
%ADD10C,0.254000*%


D10*
X0Y-1800D02*
X600000Y-1000D01*
X600000Y562000D01*
X300000Y562000D01*
X300000Y560800D01*
X299971Y559426D01*
X299822Y558060D01*
X299554Y556712D01*
X299170Y555392D01*
X298672Y554111D01*
X298065Y552878D01*
X297352Y551703D01*
X296540Y550594D01*
X295634Y549561D01*
X294642Y548610D01*
X293571Y547749D01*
X292428Y546985D01*
X291223Y546324D01*
X289966Y545770D01*
X288664Y545327D01*
X287330Y545000D01*
X285971Y544790D01*
X284600Y544700D01*
X178300Y544700D01*
X176747Y544724D01*
X175201Y544884D01*
X173676Y545177D01*
X172182Y545602D01*
X170731Y546156D01*
X169333Y546835D01*
X168000Y547632D01*
X166741Y548543D01*
X165567Y549560D01*
X164486Y550675D01*
X163506Y551881D01*
X162635Y553167D01*
X161879Y554524D01*
X161244Y555942D01*
X160736Y557410D01*
X160357Y558917D01*
X160111Y560451D01*
X160000Y562000D01*
X0Y562000D01*
X0Y-1800D01*
X250350Y505529D02*
X250410Y505984D01*
X250529Y506427D01*
X250704Y506851D01*
X250934Y507249D01*
X251213Y507613D01*
X251537Y507937D01*
X251901Y508216D01*
X252299Y508446D01*
X252723Y508621D01*
X253166Y508740D01*
X253621Y508800D01*
X254079Y508800D01*
X254534Y508740D01*
X254977Y508621D01*
X255401Y508446D01*
X255799Y508216D01*
X256163Y507937D01*
X256487Y507613D01*
X256766Y507249D01*
X256996Y506851D01*
X257171Y506427D01*
X257290Y505984D01*
X257350Y505529D01*
X257350Y505071D01*
X257290Y504616D01*
X257171Y504173D01*
X256996Y503749D01*
X256766Y503351D01*
X256487Y502987D01*
X256163Y502663D01*
X255799Y502384D01*
X255401Y502154D01*
X254977Y501979D01*
X254534Y501860D01*
X254079Y501800D01*
X253621Y501800D01*
X253166Y501860D01*
X252723Y501979D01*
X252299Y502154D01*
X251901Y502384D01*
X251537Y502663D01*
X251213Y502987D01*
X250934Y503351D01*
X250704Y503749D01*
X250529Y504173D01*
X250410Y504616D01*
X250350Y505071D01*
X250350Y505529D01*
X208850Y505529D02*
X208910Y505984D01*
X209029Y506427D01*
X209204Y506851D01*
X209434Y507249D01*
X209713Y507613D01*
X210037Y507937D01*
X210401Y508216D01*
X210799Y508446D01*
X211223Y508621D01*
X211666Y508740D01*
X212121Y508800D01*
X212579Y508800D01*
X213034Y508740D01*
X213477Y508621D01*
X213901Y508446D01*
X214299Y508216D01*
X214663Y507937D01*
X214987Y507613D01*
X215266Y507249D01*
X215496Y506851D01*
X215671Y506427D01*
X215790Y505984D01*
X215850Y505529D01*
X215850Y505071D01*
X215790Y504616D01*
X215671Y504173D01*
X215496Y503749D01*
X215266Y503351D01*
X214987Y502987D01*
X214663Y502663D01*
X214299Y502384D01*
X213901Y502154D01*
X213477Y501979D01*
X213034Y501860D01*
X212579Y501800D01*
X212121Y501800D01*
X211666Y501860D01*
X211223Y501979D01*
X210799Y502154D01*
X210401Y502384D01*
X210037Y502663D01*
X209713Y502987D01*
X209434Y503351D01*
X209204Y503749D01*
X209029Y504173D01*
X208910Y504616D01*
X208850Y505071D01*
X208850Y505529D01*
X350900Y496219D02*
X350837Y495661D01*
X350712Y495114D01*
X350527Y494584D01*
X350283Y494078D01*
X349984Y493602D01*
X349634Y493163D01*
X349237Y492766D01*
X348798Y492416D01*
X348322Y492117D01*
X347816Y491873D01*
X347286Y491688D01*
X346739Y491563D01*
X346181Y491500D01*
X345619Y491500D01*
X345061Y491563D01*
X344514Y491688D01*
X343984Y491873D01*
X343478Y492117D01*
X343002Y492416D01*
X342563Y492766D01*
X342166Y493163D01*
X341816Y493602D01*
X341517Y494078D01*
X341273Y494584D01*
X341088Y495114D01*
X340963Y495661D01*
X340900Y496219D01*
X340900Y496781D01*
X340963Y497339D01*
X341088Y497886D01*
X341273Y498416D01*
X341517Y498922D01*
X341816Y499398D01*
X342166Y499837D01*
X342563Y500234D01*
X343002Y500584D01*
X343478Y500883D01*
X343984Y501127D01*
X344514Y501312D01*
X345061Y501437D01*
X345619Y501500D01*
X346181Y501500D01*
X346739Y501437D01*
X347286Y501312D01*
X347816Y501127D01*
X348322Y500883D01*
X348798Y500584D01*
X349237Y500234D01*
X349634Y499837D01*
X349984Y499398D01*
X350283Y498922D01*
X350527Y498416D01*
X350712Y497886D01*
X350837Y497339D01*
X350900Y496781D01*
X350900Y496219D01*
X427100Y486059D02*
X427037Y485501D01*
X426912Y484954D01*
X426727Y484424D01*
X426483Y483918D01*
X426184Y483442D01*
X425834Y483003D01*
X425437Y482606D01*
X424998Y482256D01*
X424522Y481957D01*
X424016Y481713D01*
X423486Y481528D01*
X422939Y481403D01*
X422381Y481340D01*
X421819Y481340D01*
X421261Y481403D01*
X420714Y481528D01*
X420184Y481713D01*
X419678Y481957D01*
X419202Y482256D01*
X418763Y482606D01*
X418366Y483003D01*
X418016Y483442D01*
X417717Y483918D01*
X417473Y484424D01*
X417288Y484954D01*
X417163Y485501D01*
X417100Y486059D01*
X417100Y486621D01*
X417163Y487179D01*
X417288Y487726D01*
X417473Y488256D01*
X417717Y488762D01*
X418016Y489238D01*
X418366Y489677D01*
X418763Y490074D01*
X419202Y490424D01*
X419678Y490723D01*
X420184Y490967D01*
X420714Y491152D01*
X421261Y491277D01*
X421819Y491340D01*
X422381Y491340D01*
X422939Y491277D01*
X423486Y491152D01*
X424016Y490967D01*
X424522Y490723D01*
X424998Y490424D01*
X425437Y490074D01*
X425834Y489677D01*
X426184Y489238D01*
X426483Y488762D01*
X426727Y488256D01*
X426912Y487726D01*
X427037Y487179D01*
X427100Y486621D01*
X427100Y486059D01*
X427100Y506379D02*
X427037Y505821D01*
X426912Y505274D01*
X426727Y504744D01*
X426483Y504238D01*
X426184Y503762D01*
X425834Y503323D01*
X425437Y502926D01*
X424998Y502576D01*
X424522Y502277D01*
X424016Y502033D01*
X423486Y501848D01*
X422939Y501723D01*
X422381Y501660D01*
X421819Y501660D01*
X421261Y501723D01*
X420714Y501848D01*
X420184Y502033D01*
X419678Y502277D01*
X419202Y502576D01*
X418763Y502926D01*
X418366Y503323D01*
X418016Y503762D01*
X417717Y504238D01*
X417473Y504744D01*
X417288Y505274D01*
X417163Y505821D01*
X417100Y506379D01*
X417100Y506941D01*
X417163Y507499D01*
X417288Y508046D01*
X417473Y508576D01*
X417717Y509082D01*
X418016Y509558D01*
X418366Y509997D01*
X418763Y510394D01*
X419202Y510744D01*
X419678Y511043D01*
X420184Y511287D01*
X420714Y511472D01*
X421261Y511597D01*
X421819Y511660D01*
X422381Y511660D01*
X422939Y511597D01*
X423486Y511472D01*
X424016Y511287D01*
X424522Y511043D01*
X424998Y510744D01*
X425437Y510394D01*
X425834Y509997D01*
X426184Y509558D01*
X426483Y509082D01*
X426727Y508576D01*
X426912Y508046D01*
X427037Y507499D01*
X427100Y506941D01*
X427100Y506379D01*
X42518Y364150D02*
X41757Y364217D01*
X41004Y364349D01*
X40266Y364547D01*
X39548Y364808D01*
X38856Y365131D01*
X38194Y365513D01*
X37568Y365952D01*
X36983Y366443D01*
X36443Y366983D01*
X35952Y367568D01*
X35513Y368194D01*
X35131Y368856D01*
X34808Y369548D01*
X34547Y370266D01*
X34349Y371004D01*
X34217Y371757D01*
X34150Y372518D01*
X34150Y373282D01*
X34217Y374043D01*
X34349Y374796D01*
X34547Y375534D01*
X34808Y376252D01*
X35131Y376944D01*
X35513Y377606D01*
X35952Y378232D01*
X36443Y378817D01*
X36983Y379357D01*
X37568Y379848D01*
X38194Y380287D01*
X38856Y380669D01*
X39548Y380992D01*
X40266Y381253D01*
X41004Y381451D01*
X41757Y381583D01*
X42518Y381650D01*
X43282Y381650D01*
X44043Y381583D01*
X44796Y381451D01*
X45534Y381253D01*
X46252Y380992D01*
X46944Y380669D01*
X47606Y380287D01*
X48232Y379848D01*
X48817Y379357D01*
X49357Y378817D01*
X49848Y378232D01*
X50287Y377606D01*
X50669Y376944D01*
X50992Y376252D01*
X51253Y375534D01*
X51451Y374796D01*
X51583Y374043D01*
X51650Y373282D01*
X51650Y372518D01*
X51583Y371757D01*
X51451Y371004D01*
X51253Y370266D01*
X50992Y369548D01*
X50669Y368856D01*
X50287Y368194D01*
X49848Y367568D01*
X49357Y366983D01*
X48817Y366443D01*
X48232Y365952D01*
X47606Y365513D01*
X46944Y365131D01*
X46252Y364808D01*
X45534Y364547D01*
X44796Y364349D01*
X44043Y364217D01*
X43282Y364150D01*
X42518Y364150D01*
X42507Y489900D02*
X41725Y489977D01*
X40954Y490130D01*
X40202Y490359D01*
X39475Y490659D01*
X38782Y491030D01*
X38129Y491467D01*
X37521Y491965D01*
X36965Y492521D01*
X36467Y493129D01*
X36030Y493782D01*
X35659Y494475D01*
X35359Y495202D01*
X35130Y495954D01*
X34977Y496725D01*
X34900Y497507D01*
X34900Y498293D01*
X34977Y499075D01*
X35130Y499846D01*
X35359Y500598D01*
X35659Y501325D01*
X36030Y502018D01*
X36467Y502671D01*
X36965Y503279D01*
X37521Y503835D01*
X38129Y504333D01*
X38782Y504770D01*
X39475Y505141D01*
X40202Y505441D01*
X40954Y505670D01*
X41725Y505823D01*
X42507Y505900D01*
X43293Y505900D01*
X44075Y505823D01*
X44846Y505670D01*
X45598Y505441D01*
X46325Y505141D01*
X47018Y504770D01*
X47671Y504333D01*
X48279Y503835D01*
X48835Y503279D01*
X49333Y502671D01*
X49770Y502018D01*
X50141Y501325D01*
X50441Y500598D01*
X50670Y499846D01*
X50823Y499075D01*
X50900Y498293D01*
X50900Y497507D01*
X50823Y496725D01*
X50670Y495954D01*
X50441Y495202D01*
X50141Y494475D01*
X49770Y493782D01*
X49333Y493129D01*
X48835Y492521D01*
X48279Y491965D01*
X47671Y491467D01*
X47018Y491030D01*
X46325Y490659D01*
X45598Y490359D01*
X44846Y490130D01*
X44075Y489977D01*
X43293Y489900D01*
X42507Y489900D01*
X41059Y144970D02*
X40319Y145035D01*
X39589Y145164D01*
X38872Y145356D01*
X38174Y145610D01*
X37501Y145923D01*
X36859Y146294D01*
X36251Y146720D01*
X35682Y147197D01*
X35157Y147722D01*
X34680Y148291D01*
X34254Y148899D01*
X33883Y149541D01*
X33570Y150214D01*
X33316Y150912D01*
X33124Y151629D01*
X32995Y152359D01*
X32930Y153099D01*
X32930Y153841D01*
X32995Y154581D01*
X33124Y155312D01*
X33316Y156028D01*
X33570Y156726D01*
X33883Y157399D01*
X34254Y158041D01*
X34680Y158649D01*
X35157Y159218D01*
X35682Y159743D01*
X36251Y160220D01*
X36859Y160646D01*
X37501Y161017D01*
X38174Y161330D01*
X38872Y161584D01*
X39589Y161776D01*
X40319Y161905D01*
X41059Y161970D01*
X41801Y161970D01*
X42541Y161905D01*
X43272Y161776D01*
X43988Y161584D01*
X44686Y161330D01*
X45359Y161017D01*
X46001Y160646D01*
X46609Y160220D01*
X47178Y159743D01*
X47703Y159218D01*
X48180Y158649D01*
X48606Y158041D01*
X48977Y157399D01*
X49290Y156726D01*
X49544Y156028D01*
X49736Y155312D01*
X49865Y154581D01*
X49930Y153841D01*
X49930Y153099D01*
X49865Y152359D01*
X49736Y151629D01*
X49544Y150912D01*
X49290Y150214D01*
X48977Y149541D01*
X48606Y148899D01*
X48180Y148291D01*
X47703Y147722D01*
X47178Y147197D01*
X46609Y146720D01*
X46001Y146294D01*
X45359Y145923D01*
X44686Y145610D01*
X43988Y145356D01*
X43272Y145164D01*
X42541Y145035D01*
X41801Y144970D01*
X41059Y144970D01*
X41059Y119970D02*
X40319Y120035D01*
X39589Y120164D01*
X38872Y120356D01*
X38174Y120610D01*
X37501Y120923D01*
X36859Y121294D01*
X36251Y121720D01*
X35682Y122197D01*
X35157Y122722D01*
X34680Y123291D01*
X34254Y123899D01*
X33883Y124541D01*
X33570Y125214D01*
X33316Y125912D01*
X33124Y126629D01*
X32995Y127359D01*
X32930Y128099D01*
X32930Y128841D01*
X32995Y129581D01*
X33124Y130312D01*
X33316Y131028D01*
X33570Y131726D01*
X33883Y132399D01*
X34254Y133041D01*
X34680Y133649D01*
X35157Y134218D01*
X35682Y134743D01*
X36251Y135220D01*
X36859Y135646D01*
X37501Y136017D01*
X38174Y136330D01*
X38872Y136584D01*
X39589Y136776D01*
X40319Y136905D01*
X41059Y136970D01*
X41801Y136970D01*
X42541Y136905D01*
X43272Y136776D01*
X43988Y136584D01*
X44686Y136330D01*
X45359Y136017D01*
X46001Y135646D01*
X46609Y135220D01*
X47178Y134743D01*
X47703Y134218D01*
X48180Y133649D01*
X48606Y133041D01*
X48977Y132399D01*
X49290Y131726D01*
X49544Y131028D01*
X49736Y130312D01*
X49865Y129581D01*
X49930Y128841D01*
X49930Y128099D01*
X49865Y127359D01*
X49736Y126629D01*
X49544Y125912D01*
X49290Y125214D01*
X48977Y124541D01*
X48606Y123899D01*
X48180Y123291D01*
X47703Y122722D01*
X47178Y122197D01*
X46609Y121720D01*
X46001Y121294D01*
X45359Y120923D01*
X44686Y120610D01*
X43988Y120356D01*
X43272Y120164D01*
X42541Y120035D01*
X41801Y119970D01*
X41059Y119970D01*
X42713Y197605D02*
X41742Y197682D01*
X40780Y197834D01*
X39833Y198062D01*
X38907Y198363D01*
X38007Y198735D01*
X37139Y199177D01*
X36309Y199686D01*
X35521Y200259D01*
X34780Y200891D01*
X34091Y201580D01*
X33459Y202321D01*
X32886Y203109D01*
X32377Y203939D01*
X31935Y204807D01*
X31563Y205707D01*
X31262Y206633D01*
X31034Y207580D01*
X30882Y208542D01*
X30805Y209513D01*
X30805Y210487D01*
X30882Y211458D01*
X31034Y212420D01*
X31262Y213367D01*
X31563Y214293D01*
X31935Y215193D01*
X32377Y216061D01*
X32886Y216891D01*
X33459Y217679D01*
X34091Y218420D01*
X34780Y219109D01*
X35521Y219741D01*
X36309Y220314D01*
X37139Y220823D01*
X38007Y221265D01*
X38907Y221637D01*
X39833Y221938D01*
X40780Y222166D01*
X41742Y222318D01*
X42713Y222395D01*
X43687Y222395D01*
X44658Y222318D01*
X45620Y222166D01*
X46567Y221938D01*
X47493Y221637D01*
X48393Y221265D01*
X49261Y220823D01*
X50091Y220314D01*
X50879Y219741D01*
X51620Y219109D01*
X52309Y218420D01*
X52941Y217679D01*
X53514Y216891D01*
X54023Y216061D01*
X54465Y215193D01*
X54837Y214293D01*
X55138Y213367D01*
X55366Y212420D01*
X55518Y211458D01*
X55595Y210487D01*
X55595Y209513D01*
X55518Y208542D01*
X55366Y207580D01*
X55138Y206633D01*
X54837Y205707D01*
X54465Y204807D01*
X54023Y203939D01*
X53514Y203109D01*
X52941Y202321D01*
X52309Y201580D01*
X51620Y200891D01*
X50879Y200259D01*
X50091Y199686D01*
X49261Y199177D01*
X48393Y198735D01*
X47493Y198363D01*
X46567Y198062D01*
X45620Y197834D01*
X44658Y197682D01*
X43687Y197605D01*
X42713Y197605D01*
X42795Y301750D02*
X41988Y301829D01*
X41193Y301988D01*
X40417Y302223D01*
X39668Y302533D01*
X38954Y302915D01*
X38280Y303366D01*
X37653Y303880D01*
X37080Y304453D01*
X36566Y305080D01*
X36115Y305754D01*
X35733Y306468D01*
X35423Y307217D01*
X35188Y307993D01*
X35029Y308788D01*
X34950Y309595D01*
X34950Y310405D01*
X35029Y311212D01*
X35188Y312007D01*
X35423Y312783D01*
X35733Y313532D01*
X36115Y314246D01*
X36566Y314920D01*
X37080Y315547D01*
X37653Y316120D01*
X38280Y316634D01*
X38954Y317085D01*
X39668Y317467D01*
X40417Y317777D01*
X41193Y318012D01*
X41988Y318171D01*
X42795Y318250D01*
X43605Y318250D01*
X44412Y318171D01*
X45207Y318012D01*
X45983Y317777D01*
X46732Y317467D01*
X47446Y317085D01*
X48120Y316634D01*
X48747Y316120D01*
X49320Y315547D01*
X49834Y314920D01*
X50285Y314246D01*
X50667Y313532D01*
X50977Y312783D01*
X51212Y312007D01*
X51371Y311212D01*
X51450Y310405D01*
X51450Y309595D01*
X51371Y308788D01*
X51212Y307993D01*
X50977Y307217D01*
X50667Y306468D01*
X50285Y305754D01*
X49834Y305080D01*
X49320Y304453D01*
X48747Y303880D01*
X48120Y303366D01*
X47446Y302915D01*
X46732Y302533D01*
X45983Y302223D01*
X45207Y301988D01*
X44412Y301829D01*
X43605Y301750D01*
X42795Y301750D01*
M02*
