G04 EAGLE Gerber RS-274X export*
G75*
%MOMM*%
%FSLAX34Y34*%
%LPD*%
%INSoldermask Top*%
%IPPOS*%
%AMOC8*
5,1,8,0,0,1.08239X$1,22.5*%
G01*
%ADD10R,1.203200X1.303200*%
%ADD11R,1.303200X1.203200*%
%ADD12R,1.803200X2.603200*%
%ADD13R,2.203200X2.203200*%
%ADD14R,0.603200X1.553200*%
%ADD15R,2.003200X2.103200*%
%ADD16R,2.103200X2.103200*%
%ADD17C,0.903200*%
%ADD18C,0.990600*%
%ADD19C,1.203200*%
%ADD20C,2.003200*%
%ADD21C,1.953200*%
%ADD22C,1.803200*%
%ADD23C,2.103200*%
%ADD24C,2.828200*%
%ADD25R,1.473200X0.838200*%
%ADD26R,1.203200X3.363200*%
%ADD27R,1.403200X1.203200*%
%ADD28R,2.003200X2.003200*%
%ADD29C,1.903200*%
%ADD30R,1.403200X0.503200*%
%ADD31R,0.503200X1.403200*%
%ADD32R,1.854200X1.727200*%
%ADD33R,2.603200X2.303200*%
%ADD34R,2.078200X2.078200*%
%ADD35C,2.078200*%
%ADD36C,2.682109*%
%ADD37C,1.853200*%
%ADD38C,0.959600*%


D10*
X213100Y400600D03*
X213100Y417600D03*
D11*
X335000Y447800D03*
X318000Y447800D03*
X348500Y448000D03*
X365500Y448000D03*
D12*
X192000Y411300D03*
X162000Y411300D03*
D13*
X219000Y128820D03*
X219000Y88820D03*
D14*
X233100Y503050D03*
X226600Y503050D03*
X239600Y503050D03*
X246100Y503050D03*
X220100Y503050D03*
D15*
X193100Y529800D03*
D16*
X221100Y529800D03*
X245100Y529800D03*
D15*
X273100Y529800D03*
D17*
X253850Y505300D03*
X212350Y505300D03*
D18*
X358600Y502850D03*
X371300Y502850D03*
X384000Y502850D03*
X384000Y490150D03*
X371300Y490150D03*
X358600Y490150D03*
X396700Y502850D03*
X409400Y502850D03*
X396700Y490150D03*
X409400Y490150D03*
X358600Y502850D03*
X358600Y502850D03*
D19*
X345900Y496500D03*
X422100Y486340D03*
X422100Y506660D03*
D20*
X139700Y372900D03*
X139700Y397900D03*
X139700Y422900D03*
X139700Y447900D03*
X139700Y472900D03*
X139700Y497900D03*
X114700Y372900D03*
X114700Y397900D03*
X114700Y422900D03*
X114700Y447900D03*
X114700Y472900D03*
X114700Y497900D03*
D21*
X42900Y372900D03*
D22*
X42900Y497900D03*
D23*
X139300Y25800D03*
X139300Y50800D03*
X139300Y75800D03*
X114300Y25800D03*
X114300Y50800D03*
X114300Y75800D03*
D24*
X42500Y75800D03*
X42500Y25800D03*
D25*
X181000Y46464D03*
X181000Y38336D03*
X256900Y46564D03*
X256900Y38436D03*
D26*
X580100Y426300D03*
X529300Y426300D03*
X503900Y426300D03*
X478500Y426300D03*
X478500Y353900D03*
X503900Y353900D03*
X529300Y353900D03*
X580100Y353900D03*
D20*
X501500Y243200D03*
X501500Y106200D03*
X460500Y25700D03*
X580500Y25700D03*
X580500Y305700D03*
X460500Y305700D03*
D27*
X186400Y388400D03*
X164400Y388400D03*
D10*
X294700Y84700D03*
X294700Y101700D03*
X295000Y50900D03*
X295000Y67900D03*
D28*
X138230Y128470D03*
D20*
X138230Y153470D03*
X113230Y153470D03*
X113230Y128470D03*
D29*
X41430Y153470D03*
X41430Y128470D03*
D30*
X396290Y188090D03*
X396290Y193090D03*
X396290Y198090D03*
X396290Y203090D03*
X396290Y208090D03*
X396290Y213090D03*
X396290Y218090D03*
X396290Y223090D03*
X396290Y228090D03*
X396290Y233090D03*
X396290Y238090D03*
X396290Y243090D03*
X396290Y248090D03*
X396290Y253090D03*
X396290Y258090D03*
X396290Y263090D03*
X396290Y268090D03*
X396290Y273090D03*
X396290Y278090D03*
X396290Y283090D03*
X396290Y288090D03*
X396290Y293090D03*
X396290Y298090D03*
X396290Y303090D03*
X396290Y308090D03*
X396290Y313090D03*
X396290Y318090D03*
X396290Y323090D03*
X396290Y328090D03*
X396290Y333090D03*
X396290Y338090D03*
X396290Y343090D03*
X396290Y348090D03*
X396290Y353090D03*
X396290Y358090D03*
X396290Y363090D03*
D31*
X375790Y383590D03*
X370790Y383590D03*
X365790Y383590D03*
X360790Y383590D03*
X355790Y383590D03*
X350790Y383590D03*
X345790Y383590D03*
X340790Y383590D03*
X335790Y383590D03*
X330790Y383590D03*
X325790Y383590D03*
X320790Y383590D03*
X315790Y383590D03*
X310790Y383590D03*
X305790Y383590D03*
X300790Y383590D03*
X295790Y383590D03*
X290790Y383590D03*
X285790Y383590D03*
X280790Y383590D03*
X275790Y383590D03*
X270790Y383590D03*
X265790Y383590D03*
X260790Y383590D03*
X255790Y383590D03*
X250790Y383590D03*
X245790Y383590D03*
X240790Y383590D03*
X235790Y383590D03*
X230790Y383590D03*
X225790Y383590D03*
X220790Y383590D03*
X215790Y383590D03*
X210790Y383590D03*
X205790Y383590D03*
X200790Y383590D03*
D30*
X180290Y363090D03*
X180290Y358090D03*
X180290Y353090D03*
X180290Y348090D03*
X180290Y343090D03*
X180290Y338090D03*
X180290Y333090D03*
X180290Y328090D03*
X180290Y323090D03*
X180290Y318090D03*
X180290Y313090D03*
X180290Y308090D03*
X180290Y303090D03*
X180290Y298090D03*
X180290Y293090D03*
X180290Y288090D03*
X180290Y283090D03*
X180290Y278090D03*
X180290Y273090D03*
X180290Y268090D03*
X180290Y263090D03*
X180290Y258090D03*
X180290Y253090D03*
X180290Y248090D03*
X180290Y243090D03*
X180290Y238090D03*
X180290Y233090D03*
X180290Y228090D03*
X180290Y223090D03*
X180290Y218090D03*
X180290Y213090D03*
X180290Y208090D03*
X180290Y203090D03*
X180290Y198090D03*
X180290Y193090D03*
X180290Y188090D03*
D31*
X200790Y167590D03*
X205790Y167590D03*
X210790Y167590D03*
X215790Y167590D03*
X220790Y167590D03*
X225790Y167590D03*
X230790Y167590D03*
X235790Y167590D03*
X240790Y167590D03*
X245790Y167590D03*
X250790Y167590D03*
X255790Y167590D03*
X260790Y167590D03*
X265790Y167590D03*
X270790Y167590D03*
X275790Y167590D03*
X280790Y167590D03*
X285790Y167590D03*
X290790Y167590D03*
X295790Y167590D03*
X300790Y167590D03*
X305790Y167590D03*
X310790Y167590D03*
X315790Y167590D03*
X320790Y167590D03*
X325790Y167590D03*
X330790Y167590D03*
X335790Y167590D03*
X340790Y167590D03*
X345790Y167590D03*
X350790Y167590D03*
X355790Y167590D03*
X360790Y167590D03*
X365790Y167590D03*
X370790Y167590D03*
X375790Y167590D03*
D32*
X306100Y128000D03*
X306100Y26400D03*
X419130Y26400D03*
X419130Y51800D03*
X419130Y77200D03*
X419130Y102600D03*
X419130Y128000D03*
D33*
X313170Y525330D03*
X313170Y483330D03*
D26*
X579700Y533700D03*
X528900Y533700D03*
X503500Y533700D03*
X478100Y533700D03*
X478100Y461300D03*
X503500Y461300D03*
X528900Y461300D03*
X579700Y461300D03*
D34*
X140000Y210000D03*
D35*
X140000Y235000D03*
X140000Y260000D03*
X140000Y285000D03*
X140000Y310000D03*
X115000Y210000D03*
X115000Y235000D03*
X115000Y260000D03*
X115000Y285000D03*
X115000Y310000D03*
D36*
X43200Y210000D03*
D37*
X43200Y310000D03*
D38*
X72000Y94000D03*
X475100Y198700D03*
X475000Y230000D03*
X122900Y182300D03*
X426500Y238000D03*
X465300Y392500D03*
X430000Y295000D03*
X426700Y324800D03*
X155000Y46500D03*
X91400Y92300D03*
X138900Y188700D03*
X353900Y540100D03*
X537700Y393400D03*
X528200Y241700D03*
X225800Y21400D03*
X341600Y211100D03*
X302900Y206800D03*
X151700Y359500D03*
X70000Y460000D03*
X70000Y420000D03*
X70000Y385000D03*
X70000Y350000D03*
X70000Y305000D03*
X70000Y270000D03*
X70000Y235000D03*
X70000Y205000D03*
X70000Y145000D03*
X70000Y120000D03*
X70000Y70000D03*
X70000Y40000D03*
X264400Y367000D03*
X191000Y78500D03*
X260400Y70800D03*
X280000Y30000D03*
X350000Y25000D03*
X375000Y25000D03*
X375000Y50000D03*
X385000Y80000D03*
X375000Y105000D03*
X375000Y130000D03*
X495000Y30000D03*
X540000Y30000D03*
X575000Y200000D03*
X550000Y180000D03*
X469300Y252600D03*
X425000Y255000D03*
X480000Y320000D03*
X463300Y376600D03*
X546700Y439400D03*
X515000Y455000D03*
X327700Y361800D03*
X302500Y178900D03*
X239500Y222500D03*
X373500Y255300D03*
X299800Y415900D03*
X198900Y31700D03*
X156400Y26200D03*
X198300Y52200D03*
X260100Y312500D03*
X283100Y344900D03*
X311900Y343700D03*
X326100Y213400D03*
X241400Y329200D03*
X223700Y338500D03*
X104700Y169200D03*
X379600Y364200D03*
X305600Y92900D03*
X316400Y178900D03*
X390000Y468000D03*
X416000Y355000D03*
X388000Y431000D03*
X243000Y401000D03*
X207200Y277000D03*
X490000Y364000D03*
X550000Y363000D03*
X367000Y154000D03*
X310000Y506000D03*
X487400Y219800D03*
X239400Y184600D03*
X267000Y342000D03*
X244000Y113000D03*
X243000Y293000D03*
X325100Y235900D03*
X242000Y89000D03*
X168000Y264000D03*
X100296Y251996D03*
X193300Y272044D03*
X153700Y273100D03*
X226200Y247500D03*
X201800Y65538D03*
X174900Y27300D03*
X253000Y27700D03*
X264500Y56800D03*
X253900Y260600D03*
X370894Y231100D03*
X259800Y219800D03*
X257224Y332576D03*
X259200Y178896D03*
X348400Y147800D03*
X262900Y271200D03*
X224300Y279900D03*
X419196Y298308D03*
X419300Y307800D03*
X222824Y355812D03*
X225500Y417900D03*
X577000Y376000D03*
X329300Y40600D03*
X372800Y245300D03*
X501900Y204500D03*
X539100Y269500D03*
X264494Y323394D03*
X415800Y205300D03*
X357366Y394965D03*
X374000Y464000D03*
X168984Y244100D03*
X238000Y148574D03*
X366850Y304250D03*
X454600Y392700D03*
X338800Y366700D03*
X295800Y344000D03*
X357614Y146500D03*
X193600Y314400D03*
X263876Y292100D03*
X475000Y290076D03*
X371866Y345400D03*
X502300Y215400D03*
X215574Y343226D03*
X261000Y303000D03*
X283100Y422616D03*
X272377Y442077D03*
X262900Y423500D03*
X298700Y402100D03*
X273596Y403600D03*
X345994Y312700D03*
X213706Y244900D03*
X236300Y437200D03*
X342006Y156284D03*
X461476Y227400D03*
X192500Y146284D03*
X293100Y140100D03*
X263400Y211206D03*
X224024Y205076D03*
X564800Y397400D03*
X213600Y213500D03*
X284494Y226776D03*
X503000Y227000D03*
X530000Y254000D03*
X342552Y178952D03*
X273000Y74300D03*
X538400Y218300D03*
X538800Y331500D03*
X310100Y51300D03*
X309848Y82652D03*
X423800Y283000D03*
X504000Y486000D03*
X86676Y247000D03*
X207000Y487858D03*
X477000Y485000D03*
X219350Y230350D03*
X213306Y447000D03*
X150181Y325115D03*
X273600Y491100D03*
X294900Y502500D03*
X151724Y116076D03*
M02*
